<svg width="160.35" height="83.854"><path fill="#EEC1B5" d="M50.506 54.11c-.217.895-1.684 1.84-3.175 1.477l-1.8-.438c-1.493-.363-2.27-1.854-2.052-2.752l9.098-37.39c.218-.896 1.47-1.363 2.964-1l1.803.44c1.49.36 4.593 3.348 4.376 4.246L50.505 54.11zM18.844 52.685c-.743-.057-2.085-.82-1.97-2.353l.14-1.85c.116-1.53 2.29-1.302 3.032-1.246l29.716-.045c.744.057.886 2.293.77 3.825l-.14 1.85c-.117 1.53-.82 2.83-1.564 2.772l-29.984-2.952z"/><g fill="#EEC1B5"><path d="M13.068 53.86c3.062.57 8.632-.73 9.214-3.844.58-3.113-4.274-6.875-7.337-7.448-3.064-.572-4.646 1.38-5.228 4.493-.58 3.115.285 6.228 3.35 6.8zM10.806 49.057c.474.087 1.034-.81 1.164-1.505.13-.695-.11-1.07-.582-1.157l-10.236-2.03c-.47-.088-.984.264-1.113.96-.13.694.068 1.734.54 1.823l10.226 1.91zM11.572 46.19c.452.16 1.15-.637 1.39-1.302.238-.668.06-1.076-.394-1.236l-9.782-3.63c-.45-.16-1.015.106-1.253.77-.238.668-.207 1.726.243 1.888l9.796 3.51zM11.723 51.672c.482.015.896-.546.924-1.264.03-.72-.335-1.302-.82-1.315l-10.463-.29c-.482-.016-.895.542-.925 1.262-.03.72.336 1.3.817 1.316l10.466.292zM13.866 54.083c.48-.02.842-.6.81-1.307-.032-.707-.444-1.252-.925-1.23l-10.393.473c-.48.02-.842.6-.81 1.308.032.706.446 1.25.924 1.23l10.396-.475zM16.978 46.737c.306.244.966-.075 1.41-.63.44-.552.606-1.267.3-1.51L12.05 39.29c-.306-.246-.967.072-1.408.625-.442.553-.607 1.27-.303 1.512l6.638 5.307z"/></g><path fill="#EEC1B5" d="M113.705 55.314c.217.897 1.684 1.842 3.174 1.478l1.8-.438c1.493-.362 2.27-1.853 2.053-2.75l-9.098-37.39c-.22-.897-1.472-1.364-2.965-1l-1.8.437c-1.493.364-4.595 3.35-4.378 4.25l11.213 35.414zM139.34 72.46c.608.43 2.13.693 3.015-.562l1.07-1.515c.885-1.256-.938-2.462-1.546-2.892l-22.89-18.95c-.61-.43-2.143 1.206-3.03 2.46l-1.067 1.518c-.885 1.253-1.167 2.703-.558 3.132l25.005 16.81z"/><g fill="#EEC1B5"><path d="M143.046 77.043c-2.728-1.51-6.194-6.057-4.66-8.83 1.533-2.77 7.672-2.58 10.4-1.072 2.727 1.51 2.704 4.02 1.17 6.792-1.533 2.77-4.183 4.62-6.91 3.11zM147.847 74.777c-.42-.233-.28-1.28.06-1.9.343-.62.768-.755 1.188-.523l9.185 4.95c.42.232.592.83.25 1.447-.344.62-1.158 1.297-1.577 1.064l-9.106-5.037zM149.082 72.08c-.45-.165-.48-1.223-.242-1.888.24-.668.64-.87 1.09-.704l9.853 3.428c.45.163.717.728.478 1.393-.24.664-.94 1.46-1.39 1.297l-9.788-3.527zM145.476 76.21c-.382-.295-.345-.99.09-1.56.438-.576 1.09-.792 1.472-.494l8.255 6.436c.382.297.344.99-.09 1.563-.438.573-1.088.787-1.47.494l-8.257-6.44zM142.29 76.706c-.358-.322-.27-.998.205-1.522.476-.524 1.14-.683 1.496-.358l7.717 6.98c.357.318.267.997-.21 1.52-.472.526-1.137.682-1.493.36l-7.715-6.98zM144.565 69.06c-.392-.006-.698-.673-.688-1.38.012-.708.338-1.364.73-1.358l8.495.134c.393.005.7.67.688 1.378-.012.708-.34 1.366-.73 1.36l-8.495-.133z"/></g><path fill="#A94817" d="M104.695 71.067c0 .668.643.905-.065.905H58.365c-.71 0 .097-.237.097-.905 0 0 7.648-17.125 7.714-24.365.087-9.717-9.312-42.247-9.312-42.247 0-.667.573-1.13 1.284-1.13L83.824.1l21.187 3.168c.71 0 1.285.38 1.285 1.046 0 0-8.73 33.052-8.727 42.532 0 7.37 7.127 24.22 7.127 24.22zM105.01 3.27c8.015.482 12.537 19.674 12.537 19.674S100.8 27.07 100.693 27.16l-2.058-2.617M58.125 3.27c-8.015.48-12.538 19.673-12.538 19.673s16.746 4.125 16.853 4.217l2.06-2.618"/><ellipse fill="#EEC1B5" cx="81.274" cy="4.511" rx="16.292" ry="4.511"/></svg>