<svg width="160.35" height="83.854"><path fill="#9D6E63" d="M50.79 53.693c-.215.896-1.677 1.836-3.164 1.472l-1.795-.436c-1.488-.363-2.263-1.847-2.046-2.743l9.072-37.28c.218-.895 1.467-1.36 2.956-.998l1.796.437c1.488.362 4.58 3.34 4.364 4.233l-11.18 35.313zM19.222 52.274c-.74-.057-2.08-.82-1.962-2.347l.137-1.842c.117-1.53 2.283-1.3 3.024-1.245l29.63-.044c.742.056.883 2.286.768 3.812l-.142 1.846c-.114 1.526-.816 2.82-1.558 2.763l-29.896-2.943z"/><g fill="#9D6E63"><path d="M13.463 53.446c3.053.568 8.607-.73 9.187-3.833.58-3.104-4.26-6.856-7.317-7.427-3.054-.57-4.63 1.376-5.21 4.48-.58 3.104.284 6.21 3.34 6.78zM11.208 48.656c.472.086 1.03-.806 1.16-1.5.13-.693-.11-1.067-.58-1.154L1.583 43.98c-.47-.09-.98.262-1.11.955-.13.693.068 1.73.537 1.817l10.198 1.904zM11.97 45.797c.452.16 1.148-.633 1.386-1.297.237-.666.06-1.075-.392-1.233L3.21 39.65c-.45-.162-1.01.105-1.25.767-.236.664-.205 1.72.244 1.88l9.767 3.5zM12.12 51.263c.483.014.895-.543.923-1.26.03-.72-.334-1.3-.817-1.314l-10.433-.287c-.48-.016-.892.54-.923 1.258-.027.72.337 1.296.817 1.313l10.434.29zM14.257 53.668c.48-.02.84-.598.808-1.303-.033-.705-.444-1.25-.922-1.227L3.78 51.61c-.476.02-.838.598-.805 1.305.03.705.443 1.244.92 1.225l10.362-.472zM17.36 46.342c.307.246.965-.076 1.406-.627.44-.55.605-1.264.3-1.507l-6.618-5.29c-.304-.244-.964.073-1.404.624-.44.553-.606 1.266-.302 1.507l6.62 5.292z"/></g><path fill="#9D6E63" d="M113.804 54.897c.216.894 1.678 1.836 3.164 1.472l1.796-.438c1.49-.364 2.264-1.846 2.046-2.744l-9.07-37.28c-.22-.894-1.47-1.36-2.957-.997l-1.796.44c-1.487.36-4.58 3.338-4.363 4.234l11.18 35.313zM139.364 71.992c.607.426 2.122.69 3.006-.563l1.066-1.51c.883-1.25-.934-2.454-1.54-2.882l-22.823-18.895c-.605-.428-2.134 1.2-3.02 2.45l-1.063 1.513c-.883 1.252-1.164 2.695-.557 3.125l24.93 16.762z"/><g fill="#9D6E63"><path d="M143.06 76.56c-2.72-1.504-6.177-6.038-4.646-8.803 1.53-2.763 7.65-2.574 10.37-1.07 2.718 1.504 2.696 4.01 1.168 6.772-1.53 2.76-4.174 4.605-6.892 3.1zM147.846 74.3c-.42-.23-.28-1.276.06-1.894.342-.62.765-.753 1.183-.522l9.16 4.937c.417.23.588.827.248 1.444-.343.62-1.156 1.29-1.572 1.06l-9.08-5.023zM149.077 71.61c-.45-.164-.48-1.22-.242-1.88.24-.667.637-.868 1.087-.702l9.826 3.42c.448.16.713.72.475 1.385-.24.662-.937 1.457-1.385 1.293l-9.76-3.516zM145.482 75.73c-.382-.293-.344-.988.09-1.557.436-.572 1.085-.79 1.467-.49l8.228 6.416c.38.295.343.984-.09 1.56-.436.57-1.083.782-1.465.492l-8.23-6.42zM142.303 76.224c-.355-.32-.266-.995.208-1.517.475-.524 1.136-.68 1.492-.358l7.694 6.958c.355.32.265.995-.21 1.52-.47.523-1.133.677-1.49.36l-7.693-6.964zM144.573 68.6c-.39-.006-.695-.67-.684-1.377.01-.705.335-1.36.725-1.354l8.472.133c.39.004.697.67.686 1.373-.012.707-.338 1.363-.727 1.355l-8.473-.13z"/></g><path fill="#A94817" d="M104.82 70.604c0 .664-.57 2.103-1.278 2.103h-43.54c-.706 0-1.28-1.44-1.28-2.103 0 0 7.627-17.076 7.693-24.296.086-9.688-9.287-42.122-9.287-42.122 0-.664.573-1.127 1.28-1.127L84.01-.158l21.125 3.16c.707 0 1.28.377 1.28 1.04 0 0-8.703 32.957-8.7 42.41 0 7.348 7.106 24.15 7.106 24.15zM105.135 3.002c7.992.48 12.5 19.617 12.5 19.617s-16.697 4.114-16.804 4.205l-2.05-2.61M58.388 3.002c-7.993.48-12.502 19.617-12.502 19.617s16.698 4.114 16.804 4.205l2.052-2.61"/><ellipse fill="#9D6E63" cx="81.469" cy="4.24" rx="16.245" ry="4.499"/></svg>