<?xml version="1.0" encoding="utf-8"?>
<svg version="1.1" id="Layer_1" xmlns:x="&ns_extend;" xmlns:i="&ns_ai;" xmlns:graph="&ns_graphs;"
	 xmlns="http://www.w3.org/2000/svg" xmlns:xlink="http://www.w3.org/1999/xlink" x="0px" y="0px" width="286.293px"
	 height="147.066px" viewBox="0 0 286.293 147.066" enable-background="new 0 0 286.293 147.066" xml:space="preserve">
<metadata>
	<sfw  xmlns="&ns_sfw;">
		<slices></slices>
		<sliceSourceBounds  x="8592" y="24274" height="-32766" width="-32766" bottomLeftOrigin="true"></sliceSourceBounds>
	</sfw>
</metadata>
<g>
	<g>
		<path fill="#EDC0B4" d="M197.335,102.832c0.309,1.285,6.369,0.407,8.504-0.114l2.579-0.626c2.141-0.52,4.345-4.452,4.032-5.739
			L200.39,43.106c-0.315-1.284-4.166-0.467-6.304,0.054l-2.58,0.628c-2.138,0.52-10.921,5.595-10.609,6.882L197.335,102.832z"/>
		<path fill="#EDC0B4" d="M234.969,127.399c0.874,0.613,6.09-1.243,7.36-3.042l1.531-2.169c1.269-1.801-1.341-3.527-2.214-4.145
			l-32.783-27.146c-0.873-0.616-3.07,1.726-4.339,3.523l-1.53,2.176c-1.267,1.796-6.533,5.62-5.66,6.234L234.969,127.399z"/>
		<path fill="#EDC0B4" d="M87.605,102.832c-0.31,1.285-6.374,0.407-8.508-0.114l-2.581-0.626c-2.14-0.52-4.344-4.452-4.033-5.739
			l12.065-53.246c0.312-1.284,4.167-0.467,6.305,0.054l2.58,0.628c2.138,0.52,10.921,5.595,10.608,6.882L87.605,102.832z"/>
		<path fill="#EDC0B4" d="M49.966,127.399c-0.875,0.613-6.091-1.243-7.36-3.042l-1.532-2.169c-1.268-1.801,1.339-3.527,2.212-4.145
			l32.787-27.146c0.872-0.616,3.067,1.726,4.337,3.523l1.528,2.176c1.269,1.796,6.539,5.62,5.667,6.234L49.966,127.399z"/>
		<path fill="#404041" d="M181.487,123.613c0,0.955-0.825,1.74-1.841,1.74h-71.182c-1.013,0,0.161,0.256-1.838-1.74l-5.743-101.709
			c0-0.954,0.823-1.542,1.839-1.542h80.941c1.017,0,1.839,0.588,1.839,1.542L181.487,123.613z"/>
		<path fill="#EDC0B4" d="M197.335,102.832c0.309,1.285,6.369,0.407,8.504-0.114l2.579-0.626c2.141-0.52,4.345-4.452,4.032-5.739
			L200.39,43.106c-0.315-1.284-4.166-0.467-6.304,0.054l-2.58,0.628c-2.138,0.52-9.381,7.167-9.069,8.453L197.335,102.832z"/>
		<path fill="#EDC0B4" d="M234.969,127.399c0.874,0.613,6.09-1.243,7.36-3.042l1.531-2.169c1.269-1.801-1.341-3.527-2.214-4.145
			l-32.783-27.146c-0.873-0.616-3.07,1.726-4.339,3.523l-1.53,2.176c-1.267,1.796-6.533,5.62-5.66,6.234L234.969,127.399z"/>
		<path fill="#EDC0B4" d="M87.605,102.832c-0.31,1.285-6.374,0.407-8.508-0.114l-2.581-0.626c-2.14-0.52-4.344-4.452-4.033-5.739
			l12.065-53.246c0.312-1.284,4.167-0.467,6.305,0.054l2.58,0.628c2.138,0.52,10.921,5.595,10.608,6.882L87.605,102.832z"/>
		<path fill="#EDC0B4" d="M49.966,127.399c-0.875,0.613-6.091-1.243-7.36-3.042l-1.532-2.169c-1.268-1.801,1.339-3.527,2.212-4.145
			l32.787-27.146c0.872-0.616,3.067,1.726,4.337,3.523l1.528,2.176c1.269,1.796,6.539,5.62,5.667,6.234L49.966,127.399z"/>
		<path fill="#EDC0B4" stroke="#EDC0B4" stroke-width="0.7087" stroke-miterlimit="10" d="M44.255,132.103
			c3.968-2.195,9.012-8.813,6.78-12.846c-2.229-4.032-11.164-3.757-15.134-1.562c-3.967,2.191-3.933,5.847-1.702,9.883
			C36.43,131.609,40.287,134.304,44.255,132.103z"/>
		<path fill="#EDC0B4" stroke="#EDC0B4" stroke-width="0.7087" stroke-miterlimit="10" d="M35.544,130.536
			c0.608-0.341,0.408-1.865-0.092-2.768l0,0c-0.495-0.901-1.114-1.099-1.725-0.759l-13.367,7.202
			c-0.609,0.338-0.861,1.206-0.362,2.109l0,0c0.498,0.898,1.684,1.883,2.294,1.545L35.544,130.536z"/>
		<path fill="#EDC0B4" stroke="#EDC0B4" stroke-width="0.7087" stroke-miterlimit="10" d="M35.473,124.881
			c0.655-0.24,0.699-1.777,0.351-2.744l0,0c-0.348-0.973-0.931-1.269-1.585-1.027L19.9,126.102
			c-0.659,0.233-1.041,1.058-0.696,2.024l0,0c0.352,0.967,1.37,2.124,2.023,1.89L35.473,124.881z"/>
		<path fill="#EDC0B4" stroke="#EDC0B4" stroke-width="0.7087" stroke-miterlimit="10" d="M40.718,132.621
			c0.557-0.431,0.502-1.441-0.131-2.273l0,0c-0.635-0.838-1.583-1.15-2.141-0.716l-12.014,9.364
			c-0.554,0.433-0.498,1.438,0.133,2.275l0,0c0.637,0.836,1.582,1.145,2.138,0.72L40.718,132.621z"/>
		<path fill="#EDC0B4" d="M46.938,130.987c0.41-0.507,0.147-1.42-0.594-2.056l0,0c-0.741-0.633-1.658-0.729-2.063-0.219
			l-8.817,11.016c-0.409,0.505-0.146,1.423,0.598,2.055l0,0c0.74,0.633,1.659,0.727,2.063,0.224L46.938,130.987z"/>
		<path fill="#EDC0B4" stroke="#EDC0B4" stroke-width="0.7087" stroke-miterlimit="10" d="M37.869,121.002
			c0.564,0.052,1.109-0.867,1.203-1.896l0,0c0.092-1.026-0.28-2.026-0.847-2.077l-12.318-1.106
			c-0.565-0.051-1.112,0.864-1.204,1.893l0,0c-0.091,1.024,0.281,2.028,0.845,2.075L37.869,121.002z"/>
		<path fill="#EDC0B4" stroke="#EDC0B4" stroke-width="0.7087" stroke-miterlimit="10" d="M242.152,135.841
			c-3.967-2.196-9.013-8.816-6.779-12.851c2.23-4.029,11.165-3.756,15.135-1.559c3.966,2.192,3.935,5.847,1.703,9.882
			C249.977,135.345,246.122,138.041,242.152,135.841z"/>
		<path fill="#EDC0B4" stroke="#EDC0B4" stroke-width="0.7087" stroke-miterlimit="10" d="M250.863,134.269
			c-0.608-0.338-0.407-1.862,0.092-2.764l0,0c0.497-0.903,1.115-1.1,1.726-0.76l13.367,7.201c0.608,0.338,0.861,1.207,0.36,2.107
			l0,0c-0.496,0.901-1.683,1.884-2.294,1.547L250.863,134.269z"/>
		<path fill="#EDC0B4" stroke="#EDC0B4" stroke-width="0.7087" stroke-miterlimit="10" d="M250.935,128.617
			c-0.655-0.239-0.698-1.776-0.353-2.746l0,0c0.35-0.971,0.932-1.265,1.587-1.024l14.338,4.991c0.66,0.234,1.042,1.059,0.697,2.024
			l0,0c-0.353,0.968-1.37,2.124-2.023,1.888L250.935,128.617z"/>
		<path fill="#EDC0B4" stroke="#EDC0B4" stroke-width="0.7087" stroke-miterlimit="10" d="M245.69,136.358
			c-0.557-0.434-0.5-1.442,0.132-2.276l0,0c0.634-0.835,1.583-1.148,2.142-0.716l12.012,9.365c0.555,0.432,0.498,1.438-0.132,2.273
			l0,0c-0.637,0.838-1.584,1.147-2.139,0.722L245.69,136.358z"/>
		<path fill="#EDC0B4" d="M239.471,134.723c-0.41-0.509-0.149-1.42,0.593-2.058l0,0c0.741-0.633,1.658-0.729,2.063-0.217
			l8.817,11.013c0.408,0.505,0.144,1.426-0.598,2.057l0,0c-0.74,0.635-1.659,0.727-2.063,0.225L239.471,134.723z"/>
		<path fill="#EDC0B4" stroke="#EDC0B4" stroke-width="0.7087" stroke-miterlimit="10" d="M248.54,124.737
			c-0.564,0.051-1.109-0.866-1.203-1.896l0,0c-0.093-1.023,0.281-2.023,0.848-2.075l12.316-1.107
			c0.565-0.052,1.112,0.866,1.205,1.893l0,0c0.091,1.026-0.281,2.028-0.844,2.074L248.54,124.737z"/>
		<path fill="#404041" d="M104.912,55.154c-0.152-0.132-28.181-1.808-28.181-1.808s1.628-33.72,26.161-32.636"/>
		<path fill="#404041" d="M180.887,58.727c0.155-0.133,27.791-4.683,27.791-4.683s-1.189-34.21-25.015-33.203"/>
	</g>
	<polyline fill="#404041" points="103.979,53.069 90.332,104.087 53.939,129.43 44.841,112.862 70.511,92.711 76.359,51.769 	"/>
	<polyline fill="#404041" points="181.168,55.344 194.817,106.361 231.202,131.707 240.3,115.134 214.631,94.986 208.782,54.044
		"/>
	<polyline fill="#FFFFFF" points="60.788,127.592 53.845,130.165 42.238,112.415 47.973,109.996 	"/>
	<polyline fill="#FFFFFF" points="225.358,130.823 232.299,133.397 243.908,115.646 238.169,113.227 	"/>
	<path fill="#DBDCDD" d="M172.693,24.616c0,2.92-13.2,5.291-29.486,5.291c-16.285,0-29.03-1.654-29.03-4.576
		c0-2.92,12.746-6.004,29.03-6.004C159.493,19.327,172.693,21.696,172.693,24.616z"/>
	<polyline fill="#DBDCDD" points="114.617,26.274 143.791,83.229 173.398,25.771 	"/>
	<polyline fill="#808184" points="114.14,24.69 106.636,37.464 123.364,52.059 143.287,85.433 143.77,81.422 	"/>
	<polyline fill="#808184" points="172.826,24.031 178.924,38.815 164.165,52.548 143.287,85.433 143.194,80.76 	"/>
	<polyline fill="#231F20" points="142.385,40.686 137.073,53.069 143.194,80.76 148.961,53.51 145.112,41.558 	"/>
	<path fill="#231F20" d="M140.479,41.679l-2.312-5.468c0,0,4.731-3.05,5.046-3.05c0.317,0,5.155,2.103,5.155,2.103l-1.894,6.1"/>
</g>
</svg>
