<?xml version="1.0" encoding="utf-8"?>
<!-- Generator: Adobe Illustrator 15.0.0, SVG Export Plug-In . SVG Version: 6.00 Build 0)  -->
<svg version="1.1" id="Layer_1" xmlns:x="&ns_extend;" xmlns:i="&ns_ai;" xmlns:graph="&ns_graphs;"
	 xmlns="http://www.w3.org/2000/svg" xmlns:xlink="http://www.w3.org/1999/xlink" x="0px" y="0px" width="286.293px"
	 height="147.066px" viewBox="0 0 286.293 147.066" enable-background="new 0 0 286.293 147.066" xml:space="preserve">
<metadata>
	<sfw  xmlns="&ns_sfw;">
		<slices></slices>
		<sliceSourceBounds  x="332.493" y="-551.298" height="134.544" width="244.499" bottomLeftOrigin="true"></sliceSourceBounds>
	</sfw>
</metadata>
<g>
	<path fill="#EEC0B5" d="M97.909,98.3c-0.33,1.367-2.567,2.807-4.84,2.254l-2.747-0.668c-2.276-0.553-3.461-2.825-3.129-4.193
		l13.872-57.012c0.334-1.368,5.854-17.145,8.13-16.592l10.335,11.038c2.274,0.553-4.192,9.804-4.524,11.174L97.909,98.3z"/>
	<path fill="#EEC0B5" d="M49.63,96.127c-1.133-0.087-3.177-1.249-3.001-3.587l0.212-2.819c0.178-2.334,3.49-1.984,4.623-1.9
		l45.312-0.068c1.134,0.084,1.35,3.495,1.174,5.832l-0.216,2.818c-0.176,2.334-1.249,4.312-2.384,4.227L49.63,96.127z"/>
	<g>
		<path fill="#EEC0B5" d="M40.823,97.919c4.671,0.872,13.163-1.109,14.05-5.86c0.887-4.746-6.517-10.481-11.188-11.354
			s-7.083,2.102-7.969,6.849C34.831,92.3,36.15,97.05,40.823,97.919z"/>
		<path fill="#EEC0B5" d="M37.376,90.598c0.722,0.133,1.576-1.234,1.774-2.295l0,0c0.199-1.061-0.169-1.632-0.887-1.765
			l-15.608-3.095c-0.718-0.135-1.501,0.402-1.698,1.461l0,0c-0.198,1.061,0.106,2.646,0.824,2.781L37.376,90.598z"/>
		<path fill="#EEC0B5" d="M38.543,86.226c0.689,0.244,1.752-0.97,2.117-1.984l0,0c0.364-1.018,0.091-1.641-0.598-1.885
			l-14.917-5.533c-0.688-0.246-1.546,0.16-1.91,1.174l0,0c-0.363,1.017-0.314,2.63,0.372,2.876L38.543,86.226z"/>
		<path fill="#EEC0B5" d="M38.773,94.583c0.736,0.025,1.366-0.83,1.409-1.925l0,0c0.046-1.099-0.512-1.985-1.25-2.007l-15.955-0.445
			c-0.736-0.021-1.364,0.83-1.411,1.928l0,0c-0.043,1.099,0.514,1.982,1.248,2.007L38.773,94.583z"/>
		<path fill="#EEC0B5" d="M42.04,98.26c0.732-0.032,1.284-0.912,1.235-1.993l0,0c-0.05-1.076-0.679-1.906-1.411-1.871l-15.849,0.719
			c-0.729,0.029-1.282,0.916-1.231,1.992l0,0c0.046,1.078,0.678,1.907,1.407,1.875L42.04,98.26z"/>
		<path fill="#EEC0B5" d="M46.785,87.061c0.467,0.372,1.474-0.115,2.149-0.959l0,0c0.671-0.842,0.926-1.932,0.459-2.305
			l-10.122-8.087c-0.465-0.375-1.474,0.109-2.147,0.953l0,0c-0.673,0.844-0.926,1.936-0.461,2.305L46.785,87.061z"/>
	</g>
	<path fill="#EEC0B5" d="M194.271,100.138c0.33,1.367,2.567,2.808,4.84,2.255l2.747-0.668c2.276-0.554,3.462-2.825,3.131-4.194
		L191.115,40.52c-3.468-13.734-6.362-18.75-8.639-18.197l-2.746,0.67c-2.273,0.553-2.888,21.776-2.554,23.146L194.271,100.138z"/>
	<path fill="#EEC0B5" d="M233.362,126.281c0.926,0.653,3.245,1.059,4.596-0.854l1.63-2.309c1.35-1.917-1.426-3.756-2.355-4.409
		l-34.9-28.897c-0.93-0.656-3.267,1.838-4.617,3.752l-1.63,2.312c-1.351,1.91-1.781,4.121-0.851,4.775L233.362,126.281z"/>
	<g>
		<path fill="#EEC0B5" d="M239.013,133.268c-4.158-2.298-9.447-9.235-7.105-13.461c2.337-4.226,11.697-3.936,15.855-1.638
			c4.158,2.302,4.125,6.129,1.788,10.355C247.21,132.751,243.17,135.574,239.013,133.268z"/>
		<path fill="#EEC0B5" d="M246.331,129.814c-0.64-0.355-0.428-1.953,0.093-2.897l0,0c0.521-0.944,1.171-1.149,1.811-0.798
			l14.006,7.548c0.64,0.355,0.901,1.268,0.381,2.208l0,0c-0.524,0.944-1.767,1.975-2.405,1.623L246.331,129.814z"/>
		<path fill="#EEC0B5" d="M248.215,125.703c-0.689-0.252-0.735-1.863-0.37-2.879l0,0c0.367-1.017,0.974-1.326,1.659-1.074
			l15.026,5.228c0.689,0.248,1.092,1.11,0.729,2.122l0,0c-0.37,1.016-1.433,2.23-2.119,1.982L248.215,125.703z"/>
		<path fill="#EEC0B5" d="M242.718,132c-0.585-0.448-0.527-1.508,0.137-2.38l0,0c0.664-0.881,1.658-1.207,2.244-0.755l12.585,9.813
			c0.581,0.452,0.524,1.508-0.137,2.384l0,0c-0.668,0.876-1.659,1.203-2.24,0.754L242.718,132z"/>
		<path fill="#EEC0B5" d="M237.857,132.758c-0.546-0.492-0.409-1.522,0.316-2.323l0,0c0.725-0.801,1.737-1.041,2.279-0.546
			l11.767,10.643c0.542,0.484,0.405,1.522-0.319,2.319l0,0c-0.723,0.801-1.738,1.037-2.28,0.549L237.857,132.758z"/>
		<path fill="#EEC0B5" d="M241.326,121.099c-0.597-0.01-1.063-1.026-1.045-2.107l0,0c0.018-1.077,0.514-2.078,1.113-2.071
			l12.954,0.204c0.596,0.008,1.066,1.023,1.049,2.104l0,0c-0.019,1.077-0.518,2.083-1.113,2.071L241.326,121.099z"/>
	</g>
	<path fill="#E1C346" d="M180.534,124.159c0,1.017,0.98,1.379-0.101,1.379h-70.542c-1.081,0,0.146-0.362,0.146-1.379
		c0,0,11.662-26.11,11.763-37.152c0.133-14.816-14.2-64.416-14.2-64.416c0-1.016,0.876-1.724,1.958-1.724
		c0,0,11.508-3.944,35.117-4.569c22.049-0.585,36.34,4.483,36.34,4.483c1.08,0,1.957,0.578,1.957,1.594
		c0,0-13.311,50.397-13.307,64.852C169.666,98.464,180.534,124.159,180.534,124.159z"/>
	<g>
		<defs>
			<path id="SVGID_1_" d="M180.66,124.313c0,1.017,0.98,1.379-0.101,1.379h-70.545c-1.08,0,0.147-0.362,0.147-1.379
				c0,0,11.662-26.114,11.763-37.154c0.133-14.816-14.2-64.417-14.2-64.417c0-1.016,0.876-1.723,1.958-1.723
				c0,0,5.235-1.793,15.886-3.152c5.142-0.657,11.545-1.214,19.232-1.418c22.05-0.585,36.337,4.484,36.337,4.484
				c1.084,0,1.96,0.578,1.96,1.594c0,0-13.31,50.397-13.307,64.853C169.791,98.616,180.66,124.313,180.66,124.313z"/>
		</defs>
		<clipPath id="SVGID_2_">
			<use xlink:href="#SVGID_1_"  overflow="visible"/>
		</clipPath>
		<path clip-path="url(#SVGID_2_)" fill="#B7792A" d="M118.79,22.757c-0.534,4.406,4.556,8.991,11.638,10.366
			c7.085,1.374,13.521-0.979,14.672-5.266l-4.263-16.604l-20.748,4.287L118.79,22.757z"/>
		<path clip-path="url(#SVGID_2_)" fill="#B7792A" d="M171.12,22.187c0.632,4.395-4.355,9.091-11.405,10.623
			c-7.054,1.529-13.539-0.677-14.784-4.939l25.573-18.159L171.12,22.187z"/>
		<polygon clip-path="url(#SVGID_2_)" fill="#B7792A" points="168.572,15.849 145.946,24.811 122.919,15.544 166.426,9.109 		"/>
	</g>
	<circle fill="#B7792A" cx="145.269" cy="36.592" r="3.223"/>
	<circle fill="#B7792A" cx="145.269" cy="46.458" r="3.223"/>
	<ellipse fill="#B7792A" cx="148.388" cy="24.429" rx="9.914" ry="3.679"/>
</g>
</svg>
