<svg viewBox="0 0 174 84">
	<g class="fill-piel-b">
		<path d="M124.45,56.781c0.215,0.885,4.389,0.28,5.859-0.079l1.775-0.432c1.473-0.357,2.992-3.064,2.777-3.95 l-8.307-36.659c-0.217-0.885-2.869-0.322-4.342,0.036l-1.777,0.433c-1.471,0.358-7.52,3.852-7.303,4.738L124.45,56.781z"/>
		<path d="M150.366,73.695c0.602,0.423,4.193-0.856,5.068-2.095l1.055-1.493c0.873-1.239-0.924-2.429-1.525-2.853 l-22.572-18.688c-0.602-0.425-2.113,1.188-2.986,2.426l-1.055,1.495c-0.873,1.237-4.502,3.871-3.9,4.294L150.366,73.695z"/>
		<path d="M154.653,76.847 c-2.73-1.512-6.205-6.069-4.666-8.847c1.533-2.775,7.686-2.586,10.42-1.074c2.73,1.51,2.709,4.026,1.172,6.805 C160.042,76.505,157.388,78.36,154.653,76.847z"/>
		<path d="M160.651,75.766 c-0.42-0.233-0.279-1.283,0.064-1.904l0,0c0.34-0.621,0.768-0.756,1.186-0.524l9.205,4.96c0.418,0.232,0.592,0.831,0.25,1.451l0,0 c-0.344,0.62-1.162,1.297-1.58,1.064L160.651,75.766z"/>
		<path d="M160.702,71.874 c-0.451-0.166-0.482-1.225-0.244-1.891l0,0c0.24-0.669,0.641-0.872,1.092-0.707l9.875,3.437c0.451,0.162,0.715,0.729,0.477,1.395 l0,0c-0.24,0.666-0.941,1.463-1.393,1.3L160.702,71.874z"/>
		<path d="M157.091,77.202 c-0.385-0.297-0.348-0.992,0.09-1.565l0,0c0.436-0.576,1.09-0.792,1.473-0.493l8.271,6.448c0.381,0.297,0.344,0.989-0.09,1.565 l0,0c-0.439,0.575-1.09,0.789-1.473,0.496L157.091,77.202z"/>
		<path d="M153.12,75.859 c-0.307-0.37-0.121-1.027,0.426-1.48l0,0c0.545-0.451,1.227-0.513,1.533-0.14l6.648,8.028c0.309,0.368,0.121,1.029-0.426,1.479 l0,0c-0.545,0.452-1.229,0.511-1.533,0.144L153.12,75.859z"/>
		<path d="M156.175,68.85 c-0.391-0.007-0.697-0.674-0.688-1.386l0,0c0.012-0.708,0.34-1.366,0.73-1.359l8.514,0.134c0.393,0.005,0.699,0.673,0.689,1.382 l0,0c-0.014,0.71-0.34,1.369-0.73,1.36L156.175,68.85z"/>
		<path d="M48.899,56.781c-0.215,0.885-4.389,0.28-5.858-0.079l-1.776-0.432c-1.473-0.357-2.991-3.064-2.777-3.95 l8.307-36.659c0.217-0.885,2.869-0.322,4.342,0.036l1.777,0.433c1.471,0.358,7.52,3.852,7.303,4.738L48.899,56.781z"/>
		<path d="M22.983,73.695c-0.602,0.423-4.193-0.856-5.067-2.095l-1.054-1.493c-0.874-1.239,0.922-2.429,1.522-2.853 l22.574-18.688c0.601-0.425,2.112,1.188,2.985,2.426l1.055,1.495c0.873,1.237,4.502,3.871,3.9,4.294L22.983,73.695z"/>
		<path d="M18.696,76.847 c2.73-1.512,6.205-6.069,4.668-8.847c-1.535-2.775-7.688-2.586-10.42-1.074c-2.732,1.51-2.709,4.026-1.174,6.805 C13.308,76.505,15.963,78.36,18.696,76.847z"/>
		<path d="M12.697,75.766 c0.421-0.233,0.281-1.283-0.062-1.904l0,0c-0.341-0.621-0.768-0.756-1.187-0.524l-9.205,4.96 c-0.418,0.232-0.592,0.831-0.249,1.451l0,0c0.343,0.62,1.161,1.297,1.58,1.064L12.697,75.766z"/>
		<path d="M12.649,71.874 c0.45-0.166,0.48-1.225,0.242-1.891l0,0c-0.24-0.669-0.641-0.872-1.092-0.707l-9.873,3.437c-0.453,0.162-0.718,0.729-0.479,1.395 l0,0c0.241,0.666,0.941,1.463,1.393,1.3L12.649,71.874z"/>
		<path d="M16.261,77.202 c0.383-0.297,0.346-0.992-0.092-1.565l0,0c-0.437-0.576-1.089-0.792-1.473-0.493l-8.271,6.448 c-0.381,0.297-0.344,0.989,0.09,1.565l0,0c0.439,0.575,1.09,0.789,1.473,0.496L16.261,77.202z"/>
		<path d="M20.229,75.859 c0.308-0.37,0.122-1.027-0.424-1.48l0,0c-0.546-0.451-1.228-0.513-1.533-0.14l-6.649,8.028c-0.309,0.368-0.121,1.029,0.426,1.479 l0,0c0.545,0.452,1.229,0.511,1.533,0.144L20.229,75.859z"/>
		<path d="M17.175,68.85 c0.391-0.007,0.697-0.674,0.688-1.386l0,0c-0.012-0.708-0.34-1.366-0.731-1.359l-8.513,0.134c-0.393,0.005-0.7,0.673-0.688,1.382 l0,0c0.012,0.71,0.339,1.369,0.729,1.36L17.175,68.85z"/>
	</g>
	<g class="fill-remera-verde">
		<path d="M113.538,71.089c0,0.657-0.566,1.199-1.268,1.199h-49.01c-0.699,0,0.111,0.176-1.266-1.199L58.04,1.062 C58.04,0.405,58.606,0,59.308,0h55.729c0.701,0,1.266,0.405,1.266,1.062L113.538,71.089z"/>
		<path d="M60.815,23.716c-0.107-0.09-19.404-1.23-19.404-1.23s1.43-23.937,17.896-22.154"/>
		<path d="M113.126,26.416c0.107-0.091,18.318-2.7,18.318-2.7s0-24.078-16.408-23.384"/>
	</g>
</svg>
