<?xml version="1.0" encoding="utf-8"?>
<svg version="1.1" id="Layer_1" xmlns:x="&ns_extend;" xmlns:i="&ns_ai;" xmlns:graph="&ns_graphs;"
	 xmlns="http://www.w3.org/2000/svg" xmlns:xlink="http://www.w3.org/1999/xlink" x="0px" y="0px" width="286.293px"
	 height="147.066px" viewBox="0 0 286.293 147.066" enable-background="new 0 0 286.293 147.066" xml:space="preserve">
<g>
	<path fill="#EDC0B4" d="M235.138,126.903c0.877,0.615,6.113-1.248,7.389-3.055l1.537-2.178c1.273-1.807-1.346-3.539-2.222-4.158
		l-32.911-27.249c-0.876-0.619-3.08,1.734-4.354,3.537l-1.537,2.181c-1.273,1.803-6.563,5.643-5.688,6.26L235.138,126.903z"/>
	<path fill="#EDC0B4" d="M87.201,102.241c-0.31,1.289-6.398,0.41-8.54-0.115l-2.591-0.629c-2.147-0.521-4.36-4.469-4.048-5.758
		l12.112-53.45c0.314-1.29,4.183-0.469,6.33,0.054l2.589,0.63c2.146,0.523,10.963,5.617,10.65,6.909L87.201,102.241z"/>
	<path fill="#EDC0B4" d="M49.416,126.903c-0.877,0.615-6.114-1.248-7.387-3.055l-1.538-2.178c-1.273-1.807,1.344-3.539,2.22-4.158
		l32.913-27.249c0.874-0.619,3.079,1.734,4.354,3.537l1.535,2.181c1.273,1.803,6.563,5.643,5.688,6.26L49.416,126.903z"/>
	<path fill="#1A743A" d="M191.558,114.604c0,0.957-10.941,10.246-11.961,10.246H108.14c-1.017,0-11.078-9.865-13.084-11.869
		l5.474-91.977c0-0.958,0.827-1.549,1.847-1.549h81.251c1.022,0,1.847,0.591,1.847,1.549L191.558,114.604z"/>
	<path fill="#9C6E64" d="M235.138,126.903c0.877,0.615,6.113-1.248,7.389-3.055l1.537-2.178c1.273-1.807-1.346-3.539-2.222-4.158
		l-32.911-27.249c-0.876-0.619-3.08,1.734-4.354,3.537l-1.537,2.181c-1.273,1.803-6.563,5.643-5.688,6.26L235.138,126.903z"/>
	<path fill="#EDC0B4" d="M87.201,102.241c-0.31,1.289-6.398,0.41-8.54-0.115l-2.591-0.629c-2.147-0.521-4.36-4.469-4.048-5.758
		l12.112-53.45c0.314-1.29,4.183-0.469,6.33,0.054l2.589,0.63c2.146,0.523,10.963,5.617,10.65,6.909L87.201,102.241z"/>
	<path fill="#9C6E64" d="M49.416,126.903c-0.877,0.615-6.114-1.248-7.387-3.055l-1.538-2.178c-1.273-1.807,1.344-3.539,2.22-4.158
		l32.913-27.249c0.874-0.619,3.079,1.734,4.354,3.537l1.535,2.181c1.273,1.803,6.563,5.643,5.688,6.26L49.416,126.903z"/>
	<g>
		<path fill="#9C6E64" d="M43.684,131.625c3.983-2.203,9.047-8.848,6.806-12.898c-2.238-4.047-11.207-3.77-15.192-1.566
			c-3.982,2.203-3.949,5.871-1.709,9.922C35.83,131.127,39.701,133.833,43.684,131.625z"/>
		<path fill="#9C6E64" d="M40.778,132.991L40.778,132.991c-2.864,0-5.739-2.105-7.691-5.629c-2.669-4.828-2-8.527,1.932-10.705
			c1.85-1.021,4.75-1.656,7.569-1.656c4.129,0,7.192,1.256,8.406,3.449c1.109,2.004,0.724,4.744-1.082,7.717
			c-1.482,2.443-3.818,4.783-5.949,5.963C42.93,132.702,41.858,132.991,40.778,132.991z M42.588,116.149
			c-2.637,0-5.323,0.582-7.012,1.514c-3.323,1.838-3.822,4.914-1.484,9.141c1.747,3.154,4.246,5.037,6.686,5.037l0,0
			c0.884,0,1.768-0.24,2.627-0.717c1.969-1.09,4.137-3.27,5.524-5.553c0.917-1.508,2.273-4.369,1.058-6.564
			C48.998,117.217,46.232,116.149,42.588,116.149z"/>
	</g>
	<g>
		<path fill="#9C6E64" d="M34.939,130.051c0.611-0.342,0.41-1.873-0.092-2.779l0,0c-0.498-0.904-1.118-1.102-1.731-0.762
			l-13.419,7.23c-0.611,0.34-0.865,1.211-0.363,2.117l0,0c0.499,0.902,1.69,1.891,2.303,1.551L34.939,130.051z"/>
		<path fill="#9C6E64" d="M21.354,138.053L21.354,138.053c-0.903,0-2.013-0.996-2.523-1.918c-0.707-1.277-0.225-2.445,0.587-2.896
			l13.425-7.234c0.268-0.148,0.546-0.225,0.825-0.225c0.462,0,1.129,0.211,1.682,1.217c0.528,0.953,0.938,2.957-0.131,3.557
			l-13.303,7.359C21.749,138.004,21.559,138.053,21.354,138.053z M33.669,126.928c-0.083,0-0.174,0.027-0.274,0.084l-13.425,7.234
			c-0.32,0.178-0.478,0.707-0.133,1.332c0.377,0.684,1.175,1.324,1.517,1.324v0.574l0.016-0.574l13.29-7.354
			c0.16-0.164,0.128-1.197-0.315-1.998C34.217,127.317,33.959,126.928,33.669,126.928z"/>
	</g>
	<g>
		<path fill="#9C6E64" d="M34.868,124.375c0.657-0.242,0.702-1.785,0.353-2.756l0,0c-0.35-0.975-0.934-1.271-1.592-1.031
			L19.235,125.6c-0.662,0.234-1.045,1.061-0.698,2.033l0,0c0.353,0.971,1.375,2.133,2.03,1.895L34.868,124.375z"/>
		<path fill="#9C6E64" d="M20.384,130.135L20.384,130.135c-1.011,0-2.035-1.34-2.387-2.307c-0.232-0.65-0.218-1.303,0.038-1.842
			c0.209-0.443,0.569-0.773,1.009-0.928l14.397-5.014c0.198-0.072,0.406-0.111,0.607-0.111c0.44,0,1.25,0.193,1.715,1.49
			c0.367,1.025,0.45,3.068-0.695,3.49l-14.306,5.154C20.644,130.112,20.515,130.135,20.384,130.135z M34.048,121.084
			c-0.066,0-0.14,0.014-0.22,0.045l-14.404,5.014c-0.149,0.053-0.272,0.17-0.352,0.336c-0.124,0.262-0.122,0.602,0.006,0.961
			c0.306,0.84,1.047,1.539,1.302,1.545l14.293-5.148c0.182-0.135,0.317-1.162,0.006-2.021
			C34.561,121.481,34.354,121.084,34.048,121.084z"/>
	</g>
	<g>
		<path fill="#9C6E64" d="M40.133,132.145c0.559-0.434,0.504-1.447-0.131-2.283l0,0c-0.637-0.84-1.588-1.154-2.149-0.719l-12.06,9.4
			c-0.556,0.434-0.5,1.445,0.133,2.283l0,0c0.64,0.84,1.588,1.15,2.146,0.723L40.133,132.145z"/>
		<path fill="#9C6E64" d="M27.478,142.317c-0.714,0-1.465-0.426-2.01-1.141c-0.828-1.098-0.839-2.451-0.028-3.086l12.06-9.4
			c0.805-0.623,2.148-0.246,2.96,0.826c0.833,1.092,0.844,2.447,0.025,3.084l-12.06,9.402
			C28.157,142.209,27.831,142.317,27.478,142.317z M38.453,129.522c-0.102,0-0.182,0.025-0.247,0.076l-12.06,9.398
			c-0.262,0.205-0.215,0.885,0.239,1.484c0.532,0.695,1.114,0.793,1.337,0.613l12.058-9.402c0.265-0.205,0.22-0.883-0.236-1.48
			C39.159,129.702,38.715,129.522,38.453,129.522z"/>
	</g>
	<g>
		<path fill="#9C6E64" d="M46.376,130.504c0.412-0.51,0.149-1.426-0.595-2.064l0,0c-0.745-0.635-1.665-0.732-2.072-0.219
			l-8.851,11.057c-0.41,0.508-0.146,1.43,0.6,2.062l0,0c0.743,0.637,1.665,0.73,2.072,0.225L46.376,130.504z"/>
	</g>
	<g>
		<path fill="#9C6E64" d="M37.272,120.481c0.567,0.051,1.114-0.871,1.208-1.904l0,0c0.092-1.029-0.282-2.033-0.851-2.084
			l-12.365-1.109c-0.567-0.053-1.117,0.865-1.208,1.898l0,0c-0.092,1.029,0.282,2.035,0.848,2.082L37.272,120.481z"/>
		<path fill="#9C6E64" d="M37.317,121.057L37.317,121.057l-0.095-0.004l-12.37-1.117c-0.306-0.025-0.589-0.182-0.817-0.453
			c-0.418-0.498-0.63-1.361-0.55-2.252c0.104-1.176,0.748-2.426,1.734-2.426l12.462,1.115c0.499,0.045,0.909,0.412,1.156,1.037
			c0.192,0.484,0.269,1.076,0.215,1.67C38.945,119.807,38.3,121.057,37.317,121.057z M25.214,115.954
			c-0.131,0.039-0.511,0.553-0.586,1.379c-0.073,0.822,0.208,1.398,0.344,1.463l12.34,1.113c0.15-0.051,0.521-0.566,0.597-1.383
			c0.073-0.828-0.209-1.4-0.345-1.465L25.214,115.954z"/>
	</g>
	<g>
		<path fill="#9C6E64" d="M242.349,135.375c-3.983-2.205-9.047-8.85-6.806-12.898c2.237-4.045,11.207-3.77,15.192-1.564
			c3.982,2.201,3.949,5.869,1.709,9.92C250.204,134.879,246.333,137.584,242.349,135.375z"/>
		<path fill="#9C6E64" d="M245.255,136.741c-1.08,0-2.152-0.289-3.186-0.863c-4.396-2.432-9.395-9.402-7.029-13.68
			c1.213-2.189,4.275-3.447,8.403-3.447c2.821,0,5.721,0.637,7.571,1.66c3.932,2.174,4.601,5.873,1.934,10.701
			C250.994,134.637,248.119,136.741,245.255,136.741z M243.444,119.899c-3.644,0-6.409,1.068-7.398,2.857
			c-1.981,3.58,2.565,9.895,6.583,12.117c0.859,0.477,1.743,0.717,2.627,0.717c2.439,0,4.938-1.881,6.688-5.035
			c2.336-4.229,1.837-7.305-1.486-9.139C248.769,120.481,246.081,119.899,243.444,119.899z"/>
	</g>
	<g>
		<path fill="#9C6E64" d="M251.093,133.799c-0.611-0.34-0.41-1.869,0.092-2.775l0,0c0.498-0.906,1.119-1.104,1.731-0.764
			l13.419,7.23c0.611,0.338,0.865,1.211,0.363,2.115l0,0c-0.5,0.904-1.69,1.893-2.304,1.553L251.093,133.799z"/>
		<path fill="#9C6E64" d="M264.679,141.801c-0.205,0-0.394-0.047-0.562-0.139l-13.302-7.361c-1.071-0.596-0.662-2.602-0.132-3.557
			c0.552-1.004,1.219-1.215,1.681-1.215c0.278,0,0.558,0.076,0.832,0.227l13.412,7.229c0.458,0.254,0.779,0.701,0.889,1.236
			c0.11,0.531,0.005,1.123-0.296,1.664C266.692,140.807,265.583,141.801,264.679,141.801z M252.364,130.678
			c-0.29,0-0.548,0.389-0.675,0.623c-0.443,0.799-0.477,1.834-0.307,2.002l13.291,7.354l0.006-0.006c0.344,0,1.14-0.641,1.516-1.322
			c0.169-0.303,0.23-0.613,0.177-0.877c-0.042-0.207-0.155-0.371-0.315-0.459l-13.412-7.227
			C252.539,130.708,252.445,130.678,252.364,130.678z"/>
	</g>
	<g>
		<path fill="#9C6E64" d="M251.166,128.125c-0.658-0.242-0.702-1.783-0.354-2.756l0,0c0.35-0.977,0.934-1.271,1.592-1.029
			l14.395,5.01c0.662,0.234,1.045,1.062,0.698,2.031l0,0c-0.354,0.973-1.375,2.133-2.03,1.896L251.166,128.125z"/>
		<path fill="#9C6E64" d="M265.65,133.883c-0.132,0-0.26-0.021-0.381-0.066l-14.299-5.152c-1.148-0.42-1.067-2.465-0.7-3.488
			c0.466-1.297,1.274-1.49,1.716-1.49c0.201,0,0.408,0.037,0.615,0.113l14.385,5.006c0.445,0.16,0.804,0.49,1.014,0.934
			c0.256,0.539,0.268,1.191,0.039,1.836C267.685,132.543,266.66,133.883,265.65,133.883z M251.986,124.834
			c-0.308,0-0.514,0.396-0.633,0.729c-0.309,0.859-0.176,1.887,0.02,2.027l14.28,5.145c0.255-0.008,0.996-0.705,1.304-1.551
			c0.127-0.352,0.128-0.693,0.004-0.955c-0.078-0.166-0.202-0.285-0.355-0.338l-14.39-5.008
			C252.125,124.85,252.05,124.834,251.986,124.834z"/>
	</g>
	<g>
		<path fill="#9C6E64" d="M245.9,135.895c-0.559-0.434-0.504-1.447,0.132-2.283l0,0c0.637-0.84,1.589-1.154,2.149-0.719l12.06,9.4
			c0.556,0.434,0.501,1.443-0.134,2.283l0,0c-0.639,0.84-1.588,1.15-2.146,0.725L245.9,135.895z"/>
		<path fill="#9C6E64" d="M258.554,146.065c-0.352,0-0.678-0.105-0.941-0.309l-12.066-9.408c-0.816-0.633-0.805-1.988,0.027-3.084
			c0.811-1.074,2.156-1.447,2.961-0.826l12.059,9.402c0.812,0.631,0.801,1.986-0.026,3.084
			C260.021,145.639,259.268,146.065,258.554,146.065z M247.581,133.27c-0.263,0-0.706,0.182-1.091,0.688
			c-0.457,0.602-0.501,1.279-0.238,1.482l12.062,9.408c0.216,0.164,0.805,0.076,1.336-0.619c0.453-0.6,0.499-1.277,0.237-1.482
			l-12.06-9.4C247.764,133.295,247.683,133.27,247.581,133.27z"/>
	</g>
	<g>
		<path fill="#9C6E64" d="M239.657,134.254c-0.412-0.51-0.149-1.426,0.595-2.064l0,0c0.745-0.637,1.665-0.732,2.072-0.219
			l8.851,11.057c0.41,0.506,0.146,1.43-0.601,2.064l0,0c-0.742,0.637-1.664,0.729-2.071,0.225L239.657,134.254z"/>
	</g>
	<g>
		<path fill="#9C6E64" d="M248.761,124.231c-0.567,0.051-1.114-0.871-1.209-1.904l0,0c-0.092-1.027,0.281-2.033,0.851-2.084
			l12.365-1.111c0.567-0.053,1.116,0.869,1.208,1.9l0,0c0.092,1.029-0.281,2.035-0.847,2.082L248.761,124.231z"/>
		<path fill="#9C6E64" d="M248.716,124.807c-0.983,0-1.628-1.252-1.736-2.428c-0.053-0.594,0.024-1.189,0.216-1.674
			c0.247-0.621,0.657-0.99,1.156-1.033l12.365-1.113c0.001,0,0.003,0,0.005,0c1.08,0,1.722,1.248,1.826,2.422
			c0.08,0.889-0.131,1.752-0.55,2.252c-0.228,0.27-0.511,0.428-0.821,0.453L248.716,124.807z M260.802,119.704l-12.349,1.111
			c-0.12,0.061-0.402,0.635-0.329,1.461c0.076,0.816,0.446,1.33,0.597,1.381l12.355-1.115c0.12-0.061,0.401-0.639,0.328-1.461
			C261.331,120.256,260.951,119.741,260.802,119.704z"/>
	</g>
	<path fill="#1A743A" d="M104.575,54.383c-0.154-0.133-28.29-1.815-28.29-1.815s1.635-33.851,26.261-32.762"/>
	<path fill="#1A743A" d="M180.841,57.969c0.157-0.133,28.312-3.069,28.312-3.069s-1.194-36.306-25.119-35.295"/>
	<polyline fill="#1A743A" points="103.638,52.289 89.938,103.5 53.406,128.942 44.271,112.309 66.672,90.004 80.458,35.131 	"/>
	<polyline fill="#1A743A" points="185.341,53.512 194.825,105.784 231.355,131.227 240.49,114.59 216.968,88.924 208.85,53.268 	"/>
	<path fill="#76C593" d="M172.616,23.727c0,2.932-13.251,5.311-29.6,5.311c-16.347,0-29.142-1.66-29.142-4.594
		c0-2.932,12.794-6.026,29.142-6.026C159.365,18.418,172.616,20.795,172.616,23.727z"/>
	<polyline fill="#76C593" points="114.317,24.384 143.603,55.982 173.322,24.105 	"/>
	<polyline fill="#0E122C" points="113.837,23.507 106.306,30.592 123.098,38.69 143.096,57.206 143.581,54.98 	"/>
	<polyline fill="#0E122C" points="172.749,23.14 178.871,31.341 164.055,38.961 143.096,57.206 143.004,54.614 	"/>
</g>
</svg>
