<?xml version="1.0" encoding="utf-8"?>
<svg version="1.1" id="Layer_1" xmlns:x="&ns_extend;" xmlns:i="&ns_ai;" xmlns:graph="&ns_graphs;"
	 xmlns="http://www.w3.org/2000/svg" xmlns:xlink="http://www.w3.org/1999/xlink" x="0px" y="0px" width="286.293px"
	 height="147.066px" viewBox="0 0 286.293 147.066" enable-background="new 0 0 286.293 147.066" xml:space="preserve">
<g>
	<path fill="#EEC0B5" d="M95.742,93.3c-0.327,1.354-2.542,2.78-4.792,2.23l-2.72-0.661c-2.254-0.548-3.428-2.796-3.099-4.152
		l13.736-56.451c0.331-1.354,2.222-2.059,4.476-1.511l2.72,0.663c2.252,0.547,6.937,5.056,6.607,6.412L95.742,93.3z"/>
	<path fill="#EEC0B5" d="M47.937,91.149c-1.122-0.085-3.146-1.239-2.972-3.551l0.21-2.791c0.176-2.313,3.456-1.966,4.577-1.883
		l44.866-0.067c1.124,0.083,1.337,3.461,1.163,5.774l-0.213,2.792c-0.174,2.311-1.237,4.27-2.361,4.184L47.937,91.149z"/>
	<g>
		<path fill="#EEC0B5" d="M39.216,92.923c4.625,0.863,13.034-1.101,13.912-5.802c0.878-4.7-6.453-10.38-11.079-11.244
			c-4.625-0.864-7.013,2.082-7.891,6.782C33.282,87.359,34.589,92.061,39.216,92.923z"/>
		<path fill="#EEC0B5" d="M35.803,85.672c0.715,0.131,1.561-1.221,1.756-2.272l0,0c0.197-1.051-0.167-1.616-0.878-1.748
			l-15.455-3.064c-0.711-0.133-1.486,0.398-1.682,1.447l0,0c-0.195,1.051,0.105,2.621,0.816,2.754L35.803,85.672z"/>
		<path fill="#EEC0B5" d="M36.958,81.344c0.683,0.242,1.735-0.96,2.096-1.964l0,0c0.361-1.008,0.091-1.625-0.592-1.867
			l-14.771-5.479c-0.681-0.244-1.531,0.158-1.892,1.163l0,0c-0.359,1.006-0.311,2.604,0.368,2.848L36.958,81.344z"/>
		<path fill="#EEC0B5" d="M37.186,89.621c0.729,0.023,1.353-0.823,1.396-1.908l0,0c0.046-1.088-0.507-1.966-1.237-1.987
			l-15.798-0.439c-0.729-0.021-1.351,0.821-1.397,1.907l0,0c-0.042,1.088,0.508,1.962,1.235,1.987L37.186,89.621z"/>
		<path fill="#EEC0B5" d="M40.421,93.261c0.725-0.032,1.271-0.905,1.223-1.974l0,0c-0.05-1.066-0.672-1.89-1.397-1.854
			l-15.693,0.711c-0.722,0.03-1.269,0.906-1.219,1.975l0,0c0.046,1.067,0.672,1.886,1.394,1.856L40.421,93.261z"/>
		<path fill="#EEC0B5" d="M45.12,82.17c0.462,0.368,1.459-0.114,2.128-0.949l0,0c0.665-0.834,0.917-1.913,0.455-2.283L37.68,70.93
			c-0.46-0.372-1.459,0.108-2.126,0.944l0,0c-0.667,0.835-0.917,1.917-0.457,2.283L45.12,82.17z"/>
	</g>
	<path fill="#EEC0B5" d="M191.159,95.121c0.327,1.354,2.542,2.78,4.792,2.23l2.72-0.661c2.254-0.548,3.427-2.796,3.098-4.152
		l-13.736-56.451c-0.331-1.354-2.222-2.059-4.476-1.511l-2.72,0.663c-2.252,0.547-6.936,5.056-6.607,6.412L191.159,95.121z"/>
	<path fill="#EEC0B5" d="M229.863,121.006c0.92,0.647,3.215,1.047,4.553-0.848l1.614-2.286c1.337-1.896-1.413-3.717-2.332-4.366
		l-34.559-28.611c-0.919-0.651-3.234,1.818-4.572,3.713l-1.612,2.29c-1.337,1.893-1.764,4.082-0.843,4.73L229.863,121.006z"/>
	<g>
		<path fill="#EEC0B5" d="M235.459,127.925c-4.117-2.277-9.353-9.145-7.036-13.331c2.314-4.183,11.583-3.896,15.702-1.619
			c4.116,2.277,4.083,6.068,1.769,10.254C243.578,127.412,239.576,130.206,235.459,127.925z"/>
		<path fill="#EEC0B5" d="M242.707,124.504c-0.635-0.352-0.425-1.934,0.093-2.868l0,0c0.516-0.938,1.157-1.14,1.79-0.79
			l13.869,7.474c0.633,0.351,0.893,1.253,0.377,2.187l0,0c-0.52,0.935-1.75,1.955-2.383,1.605L242.707,124.504z"/>
		<path fill="#EEC0B5" d="M244.572,120.432c-0.682-0.249-0.727-1.845-0.367-2.85l0,0c0.363-1.008,0.966-1.312,1.645-1.062
			l14.879,5.176c0.682,0.246,1.082,1.098,0.721,2.102l0,0c-0.365,1.004-1.419,2.206-2.098,1.961L244.572,120.432z"/>
		<path fill="#EEC0B5" d="M239.128,126.67c-0.578-0.446-0.521-1.495,0.137-2.359l0,0c0.658-0.869,1.643-1.194,2.221-0.745
			l12.463,9.717c0.576,0.448,0.52,1.493-0.137,2.361l0,0c-0.66,0.865-1.641,1.188-2.219,0.746L239.128,126.67z"/>
		<path fill="#EEC0B5" d="M234.314,127.418c-0.538-0.487-0.402-1.508,0.313-2.301l0,0c0.718-0.791,1.721-1.028,2.257-0.54
			l11.651,10.538c0.538,0.481,0.401,1.508-0.316,2.299l0,0c-0.714,0.793-1.719,1.027-2.256,0.544L234.314,127.418z"/>
		<path fill="#EEC0B5" d="M237.751,115.875c-0.591-0.011-1.053-1.017-1.037-2.087l0,0c0.018-1.066,0.51-2.059,1.102-2.05
			l12.828,0.203c0.592,0.007,1.056,1.013,1.038,2.081l0,0c-0.018,1.068-0.513,2.062-1.101,2.052L237.751,115.875z"/>
	</g>
	<path fill="#00A08F" d="M177.556,118.906c0,1.006,0.97,1.365-0.1,1.365h-69.851c-1.07,0,0.146-0.359,0.146-1.365
		c0,0,11.547-25.856,11.647-36.789c0.132-14.671-14.061-63.784-14.061-63.784c0-1.006,0.867-1.707,1.939-1.707
		c0,0,11.395-3.905,34.772-4.524c21.833-0.58,35.981,4.439,35.981,4.439c1.072,0,1.939,0.572,1.939,1.578
		c0,0-13.18,49.902-13.176,64.216C166.794,93.462,177.556,118.906,177.556,118.906z"/>
	<path fill="#00A08F" d="M178.031,16.542c12.102,0.729,18.93,29.704,18.93,29.704s-25.284,6.229-25.445,6.368l-3.107-3.952"/>
	<path fill="#00A08F" d="M107.245,16.542c-12.102,0.729-18.93,29.704-18.93,29.704s27.155,6.144,27.317,6.282l1.235-3.866"/>
	<path fill="#10695D" d="M179.645,121.195c0,1.719-1.394,3.114-3.114,3.114h-67.474c-1.721,0-3.114-1.396-3.114-3.114l0,0
		c0-1.719,1.394-3.114,3.114-3.114h67.474C178.251,118.081,179.645,119.476,179.645,121.195L179.645,121.195z"/>
	<ellipse fill="#10695D" cx="144.703" cy="20.381" rx="29.808" ry="8.191"/>
</g>
</svg>
