<?xml version="1.0" encoding="utf-8"?>
<svg version="1.1" id="Layer_1" xmlns:x="&ns_extend;" xmlns:i="&ns_ai;" xmlns:graph="&ns_graphs;"
	 xmlns="http://www.w3.org/2000/svg" xmlns:xlink="http://www.w3.org/1999/xlink" x="0px" y="0px" width="286.293px"
	 height="147.066px" viewBox="-2 -2 286.293 147.066" enable-background="new 0 0 286.293 147.066" xml:space="preserve">
<g>
	<path fill="#EDC0B4" d="M198.828,100.703c0.326,1.347,6.688,0.427,8.928-0.122l2.706-0.657c2.245-0.544,4.559-4.671,4.231-6.021
		l-12.659-55.869c-0.329-1.348-4.372-0.49-6.615,0.056l-2.707,0.66c-2.243,0.546-11.46,5.871-11.132,7.222L198.828,100.703z"/>
	<path fill="#EDC0B4" d="M238.323,126.479c0.916,0.645,6.391-1.305,7.724-3.191l1.607-2.276c1.33-1.889-1.407-3.7-2.322-4.348
		l-34.402-28.483c-0.916-0.646-3.22,1.812-4.552,3.697l-1.605,2.279c-1.332,1.887-6.859,5.898-5.944,6.546L238.323,126.479z"/>
	<path fill="#EDC0B4" d="M83.691,100.703c-0.324,1.347-6.689,0.427-8.926-0.122l-2.709-0.657c-2.245-0.544-4.558-4.671-4.232-6.021
		l12.661-55.869c0.327-1.348,4.372-0.49,6.615,0.056l2.707,0.66c2.243,0.546,11.46,5.871,11.132,7.222L83.691,100.703z"/>
	<path fill="#EDC0B4" d="M44.196,126.479c-0.917,0.645-6.391-1.305-7.722-3.191l-1.607-2.276c-1.331-1.889,1.405-3.7,2.321-4.348
		L71.59,88.181c0.914-0.646,3.218,1.812,4.551,3.697l1.604,2.279c1.332,1.887,6.86,5.898,5.945,6.546L44.196,126.479z"/>
	<path fill="#5E377B" d="M182.199,122.506c0,1.002-0.865,1.828-1.931,1.828h-74.69c-1.063,0,0.168,0.268-1.929-1.828l-6.025-106.72
		c0-1.002,0.863-1.62,1.93-1.62h84.929c1.068,0,1.931,0.617,1.931,1.62L182.199,122.506z"/>
	<path fill="#EDC0B4" d="M198.828,100.703c0.326,1.347,6.688,0.427,8.928-0.122l2.706-0.657c2.245-0.544,4.559-4.671,4.231-6.021
		l-12.659-55.869c-0.329-1.348-4.372-0.49-6.615,0.056l-2.707,0.66c-2.243,0.546-9.844,7.52-9.517,8.87L198.828,100.703z"/>
	<path fill="#EDC0B4" d="M238.323,126.479c0.916,0.645,6.391-1.305,7.724-3.191l1.607-2.276c1.33-1.889-1.407-3.7-2.322-4.348
		l-34.402-28.483c-0.916-0.646-3.22,1.812-4.552,3.697l-1.605,2.279c-1.332,1.887-6.859,5.898-5.944,6.546L238.323,126.479z"/>
	<path fill="#EDC0B4" d="M83.691,100.703c-0.324,1.347-6.689,0.427-8.926-0.122l-2.709-0.657c-2.245-0.544-4.558-4.671-4.232-6.021
		l12.661-55.869c0.327-1.348,4.372-0.49,6.615,0.056l2.707,0.66c2.243,0.546,11.46,5.871,11.132,7.222L83.691,100.703z"/>
	<path fill="#EDC0B4" d="M44.196,126.479c-0.917,0.645-6.391-1.305-7.722-3.191l-1.607-2.276c-1.331-1.889,1.405-3.7,2.321-4.348
		L71.59,88.181c0.914-0.646,3.218,1.812,4.551,3.697l1.604,2.279c1.332,1.887,6.86,5.898,5.945,6.546L44.196,126.479z"/>
	<path fill="#EDC0B4" stroke="#EDC0B4" stroke-width="0.7087" stroke-miterlimit="10" d="M38.204,131.417
		c4.165-2.303,9.457-9.248,7.115-13.481c-2.339-4.229-11.715-3.942-15.88-1.637c-4.163,2.3-4.127,6.135-1.786,10.37
		C29.995,130.897,34.041,133.724,38.204,131.417z"/>
	<path fill="#EDC0B4" stroke="#EDC0B4" stroke-width="0.7087" stroke-miterlimit="10" d="M29.064,129.77
		c0.639-0.357,0.428-1.956-0.096-2.903l0,0c-0.52-0.945-1.169-1.152-1.81-0.798l-14.026,7.559c-0.639,0.355-0.904,1.267-0.379,2.213
		l0,0c0.521,0.943,1.767,1.977,2.407,1.623L29.064,129.77z"/>
	<path fill="#EDC0B4" stroke="#EDC0B4" stroke-width="0.7087" stroke-miterlimit="10" d="M28.99,123.839
		c0.687-0.254,0.732-1.866,0.369-2.881l0,0c-0.367-1.021-0.977-1.33-1.665-1.078l-15.046,5.238c-0.692,0.244-1.092,1.109-0.73,2.124
		l0,0c0.37,1.015,1.437,2.23,2.123,1.981L28.99,123.839z"/>
	<path fill="#EDC0B4" stroke="#EDC0B4" stroke-width="0.7087" stroke-miterlimit="10" d="M34.492,131.959
		c0.584-0.453,0.527-1.513-0.137-2.386l0,0c-0.666-0.88-1.661-1.207-2.247-0.752l-12.605,9.825
		c-0.582,0.454-0.523,1.511,0.139,2.388l0,0c0.668,0.878,1.66,1.202,2.243,0.756L34.492,131.959z"/>
	<path fill="#EDC0B4" d="M41.018,130.244c0.431-0.531,0.156-1.488-0.622-2.157l0,0c-0.779-0.664-1.74-0.766-2.166-0.229
		l-9.251,11.559c-0.429,0.529-0.152,1.493,0.627,2.154l0,0c0.776,0.666,1.74,0.764,2.166,0.236L41.018,130.244z"/>
	<path fill="#EDC0B4" stroke="#EDC0B4" stroke-width="0.7087" stroke-miterlimit="10" d="M31.502,119.767
		c0.592,0.054,1.164-0.911,1.263-1.989l0,0c0.096-1.076-0.295-2.125-0.889-2.18l-12.925-1.159c-0.593-0.056-1.167,0.904-1.264,1.984
		l0,0c-0.096,1.076,0.295,2.128,0.886,2.177L31.502,119.767z"/>
	<path fill="#EDC0B4" stroke="#EDC0B4" stroke-width="0.7087" stroke-miterlimit="10" d="M245.86,135.336
		c-4.163-2.304-9.456-9.25-7.114-13.482c2.34-4.229,11.715-3.94,15.88-1.637c4.164,2.303,4.129,6.136,1.787,10.371
		C254.07,134.817,250.024,137.645,245.86,135.336z"/>
	<path fill="#EDC0B4" stroke="#EDC0B4" stroke-width="0.7087" stroke-miterlimit="10" d="M255,133.69
		c-0.639-0.355-0.429-1.955,0.096-2.902l0,0c0.521-0.947,1.169-1.152,1.811-0.799l14.026,7.558c0.638,0.354,0.903,1.267,0.379,2.212
		l0,0c-0.522,0.945-1.768,1.977-2.408,1.623L255,133.69z"/>
	<path fill="#EDC0B4" stroke="#EDC0B4" stroke-width="0.7087" stroke-miterlimit="10" d="M255.076,127.757
		c-0.688-0.251-0.733-1.864-0.37-2.881l0,0c0.367-1.02,0.977-1.327,1.664-1.075l15.046,5.236c0.692,0.246,1.094,1.109,0.73,2.124
		l0,0c-0.37,1.017-1.438,2.23-2.123,1.981L255.076,127.757z"/>
	<path fill="#EDC0B4" stroke="#EDC0B4" stroke-width="0.7087" stroke-miterlimit="10" d="M249.572,135.88
		c-0.585-0.455-0.526-1.515,0.138-2.388l0,0c0.665-0.878,1.661-1.207,2.246-0.752l12.605,9.828c0.581,0.451,0.523,1.508-0.139,2.385
		l0,0c-0.668,0.879-1.66,1.202-2.243,0.757L249.572,135.88z"/>
	<path fill="#EDC0B4" d="M243.045,134.165c-0.43-0.533-0.155-1.49,0.622-2.159l0,0c0.779-0.664,1.741-0.766,2.166-0.229
		l9.251,11.558c0.43,0.531,0.153,1.494-0.627,2.158l0,0c-0.776,0.665-1.74,0.761-2.166,0.235L243.045,134.165z"/>
	<path fill="#EDC0B4" stroke="#EDC0B4" stroke-width="0.7087" stroke-miterlimit="10" d="M252.562,123.686
		c-0.592,0.053-1.164-0.908-1.264-1.99l0,0c-0.097-1.073,0.296-2.123,0.889-2.176l12.925-1.162c0.594-0.055,1.169,0.907,1.264,1.985
		l0,0c0.097,1.077-0.295,2.127-0.886,2.177L252.562,123.686z"/>
	<path fill="#5E377B" d="M101.851,50.676c-0.161-0.139-29.571-1.897-29.571-1.897s1.709-35.383,27.45-34.246"/>
	<path fill="#5E377B" d="M181.57,54.423c0.164-0.139,27.918-4.115,27.918-4.115s0-36.694-25.006-35.638"/>
	<circle fill="#8B57A2" cx="142.061" cy="61.608" r="24.145"/>
</g>
</svg>
