<svg viewBox="0 0 159 84">
	<g class="fill-piel-w">
		<path d="M50.506,54.109c-0.217,0.896-1.684,1.841-3.175,1.478l-1.801-0.438c-1.493-0.362-2.271-1.853-2.052-2.751 l9.098-37.389c0.218-0.897,1.471-1.364,2.964-1.001l1.803,0.439c1.491,0.362,4.593,3.349,4.376,4.247L50.506,54.109z"/>
		<path d="M18.844,52.685c-0.743-0.057-2.085-0.821-1.97-2.353l0.14-1.849c0.116-1.532,2.289-1.303,3.032-1.247 l29.716-0.045c0.744,0.056,0.886,2.292,0.771,3.824l-0.142,1.851c-0.116,1.529-0.819,2.828-1.563,2.771L18.844,52.685z"/>
		<path d="M13.068,53.859c3.062,0.572,8.632-0.729,9.214-3.843c0.581-3.113-4.274-6.875-7.337-7.448 c-3.064-0.572-4.646,1.379-5.228,4.493C9.136,50.175,10.002,53.288,13.068,53.859z"/>
		<path d="M10.806,49.057c0.474,0.087,1.034-0.81,1.164-1.505l0,0c0.131-0.695-0.111-1.07-0.582-1.157l-10.236-2.03 c-0.471-0.088-0.984,0.264-1.113,0.959l0,0c-0.13,0.695,0.069,1.735,0.54,1.824L10.806,49.057z"/>
		<path d="M11.572,46.19c0.452,0.16,1.15-0.637,1.389-1.302l0,0c0.239-0.668,0.061-1.076-0.393-1.236l-9.782-3.629 c-0.451-0.161-1.015,0.105-1.253,0.77l0,0c-0.238,0.667-0.207,1.725,0.243,1.887L11.572,46.19z"/>
		<path d="M11.723,51.672c0.482,0.015,0.896-0.546,0.924-1.264l0,0c0.03-0.721-0.335-1.302-0.819-1.315L1.364,48.802 c-0.482-0.015-0.895,0.543-0.925,1.263l0,0c-0.028,0.72,0.337,1.3,0.818,1.316L11.723,51.672z"/>
		<path d="M13.866,54.083c0.48-0.021,0.842-0.599,0.81-1.307l0,0c-0.032-0.707-0.444-1.252-0.925-1.229L3.357,52.019 c-0.479,0.021-0.842,0.601-0.809,1.309l0,0c0.031,0.706,0.445,1.25,0.923,1.229L13.866,54.083z"/>
		<path d="M16.978,46.737c0.306,0.244,0.966-0.075,1.409-0.629l0,0c0.44-0.553,0.607-1.268,0.302-1.512l-6.639-5.304 c-0.306-0.246-0.967,0.072-1.408,0.625l0,0c-0.442,0.553-0.607,1.269-0.303,1.512L16.978,46.737z"/>
		<path d="M113.705,55.314c0.217,0.897,1.684,1.842,3.174,1.478l1.802-0.438c1.492-0.362,2.27-1.853,2.052-2.751 l-9.098-37.39c-0.219-0.896-1.472-1.363-2.965-1l-1.801,0.438c-1.492,0.363-4.594,3.349-4.377,4.248L113.705,55.314z"/>
		<path d="M139.34,72.46c0.608,0.429,2.129,0.693,3.015-0.562l1.069-1.515c0.886-1.256-0.937-2.462-1.545-2.892 l-22.89-18.95c-0.608-0.432-2.142,1.205-3.028,2.459l-1.068,1.518c-0.885,1.253-1.167,2.703-0.558,3.132L139.34,72.46z"/>
		<path d="M143.046,77.043c-2.728-1.509-6.194-6.057-4.66-8.83c1.533-2.771,7.672-2.581,10.4-1.072 c2.727,1.508,2.704,4.02,1.171,6.791C148.423,76.701,145.773,78.553,143.046,77.043z"/>
		<path d="M147.847,74.777c-0.421-0.233-0.281-1.281,0.061-1.9l0,0c0.342-0.621,0.767-0.755,1.187-0.523l9.185,4.95 c0.42,0.232,0.592,0.83,0.25,1.447l0,0c-0.344,0.62-1.158,1.296-1.577,1.063L147.847,74.777z"/>
		<path d="M149.082,72.08c-0.45-0.165-0.48-1.223-0.242-1.888l0,0c0.24-0.668,0.639-0.869,1.089-0.704l9.854,3.428 c0.451,0.163,0.717,0.728,0.478,1.393l0,0c-0.241,0.665-0.94,1.461-1.39,1.298L149.082,72.08z"/>
		<path d="M145.476,76.211c-0.382-0.296-0.345-0.99,0.091-1.562l0,0c0.437-0.575,1.088-0.791,1.471-0.493l8.255,6.436 c0.382,0.297,0.344,0.989-0.091,1.563l0,0c-0.437,0.573-1.087,0.787-1.47,0.494L145.476,76.211z"/>
		<path d="M142.289,76.706c-0.357-0.322-0.268-0.998,0.206-1.522l0,0c0.476-0.524,1.141-0.683,1.496-0.358 l7.716,6.979c0.357,0.319,0.267,0.998-0.209,1.522l0,0c-0.473,0.525-1.138,0.681-1.494,0.36L142.289,76.706z"/>
		<path d="M144.565,69.061c-0.392-0.007-0.698-0.674-0.688-1.382l0,0c0.012-0.707,0.338-1.363,0.73-1.357l8.495,0.134 c0.393,0.005,0.7,0.671,0.688,1.378l0,0c-0.012,0.708-0.339,1.366-0.729,1.359L144.565,69.061z"/>
	</g>
	<g class="fill-remera-verde">
		<path d="M104.695,71.067c0,0.668,0.643,0.905-0.065,0.905H58.365c-0.709,0,0.097-0.237,0.097-0.905 c0,0,7.648-17.125,7.714-24.365c0.087-9.717-9.312-42.247-9.312-42.247c0-0.667,0.573-1.13,1.284-1.13l25.676-3.225l21.187,3.168 c0.71,0,1.284,0.379,1.284,1.046c0,0-8.729,33.052-8.727,42.532C97.567,54.216,104.695,71.067,104.695,71.067z"/>
		<path d="M105.009,3.269c8.016,0.483,12.538,19.675,12.538,19.675s-16.746,4.125-16.854,4.217l-2.058-2.618"/>
		<path d="M58.125,3.269C50.11,3.751,45.587,22.943,45.587,22.943s16.746,4.125,16.853,4.217l2.059-2.618"/>
	</g>
	<ellipse class="fill-piel-w" cx="81.274" cy="4.511" rx="16.292" ry="4.511"/>
</svg>
