<svg class="center-block" version="1.1" x="0px" y="0px" width="150px" height="105px" viewBox="0 0 100 70" enable-background="new 0 0 100 70">
	<polygon class="char-shirt-green" points="64.226,70.494 32.539,70.494 29.536,0 64.226,0"/>
	<path class="char-arm-pink" d="M63.839,54.555c0,1.666,1.35,3.019,3.018,3.019h0.342c1.664,0,3.016-1.353,3.016-3.019V36.962 c0-1.668-1.352-3.019-3.016-3.019h-0.342c-1.668,0-3.018,1.351-3.018,3.019V54.555z"/>
	<path class="char-arm-pink" d="M57.423,36.262c0,1.28,1.037,2.319,2.317,2.319h4.796c1.281,0,2.319-1.039,2.319-2.319l0,0 c0-1.278,1.618-2.317,0.342-2.317H59.74C58.46,33.944,57.423,34.983,57.423,36.262L57.423,36.262z"/>
	<path class="char-arm-pink" d="M57.479,41.68c0,1.28,1.036,2.317,2.317,2.317h4.795c1.282,0,2.318-1.037,2.318-2.317l0,0 c0-1.279,1.621-2.317,0.342-2.317h-7.455C58.515,39.362,57.479,40.4,57.479,41.68L57.479,41.68z"/>
	<path class="char-arm-pink" d="M57.479,47.099c0,1.281,1.036,2.316,2.317,2.316h4.795c1.282,0,2.318-1.035,2.318-2.316l0,0 c0-1.279,1.621-2.316,0.342-2.316h-7.455C58.515,44.781,57.479,45.819,57.479,47.099L57.479,47.099z"/>
	<path class="char-arm-pink" d="M74.873,58.242c-3.129,0-5.879-0.867-7.653-1.83l3.062-5.717c0.777,0.408,7.803,3.75,13.423-3.963 c6.623-9.097,3.938-16.291,0.693-18.688c-3.859-2.853-17.165-9.469-21.966-11.778l2.812-5.845 c0.727,0.351,17.868,8.609,23.006,12.404c6.586,4.862,9.065,16.233,0.696,27.726C84.651,56.445,79.371,58.242,74.873,58.242z"/>
	<path class="char-arm-pink" d="M34.672,56.486c0,1.666-1.35,3.018-3.018,3.018h-0.342c-1.664,0-3.016-1.352-3.016-3.018V38.893 c0-1.667,1.352-3.019,3.016-3.019h0.342c1.668,0,3.018,1.352,3.018,3.019V56.486z"/>
	<path class="char-arm-pink" d="M41.088,38.193c0,1.281-1.037,2.319-2.318,2.319h-4.796c-1.281,0-2.319-1.038-2.319-2.319l0,0 c0-1.277-1.619-2.316-0.342-2.316h7.457C40.051,35.876,41.088,36.916,41.088,38.193L41.088,38.193z"/>
	<path class="char-arm-pink" d="M41.031,43.611c0,1.281-1.036,2.317-2.317,2.317h-4.796c-1.282,0-2.318-1.036-2.318-2.317l0,0 c0-1.279-1.621-2.316-0.342-2.316h7.456C39.995,41.294,41.031,42.332,41.031,43.611L41.031,43.611z"/>
	<path class="char-arm-pink" d="M41.031,49.03c0,1.281-1.036,2.317-2.317,2.317h-4.796c-1.282,0-2.318-1.036-2.318-2.317l0,0 c0-1.278-1.621-2.317-0.342-2.317h7.456C39.995,46.712,41.031,47.751,41.031,49.03L41.031,49.03z"/>
	<path class="char-arm-pink" d="M23.636,60.173c3.129,0,5.879-0.867,7.654-1.829l-3.063-5.718c-0.778,0.408-7.803,3.75-13.423-3.963 c-6.623-9.097-3.939-16.291-0.693-18.688c3.859-2.852,17.165-9.469,21.965-11.777l-2.812-5.846 c-0.726,0.352-17.868,8.609-23.006,12.404c-6.585,4.863-9.064,16.234-0.696,27.726C13.858,58.376,19.138,60.173,23.636,60.173z"/>
	<polyline class="char-shirt-green" points="31.517,9.238 15.413,16.369 23.986,29.121 40.961,21.011 60.929,21.011 71.601,26.772 78.349,11.498 59.437,7.262"/>
</svg>
