<svg x="0px" y="0px" width="312.5px" height="151.167px" viewBox="0 0 312.5 151.167">
	<g class="fill-piel-b">
		<path d="M223.889,95.178c0.383,1.584,7.859,0.498,10.488-0.14l3.184-0.776c2.635-0.639,5.354-5.479,4.971-7.072l-14.873-65.623c-0.389-1.584-5.135-0.578-7.77,0.069l-3.182,0.767c-2.635,0.647-13.463,6.903-13.074,8.486L223.889,95.178z"/>
		<path d="M270.287,125.459c1.076,0.757,7.506-1.534,9.068-3.745l1.889-2.68c1.562-2.222-1.654-4.343-2.73-5.11l-40.406-33.449c-1.076-0.767-3.785,2.122-5.35,4.344l-1.883,2.67c-1.562,2.221-8.057,6.932-6.986,7.689L270.287,125.459z"/>
		<path d="M88.643,95.178c-0.383,1.584-7.859,0.498-10.489-0.14l-3.178-0.776c-2.64-0.639-5.354-5.479-4.971-7.072l14.872-65.623c0.384-1.584,5.135-0.578,7.77,0.069l3.178,0.767c2.635,0.647,13.462,6.903,13.079,8.486L88.643,95.178z"/>
		<path d="M42.25,125.459c-1.081,0.757-7.506-1.534-9.069-3.745l-1.893-2.68c-1.559-2.222,1.653-4.343,2.729-5.11l40.412-33.449c1.071-0.767,3.78,2.122,5.344,4.344l1.888,2.67c1.564,2.221,8.058,6.932,6.982,7.689L42.25,125.459z"/>
	</g>
	<path fill="#404041" d="M204.355,120.787c0,1.186-1.017,2.152-2.267,2.152h-87.736c-1.25,0,0.199,0.309-2.266-2.152L105.009,5.434c0-1.175,0.924-1.505,2.18-1.505l99.851,0.2c1.256,0,2.266,0.13,2.266,1.305L204.355,120.787z"/>
	<g class="fill-piel-b">
		<path d="M223.889,95.178c0.383,1.584,7.859,0.498,10.488-0.14l3.184-0.776c2.635-0.639,5.354-5.479,4.971-7.072l-14.873-65.623c-0.389-1.584-5.135-0.578-7.77,0.069l-3.182,0.767c-2.635,0.647-11.564,8.836-11.177,10.42L223.889,95.178z"/>
		<path d="M270.287,125.459c1.076,0.757,7.506-1.534,9.068-3.745l1.889-2.68c1.562-2.222-1.654-4.343-2.73-5.11l-40.406-33.449c-1.076-0.767-3.785,2.122-5.35,4.344l-1.883,2.67c-1.562,2.221-8.057,6.932-6.986,7.689L270.287,125.459z"/>
		<path d="M88.643,95.178c-0.383,1.584-7.859,0.498-10.489-0.14l-3.178-0.776c-2.64-0.639-5.354-5.479-4.971-7.072l14.872-65.623c0.384-1.584,5.135-0.578,7.77,0.069l3.178,0.767c2.635,0.647,13.462,6.903,13.079,8.486L88.643,95.178z"/>
		<path d="M42.25,125.459c-1.081,0.757-7.506-1.534-9.069-3.745l-1.893-2.68c-1.559-2.222,1.653-4.343,2.729-5.11l40.412-33.449c1.071-0.767,3.78,2.122,5.344,4.344l1.888,2.67c1.564,2.221,8.058,6.932,6.982,7.689L42.25,125.459z"/>
		<g class="stroke-piel-b">
			<path stroke-width="0.7087" stroke-miterlimit="10" d="M35.212,131.256c4.891-2.709,11.106-10.857,8.357-15.838c-2.75-4.961-13.761-4.631-18.657-1.922c-4.891,2.709-4.846,7.211-2.097,12.182C25.565,130.648,30.321,133.966,35.212,131.256z"/>
			<path stroke-width="0.7087" stroke-miterlimit="10" d="M24.475,129.324c0.752-0.419,0.503-2.301-0.115-3.407l0,0c-0.607-1.115-1.37-1.354-2.126-0.937l-16.476,8.875c-0.747,0.419-1.061,1.484-0.443,2.601l0,0c0.613,1.105,2.077,2.321,2.829,1.902L24.475,129.324z"/>
			<path stroke-width="0.7087" stroke-miterlimit="10" d="M24.385,122.352c0.807-0.289,0.862-2.191,0.434-3.377l0,0c-0.429-1.205-1.146-1.564-1.953-1.266L5.19,123.855c-0.812,0.289-1.28,1.305-0.856,2.5l0,0c0.433,1.195,1.688,2.619,2.495,2.331L24.385,122.352z"/>
			<path stroke-width="0.7087" stroke-miterlimit="10" d="M30.85,131.894c0.688-0.528,0.617-1.772-0.16-2.799l0,0c-0.782-1.036-1.952-1.425-2.64-0.887l-14.807,11.545c-0.682,0.528-0.612,1.772,0.165,2.8l0,0c0.782,1.035,1.948,1.414,2.635,0.886L30.85,131.894z"/>
		</g>
		<path d="M38.515,129.882c0.508-0.628,0.184-1.753-0.728-2.53l0,0c-0.916-0.787-2.047-0.906-2.545-0.279L24.375,140.66c-0.503,0.617-0.18,1.752,0.737,2.529l0,0c0.912,0.777,2.042,0.896,2.545,0.27L38.515,129.882z"/>
		<g class="stroke-piel-b">
			<path stroke-width="0.7087" stroke-miterlimit="10" d="M27.338,117.57c0.697,0.069,1.37-1.066,1.484-2.331l0,0c0.115-1.265-0.349-2.501-1.046-2.56l-15.181-1.365c-0.697-0.061-1.369,1.066-1.484,2.33l0,0c-0.115,1.266,0.344,2.501,1.041,2.561L27.338,117.57z"/>
			<path stroke-width="0.7087" stroke-miterlimit="10" d="M279.137,135.858c-4.891-2.7-11.105-10.857-8.357-15.838c2.75-4.961,13.762-4.622,18.658-1.913c4.891,2.699,4.846,7.202,2.096,12.173C288.783,135.25,284.027,138.578,279.137,135.858z"/>
			<path stroke-width="0.7087" stroke-miterlimit="10" d="M289.875,133.926c-0.752-0.418-0.504-2.291,0.115-3.406l0,0c0.607-1.116,1.369-1.355,2.125-0.937l16.477,8.875c0.746,0.419,1.061,1.484,0.443,2.601l0,0c-0.613,1.105-2.078,2.32-2.83,1.902L289.875,133.926z"/>
			<path stroke-width="0.7087" stroke-miterlimit="10" d="M289.965,126.963c-0.807-0.299-0.861-2.191-0.434-3.387l0,0c0.428-1.195,1.145-1.563,1.953-1.265l17.676,6.155c0.811,0.289,1.279,1.305,0.855,2.49l0,0c-0.434,1.195-1.688,2.62-2.494,2.332L289.965,126.963z"/>
			<path stroke-width="0.7087" stroke-miterlimit="10" d="M283.5,136.496c-0.688-0.528-0.617-1.773,0.16-2.799l0,0c0.781-1.037,1.951-1.415,2.639-0.887l14.807,11.545c0.684,0.527,0.613,1.772-0.164,2.799l0,0c-0.781,1.035-1.947,1.414-2.635,0.896L283.5,136.496z"/>
		</g>
		<path d="M275.834,134.484c-0.508-0.629-0.184-1.754,0.729-2.531l0,0c0.916-0.787,2.047-0.906,2.545-0.269l10.867,13.577c0.502,0.617,0.18,1.753-0.736,2.529l0,0c-0.912,0.777-2.043,0.896-2.547,0.279L275.834,134.484z"/>
		<path class="fill-piel-b" stroke-width="0.7087" stroke-miterlimit="10" d="M287.012,122.172c-0.697,0.07-1.371-1.066-1.484-2.331l0,0c-0.115-1.265,0.348-2.5,1.045-2.56l15.182-1.365c0.697-0.06,1.369,1.066,1.484,2.331l0,0c0.113,1.265-0.344,2.501-1.041,2.56L287.012,122.172z"/>
	</g>
	<g fill="#404041">
		<path d="M109.975,36.418c-0.189-0.17-34.734-2.231-34.734-2.231S77.248,2.635,107.484,3.97"/>
		<path d="M203.618,40.82c0.188-0.17,34.261-5.777,34.261-5.777s-1.465-32.158-30.84-30.914"/>
		<polyline points="108.824,33.848 92.005,96.722 47.146,127.959 35.935,107.539 67.571,82.707 75.783,32.244"/>
		<polyline points="203.967,36.646 220.785,99.531 265.641,130.768 276.855,110.338 245.215,85.506 238.008,35.043"/>
	</g>
	<g fill="#FFFFFF">
		<polyline points="55.588,125.698 47.031,128.865 32.722,106.991 39.794,104.003"/>
		<polyline points="258.438,129.683 266.994,132.85 281.299,110.976 274.23,107.987"/>
	</g>
	<g fill="#DBDCDD">
		<path d="M193.518,8.782c0,3.605-16.271,6.523-36.343,6.523s-35.78-2.041-35.78-5.646c0-3.597,15.708-7.392,35.78-7.392S193.518,5.186,193.518,8.782z"/>
		<polyline points="121.938,10.823 157.892,71.021 194.384,10.206"/>
	</g>
	<g fill="#808184">
		<polyline points="121.345,8.872 112.102,14.613 132.716,32.603 157.274,73.731 157.867,68.791"/>
		<polyline points="193.682,8.065 201.197,16.276 183.009,33.2 157.274,73.731 157.16,67.975"/>
	</g>
	<g fill="#231F20">
		<polyline points="156.159,29.595 148.181,52.194 157.16,67.975 167.28,51.436 159.525,30.66"/>
		<path d="M153.813,30.81l-2.849-6.733c0,0,5.833-3.766,6.221-3.766c0.389,0,6.351,2.601,6.351,2.601l-2.331,7.51"/>
	</g>
</svg>
