<svg x="0px" y="0px" width="312.5px" height="151.167px" viewBox="0 0 312.5 151.167">
	<g class="fill-piel-b">
		<path d="M223.229,95.9c0.376,1.554,7.703,0.492,10.282-0.139l3.117-0.757c2.586-0.627,5.251-5.378,4.874-6.934l-14.578-64.336c-0.38-1.554-5.037-0.568-7.62,0.064l-3.118,0.755c-2.583,0.629-13.197,6.763-12.819,8.316L223.229,95.9z"/>
		<path d="M268.714,125.584c1.056,0.744,7.359-1.502,8.894-3.676l1.852-2.62c1.533-2.176-1.62-4.263-2.675-5.007l-39.617-32.799c-1.055-0.746-3.708,2.086-5.241,4.257l-1.85,2.624c-1.533,2.174-7.9,6.795-6.847,7.537L268.714,125.584z"/>
		<path d="M90.634,95.9c-0.374,1.554-7.703,0.492-10.28-0.139l-3.119-0.757c-2.585-0.627-5.249-5.378-4.873-6.934l14.58-64.336c0.377-1.554,5.035-0.568,7.619,0.064l3.117,0.755c2.583,0.629,13.197,6.763,12.82,8.316L90.634,95.9z"/>
		<path d="M45.151,125.584c-1.057,0.744-7.36-1.502-8.893-3.676l-1.851-2.62c-1.533-2.176,1.619-4.263,2.673-5.007l39.619-32.799c1.052-0.746,3.707,2.086,5.241,4.257l1.847,2.624c1.533,2.174,7.901,6.795,6.847,7.537L45.151,125.584z"/>
	</g>
	<path fill="#00415C" d="M216.254,110.781c0,1.153-13.171,12.335-14.398,12.335h-86.016c-1.224,0-13.334-11.874-15.75-14.288l6.589-105.715c0-1.153,0.995-1.864,2.223-1.864h97.806c1.23,0,2.224,0.711,2.224,1.864L216.254,110.781z"/>
	<g class="fill-piel-b">
		<path d="M268.714,125.584c1.056,0.744,7.359-1.502,8.894-3.676l1.852-2.62c1.533-2.176-1.62-4.263-2.675-5.007l-39.617-32.799c-1.055-0.746-3.708,2.086-5.241,4.257l-1.85,2.624c-1.533,2.174-7.9,6.795-6.847,7.537L268.714,125.584z"/>
		<path d="M90.634,95.9c-0.374,1.554-7.703,0.492-10.28-0.139l-3.119-0.757c-2.585-0.627-5.249-5.378-4.873-6.934l14.58-64.336c0.377-1.554,5.035-0.568,7.619,0.064l3.117,0.755c2.583,0.629,13.197,6.763,12.82,8.316L90.634,95.9z"/>
		<path d="M45.151,125.584c-1.057,0.744-7.36-1.502-8.893-3.676l-1.851-2.62c-1.533-2.176,1.619-4.263,2.673-5.007l39.619-32.799c1.052-0.746,3.707,2.086,5.241,4.257l1.847,2.624c1.533,2.174,7.901,6.795,6.847,7.537L45.151,125.584z"/>
		<g class="stroke-piel-b">
			<path stroke-width="0.7087" stroke-miterlimit="10" d="M38.25,131.273c4.795-2.654,10.891-10.654,8.193-15.527c-2.694-4.87-13.491-4.538-18.288-1.886c-4.793,2.65-4.753,7.068-2.057,11.943C28.796,130.673,33.456,133.929,38.25,131.273z"/>
			<path stroke-width="0.7087" stroke-miterlimit="10" d="M27.725,129.374c0.736-0.408,0.494-2.25-0.111-3.34l0,0c-0.599-1.09-1.346-1.327-2.084-0.921l-16.152,8.704c-0.736,0.408-1.041,1.46-0.437,2.547l0,0c0.6,1.091,2.034,2.276,2.772,1.869L27.725,129.374z"/>
			<path stroke-width="0.7087" stroke-miterlimit="10" d="M27.639,122.545c0.791-0.29,0.845-2.149,0.425-3.317l0,0c-0.421-1.175-1.125-1.531-1.917-1.241l-17.327,6.03c-0.797,0.286-1.259,1.279-0.841,2.448l0,0c0.425,1.168,1.655,2.566,2.444,2.28L27.639,122.545z"/>
			<path stroke-width="0.7087" stroke-miterlimit="10" d="M33.976,131.896c0.673-0.521,0.606-1.741-0.158-2.747l0,0c-0.767-1.011-1.912-1.392-2.587-0.866l-14.517,11.317c-0.669,0.519-0.603,1.735,0.16,2.746l0,0c0.77,1.011,1.912,1.384,2.583,0.873L33.976,131.896z"/>
		</g>
		<path d="M41.492,129.923c0.496-0.614,0.18-1.718-0.717-2.486l0,0c-0.896-0.766-2.004-0.881-2.494-0.263l-10.654,13.308c-0.494,0.61-0.176,1.722,0.722,2.486l0,0c0.895,0.767,2.004,0.877,2.494,0.269L41.492,129.923z"/>
		<g class="stroke-piel-b">
			<path stroke-width="0.7087" stroke-miterlimit="10" d="M30.533,117.854c0.683,0.061,1.34-1.045,1.455-2.292l0,0c0.11-1.235-0.34-2.444-1.024-2.505l-14.885-1.338c-0.683-0.065-1.344,1.045-1.455,2.284l0,0c-0.11,1.243,0.339,2.452,1.02,2.509L30.533,117.854z"/>
			<path stroke-width="0.7087" stroke-miterlimit="10" d="M277.395,135.786c-4.795-2.652-10.891-10.652-8.193-15.525c2.694-4.872,13.491-4.54,18.288-1.888c4.794,2.65,4.754,7.068,2.058,11.943C286.849,135.186,282.189,138.442,277.395,135.786z"/>
			<path stroke-width="0.7087" stroke-miterlimit="10" d="M287.921,133.889c-0.736-0.41-0.494-2.252,0.11-3.342l0,0c0.599-1.089,1.346-1.327,2.084-0.921l16.152,8.706c0.736,0.408,1.041,1.458,0.437,2.547l0,0c-0.601,1.089-2.034,2.277-2.772,1.869L287.921,133.889z"/>
			<path stroke-width="0.7087" stroke-miterlimit="10" d="M288.006,127.06c-0.791-0.292-0.844-2.15-0.425-3.317l0,0c0.422-1.174,1.125-1.533,1.916-1.243l17.327,6.033c0.797,0.284,1.259,1.277,0.841,2.448l0,0c-0.425,1.167-1.654,2.566-2.444,2.28L288.006,127.06z"/>
			<path stroke-width="0.7087" stroke-miterlimit="10" d="M281.669,136.41c-0.673-0.521-0.606-1.741,0.158-2.746l0,0c0.767-1.012,1.912-1.392,2.587-0.866l14.518,11.316c0.669,0.521,0.602,1.737-0.16,2.747l0,0c-0.771,1.011-1.913,1.384-2.584,0.872L281.669,136.41z"/>
		</g>
		<path d="M274.153,134.436c-0.496-0.612-0.18-1.718,0.717-2.484l0,0c0.896-0.767,2.004-0.883,2.493-0.263l10.654,13.308c0.494,0.61,0.176,1.72-0.723,2.484l0,0c-0.894,0.767-2.004,0.879-2.493,0.269L274.153,134.436z"/>
		<path stroke="#EDC0B4" stroke-width="0.7087" stroke-miterlimit="10" d="M285.112,122.37c-0.683,0.061-1.341-1.047-1.455-2.292l0,0c-0.11-1.237,0.34-2.446,1.024-2.507l14.885-1.336c0.682-0.065,1.344,1.043,1.454,2.284l0,0c0.11,1.241-0.339,2.452-1.02,2.509L285.112,122.37z"/>
	</g>
	<g fill="#00415C">
		<path d="M111.548,38.291c-0.185-0.158-34.054-2.183-34.054-2.183S79.462,0.362,109.105,1.67"/>
		<path d="M203.354,42.609c0.188-0.16,34.08-3.697,34.08-3.697S235.996,0.213,207.197,1.43"/>
		<polyline points="110.421,35.772 93.929,97.416 49.954,128.043 38.958,108.017 65.923,81.172 82.518,19.118"/>
		<polyline points="208.771,37.244 220.187,100.165 264.16,130.791 275.156,110.766 246.841,79.87 237.07,36.948"/>
	</g>
	<g fill="#A6C4E6">
		<path d="M193.453,5.391c0,3.531-15.951,6.391-35.63,6.391c-19.678,0-35.08-1.998-35.08-5.527c0-3.529,15.402-6.254,35.08-6.254C177.502,0,193.453,1.861,193.453,5.391z"/>
		<polyline points="123.275,6.182 158.528,40.218 194.303,5.844"/>
	</g>
	<g fill="#0E122C">
		<polyline points="122.698,5.124 113.632,13.653 133.845,23.402 157.918,41.688 158.501,39.009"/>
		<polyline points="193.613,4.683 200.981,14.557 183.147,19.726 157.918,41.688 157.807,38.567"/>
	</g>
</svg>
