<svg version="1.0" xmlns="http://www.w3.org/2000/svg" xmlns:xlink="http://www.w3.org/1999/xlink" x="0px" y="0px" width="312.5px"
	 height="151.167px" viewBox="0 0 312.5 151.167" enable-background="new 0 0 312.5 151.167" xml:space="preserve">

<g id="Layer_12">
	<g>
		<g>
			<path fill="#9C6E64" d="M118.841,27.484l-2.883-0.703c-2.39-0.581-4.395,0.166-4.746,1.602L98.675,79.911l-37.064,0.055
				c-1.533-2.462-4.329-4.747-7.057-6.151l-8.211-6.561c-0.488-0.394-1.547,0.115-2.254,1c-0.707,0.886-0.973,2.032-0.484,2.42
				l2.918,2.333c-0.335,0.178-0.646,0.393-0.938,0.637l-14.073-5.22c-0.722-0.258-1.623,0.168-2.005,1.232
				c-0.381,1.067-0.33,2.761,0.39,3.019l13.295,4.764c-0.08,0.235-0.155,0.476-0.225,0.723l-14.069-2.79
				c-0.754-0.142-1.576,0.422-1.783,1.534c-0.208,1.113,0.111,2.778,0.865,2.919l14.359,2.681c0,0.112,0.007,0.221,0.01,0.332
				l-13.112-0.364c-0.772-0.023-1.432,0.87-1.481,2.022c-0.045,1.153,0.54,2.081,1.31,2.107l14.203,0.395
				c0.021,0.044,0.042,0.089,0.065,0.133l-10.907,0.494c-0.766,0.032-1.346,0.961-1.293,2.094c0.049,1.13,0.712,2,1.478,1.968
				l16.638-0.757c0.183-0.008,0.353-0.07,0.508-0.169c2.861,0.125,6.401-0.518,9.072-1.912l42.919,4.227l1.069,0.26
				c0.663,0.162,1.317,0.15,1.932,0.036l0.462,0.045c0.453,0.034,0.896-0.247,1.281-0.74c0.729-0.472,1.258-1.091,1.406-1.707
				l17.947-56.688C126.195,32.844,121.229,28.065,118.841,27.484z"/>
			<path fill="#9C6E64" d="M282.811,121.075l-14.174-4.931c-0.07-0.374-0.173-0.737-0.317-1.088l3.734,0.058
				c0.624,0.011,1.147-1.042,1.167-2.175c0.019-1.133-0.474-2.199-1.102-2.207l-10.509-0.166c-2.999-0.653-6.609-0.671-9.358,0.252
				l-33.713-27.912l-12.798-52.594c-0.352-1.437-2.356-2.183-4.746-1.602l-2.883,0.703c-2.388,0.58-7.354,5.36-7.006,6.797
				L209.055,92.9c0.288,1.193,1.963,2.421,3.888,2.474l35.8,24.066c1.174,2.774,3.495,5.523,5.781,7.248
				c0.057,0.175,0.148,0.332,0.284,0.454l12.35,11.174c0.569,0.513,1.634,0.264,2.392-0.577c0.762-0.839,0.907-1.926,0.336-2.437
				l-8.098-7.324c0.045-0.02,0.09-0.041,0.135-0.062l11.204,8.737c0.613,0.469,1.653,0.126,2.353-0.792
				c0.695-0.919,0.756-2.028,0.146-2.502l-10.345-8.065c0.072-0.084,0.147-0.163,0.219-0.25l12.78,7.072
				c0.672,0.371,1.976-0.71,2.526-1.702c0.547-0.989,0.271-1.947-0.4-2.318l-12.625-6.803c0.104-0.235,0.199-0.468,0.287-0.7
				l13.285,4.787c0.72,0.26,1.837-1.014,2.224-2.079C283.957,122.238,283.533,121.335,282.811,121.075z"/>
		</g>
		<path fill="#CE3D27" d="M184.225,79.346c-0.002-6.287,2.396-19.048,5.204-31.841c5.229-1.358,25.777-6.42,25.777-6.42
			s-6.254-26.514-17.437-30.886c-0.375-0.391-0.963-0.606-1.633-0.606c0,0-14.999-5.33-38.142-4.715
			c-24.785,0.659-36.865,4.791-36.865,4.791c-0.002,0-0.004,0-0.007,0l-0.027-0.083c-12.831,0.773-20.069,31.496-20.069,31.496
			s21.585,4.885,27.479,6.289c2.997,12.649,5.533,25.315,5.476,31.744c-0.106,11.591-12.348,39.055-12.348,39.055
			c0,1.066-1.289,1.5-0.155,1.5h74.051c1.135,0,0.106-0.433,0.106-1.499C195.635,118.168,184.225,91.142,184.225,79.346z"/>
		<path fill="#570800" d="M198.166,121.544c0,1.824-1.521,3.302-3.399,3.302h-73.654c-1.878,0-3.4-1.478-3.4-3.302l0,0
			c0-1.824,1.521-3.302,3.4-3.302h73.654C196.645,118.242,198.166,119.72,198.166,121.544L198.166,121.544z"/>
		<path fill="#570800" d="M189.402,13.663c0,4.796-14.147,8.684-31.596,8.684c-17.454,0-31.602-3.888-31.602-8.684
			s14.148-8.685,31.602-8.685C175.255,4.978,189.402,8.866,189.402,13.663z"/>
	</g>
</g>

</svg>
