<svg x="0px" y="0px" width="312.5px" height="151.167px" viewBox="0 0 312.5 151.167">
	<g class="fill-piel-w">
		<path d="M107.535,92.834c-0.357,1.477-2.772,3.032-5.226,2.433l-2.966-0.721c-2.458-0.597-3.737-3.049-3.379-4.528l14.979-61.558c0.361-1.478,6.32-18.513,8.778-17.916l11.159,11.917c2.456,0.597-4.526,10.586-4.885,12.065L107.535,92.834z"/>
		<path d="M55.406,90.488c-1.223-0.093-3.431-1.351-3.241-3.873l0.229-3.043c0.192-2.522,3.768-2.144,4.991-2.053l48.925-0.074c1.225,0.091,1.458,3.774,1.268,6.296l-0.232,3.045c-0.19,2.52-1.349,4.656-2.574,4.563L55.406,90.488z"/>
		<path d="M45.896,92.423c5.044,0.942,14.213-1.2,15.17-6.327c0.958-5.125-7.037-11.319-12.081-12.261c-5.043-0.942-7.647,2.27-8.604,7.395C39.425,86.355,40.85,91.483,45.896,92.423z"/>
		<path d="M42.174,84.516c0.779,0.143,1.702-1.332,1.915-2.478l0,0c0.215-1.146-0.182-1.762-0.958-1.906l-16.853-3.342c-0.775-0.146-1.621,0.434-1.834,1.578l0,0c-0.213,1.146,0.115,2.857,0.89,3.002L42.174,84.516z"/>
		<path d="M43.434,79.796c0.745,0.263,1.892-1.047,2.286-2.142l0,0c0.394-1.099,0.099-1.772-0.646-2.036l-16.107-5.974c-0.742-0.266-1.669,0.172-2.062,1.268l0,0c-0.392,1.097-0.339,2.84,0.401,3.105L43.434,79.796z"/>
		<path d="M43.682,88.821c0.794,0.025,1.475-0.897,1.521-2.08l0,0c0.05-1.187-0.552-2.144-1.349-2.167l-17.227-0.479c-0.795-0.023-1.473,0.896-1.524,2.08l0,0c-0.046,1.187,0.555,2.14,1.347,2.167L43.682,88.821z"/>
		<path d="M47.21,92.791c0.791-0.035,1.386-0.986,1.333-2.151l0,0c-0.054-1.163-0.732-2.061-1.523-2.022l-17.113,0.775c-0.787,0.033-1.384,0.989-1.33,2.154l0,0c0.051,1.163,0.733,2.057,1.52,2.023L47.21,92.791z"/>
		<path d="M52.333,80.697c0.504,0.401,1.591-0.125,2.32-1.035l0,0c0.725-0.909,1-2.086,0.496-2.489L44.221,68.44c-0.502-0.405-1.591,0.119-2.318,1.029l0,0c-0.727,0.911-1,2.09-0.498,2.489L52.333,80.697z"/>
		<path d="M211.579,94.819c0.356,1.477,2.771,3.032,5.227,2.433l2.965-0.721c2.459-0.597,3.738-3.049,3.379-4.528l-14.979-61.558c-3.746-14.83-6.869-20.246-9.328-19.648l-2.965,0.723c-2.457,0.597-3.117,23.514-2.759,24.993L211.579,94.819z"/>
		<path d="M253.786,123.047c1.002,0.706,3.504,1.142,4.963-0.925l1.762-2.493c1.457-2.068-1.541-4.053-2.545-4.761l-37.686-31.2c-1.002-0.709-3.525,1.983-4.985,4.049l-1.759,2.497c-1.457,2.064-1.922,4.451-0.918,5.158L253.786,123.047z"/>
		<path d="M259.888,130.591c-4.49-2.483-10.199-9.972-7.672-14.537c2.523-4.561,12.631-4.249,17.121-1.766c4.49,2.483,4.453,6.618,1.93,11.181C268.741,130.031,264.378,133.079,259.888,130.591z"/>
		<path d="M267.79,126.862c-0.691-0.384-0.463-2.109,0.102-3.129l0,0c0.562-1.021,1.262-1.242,1.951-0.86l15.125,8.149c0.689,0.382,0.973,1.367,0.41,2.384l0,0c-0.566,1.02-1.906,2.133-2.598,1.75L267.79,126.862z"/>
		<path d="M269.823,122.421c-0.742-0.271-0.791-2.012-0.398-3.107l0,0c0.395-1.099,1.053-1.431,1.793-1.159l16.225,5.645c0.742,0.268,1.18,1.196,0.785,2.292l0,0c-0.396,1.095-1.547,2.405-2.287,2.138L269.823,122.421z"/>
		<path d="M263.888,129.223c-0.629-0.486-0.566-1.63,0.15-2.572l0,0c0.717-0.948,1.791-1.303,2.422-0.812l13.59,10.596c0.627,0.488,0.566,1.628-0.15,2.574l0,0c-0.719,0.944-1.789,1.297-2.418,0.814L263.888,129.223z"/>
		<path d="M258.64,130.039c-0.588-0.531-0.441-1.644,0.34-2.508l0,0c0.783-0.863,1.877-1.123,2.463-0.589l12.705,11.491c0.586,0.525,0.438,1.644-0.346,2.506l0,0c-0.779,0.864-1.875,1.12-2.459,0.593L258.64,130.039z"/>
		<path d="M262.386,117.451c-0.643-0.012-1.146-1.109-1.129-2.276l0,0c0.02-1.163,0.555-2.245,1.201-2.235l13.988,0.221c0.645,0.008,1.15,1.105,1.131,2.27l0,0c-0.018,1.165-0.557,2.249-1.199,2.237L262.386,117.451z"/>
	</g>
	<path fill="#E1C346" d="M196.745,120.755c0,1.097,1.059,1.489-0.107,1.489h-76.165c-1.167,0,0.159-0.392,0.159-1.489c0,0,12.592-28.195,12.701-40.116c0.144-15.999-15.333-69.555-15.333-69.555c0-1.097,0.946-1.861,2.115-1.861c0,0,12.426-4.259,37.918-4.933c23.803-0.632,39.23,4.84,39.23,4.84c1.17,0,2.115,0.624,2.115,1.721c0,0-14.371,54.417-14.367,70.025C185.011,93.01,196.745,120.755,196.745,120.755z"/>
	<g>
		<defs>
			<path id="SVGID_1_" d="M196.88,120.92c0,1.097,1.059,1.489-0.109,1.489h-76.164c-1.167,0,0.159-0.392,0.159-1.489c0,0,12.592-28.195,12.701-40.117c0.144-15.998-15.333-69.554-15.333-69.554c0-1.097,0.946-1.861,2.115-1.861c0,0,5.653-1.937,17.153-3.404c5.552-0.71,12.466-1.311,20.766-1.532c23.803-0.632,39.231,4.842,39.231,4.842c1.168,0,2.115,0.624,2.115,1.722c0,0-14.373,54.417-14.369,70.025C185.144,93.175,196.88,120.92,196.88,120.92z"/>
		</defs>
		<clipPath id="SVGID_2_">
			<use xlink:href="#SVGID_1_"  overflow="visible"/>
		</clipPath>
		<path clip-path="url(#SVGID_2_)" fill="#B7792A" d="M130.082,11.265c-0.577,4.757,4.919,9.708,12.566,11.192c7.65,1.483,14.599-1.056,15.842-5.686l-4.602-17.929l-22.404,4.629L130.082,11.265z"/>
		<path clip-path="url(#SVGID_2_)" fill="#B7792A" d="M186.579,10.648c0.682,4.746-4.701,9.816-12.314,11.47c-7.613,1.651-14.614-0.731-15.958-5.333l27.608-19.607L186.579,10.648z"/>
		<polygon clip-path="url(#SVGID_2_)" fill="#B7792A" points="183.829,3.806 159.403,13.482 134.541,3.476 181.513,-3.471"/>
	</g>
	<g fill="#B7792A">
		<circle cx="158.673" cy="26.203" r="3.479"/>
		<circle cx="158.673" cy="36.857" r="3.479"/>
		<ellipse cx="162.038" cy="13.07" rx="10.701" ry="3.972"/>
	</g>
</svg>
