<svg x="0px" y="0px" width="312.5px" height="151.167px" viewBox="0 0 312.5 151.167">
	<g fill="#EEC0B5">
		<path d="M118.286,25.402l-2.979-0.725c-2.469-0.6-4.541,0.171-4.903,1.655L97.366,79.914l-40.862,1.719c-0.686-0.05-2.109-0.19-3.266,0.137c-1.562-2.603-4.488-5.021-7.36-6.5l-8.485-6.78c-0.506-0.407-1.601,0.119-2.329,1.034c-0.732,0.915-1.005,2.099-0.502,2.5l3.016,2.411c-0.346,0.184-0.666,0.406-0.967,0.657L22.067,69.7c-0.744-0.267-1.675,0.173-2.072,1.273c-0.394,1.102-0.339,2.853,0.405,3.12l13.735,4.921c-0.082,0.243-0.16,0.492-0.232,0.748l-14.535-2.882c-0.779-0.146-1.628,0.436-1.842,1.585c-0.214,1.15,0.113,2.87,0.892,3.016l14.838,2.77c0,0.116,0.007,0.228,0.01,0.343l-13.547-0.377c-0.798-0.023-1.48,0.9-1.53,2.09c-0.047,1.191,0.557,2.149,1.352,2.177l14.676,0.408c0.022,0.046,0.044,0.092,0.067,0.137l-11.27,0.511c-0.791,0.033-1.39,0.993-1.336,2.164c0.051,1.168,0.736,2.066,1.527,2.033l17.191-0.783c0.188-0.008,0.365-0.072,0.525-0.174c4.762,0.208,11.338-1.638,13.045-5.483c0.583,0.097,1.141,0.124,1.52,0.153l44.332,5.532l1.914,0.465c0.698,0.17,1.387,0.153,2.032,0.027l0.441,0.055c0.467,0.036,0.924-0.255,1.323-0.764c0.753-0.488,1.3-1.128,1.454-1.764l18.544-58.571C125.884,30.94,120.753,26.002,118.286,25.402z"/>
		<path d="M289.967,123.662l-14.621-2.425c0.022-0.265,0.037-0.525,0.046-0.782l14.591,0.235c0.791,0.014,1.455-1.606,1.477-2.779c0.02-1.168-0.697-1.909-1.492-1.92l-15.508-0.077c-0.193-0.342-0.416-0.664-0.675-0.958l3.671-1.193c0.615-0.197,0.773-1.402,0.414-2.516c-0.361-1.114-1.201-1.992-1.814-1.788l-10.327,3.354c-2.173,0.251-4.524,0.891-6.559,1.867c-0.415-0.333-0.808-0.603-1.067-0.785L221.532,83.62l-13.454-55.293c-0.362-1.484-2.435-2.255-4.904-1.655l-2.979,0.724c-2.467,0.6-7.599,5.539-7.238,7.026l18.545,58.572c0.215,0.893,1.186,1.805,2.456,2.266l39.235,26.375c-1.072-0.678-0.405,0.023,0.868,0.543c0.936,3.845,5.951,7.4,10.135,8.77c0.114,0.151,0.256,0.272,0.429,0.346l15.811,6.792c0.729,0.308,1.688-0.289,2.146-1.365c0.463-1.077,0.24-2.187-0.488-2.495l-10.367-4.451c0.037-0.034,0.073-0.069,0.109-0.104l13.877,4.788c0.758,0.257,1.66-0.429,2.035-1.56c0.373-1.131,0.061-2.233-0.695-2.495l-12.812-4.422c0.043-0.106,0.09-0.208,0.131-0.316l14.859,2.635c0.781,0.136,1.695-1.355,1.902-2.508C291.336,124.646,290.748,123.8,289.967,123.662z"/>
	</g>
	<path fill="#D7E158" d="M191.371,77.094c-0.002-6.425,1.32-19.079,2.881-31.778c7.809-1.97,23.605-5.862,23.605-5.862S210.664,8.966,197.89,7.017c-0.239-0.065-0.497-0.103-0.77-0.103c0,0-15.499-5.667-39.413-5.033c-25.609,0.68-38.091,4.786-38.091,4.786c-0.002,0-0.004,0-0.007,0l-0.028,0.076c-13.257,0.798-20.737,32.625-20.737,32.625s14.559,3.337,23.367,5.368c1.666,13.956,3.119,28.268,3.057,35.235c-0.109,11.976-5.131,39.128-5.131,39.128c0,1.102-1.332,1.568-0.16,1.568h76.515c1.173,0,0.109-0.455,0.109-1.557C196.601,119.11,191.371,89.282,191.371,77.094z"/>
	<path fill="#09743B" d="M198.889,121.557c0,1.885-1.527,3.412-3.412,3.412h-73.911c-1.885,0-3.412-1.527-3.412-3.412l0,0c0-1.883,1.527-3.412,3.412-3.412h73.911C197.361,118.145,198.889,119.674,198.889,121.557L198.889,121.557z"/>
</svg>
