<svg x="0px" y="0px" width="312.5px" height="151.167px" viewBox="0 0 312.5 151.167">
	<g fill="#EDC0B4" stroke="#EDC0B4">
		<path stroke-width="0.7087" stroke-miterlimit="10" d="M97.849,24.287l-3.11-0.758c-2.577-0.629-7.224-1.616-7.601-0.065l-13.71,60.605l-33.447,27.734c-3.158-0.431-6.736-0.064-9.459,0.85l-14.079-1.266c-0.681-0.063-1.341,1.042-1.451,2.284c-0.11,1.238,0.339,2.448,1.018,2.505L25.116,117c-0.173,0.405-0.297,0.826-0.379,1.259l-15.535,5.418c-0.795,0.282-1.255,1.276-0.839,2.444c0.425,1.168,1.651,2.566,2.438,2.281l14.562-5.255c0.193,0.509,0.417,1.025,0.678,1.549c-0.057,0.023-0.113,0.043-0.169,0.075L9.757,133.47c-0.734,0.407-1.038,1.456-0.436,2.545c0.6,1.086,2.029,2.275,2.766,1.867l15.974-8.852c0.213-0.119,0.336-0.367,0.4-0.673c0.354,0.406,0.722,0.789,1.107,1.136l-12.491,9.753c-0.668,0.522-0.602,1.737,0.16,2.747c0.768,1.01,1.907,1.384,2.577,0.869l14.189-11.083c0.193,0.032,0.388,0.049,0.584,0.064l-6.623,8.287c-0.493,0.61-0.175,1.719,0.721,2.481c0.892,0.766,1.999,0.878,2.488,0.271l10.623-13.307c0.256-0.316,0.291-0.765,0.145-1.23c0.923-0.887,1.809-1.897,2.589-2.972c0.415,0.027,0.741-0.007,0.915-0.13l44.399-29.025c0.54-0.125,0.903-0.328,0.978-0.639c0.095-0.067,0.111-0.175,0.095-0.301l19.721-62.682C111.015,31.042,100.426,24.915,97.849,24.287z"/>
		<path stroke-width="0.7087" stroke-miterlimit="10" d="M304.9,132.912c0.787,0.286,2.014-1.11,2.438-2.28c0.416-1.166-0.044-2.16-0.839-2.444l-15.535-5.416c-0.082-0.435-0.206-0.855-0.38-1.261l9.107-0.824c0.679-0.057,1.128-1.265,1.018-2.505s-0.771-2.348-1.451-2.284l-14.078,1.268c-1.806-0.606-3.988-0.967-6.175-1.021c-0.723-0.993-1.905-1.792-2.476-2.196l-36.032-29.88l-13.709-60.604c-0.379-1.551-5.025-0.564-7.603,0.065l-3.11,0.758c-2.577,0.628-13.166,6.756-12.789,8.311l19.723,62.688c-0.016,0.123,0,0.229,0.093,0.294c0.021,0.087,0.07,0.164,0.134,0.235c0.027,0.031,0.065,0.057,0.101,0.085c0.043,0.034,0.087,0.067,0.14,0.097c0.058,0.033,0.122,0.063,0.19,0.091c0.039,0.016,0.081,0.03,0.124,0.044c0.091,0.031,0.184,0.061,0.29,0.086l44.397,29.025c0.074,0.052,0.18,0.086,0.302,0.109c0.864,2.68,2.817,5.425,4.98,7.503c-0.146,0.465-0.111,0.914,0.145,1.231l10.623,13.306c0.489,0.606,1.596,0.496,2.488-0.271c0.896-0.762,1.214-1.872,0.721-2.482l-6.621-8.285c0.195-0.015,0.39-0.032,0.583-0.064l14.188,11.083c0.67,0.513,1.81,0.139,2.577-0.871c0.762-1.01,0.828-2.225,0.16-2.745l-12.49-9.754c0.385-0.347,0.752-0.729,1.106-1.135c0.063,0.306,0.187,0.553,0.399,0.671l15.974,8.852c0.736,0.408,2.166-0.779,2.766-1.867c0.603-1.088,0.299-2.138-0.436-2.545l-16.114-8.697c-0.057-0.031-0.113-0.051-0.169-0.075c0.261-0.524,0.485-1.04,0.679-1.55L304.9,132.912z"/>
	</g>
	<path fill="#5E377B" d="M235.351,37.588c0,0-0.02-33.16-27.066-33.339c-0.406-0.372-0.997-0.582-1.665-0.582h-97.573c-0.545,0-1.039,0.153-1.425,0.411C79.622,4.044,77.713,35.826,77.713,35.826s22.83,1.368,31.053,1.943l4.986,82.849c2.409,2.411,0.994,2.05,2.216,2.05h85.81c1.225,0,2.218-0.895,2.218-2.049l3.32-78.943C215.938,40.375,235.351,37.588,235.351,37.588z"/>
	<path fill="#8B57A2" d="M185.622,50.593c0,15.347-12.421,27.786-27.738,27.786c-15.319,0-27.74-12.439-27.74-27.786c0-15.345,12.421-27.785,27.74-27.785C173.201,22.808,185.622,35.249,185.622,50.593z"/>
</svg>
