<svg version="1.1" xmlns="http://www.w3.org/2000/svg" xmlns:xlink="http://www.w3.org/1999/xlink" x="0px" y="0px" width="312.5px"
	 height="151.167px" viewBox="0 0 312.5 151.167" enable-background="new 0 0 312.5 151.167" xml:space="preserve">
<g id="piernas1" display="none">
	<g display="inline">
		<path fill="#EEC0B5" d="M122.282,126.539l10.693,175.702l11.06,3.435l2.301-151.455c2.033,0.113,18.861,0.242,18.861-0.056
			c0,0,9.158,48.644,9.313,65.188c0.203,21.705-6.924,86.323-6.924,86.323l11.566-3.435c0,0,11.914-61.808,13.983-82.543
			c2.317-23.216,3.155-93.159,3.155-93.159H122.282z"/>
		<path fill="#214185" d="M200.757,136.317c0-5.845-3.771-10.55-5.19-14.368h-73.855c-2.62,5.378-5.964,12.358-5.964,21.314
			c0,0.179-3.853,53.121-3.853,53.121l92.917-1.09C204.812,195.294,200.757,136.496,200.757,136.317z"/>
	</g>
</g>
<g id="Layer_3" display="none">
	<g display="inline">
		<path fill="#EDC0B4" d="M123.803,123.352l-2.73,82.659l11.777,72.27l12.764,0.723l-1.701-71.157l8.256-50.284
			c1.86,0.104,2.628,0.136,4.008,0.136c2.275,0,12.729-0.169,12.729-0.44l2.913,54.33l-0.621,66.593h12.834l9.534-68.849
			l3.503-85.982H123.803z"/>
		<path fill="#231F20" d="M120.692,122.245l-2.351,85.442l10.567,71.901l20.823-0.717l-2.018-69.099l6.555-47.893
			c0.552,0.023,1.072,0.035,1.722,0.035c4.696,0,7.958-0.015,10.22-0.131l2.754,51.128l-0.843,65.027l20.588,1.089l7.189-67.893
			l1.391-88.739L120.692,122.245z"/>
	</g>
</g>
<g id="Layer_5" display="none">
	<g display="inline">
		<path fill="#214185" d="M118.957,124.437c0,0-3.866,16.582-4.385,24.808c-0.933,14.795,2.647,36.064,6.037,62.477
			c5.729,44.642,13.292,91.39,13.292,91.39l11.247,3.493l3.818-91.083c0,0,4.785-59.893,10.571-59.816
			c5.201,0.068,17.059,62.021,17.059,62.021l-7.457,84.417l9.266,0.086c0,0,19.914-44.272,23.258-86.054
			c2.066-25.842,2.673-46.897,2.584-60.729c-0.115-18.146-5.707-31.01-5.707-31.01H118.957z"/>
		<path fill="#10695D" d="M200.775,125.486c0,1.952-1.583,3.537-3.537,3.537h-76.634c-1.955,0-3.537-1.585-3.537-3.537l0,0
			c0-1.952,1.583-3.537,3.537-3.537h76.634C199.192,121.949,200.775,123.534,200.775,125.486L200.775,125.486z"/>
	</g>
</g>
<g id="cuerpo1">
	<g>
		<g>
			<path fill="#EDC0B4" d="M223.889,95.178c0.383,1.584,7.859,0.498,10.488-0.14l3.184-0.776c2.635-0.639,5.354-5.479,4.971-7.072
				l-14.873-65.623c-0.389-1.584-5.135-0.578-7.77,0.069l-3.182,0.767c-2.635,0.647-13.463,6.903-13.074,8.486L223.889,95.178z"/>
			<path fill="#EDC0B4" d="M270.287,125.459c1.076,0.757,7.506-1.534,9.068-3.745l1.889-2.68c1.562-2.222-1.654-4.343-2.73-5.11
				l-40.406-33.449c-1.076-0.767-3.785,2.122-5.35,4.344l-1.883,2.67c-1.562,2.221-8.057,6.932-6.986,7.689L270.287,125.459z"/>
			<path fill="#EDC0B4" d="M88.643,95.178c-0.383,1.584-7.859,0.498-10.489-0.14l-3.178-0.776c-2.64-0.639-5.354-5.479-4.971-7.072
				l14.872-65.623c0.384-1.584,5.135-0.578,7.77,0.069l3.178,0.767c2.635,0.647,13.462,6.903,13.079,8.486L88.643,95.178z"/>
			<path fill="#EDC0B4" d="M42.25,125.459c-1.081,0.757-7.506-1.534-9.069-3.745l-1.893-2.68c-1.559-2.222,1.653-4.343,2.729-5.11
				l40.412-33.449c1.071-0.767,3.78,2.122,5.344,4.344l1.888,2.67c1.564,2.221,8.058,6.932,6.982,7.689L42.25,125.459z"/>
			<path fill="#404041" d="M204.355,120.787c0,1.186-1.017,2.152-2.267,2.152h-87.736c-1.25,0,0.199,0.309-2.266-2.152
				L105.009,5.434c0-1.175,0.924-1.505,2.18-1.505l99.851,0.2c1.256,0,2.266,0.13,2.266,1.305L204.355,120.787z"/>
			<path fill="#EDC0B4" d="M223.889,95.178c0.383,1.584,7.859,0.498,10.488-0.14l3.184-0.776c2.635-0.639,5.354-5.479,4.971-7.072
				l-14.873-65.623c-0.389-1.584-5.135-0.578-7.77,0.069l-3.182,0.767c-2.635,0.647-11.564,8.836-11.177,10.42L223.889,95.178z"/>
			<path fill="#EDC0B4" d="M270.287,125.459c1.076,0.757,7.506-1.534,9.068-3.745l1.889-2.68c1.562-2.222-1.654-4.343-2.73-5.11
				l-40.406-33.449c-1.076-0.767-3.785,2.122-5.35,4.344l-1.883,2.67c-1.562,2.221-8.057,6.932-6.986,7.689L270.287,125.459z"/>
			<path fill="#EDC0B4" d="M88.643,95.178c-0.383,1.584-7.859,0.498-10.489-0.14l-3.178-0.776c-2.64-0.639-5.354-5.479-4.971-7.072
				l14.872-65.623c0.384-1.584,5.135-0.578,7.77,0.069l3.178,0.767c2.635,0.647,13.462,6.903,13.079,8.486L88.643,95.178z"/>
			<path fill="#EDC0B4" d="M42.25,125.459c-1.081,0.757-7.506-1.534-9.069-3.745l-1.893-2.68c-1.559-2.222,1.653-4.343,2.729-5.11
				l40.412-33.449c1.071-0.767,3.78,2.122,5.344,4.344l1.888,2.67c1.564,2.221,8.058,6.932,6.982,7.689L42.25,125.459z"/>
			<path fill="#EDC0B4" stroke="#EDC0B4" stroke-width="0.7087" stroke-miterlimit="10" d="M35.212,131.256
				c4.891-2.709,11.106-10.857,8.357-15.838c-2.75-4.961-13.761-4.631-18.657-1.922c-4.891,2.709-4.846,7.211-2.097,12.182
				C25.565,130.648,30.321,133.966,35.212,131.256z"/>
			<path fill="#EDC0B4" stroke="#EDC0B4" stroke-width="0.7087" stroke-miterlimit="10" d="M24.475,129.324
				c0.752-0.419,0.503-2.301-0.115-3.407l0,0c-0.607-1.115-1.37-1.354-2.126-0.937l-16.476,8.875
				c-0.747,0.419-1.061,1.484-0.443,2.601l0,0c0.613,1.105,2.077,2.321,2.829,1.902L24.475,129.324z"/>
			<path fill="#EDC0B4" stroke="#EDC0B4" stroke-width="0.7087" stroke-miterlimit="10" d="M24.385,122.352
				c0.807-0.289,0.862-2.191,0.434-3.377l0,0c-0.429-1.205-1.146-1.564-1.953-1.266L5.19,123.855c-0.812,0.289-1.28,1.305-0.856,2.5
				l0,0c0.433,1.195,1.688,2.619,2.495,2.331L24.385,122.352z"/>
			<path fill="#EDC0B4" stroke="#EDC0B4" stroke-width="0.7087" stroke-miterlimit="10" d="M30.85,131.894
				c0.688-0.528,0.617-1.772-0.16-2.799l0,0c-0.782-1.036-1.952-1.425-2.64-0.887l-14.807,11.545
				c-0.682,0.528-0.612,1.772,0.165,2.8l0,0c0.782,1.035,1.948,1.414,2.635,0.886L30.85,131.894z"/>
			<path fill="#EDC0B4" d="M38.515,129.882c0.508-0.628,0.184-1.753-0.728-2.53l0,0c-0.916-0.787-2.047-0.906-2.545-0.279
				L24.375,140.66c-0.503,0.617-0.18,1.752,0.737,2.529l0,0c0.912,0.777,2.042,0.896,2.545,0.27L38.515,129.882z"/>
			<path fill="#EDC0B4" stroke="#EDC0B4" stroke-width="0.7087" stroke-miterlimit="10" d="M27.338,117.57
				c0.697,0.069,1.37-1.066,1.484-2.331l0,0c0.115-1.265-0.349-2.501-1.046-2.56l-15.181-1.365c-0.697-0.061-1.369,1.066-1.484,2.33
				l0,0c-0.115,1.266,0.344,2.501,1.041,2.561L27.338,117.57z"/>
			<path fill="#EDC0B4" stroke="#EDC0B4" stroke-width="0.7087" stroke-miterlimit="10" d="M279.137,135.858
				c-4.891-2.7-11.105-10.857-8.357-15.838c2.75-4.961,13.762-4.622,18.658-1.913c4.891,2.699,4.846,7.202,2.096,12.173
				C288.783,135.25,284.027,138.578,279.137,135.858z"/>
			<path fill="#EDC0B4" stroke="#EDC0B4" stroke-width="0.7087" stroke-miterlimit="10" d="M289.875,133.926
				c-0.752-0.418-0.504-2.291,0.115-3.406l0,0c0.607-1.116,1.369-1.355,2.125-0.937l16.477,8.875
				c0.746,0.419,1.061,1.484,0.443,2.601l0,0c-0.613,1.105-2.078,2.32-2.83,1.902L289.875,133.926z"/>
			<path fill="#EDC0B4" stroke="#EDC0B4" stroke-width="0.7087" stroke-miterlimit="10" d="M289.965,126.963
				c-0.807-0.299-0.861-2.191-0.434-3.387l0,0c0.428-1.195,1.145-1.563,1.953-1.265l17.676,6.155
				c0.811,0.289,1.279,1.305,0.855,2.49l0,0c-0.434,1.195-1.688,2.62-2.494,2.332L289.965,126.963z"/>
			<path fill="#EDC0B4" stroke="#EDC0B4" stroke-width="0.7087" stroke-miterlimit="10" d="M283.5,136.496
				c-0.688-0.528-0.617-1.773,0.16-2.799l0,0c0.781-1.037,1.951-1.415,2.639-0.887l14.807,11.545
				c0.684,0.527,0.613,1.772-0.164,2.799l0,0c-0.781,1.035-1.947,1.414-2.635,0.896L283.5,136.496z"/>
			<path fill="#EDC0B4" d="M275.834,134.484c-0.508-0.629-0.184-1.754,0.729-2.531l0,0c0.916-0.787,2.047-0.906,2.545-0.269
				l10.867,13.577c0.502,0.617,0.18,1.753-0.736,2.529l0,0c-0.912,0.777-2.043,0.896-2.547,0.279L275.834,134.484z"/>
			<path fill="#EDC0B4" stroke="#EDC0B4" stroke-width="0.7087" stroke-miterlimit="10" d="M287.012,122.172
				c-0.697,0.07-1.371-1.066-1.484-2.331l0,0c-0.115-1.265,0.348-2.5,1.045-2.56l15.182-1.365c0.697-0.06,1.369,1.066,1.484,2.331
				l0,0c0.113,1.265-0.344,2.501-1.041,2.56L287.012,122.172z"/>
			<path fill="#404041" d="M109.975,36.418c-0.189-0.17-34.734-2.231-34.734-2.231S77.248,2.635,107.484,3.97"/>
			<path fill="#404041" d="M203.618,40.82c0.188-0.17,34.261-5.777,34.261-5.777s-1.465-32.158-30.84-30.914"/>
		</g>
		<polyline fill="#404041" points="108.824,33.848 92.005,96.722 47.146,127.959 35.935,107.539 67.571,82.707 75.783,32.244 		"/>
		<polyline fill="#404041" points="203.967,36.646 220.785,99.531 265.641,130.768 276.855,110.338 245.215,85.506 238.008,35.043
					"/>
		<polyline fill="#FFFFFF" points="55.588,125.698 47.031,128.865 32.722,106.991 39.794,104.003 		"/>
		<polyline fill="#FFFFFF" points="258.438,129.683 266.994,132.85 281.299,110.976 274.23,107.987 		"/>
		<path fill="#DBDCDD" d="M193.518,8.782c0,3.605-16.271,6.523-36.343,6.523s-35.78-2.041-35.78-5.646
			c0-3.597,15.708-7.392,35.78-7.392S193.518,5.186,193.518,8.782z"/>
		<polyline fill="#DBDCDD" points="121.938,10.823 157.892,71.021 194.384,10.206 		"/>
		<polyline fill="#808184" points="121.345,8.872 112.102,14.613 132.716,32.603 157.274,73.731 157.867,68.791 		"/>
		<polyline fill="#808184" points="193.682,8.065 201.197,16.276 183.009,33.2 157.274,73.731 157.16,67.975 		"/>
		<polyline fill="#231F20" points="156.159,29.595 148.181,52.194 157.16,67.975 167.28,51.436 159.525,30.66 		"/>
		<path fill="#231F20" d="M153.813,30.81l-2.849-6.733c0,0,5.833-3.766,6.221-3.766c0.389,0,6.351,2.601,6.351,2.601l-2.331,7.51"/>
	</g>
</g>
<g id="Layer_6" display="none">
	<g display="inline">
		<path fill="#EDC0B4" d="M223.229,95.9c0.376,1.554,7.703,0.492,10.282-0.139l3.117-0.757c2.586-0.627,5.251-5.378,4.874-6.934
			l-14.578-64.336c-0.38-1.554-5.037-0.568-7.62,0.064l-3.118,0.755c-2.583,0.629-13.197,6.763-12.819,8.316L223.229,95.9z"/>
		<path fill="#EDC0B4" d="M268.714,125.584c1.056,0.744,7.359-1.502,8.894-3.676l1.852-2.62c1.533-2.176-1.62-4.263-2.675-5.007
			l-39.617-32.799c-1.055-0.746-3.708,2.086-5.241,4.257l-1.85,2.624c-1.533,2.174-7.9,6.795-6.847,7.537L268.714,125.584z"/>
		<path fill="#EDC0B4" d="M90.634,95.9c-0.374,1.554-7.703,0.492-10.28-0.139l-3.119-0.757c-2.585-0.627-5.249-5.378-4.873-6.934
			l14.58-64.336c0.377-1.554,5.035-0.568,7.619,0.064l3.117,0.755c2.583,0.629,13.197,6.763,12.82,8.316L90.634,95.9z"/>
		<path fill="#EDC0B4" d="M45.151,125.584c-1.057,0.744-7.36-1.502-8.893-3.676l-1.851-2.62c-1.533-2.176,1.619-4.263,2.673-5.007
			l39.619-32.799c1.052-0.746,3.707,2.086,5.241,4.257l1.847,2.624c1.533,2.174,7.901,6.795,6.847,7.537L45.151,125.584z"/>
		<path fill="#00415C" d="M216.254,110.781c0,1.153-13.171,12.335-14.398,12.335h-86.016c-1.224,0-13.334-11.874-15.75-14.288
			l6.589-105.715c0-1.153,0.995-1.864,2.223-1.864h97.806c1.23,0,2.224,0.711,2.224,1.864L216.254,110.781z"/>
		<path fill="#EDC0B4" d="M268.714,125.584c1.056,0.744,7.359-1.502,8.894-3.676l1.852-2.62c1.533-2.176-1.62-4.263-2.675-5.007
			l-39.617-32.799c-1.055-0.746-3.708,2.086-5.241,4.257l-1.85,2.624c-1.533,2.174-7.9,6.795-6.847,7.537L268.714,125.584z"/>
		<path fill="#EDC0B4" d="M90.634,95.9c-0.374,1.554-7.703,0.492-10.28-0.139l-3.119-0.757c-2.585-0.627-5.249-5.378-4.873-6.934
			l14.58-64.336c0.377-1.554,5.035-0.568,7.619,0.064l3.117,0.755c2.583,0.629,13.197,6.763,12.82,8.316L90.634,95.9z"/>
		<path fill="#EDC0B4" d="M45.151,125.584c-1.057,0.744-7.36-1.502-8.893-3.676l-1.851-2.62c-1.533-2.176,1.619-4.263,2.673-5.007
			l39.619-32.799c1.052-0.746,3.707,2.086,5.241,4.257l1.847,2.624c1.533,2.174,7.901,6.795,6.847,7.537L45.151,125.584z"/>
		<path fill="#EDC0B4" stroke="#EDC0B4" stroke-width="0.7087" stroke-miterlimit="10" d="M38.25,131.273
			c4.795-2.654,10.891-10.654,8.193-15.527c-2.694-4.87-13.491-4.538-18.288-1.886c-4.793,2.65-4.753,7.068-2.057,11.943
			C28.796,130.673,33.456,133.929,38.25,131.273z"/>
		<path fill="#EDC0B4" stroke="#EDC0B4" stroke-width="0.7087" stroke-miterlimit="10" d="M27.725,129.374
			c0.736-0.408,0.494-2.25-0.111-3.34l0,0c-0.599-1.09-1.346-1.327-2.084-0.921l-16.152,8.704c-0.736,0.408-1.041,1.46-0.437,2.547
			l0,0c0.6,1.091,2.034,2.276,2.772,1.869L27.725,129.374z"/>
		<path fill="#EDC0B4" stroke="#EDC0B4" stroke-width="0.7087" stroke-miterlimit="10" d="M27.639,122.545
			c0.791-0.29,0.845-2.149,0.425-3.317l0,0c-0.421-1.175-1.125-1.531-1.917-1.241l-17.327,6.03
			c-0.797,0.286-1.259,1.279-0.841,2.448l0,0c0.425,1.168,1.655,2.566,2.444,2.28L27.639,122.545z"/>
		<path fill="#EDC0B4" stroke="#EDC0B4" stroke-width="0.7087" stroke-miterlimit="10" d="M33.976,131.896
			c0.673-0.521,0.606-1.741-0.158-2.747l0,0c-0.767-1.011-1.912-1.392-2.587-0.866l-14.517,11.317
			c-0.669,0.519-0.603,1.735,0.16,2.746l0,0c0.77,1.011,1.912,1.384,2.583,0.873L33.976,131.896z"/>
		<path fill="#EDC0B4" d="M41.492,129.923c0.496-0.614,0.18-1.718-0.717-2.486l0,0c-0.896-0.766-2.004-0.881-2.494-0.263
			l-10.654,13.308c-0.494,0.61-0.176,1.722,0.722,2.486l0,0c0.895,0.767,2.004,0.877,2.494,0.269L41.492,129.923z"/>
		<path fill="#EDC0B4" stroke="#EDC0B4" stroke-width="0.7087" stroke-miterlimit="10" d="M30.533,117.854
			c0.683,0.061,1.34-1.045,1.455-2.292l0,0c0.11-1.235-0.34-2.444-1.024-2.505l-14.885-1.338c-0.683-0.065-1.344,1.045-1.455,2.284
			l0,0c-0.11,1.243,0.339,2.452,1.02,2.509L30.533,117.854z"/>
		<path fill="#EDC0B4" stroke="#EDC0B4" stroke-width="0.7087" stroke-miterlimit="10" d="M277.395,135.786
			c-4.795-2.652-10.891-10.652-8.193-15.525c2.694-4.872,13.491-4.54,18.288-1.888c4.794,2.65,4.754,7.068,2.058,11.943
			C286.849,135.186,282.189,138.442,277.395,135.786z"/>
		<path fill="#EDC0B4" stroke="#EDC0B4" stroke-width="0.7087" stroke-miterlimit="10" d="M287.921,133.889
			c-0.736-0.41-0.494-2.252,0.11-3.342l0,0c0.599-1.089,1.346-1.327,2.084-0.921l16.152,8.706c0.736,0.408,1.041,1.458,0.437,2.547
			l0,0c-0.601,1.089-2.034,2.277-2.772,1.869L287.921,133.889z"/>
		<path fill="#EDC0B4" stroke="#EDC0B4" stroke-width="0.7087" stroke-miterlimit="10" d="M288.006,127.06
			c-0.791-0.292-0.844-2.15-0.425-3.317l0,0c0.422-1.174,1.125-1.533,1.916-1.243l17.327,6.033c0.797,0.284,1.259,1.277,0.841,2.448
			l0,0c-0.425,1.167-1.654,2.566-2.444,2.28L288.006,127.06z"/>
		<path fill="#EDC0B4" stroke="#EDC0B4" stroke-width="0.7087" stroke-miterlimit="10" d="M281.669,136.41
			c-0.673-0.521-0.606-1.741,0.158-2.746l0,0c0.767-1.012,1.912-1.392,2.587-0.866l14.518,11.316
			c0.669,0.521,0.602,1.737-0.16,2.747l0,0c-0.771,1.011-1.913,1.384-2.584,0.872L281.669,136.41z"/>
		<path fill="#EDC0B4" d="M274.153,134.436c-0.496-0.612-0.18-1.718,0.717-2.484l0,0c0.896-0.767,2.004-0.883,2.493-0.263
			l10.654,13.308c0.494,0.61,0.176,1.72-0.723,2.484l0,0c-0.894,0.767-2.004,0.879-2.493,0.269L274.153,134.436z"/>
		<path fill="#EDC0B4" stroke="#EDC0B4" stroke-width="0.7087" stroke-miterlimit="10" d="M285.112,122.37
			c-0.683,0.061-1.341-1.047-1.455-2.292l0,0c-0.11-1.237,0.34-2.446,1.024-2.507l14.885-1.336c0.682-0.065,1.344,1.043,1.454,2.284
			l0,0c0.11,1.241-0.339,2.452-1.02,2.509L285.112,122.37z"/>
		<path fill="#00415C" d="M111.548,38.291c-0.185-0.158-34.054-2.183-34.054-2.183S79.462,0.362,109.105,1.67"/>
		<path fill="#00415C" d="M203.354,42.609c0.188-0.16,34.08-3.697,34.08-3.697S235.996,0.213,207.197,1.43"/>
		<polyline fill="#00415C" points="110.421,35.772 93.929,97.416 49.954,128.043 38.958,108.017 65.923,81.172 82.518,19.118 		"/>
		<polyline fill="#00415C" points="208.771,37.244 220.187,100.165 264.16,130.791 275.156,110.766 246.841,79.87 237.07,36.948
			"/>
		<path fill="#A6C4E6" d="M193.453,5.391c0,3.531-15.951,6.391-35.63,6.391c-19.678,0-35.08-1.998-35.08-5.527
			c0-3.529,15.402-6.254,35.08-6.254C177.502,0,193.453,1.861,193.453,5.391z"/>
		<polyline fill="#A6C4E6" points="123.275,6.182 158.528,40.218 194.303,5.844 		"/>
		<polyline fill="#0E122C" points="122.698,5.124 113.632,13.653 133.845,23.402 157.918,41.688 158.501,39.009 		"/>
		<polyline fill="#0E122C" points="193.613,4.683 200.981,14.557 183.147,19.726 157.918,41.688 157.807,38.567 		"/>
	</g>
</g>
<g id="Layer_4" display="none">
	<g display="inline">
		<path fill="#EEC0B5" d="M107.535,92.834c-0.357,1.477-2.772,3.032-5.226,2.433l-2.966-0.721c-2.458-0.597-3.737-3.049-3.379-4.528
			l14.979-61.558c0.361-1.478,6.32-18.513,8.778-17.916l11.159,11.917c2.456,0.597-4.526,10.586-4.885,12.065L107.535,92.834z"/>
		<path fill="#EEC0B5" d="M55.406,90.488c-1.223-0.093-3.431-1.351-3.241-3.873l0.229-3.043c0.192-2.522,3.768-2.144,4.991-2.053
			l48.925-0.074c1.225,0.091,1.458,3.774,1.268,6.296l-0.232,3.045c-0.19,2.52-1.349,4.656-2.574,4.563L55.406,90.488z"/>
		<g>
			<path fill="#EEC0B5" d="M45.896,92.423c5.044,0.942,14.213-1.2,15.17-6.327c0.958-5.125-7.037-11.319-12.081-12.261
				c-5.043-0.942-7.647,2.27-8.604,7.395C39.425,86.355,40.85,91.483,45.896,92.423z"/>
			<path fill="#EEC0B5" d="M42.174,84.516c0.779,0.143,1.702-1.332,1.915-2.478l0,0c0.215-1.146-0.182-1.762-0.958-1.906
				l-16.853-3.342c-0.775-0.146-1.621,0.434-1.834,1.578l0,0c-0.213,1.146,0.115,2.857,0.89,3.002L42.174,84.516z"/>
			<path fill="#EEC0B5" d="M43.434,79.796c0.745,0.263,1.892-1.047,2.286-2.142l0,0c0.394-1.099,0.099-1.772-0.646-2.036
				l-16.107-5.974c-0.742-0.266-1.669,0.172-2.062,1.268l0,0c-0.392,1.097-0.339,2.84,0.401,3.105L43.434,79.796z"/>
			<path fill="#EEC0B5" d="M43.682,88.821c0.794,0.025,1.475-0.897,1.521-2.08l0,0c0.05-1.187-0.552-2.144-1.349-2.167
				l-17.227-0.479c-0.795-0.023-1.473,0.896-1.524,2.08l0,0c-0.046,1.187,0.555,2.14,1.347,2.167L43.682,88.821z"/>
			<path fill="#EEC0B5" d="M47.21,92.791c0.791-0.035,1.386-0.986,1.333-2.151l0,0c-0.054-1.163-0.732-2.061-1.523-2.022
				l-17.113,0.775c-0.787,0.033-1.384,0.989-1.33,2.154l0,0c0.051,1.163,0.733,2.057,1.52,2.023L47.21,92.791z"/>
			<path fill="#EEC0B5" d="M52.333,80.697c0.504,0.401,1.591-0.125,2.32-1.035l0,0c0.725-0.909,1-2.086,0.496-2.489L44.221,68.44
				c-0.502-0.405-1.591,0.119-2.318,1.029l0,0c-0.727,0.911-1,2.09-0.498,2.489L52.333,80.697z"/>
		</g>
		<path fill="#EEC0B5" d="M211.579,94.819c0.356,1.477,2.771,3.032,5.227,2.433l2.965-0.721c2.459-0.597,3.738-3.049,3.379-4.528
			l-14.979-61.558c-3.746-14.83-6.869-20.246-9.328-19.648l-2.965,0.723c-2.457,0.597-3.117,23.514-2.759,24.993L211.579,94.819z"/>
		<path fill="#EEC0B5" d="M253.786,123.047c1.002,0.706,3.504,1.142,4.963-0.925l1.762-2.493c1.457-2.068-1.541-4.053-2.545-4.761
			l-37.686-31.2c-1.002-0.709-3.525,1.983-4.985,4.049l-1.759,2.497c-1.457,2.064-1.922,4.451-0.918,5.158L253.786,123.047z"/>
		<g>
			<path fill="#EEC0B5" d="M259.888,130.591c-4.49-2.483-10.199-9.972-7.672-14.537c2.523-4.561,12.631-4.249,17.121-1.766
				c4.49,2.483,4.453,6.618,1.93,11.181C268.741,130.031,264.378,133.079,259.888,130.591z"/>
			<path fill="#EEC0B5" d="M267.79,126.862c-0.691-0.384-0.463-2.109,0.102-3.129l0,0c0.562-1.021,1.262-1.242,1.951-0.86
				l15.125,8.149c0.689,0.382,0.973,1.367,0.41,2.384l0,0c-0.566,1.02-1.906,2.133-2.598,1.75L267.79,126.862z"/>
			<path fill="#EEC0B5" d="M269.823,122.421c-0.742-0.271-0.791-2.012-0.398-3.107l0,0c0.395-1.099,1.053-1.431,1.793-1.159
				l16.225,5.645c0.742,0.268,1.18,1.196,0.785,2.292l0,0c-0.396,1.095-1.547,2.405-2.287,2.138L269.823,122.421z"/>
			<path fill="#EEC0B5" d="M263.888,129.223c-0.629-0.486-0.566-1.63,0.15-2.572l0,0c0.717-0.948,1.791-1.303,2.422-0.812
				l13.59,10.596c0.627,0.488,0.566,1.628-0.15,2.574l0,0c-0.719,0.944-1.789,1.297-2.418,0.814L263.888,129.223z"/>
			<path fill="#EEC0B5" d="M258.64,130.039c-0.588-0.531-0.441-1.644,0.34-2.508l0,0c0.783-0.863,1.877-1.123,2.463-0.589
				l12.705,11.491c0.586,0.525,0.438,1.644-0.346,2.506l0,0c-0.779,0.864-1.875,1.12-2.459,0.593L258.64,130.039z"/>
			<path fill="#EEC0B5" d="M262.386,117.451c-0.643-0.012-1.146-1.109-1.129-2.276l0,0c0.02-1.163,0.555-2.245,1.201-2.235
				l13.988,0.221c0.645,0.008,1.15,1.105,1.131,2.27l0,0c-0.018,1.165-0.557,2.249-1.199,2.237L262.386,117.451z"/>
		</g>
		<path fill="#E1C346" d="M196.745,120.755c0,1.097,1.059,1.489-0.107,1.489h-76.165c-1.167,0,0.159-0.392,0.159-1.489
			c0,0,12.592-28.195,12.701-40.116c0.144-15.999-15.333-69.555-15.333-69.555c0-1.097,0.946-1.861,2.115-1.861
			c0,0,12.426-4.259,37.918-4.933c23.803-0.632,39.23,4.84,39.23,4.84c1.17,0,2.115,0.624,2.115,1.721
			c0,0-14.371,54.417-14.367,70.025C185.011,93.01,196.745,120.755,196.745,120.755z"/>
		<g>
			<defs>
				<path id="SVGID_1_" d="M196.88,120.92c0,1.097,1.059,1.489-0.109,1.489h-76.164c-1.167,0,0.159-0.392,0.159-1.489
					c0,0,12.592-28.195,12.701-40.117c0.144-15.998-15.333-69.554-15.333-69.554c0-1.097,0.946-1.861,2.115-1.861
					c0,0,5.653-1.937,17.153-3.404c5.552-0.71,12.466-1.311,20.766-1.532c23.803-0.632,39.231,4.842,39.231,4.842
					c1.168,0,2.115,0.624,2.115,1.722c0,0-14.373,54.417-14.369,70.025C185.144,93.175,196.88,120.92,196.88,120.92z"/>
			</defs>
			<clipPath id="SVGID_2_">
				<use xlink:href="#SVGID_1_"  overflow="visible"/>
			</clipPath>
			<path clip-path="url(#SVGID_2_)" fill="#B7792A" d="M130.082,11.265c-0.577,4.757,4.919,9.708,12.566,11.192
				c7.65,1.483,14.599-1.056,15.842-5.686l-4.602-17.929l-22.404,4.629L130.082,11.265z"/>
			<path clip-path="url(#SVGID_2_)" fill="#B7792A" d="M186.579,10.648c0.682,4.746-4.701,9.816-12.314,11.47
				c-7.613,1.651-14.614-0.731-15.958-5.333l27.608-19.607L186.579,10.648z"/>
			<polygon clip-path="url(#SVGID_2_)" fill="#B7792A" points="183.829,3.806 159.403,13.482 134.541,3.476 181.513,-3.471 			"/>
		</g>
		<circle fill="#B7792A" cx="158.673" cy="26.203" r="3.479"/>
		<circle fill="#B7792A" cx="158.673" cy="36.857" r="3.479"/>
		<ellipse fill="#B7792A" cx="162.038" cy="13.07" rx="10.701" ry="3.972"/>
	</g>
</g>
<g id="Layer_12" display="none">
	<g display="inline">
		<path fill="#9C6E64" d="M107.899,90.97c-0.347,1.436-2.695,2.947-5.081,2.365l-2.884-0.701c-2.389-0.58-3.633-2.964-3.285-4.402
			l14.562-59.849c0.351-1.436,2.356-2.182,4.746-1.602l2.883,0.703c2.388,0.581,7.354,5.36,7.005,6.798L107.899,90.97z"/>
		<path fill="#9C6E64" d="M57.218,88.69c-1.189-0.091-3.335-1.314-3.151-3.766l0.223-2.958c0.187-2.452,3.664-2.084,4.853-1.996
			l47.566-0.071c1.191,0.088,1.417,3.669,1.232,6.121l-0.227,2.961c-0.184,2.45-1.311,4.526-2.502,4.436L57.218,88.69z"/>
		<g>
			<path fill="#9C6E64" d="M47.972,90.571c4.904,0.916,13.818-1.167,14.749-6.151c0.931-4.983-6.841-11.005-11.745-11.92
				c-4.904-0.916-7.435,2.207-8.366,7.19C41.681,84.672,43.066,89.657,47.972,90.571z"/>
			<path fill="#9C6E64" d="M44.354,82.883c0.757,0.139,1.655-1.295,1.862-2.409l0,0c0.209-1.114-0.177-1.713-0.931-1.853
				l-16.385-3.249c-0.754-0.142-1.576,0.422-1.783,1.534l0,0c-0.208,1.113,0.111,2.778,0.865,2.919L44.354,82.883z"/>
			<path fill="#9C6E64" d="M45.578,78.294c0.724,0.257,1.839-1.017,2.222-2.083l0,0c0.383-1.068,0.096-1.723-0.628-1.979
				l-15.659-5.809c-0.722-0.258-1.623,0.168-2.005,1.232l0,0c-0.381,1.067-0.33,2.761,0.39,3.019L45.578,78.294z"/>
			<path fill="#9C6E64" d="M45.819,87.069c0.772,0.024,1.434-0.873,1.479-2.022l0,0c0.049-1.153-0.537-2.084-1.312-2.107
				l-16.749-0.465c-0.772-0.023-1.432,0.87-1.481,2.022l0,0c-0.045,1.153,0.54,2.081,1.31,2.107L45.819,87.069z"/>
			<path fill="#9C6E64" d="M49.25,90.929c0.769-0.035,1.348-0.959,1.296-2.092l0,0c-0.053-1.131-0.712-2.003-1.481-1.966
				l-16.637,0.754c-0.766,0.032-1.346,0.961-1.293,2.094l0,0c0.049,1.13,0.712,2,1.478,1.968L49.25,90.929z"/>
			<path fill="#9C6E64" d="M54.23,79.17c0.49,0.39,1.547-0.121,2.256-1.006l0,0c0.705-0.884,0.973-2.028,0.483-2.42l-10.626-8.49
				c-0.488-0.394-1.547,0.115-2.254,1l0,0c-0.707,0.886-0.973,2.032-0.484,2.42L54.23,79.17z"/>
		</g>
		<path fill="#9C6E64" d="M209.055,92.9c0.347,1.436,2.695,2.948,5.081,2.365l2.883-0.701c2.391-0.581,3.634-2.964,3.285-4.402
			l-14.562-59.848c-0.352-1.437-2.356-2.183-4.746-1.602l-2.883,0.703c-2.388,0.58-7.354,5.36-7.006,6.797L209.055,92.9z"/>
		<path fill="#9C6E64" d="M250.088,120.344c0.975,0.686,3.408,1.11,4.828-0.899l1.71-2.424c1.417-2.011-1.498-3.94-2.473-4.628
			L217.515,82.06c-0.975-0.69-3.429,1.928-4.848,3.937l-1.709,2.427c-1.418,2.007-1.87,4.328-0.893,5.015L250.088,120.344z"/>
		<g>
			<path fill="#9C6E64" d="M256.021,127.679c-4.365-2.414-9.915-9.694-7.46-14.132c2.454-4.435,12.28-4.131,16.647-1.717
				c4.364,2.414,4.329,6.435,1.876,10.871C264.628,127.134,260.386,130.097,256.021,127.679z"/>
			<path fill="#9C6E64" d="M263.705,124.053c-0.673-0.374-0.45-2.05,0.099-3.042l0,0c0.546-0.994,1.227-1.208,1.896-0.837
				l14.704,7.923c0.672,0.371,0.947,1.329,0.4,2.318l0,0c-0.551,0.991-1.854,2.073-2.526,1.702L263.705,124.053z"/>
			<path fill="#9C6E64" d="M265.682,119.735c-0.722-0.264-0.771-1.957-0.388-3.021l0,0c0.384-1.069,1.023-1.391,1.743-1.127
				l15.773,5.488c0.723,0.26,1.146,1.163,0.765,2.228l0,0c-0.387,1.065-1.504,2.339-2.224,2.079L265.682,119.735z"/>
			<path fill="#9C6E64" d="M259.911,126.349c-0.612-0.473-0.553-1.585,0.146-2.501l0,0c0.696-0.921,1.741-1.267,2.354-0.79
				l13.213,10.301c0.61,0.475,0.55,1.583-0.146,2.502l0,0c-0.699,0.918-1.739,1.261-2.353,0.792L259.911,126.349z"/>
			<path fill="#9C6E64" d="M254.808,127.142c-0.571-0.517-0.428-1.598,0.332-2.438l0,0c0.761-0.839,1.824-1.092,2.394-0.573
				l12.352,11.172c0.571,0.511,0.426,1.598-0.336,2.437l0,0c-0.758,0.841-1.822,1.089-2.392,0.577L254.808,127.142z"/>
			<path fill="#9C6E64" d="M258.45,114.903c-0.625-0.011-1.115-1.078-1.099-2.212l0,0c0.02-1.131,0.541-2.183,1.169-2.173
				l13.599,0.215c0.628,0.008,1.12,1.074,1.102,2.207l0,0c-0.02,1.132-0.543,2.186-1.167,2.175L258.45,114.903z"/>
		</g>
		<path fill="#CE3D27" d="M195.635,118.117c0,1.066,1.028,1.447-0.106,1.447h-74.051c-1.134,0,0.155-0.381,0.155-1.447
			c0,0,12.242-27.412,12.348-39.003c0.14-15.554-14.908-67.622-14.908-67.622c0-1.067,0.92-1.809,2.057-1.809
			c0,0,12.081-4.139,36.865-4.798c23.143-0.615,38.142,4.708,38.142,4.708c1.138,0,2.057,0.606,2.057,1.674
			c0,0-13.973,52.905-13.969,68.08C184.225,91.142,195.635,118.117,195.635,118.117z"/>
		<path fill="#CE3D27" d="M195.136,9.592c12.832,0.773,20.07,31.492,20.07,31.492s-26.806,6.604-26.977,6.75l-3.295-4.189"/>
		<path fill="#CE3D27" d="M121.095,9.592c-12.831,0.773-20.069,31.492-20.069,31.492s28.79,6.513,28.961,6.66l1.31-4.099"/>
		<path fill="#570800" d="M198.166,121.544c0,1.824-1.521,3.302-3.399,3.302h-73.654c-1.878,0-3.4-1.478-3.4-3.302l0,0
			c0-1.824,1.521-3.302,3.4-3.302h73.654C196.645,118.242,198.166,119.72,198.166,121.544L198.166,121.544z"/>
		<path fill="#570800" d="M189.402,13.663c0,4.796-14.147,8.684-31.596,8.684c-17.454,0-31.602-3.888-31.602-8.684
			s14.148-8.685,31.602-8.685C175.255,4.978,189.402,8.866,189.402,13.663z"/>
	</g>
</g>
<g id="Layer_7" display="none">
	<g display="inline">
		<rect x="149.592" y="-12.716" fill="#EEC1B5" width="18.776" height="17.067"/>
		<ellipse fill="#EEC1B5" cx="159" cy="3.673" rx="9.419" ry="6.742"/>
		<ellipse fill="#EEC1B5" cx="159.064" cy="10.987" rx="23.064" ry="6.385"/>
	</g>
</g>
<g id="Layer_10" display="none">
	<g display="inline">
		<g>
			<g>
				<circle fill="#1D1D1B" cx="128.281" cy="-11.654" r="12.646"/>
			</g>
			<rect x="150.244" y="-12.096" fill="#9D6E63" width="17.991" height="16.357"/>
			<ellipse fill="#9D6E63" cx="159.221" cy="3.611" rx="8.995" ry="6.459"/>
		</g>
		<ellipse fill="#9D6E63" cx="158.933" cy="10.365" rx="22.098" ry="6.118"/>
	</g>
</g>
<g id="Layer_11" display="none">
	<g display="inline">
		<g>
			<rect x="142.302" y="-11.699" fill="#EEC1B5" width="33.527" height="20.949"/>
			<path fill="#EEC1B5" d="M175.842,9.219c0,4.678-7.516,8.467-16.783,8.467c-9.266,0-16.78-3.789-16.78-8.467
				c0-4.671,7.514-8.46,16.78-8.46C168.326,0.759,175.842,4.548,175.842,9.219z"/>
		</g>
		<path fill="#EEC1B5" d="M158.278,3.396c14.112,0,25.556,3.167,25.556,7.074s-11.443,7.074-25.556,7.074
			c-14.111,0-25.552-3.167-25.552-7.074S144.167,3.396,158.278,3.396z"/>
	</g>
</g>
<g id="Layer_9" display="none">
	<g display="inline">

			<ellipse transform="matrix(-0.9758 0.2189 -0.2189 -0.9758 389.31 -56.868)" fill="#231F20" cx="197.805" cy="-6.872" rx="10.825" ry="8.84"/>
		<path fill="#231F20" d="M151.432-0.276c4.396,4.391,17.145,5.835,28.472,3.219c11.324-2.613,16.943-8.289,12.547-12.681
			c-4.4-4.391-17.151-5.832-28.471-3.222C152.652-10.346,147.033-4.668,151.432-0.276z"/>

			<ellipse transform="matrix(0.9758 0.2189 -0.2189 0.9758 1.8254 -27.2974)" fill="#231F20" cx="124.118" cy="-5.41" rx="10.824" ry="8.839"/>
		<path fill="#231F20" d="M170.491,1.186c-4.393,4.391-17.145,5.834-28.471,3.219c-11.325-2.613-16.944-8.289-12.547-12.682
			c4.401-4.391,17.151-5.832,28.473-3.221C169.271-8.884,174.891-3.206,170.491,1.186z"/>
		<rect x="144.838" y="-18.304" fill="#EEC1B5" width="27" height="24.545"/>
		<path fill="#EEC1B5" d="M167.157,3.232c0,3.581-4.342,6.483-9.695,6.483c-5.351,0-9.693-2.902-9.693-6.483
			c0-3.58,4.342-6.481,9.693-6.481C162.814-3.249,167.157-0.348,167.157,3.232z"/>
		<path fill="#EEC1B5" d="M158.624,2.247c9.607,0,16.791,2.953,16.791,6.596s-7.184,6.596-16.791,6.596
			c-9.605,0-17.394-2.953-17.394-6.596S149.018,2.247,158.624,2.247z"/>
	</g>
</g>
<g id="Layer_8" display="none">
	<g display="inline">
		<rect x="135.664" y="-11.467" fill="#EEC1B5" width="45.801" height="20.884"/>
		<path fill="#EEC1B5" d="M175.293,9.387c0,4.663-7.492,8.44-16.729,8.44c-9.237,0-16.728-3.777-16.728-8.44
			c0-4.657,7.491-8.435,16.728-8.435C167.801,0.952,175.293,4.729,175.293,9.387z"/>
		<ellipse fill="#EEC1B5" cx="158.563" cy="10.634" rx="25.474" ry="7.052"/>
		<ellipse fill="#D5B4AE" cx="159.142" cy="-13.468" rx="27.059" ry="14.478"/>
	</g>
</g>
</svg>
