<svg class="center-block" version="1.1" x="0px" y="0px" width="170px" height="210px" viewBox="0 0 115 140" enable-background="new 0 0 115 140" xml:space="preserve">
	<path fill="#4C4139" d="M86.117,111.085c0,0,16.473-58.211,16.228-71.032c-0.246-12.822,0.46-18.374-3.921-21.672 c-4.961-3.731-6.189-3.125-6.189-3.125s0.578-7.725-5.576-11.244c-6.155-3.519-38.123-7.427-54.442,1.178 c-14.686,7.741-14.686,7.741-15.67,28.606c-0.983,20.864,24.661,77.289,24.661,77.289"/>
	<path fill="#EDD8D3" d="M103.134,92.361c0-3.545-2.84-6.417-6.369-6.491V28.673c0-9.746-7.655-17.647-17.099-17.647H37.505 c-9.443,0-17.099,7.901-17.099,17.647v57.306c-0.395-0.074-0.799-0.122-1.216-0.122c-3.594,0-6.505,2.912-6.505,6.503 c0,3.593,2.911,6.506,6.505,6.506c0.417,0,0.821-0.048,1.216-0.122v1.914c0,9.492,11.937,17.213,21.04,17.607 c1.863,2.238,0,20.578,0,20.578h32.832v-20.566c9.209-0.277,22.486-8.049,22.486-17.619v-1.806 C100.294,98.778,103.134,95.908,103.134,92.361z"/>
	<path fill="#4C4139" d="M88.449,88.95c0,0,11.647-27.311,6.976-45.815c-0.687-2.718-16.593,6.165-45.251,6.283 c-28.658,0.118-26.129,14.867-26.129,14.867s-0.829,19.638,1.433,23.219c2.263,3.583-6.94-5.419-6.94-5.419l-0.855-53.844 l4.738-13.893L43.9,5.779L86.457,8.68l11.305,14.459l1.625,51.671C99.384,74.81,94.104,84.425,88.449,88.95z"/>
	<circle fill="#060808" cx="43.875" cy="77.259" r="3.051"/>
	<circle fill="#060808" cx="71.943" cy="77.259" r="3.05"/>
	<path fill="#FFFFFF" d="M57.911,104.226c4.273,0,7.738-3.467,7.738-7.739H50.173C50.173,100.759,53.636,104.226,57.911,104.226z"/>
	<path fill="#060808" d="M79.424,68.415c-0.773-1.417-1.794-2.32-3.036-2.682c-2.103-0.615-4.183,0.513-4.201,0.523l-0.485-0.875 c0.1-0.055,2.451-1.338,4.959-0.612c1.51,0.438,2.734,1.503,3.643,3.166L79.424,68.415z"/>
	<path fill="#060808" d="M38.142,69.858l-0.885-0.466c0.053-0.1,1.318-2.461,3.813-3.225c1.503-0.461,3.111-0.24,4.781,0.656 l-0.473,0.881c-1.425-0.764-2.776-0.958-4.017-0.58C39.263,67.767,38.153,69.837,38.142,69.858z"/>
</svg>
