<svg version="1.1" xmlns:x="&ns_extend;" xmlns:i="&ns_ai;" xmlns:graph="&ns_graphs;"
	 xmlns="http://www.w3.org/2000/svg" xmlns:xlink="http://www.w3.org/1999/xlink" x="0px" y="0px" width="115px" height="139px"
	 viewBox="0 0 115 139" enable-background="new 0 0 115 139" xml:space="preserve">
<metadata>
	<sfw  xmlns="&ns_sfw;">
		<slices></slices>
		<sliceSourceBounds  width="91.159" height="139" y="-139" x="11.975" bottomLeftOrigin="true"></sliceSourceBounds>
	</sfw>
</metadata>
<g id="Layer_1" display="none">
	<path display="inline" fill="#4C4139" d="M86.117,111.085c0,0,16.473-58.211,16.228-71.032c-0.246-12.822,0.46-18.374-3.921-21.672
		c-4.961-3.731-6.189-3.125-6.189-3.125s0.578-7.725-5.576-11.244c-6.155-3.519-38.123-7.427-54.442,1.178
		c-14.686,7.741-14.686,7.741-15.67,28.606c-0.983,20.864,24.661,77.289,24.661,77.289"/>
	<path display="inline" fill="#EDD8D3" d="M103.134,92.361c0-3.545-2.84-6.417-6.369-6.491V28.673
		c0-9.746-7.655-17.647-17.099-17.647H37.505c-9.443,0-17.099,7.901-17.099,17.647v57.306c-0.395-0.074-0.799-0.122-1.216-0.122
		c-3.594,0-6.505,2.912-6.505,6.503c0,3.593,2.911,6.506,6.505,6.506c0.417,0,0.821-0.048,1.216-0.122v1.914
		c0,9.492,11.937,17.213,21.04,17.607c1.863,2.238,0,20.578,0,20.578h32.832v-20.566c9.209-0.277,22.486-8.049,22.486-17.619v-1.806
		C100.294,98.778,103.134,95.908,103.134,92.361z"/>
	<path display="inline" fill="#4C4139" d="M88.449,88.95c0,0,11.647-27.311,6.976-45.815c-0.687-2.718-16.593,6.165-45.251,6.283
		c-28.658,0.118-26.129,14.867-26.129,14.867s-0.829,19.638,1.433,23.219c2.263,3.583-6.94-5.419-6.94-5.419l-0.855-53.844
		l4.738-13.893L43.9,5.779L86.457,8.68l11.305,14.459l1.625,51.671C99.384,74.81,94.104,84.425,88.449,88.95z"/>
	<circle display="inline" fill="#060808" cx="43.875" cy="77.259" r="3.051"/>
	<circle display="inline" fill="#060808" cx="71.943" cy="77.259" r="3.05"/>
	<path display="inline" fill="#FFFFFF" d="M57.911,104.226c4.273,0,7.738-3.467,7.738-7.739H50.173
		C50.173,100.759,53.636,104.226,57.911,104.226z"/>
	<g display="inline">
		<path fill="#060808" d="M79.424,68.415c-0.773-1.417-1.794-2.32-3.036-2.682c-2.103-0.615-4.183,0.513-4.201,0.523l-0.485-0.875
			c0.1-0.055,2.451-1.338,4.959-0.612c1.51,0.438,2.734,1.503,3.643,3.166L79.424,68.415z"/>
	</g>
	<g display="inline">
		<path fill="#060808" d="M38.142,69.858l-0.885-0.466c0.053-0.1,1.318-2.461,3.813-3.225c1.503-0.461,3.111-0.24,4.781,0.656
			l-0.473,0.881c-1.425-0.764-2.776-0.958-4.017-0.58C39.263,67.767,38.153,69.837,38.142,69.858z"/>
	</g>
</g>
<g id="Layer_2" display="none">
	<path display="inline" fill="#E79F3B" d="M100.787,132.319c0,0,1.092-79.445,0.848-92.265c-0.246-12.822,0.459-18.374-3.922-21.672
		c-4.961-3.731-6.188-3.125-6.188-3.125s0.578-7.725-5.576-11.244c-6.157-3.519-38.124-7.427-54.444,1.178
		c-14.686,7.741-14.686,7.741-15.669,28.606c-0.984,20.864-0.857,96.679-0.857,96.679"/>
	<path display="inline" fill="#EDD8D3" d="M102.423,92.36c0-3.545-2.84-6.417-6.369-6.491V28.672
		c0-9.746-7.655-17.647-17.098-17.647H36.795c-9.443,0-17.099,7.901-17.099,17.647v57.306c-0.395-0.074-0.799-0.122-1.216-0.122
		c-3.593,0-6.505,2.912-6.505,6.503c0,3.593,2.912,6.506,6.505,6.506c0.417,0,0.821-0.048,1.216-0.122v1.914
		c0,9.492,11.937,17.213,21.041,17.607c1.863,2.239,0,20.736,0,20.736h32.832v-20.724c9.208-0.277,22.485-8.049,22.485-17.619
		v-1.806C99.583,98.777,102.423,95.907,102.423,92.36z"/>
	<path display="inline" fill="#E79F3B" d="M87.738,88.95c0,0,11.648-27.311,6.975-45.815c-0.686-2.718-16.354,21.032-45.013,21.15
		c-28.658,0.118-26.366,0-26.366,0s-0.83,36.354,1.432,39.936c2.262,3.583-6.94-5.419-6.94-5.419l-0.855-70.561l4.738-13.893
		l21.479-8.569L85.746,8.68l11.303,14.459l1.625,51.671C98.673,74.81,93.395,84.424,87.738,88.95z"/>
	<circle display="inline" fill="#060808" cx="43.165" cy="77.259" r="3.051"/>
	<circle display="inline" fill="#060808" cx="71.234" cy="77.259" r="3.05"/>
	<path display="inline" fill="#FFFFFF" d="M57.2,104.225c4.274,0,7.739-3.466,7.739-7.739H49.462
		C49.462,100.759,52.925,104.225,57.2,104.225z"/>
	<g display="inline">
		<path fill="#060808" d="M78.712,68.414c-0.772-1.417-1.793-2.32-3.035-2.682c-2.104-0.615-4.182,0.513-4.202,0.523L70.99,65.38
			c0.1-0.055,2.45-1.338,4.958-0.612c1.511,0.438,2.736,1.503,3.644,3.166L78.712,68.414z"/>
	</g>
	<g display="inline">
		<path fill="#060808" d="M37.431,69.858l-0.885-0.466c0.053-0.1,1.319-2.461,3.814-3.225c1.503-0.461,3.111-0.24,4.781,0.656
			l-0.473,0.881c-1.425-0.764-2.776-0.958-4.016-0.58C38.552,67.766,37.442,69.837,37.431,69.858z"/>
	</g>
	<path display="inline" fill="#060808" d="M73.539,76.189c0,0,2.578-0.315,3.566-0.629c1.63-0.517-3.381,3.457-3.381,3.457h-1.062
		L73.539,76.189z"/>
	<path display="inline" fill="#060808" d="M41.126,75.924c0,0-2.577-0.315-3.565-0.629c-1.629-0.518,3.378,3.456,3.378,3.456h1.067
		L41.126,75.924z"/>
</g>
<g id="Layer_3">
	<path fill="#EDD8D3" d="M102.754,92.584c0-3.545-2.84-6.417-6.369-6.491V28.896c0-9.746-7.655-17.647-17.098-17.647H37.126
		c-9.443,0-17.099,7.901-17.099,17.647v57.306c-0.395-0.074-0.799-0.122-1.216-0.122c-3.593,0-6.505,2.912-6.505,6.503
		c0,3.593,2.912,6.506,6.505,6.506c0.417,0,0.821-0.048,1.216-0.122v1.914c0,9.492,11.937,17.213,21.041,17.607
		c1.863,2.239,0,20.512,0,20.512H73.9v-20.5c9.208-0.277,22.485-8.049,22.485-17.619v-1.806
		C99.915,99.001,102.754,96.131,102.754,92.584z"/>
	<path fill="#31271B" d="M88.069,89.174c0,0,11.648-27.311,6.975-45.815c-0.686-2.718-16.354,21.032-45.013,21.15
		c-28.658,0.118-26.366,0-26.366,0s-0.83,36.354,1.432,39.936c2.262,3.583-6.94-5.419-6.94-5.419l-0.855-70.561l4.738-13.893
		l21.479-8.569l42.558,2.901l11.303,14.459l1.625,51.671C99.004,75.034,93.726,84.648,88.069,89.174z"/>
	<circle fill="#060808" cx="43.496" cy="77.483" r="3.051"/>
	<circle fill="#060808" cx="71.565" cy="77.483" r="3.05"/>
	<path fill="#FFFFFF" d="M57.531,104.449c4.274,0,7.739-3.466,7.739-7.739H49.793C49.793,100.983,53.256,104.449,57.531,104.449z"/>
	<g>
		<path fill="#060808" d="M79.043,68.638c-0.772-1.417-1.793-2.32-3.035-2.682c-2.104-0.615-4.182,0.513-4.202,0.523l-0.485-0.875
			c0.1-0.055,2.45-1.338,4.958-0.612c1.511,0.438,2.736,1.503,3.644,3.166L79.043,68.638z"/>
	</g>
	<g>
		<path fill="#060808" d="M37.762,70.082l-0.885-0.466c0.053-0.1,1.319-2.461,3.814-3.225c1.503-0.461,3.111-0.24,4.781,0.656
			l-0.473,0.881c-1.425-0.764-2.776-0.958-4.016-0.58C38.883,67.99,37.773,70.061,37.762,70.082z"/>
	</g>
	<path fill="#060808" d="M73.87,76.413c0,0,2.578-0.315,3.566-0.629c1.63-0.517-3.381,3.457-3.381,3.457h-1.062L73.87,76.413z"/>
	<path fill="#060808" d="M41.457,76.148c0,0-2.577-0.315-3.565-0.629c-1.629-0.518,3.378,3.456,3.378,3.456h1.067L41.457,76.148z"/>
	<polygon fill="#31271B" points="57.392,107.809 56.391,111.809 60.172,111.809 59.172,107.809 	"/>
	<circle fill="none" stroke="#E69F54" stroke-miterlimit="10" cx="99.389" cy="99.195" r="2.386"/>
</g>
</svg>
