<svg version="1.1"
	 xmlns="http://www.w3.org/2000/svg" xmlns:xlink="http://www.w3.org/1999/xlink" x="0px" y="0px" width="100px" height="100px"
	 viewBox="-5 -5 104 100" enable-background="new -5 -5 100 100" xml:space="preserve">
<g>
	<path fill="#EEC1B5" d="M74.798,40.935c0-12.98-13.383-23.9-29.892-23.9c-16.508,0-29.892,11.119-29.892,24.1
		c0,0.146-0.138,31.58-0.138,31.58h0.017c0.344,4.713,13.661,9.474,30.049,9.474c16.389,0,29.705-4.761,30.049-9.474h0.016
		C75.007,72.713,74.798,41.083,74.798,40.935z"/>
	<path fill="#D5B4AE" d="M44.676,65.412c-11.367,0-21.755-2.441-29.738-6.281c-0.031,7.115-0.061,13.582-0.061,13.582h0.017
		c0.344,4.713,13.661,9.473,30.049,9.473c16.389,0,29.706-4.76,30.049-9.473h0.016c0,0-0.045-6.611-0.094-13.822
		C66.867,62.873,56.281,65.412,44.676,65.412z"/>
	<path fill="#EEC1B5" d="M15.801,47.83c-1.572,0.251-4.27,2.278-4.27,4.745c0,2.464,2.697,4.493,4.27,4.743V47.83z"/>
	<path fill="#EEC1B5" d="M74.73,57.318c2.357-0.25,4.271-2.279,4.271-4.743c0-2.467-1.912-4.494-4.271-4.745V57.318z"/>
	<circle fill="#060809" cx="34.278" cy="53.132" r="1.699"/>
	<path fill="#FFFFFF" d="M43.932,74.248c4.011,0,7.259-3.252,7.259-7.258H36.675C36.675,70.996,39.922,74.248,43.932,74.248z"/>
	<g>
		<path fill="#060809" d="M29.982,47.145l-0.492-0.262c0.029-0.055,0.736-1.369,2.124-1.795c0.838-0.257,1.733-0.135,2.664,0.365
			l-0.265,0.491c-0.793-0.425-1.545-0.536-2.236-0.324C30.607,45.979,29.988,47.133,29.982,47.145z"/>
	</g>
	<path fill="#DCAA9D" d="M44.174,40.923c0,0-3.082,18.01-2.868,19.35c0.194,1.234,1.345,2.211,2.565,2.06
		c1.209,0.224,2.414-0.688,2.68-1.91C46.839,59.098,44.174,40.923,44.174,40.923z"/>
	<path fill="#604416" d="M74.202,55.719c0,0-5.216-14.455-8.769-25.734c-0.521-1.656-46.718,10.939-46.718,10.939
		s-1.875,11.746-3.33,14.231c-0.518-0.73-1.434-6.487-1.434-6.487s-2.545-28.786,12.086-32.733
		c20.532-5.541,33.91,3.187,33.91,3.187s15.058-2.853,14.897,10.242c-0.136,10.898,0.581,18.583,0.581,18.583
		S75.007,49.754,74.202,55.719z"/>
	<circle fill="#060809" cx="52.893" cy="53.134" r="1.697"/>
	<g>
		<path fill="#060809" d="M56.495,48.907c-0.433-0.788-1-1.291-1.69-1.495c-1.172-0.342-2.33,0.288-2.341,0.292l-0.271-0.487
			c0.056-0.03,1.363-0.744,2.761-0.34c0.842,0.242,1.522,0.837,2.028,1.766L56.495,48.907z"/>
	</g>
	<g>
		<rect x="34.658" y="76.641" fill="#EEC1B5" width="21.215" height="13.357"/>
		<path fill="#EEC1B5" d="M55.773,89.602c0,2.982-4.791,5.398-10.7,5.398s-10.7-2.416-10.7-5.398c0-2.979,4.791-5.395,10.7-5.395
			S55.773,86.623,55.773,89.602z"/>
	</g>
	<path fill="#EEC1B5" d="M74.798,40.935c0-12.98-13.383-23.9-29.892-23.9c-16.508,0-29.892,11.119-29.892,24.1
		c0,0.146-0.138,31.58-0.138,31.58h0.017c0.344,4.713,13.661,9.474,30.049,9.474c16.389,0,29.705-4.761,30.049-9.474h0.016
		C75.007,72.713,74.798,41.083,74.798,40.935z"/>
	<path fill="#D5B4AE" d="M44.676,65.412c-11.367,0-21.755-2.441-29.738-6.281c-0.031,7.115-0.061,13.582-0.061,13.582h0.017
		c0.344,4.713,13.661,9.473,30.049,9.473c16.389,0,29.706-4.76,30.049-9.473h0.016c0,0-0.045-6.611-0.094-13.822
		C66.867,62.873,56.281,65.412,44.676,65.412z"/>
	<path fill="#EEC1B5" d="M15.801,47.83c-1.572,0.251-4.27,2.278-4.27,4.745c0,2.464,2.697,4.493,4.27,4.743V47.83z"/>
	<path fill="#EEC1B5" d="M74.73,57.318c2.357-0.25,4.271-2.279,4.271-4.743c0-2.467-1.912-4.494-4.271-4.745V57.318z"/>
	<circle fill="#060809" cx="34.977" cy="53.132" r="1.699"/>
	<path fill="#FFFFFF" d="M45.07,74.248c4.011,0,7.261-3.252,7.261-7.258H37.814C37.814,70.996,41.061,74.248,45.07,74.248z"/>
	<g>
		<path fill="#060809" d="M30.682,47.145l-0.494-0.262c0.03-0.055,0.736-1.369,2.125-1.795c0.838-0.257,1.732-0.135,2.664,0.365
			l-0.266,0.491c-0.793-0.425-1.545-0.536-2.236-0.324C31.306,45.979,30.687,47.133,30.682,47.145z"/>
	</g>
	<path fill="#DCAA9D" d="M45.182,40.923c0,0-3.082,18.01-2.869,19.35c0.196,1.234,1.346,2.211,2.566,2.06
		c1.209,0.224,2.414-0.688,2.68-1.91C47.846,59.098,45.182,40.923,45.182,40.923z"/>
	<path fill="#604416" d="M74.202,55.719c0,0-5.216-14.455-8.769-25.734c-0.521-1.656-46.718,10.939-46.718,10.939
		s-1.875,11.746-3.33,14.231c-0.518-0.73-1.434-6.487-1.434-6.487s-2.545-28.786,12.086-32.733
		c20.532-5.541,33.91,3.187,33.91,3.187s15.058-2.853,14.897,10.242c-0.136,10.898,0.581,18.583,0.581,18.583
		S75.007,49.754,74.202,55.719z"/>
	<circle fill="#060809" cx="54.029" cy="53.134" r="1.697"/>
	<g>
		<path fill="#060809" d="M57.634,48.907c-0.431-0.788-0.997-1.291-1.69-1.495c-1.172-0.342-2.328,0.288-2.34,0.292l-0.271-0.487
			c0.056-0.03,1.365-0.744,2.76-0.34c0.843,0.242,1.525,0.837,2.03,1.766L57.634,48.907z"/>
	</g>
</g>
</svg>
