<?xml version="1.0" encoding="utf-8"?>
<!-- Generator: Adobe Illustrator 15.0.0, SVG Export Plug-In . SVG Version: 6.00 Build 0)  -->
<svg version="1.1" id="Layer_1" xmlns:x="&ns_extend;" xmlns:i="&ns_ai;" xmlns:graph="&ns_graphs;"
	 xmlns="http://www.w3.org/2000/svg" xmlns:xlink="http://www.w3.org/1999/xlink" x="0px" y="0px" width="104.715px"
	 height="104.595px" viewBox="0 0 104.715 104.595" enable-background="new 0 0 104.715 104.595" xml:space="preserve">
<metadata>
	<sfw  xmlns="&ns_sfw;">
		<slices></slices>
		<sliceSourceBounds  x="473.849" y="-555.529" height="102.665" width="80.131" bottomLeftOrigin="true"></sliceSourceBounds>
	</sfw>
</metadata>
<g>
	<rect x="37.234" y="82.343" fill="#EEC1B5" width="34.79" height="15.863"/>
	<path fill="#EEC1B5" d="M67.336,98.185c0,3.541-5.689,6.41-12.707,6.41c-7.017,0-12.707-2.869-12.707-6.41
		c0-3.537,5.69-6.408,12.707-6.408C61.646,91.776,67.336,94.647,67.336,98.185z"/>
	<path fill="#EEC1B5" d="M90.577,36.655c0-15.415-15.897-28.386-35.502-28.386c-19.606,0-35.503,13.206-35.503,28.624
		c0,0.172-0.163,37.5-0.163,37.5h0.018c0.409,5.6,16.226,11.252,35.689,11.252c19.463,0,35.278-5.652,35.688-11.252h0.021
		C90.825,74.394,90.577,36.833,90.577,36.655z"/>
	<path fill="#D5B4AE" d="M54.801,64.532c-13.5,0-25.839-2.896-35.319-7.457c-0.037,8.449-0.072,19.693-0.072,19.693h0.018
		c0.409,5.6,16.226,11.252,35.689,11.252c19.463,0,35.278-5.652,35.688-11.252h0.021c0,0-0.056-11.416-0.114-19.98
		C81.156,61.519,68.584,64.532,54.801,64.532z"/>
	<g>
		<path fill="#EEC1B5" d="M19.634,44.845c-1.867,0.296-5.071,2.705-5.071,5.632s3.204,5.338,5.071,5.635V44.845z"/>
		<path fill="#EEC1B5" d="M89.623,56.112c2.801-0.297,5.071-2.707,5.071-5.635s-2.271-5.336-5.071-5.632V56.112z"/>
	</g>
	<ellipse fill="#EEC1B5" cx="54.629" cy="99.132" rx="19.35" ry="5.357"/>
	<path fill="#1D1D1B" d="M85.971,52.999c0,0-35.935-38.292-51.136-33.323c-8.115,2.653-12.552,28.066-14.281,31.021
		c-0.615-0.869-1.702-7.705-1.702-7.705S15.829,8.805,33.205,4.117c24.387-6.581,40.274,3.786,40.274,3.786
		s17.885-3.389,17.695,12.162c-0.161,12.944,0.69,22.071,0.69,22.071S89.571,48.025,85.971,52.999z"/>
	<ellipse fill="#D5B4AE" cx="55.068" cy="80.823" rx="20.554" ry="10.998"/>
	<circle fill="#060809" cx="43.093" cy="51.141" r="2.016"/>
	<path fill="#FFFFFF" d="M55.082,76.218c4.764,0,8.623-3.861,8.623-8.619H46.464C46.464,72.356,50.319,76.218,55.082,76.218z"/>
	<g>
		<path fill="#060809" d="M37.992,44.031l-0.587-0.309c0.035-0.067,0.875-1.628,2.524-2.134c0.995-0.304,2.057-0.157,3.164,0.434
			l-0.315,0.584c-0.941-0.505-1.834-0.636-2.656-0.385C38.733,42.646,37.997,44.017,37.992,44.031z"/>
	</g>
	<path fill="#DCAA9D" d="M55.214,36.643c0,0-3.661,21.385-3.408,22.979c0.232,1.465,1.599,2.625,3.049,2.443
		c1.436,0.266,2.866-0.814,3.183-2.268C58.378,58.226,55.214,36.643,55.214,36.643z"/>
	<path fill="#060809" d="M65.725,49.127c1.113,0,2.016,0.9,2.016,2.016c0,1.113-0.902,2.014-2.016,2.014
		c-1.118,0-2.02-0.9-2.02-2.014C63.705,50.028,64.606,49.127,65.725,49.127z"/>
	<g>
		<path fill="#060809" d="M70.001,46.123c-0.51-0.935-1.185-1.531-2.006-1.774c-1.393-0.403-2.768,0.341-2.781,0.348l-0.317-0.58
			c0.064-0.035,1.619-0.884,3.275-0.404c1.002,0.29,1.812,0.993,2.412,2.095L70.001,46.123z"/>
	</g>
</g>
</svg>
