<?xml version="1.0" encoding="utf-8"?>
<!-- Generator: Adobe Illustrator 15.0.0, SVG Export Plug-In . SVG Version: 6.00 Build 0)  -->
<svg version="1.1" id="Layer_1" xmlns:x="&ns_extend;" xmlns:i="&ns_ai;" xmlns:graph="&ns_graphs;"
	 xmlns="http://www.w3.org/2000/svg" xmlns:xlink="http://www.w3.org/1999/xlink" x="0px" y="0px" width="104.715px"
	 height="104.595px" viewBox="0 0 104.715 104.595" enable-background="new 0 0 104.715 104.595" xml:space="preserve">
<metadata>
	<sfw  xmlns="&ns_sfw;">
		<slices></slices>
		<sliceSourceBounds  x="461.836" y="-555.529" height="104.595" width="99.613" bottomLeftOrigin="true"></sliceSourceBounds>
	</sfw>
</metadata>
<g>
	<g>
		<g>
			<circle fill="#1D1D1B" cx="15.765" cy="55.171" r="13.214"/>
			<circle fill="#1D1D1B" cx="15.765" cy="36.996" r="10.438"/>
			<circle fill="#1D1D1B" cx="21.664" cy="20.084" r="10.438"/>
			<circle fill="#1D1D1B" cx="21.343" cy="72.852" r="10.438"/>
			<circle fill="#1D1D1B" cx="29.862" cy="81.371" r="10.438"/>
			<circle fill="#1D1D1B" cx="43.087" cy="78.476" r="10.436"/>
			<circle fill="#1D1D1B" cx="81.871" cy="78.476" r="10.437"/>
			<circle fill="#1D1D1B" cx="91.116" cy="66.656" r="10.438"/>
			<circle fill="#1D1D1B" cx="67.841" cy="78.476" r="10.438"/>
			<circle fill="#1D1D1B" cx="91.726" cy="52.264" r="10.438"/>
			<circle fill="#1D1D1B" cx="91.726" cy="36.996" r="10.438"/>
			<circle fill="#1D1D1B" cx="89.704" cy="20.084" r="10.438"/>
			<circle fill="#1D1D1B" cx="71.434" cy="15.936" r="12.309"/>
			<circle fill="#1D1D1B" cx="40.576" cy="12.308" r="12.307"/>
			<circle fill="#1D1D1B" cx="57.251" cy="12.308" r="12.308"/>
		</g>
		<rect x="47.989" y="81.006" fill="#9D6E63" width="14.85" height="13.5"/>
		<ellipse fill="#9D6E63" cx="55.4" cy="93.971" rx="7.424" ry="5.331"/>
		<path fill="#9D6E63" d="M88.535,40.346c0-14.638-14.709-26.66-32.854-26.66c-18.143,0-32.854,12.103-32.854,26.739
			c0,0.166-0.149,28.431-0.149,28.431h0.017C23.072,75.606,37.71,86.28,55.722,86.28c18.014,0,32.647-10.674,33.026-17.425
			l-0.287-5.893C88.461,62.963,88.535,40.512,88.535,40.346z"/>
		<path fill="#9D6E63" d="M23.665,54.076c-1.349,0.234-4,2.135-4,4.442c0,2.31,2.651,4.211,4,4.444V54.076z"/>
		<path fill="#9D6E63" d="M88.461,62.963c1.349-0.233,3.998-2.135,3.998-4.444c0-2.308-2.649-4.208-3.998-4.442V62.963z"/>
		<circle fill="#060809" cx="45.235" cy="56.221" r="2.146"/>
		<circle fill="#060809" cx="64.986" cy="56.22" r="2.146"/>
		<path fill="#FFFFFF" d="M55.379,78.296c3.01,0,5.448-2.438,5.448-5.444H49.933C49.933,75.857,52.369,78.296,55.379,78.296z"/>
		<g>
			<path fill="#060809" d="M70.247,49.998c-0.543-0.997-1.261-1.634-2.137-1.89c-1.479-0.431-2.942,0.363-2.953,0.37l-0.342-0.614
				c0.068-0.04,1.722-0.943,3.488-0.432c1.063,0.308,1.926,1.057,2.562,2.227L70.247,49.998z"/>
		</g>
		<g>
			<path fill="#060809" d="M41.2,51.014l-0.622-0.33c0.038-0.066,0.928-1.73,2.684-2.267c1.056-0.324,2.188-0.168,3.363,0.461
				l-0.332,0.619c-1.002-0.535-1.955-0.673-2.828-0.407C41.989,49.543,41.208,51,41.2,51.014z"/>
		</g>
		<path fill="#875047" d="M55.251,55.03c0,0-4.126,10.731-3.778,11.546c0.323,0.747,2.059,1.361,3.872,1.303
			c1.805,0.162,3.574-0.352,3.937-1.08C59.679,66.009,55.251,55.03,55.251,55.03z"/>
		<polyline fill="#060809" points="66.034,54.706 69.493,55.383 66.447,57.791 		"/>
		<polyline fill="#060809" points="43.461,55.016 40.196,55.641 43.891,57.889 		"/>
		<circle fill="#FFFFFF" cx="89.443" cy="62.371" r="1.671"/>
		<circle fill="#FFFFFF" cx="23.298" cy="62.371" r="1.672"/>
		<ellipse fill="#1D1D1B" cx="50.483" cy="27.08" rx="14.503" ry="12.012"/>
		<ellipse fill="#1D1D1B" cx="32.184" cy="35.386" rx="12.759" ry="10.772"/>
		<ellipse fill="#1D1D1B" cx="40.254" cy="22.532" rx="10.227" ry="8.686"/>
		<ellipse fill="#1D1D1B" cx="62.271" cy="18.946" rx="14.891" ry="9.299"/>
		<ellipse fill="#1D1D1B" cx="82.731" cy="23.145" rx="14.891" ry="9.3"/>

			<ellipse transform="matrix(0.9939 0.1102 -0.1102 0.9939 4.5666 -8.6624)" fill="#1D1D1B" cx="80.678" cy="36.996" rx="10.106" ry="8.898"/>
		<ellipse fill="#1D1D1B" cx="87.772" cy="45.911" rx="7.524" ry="9.624"/>
		<ellipse fill="#1D1D1B" cx="70.207" cy="30.807" rx="11.082" ry="6.189"/>
		<ellipse fill="#1D1D1B" cx="50.483" cy="18.954" rx="14.503" ry="8.126"/>
		<ellipse fill="#1D1D1B" cx="31.96" cy="25.651" rx="8.295" ry="5.567"/>
		<ellipse fill="#1D1D1B" cx="26.203" cy="47.433" rx="6.754" ry="7.532"/>
	</g>
	<path fill="#9D6E63" d="M55.16,94.494c10.075,0,18.241,2.262,18.241,5.051s-8.166,5.05-18.241,5.05
		c-10.071,0-18.239-2.261-18.239-5.05S45.089,94.494,55.16,94.494z"/>
</g>
</svg>
