<svg version="1.1" x="0px" y="0px"
	 width="100px" height="100px" viewBox="0 0 100 100" enable-background="new 0 0 100 100" xml:space="preserve">
<g>
	<path fill="#92692C" d="M88.277,78.627c0,1.998-20.068,9.033-38.133,8.574C32.119,86.744,9.721,78.635,9.721,76.635l8.217-36.795
		c0-1.998,1.576-0.754,3.572-0.754h55.465c1.996,0,3.615,1.619,3.615,3.617L88.277,78.627z"/>
	<path fill="#EEC1B5" d="M79.453,47.381c0-13.074-13.139-23.812-29.345-23.812S20.762,34.379,20.762,47.451
		c0,0.148-0.133,25.395-0.133,25.395h0.016c0.336,6.029,13.41,15.562,29.5,15.562c16.088,0,29.16-9.533,29.498-15.562l-0.258-5.264
		C79.385,67.582,79.453,47.529,79.453,47.381z"/>
	<path fill="#EEC1B5" d="M21.51,59.645c-1.205,0.209-3.572,1.906-3.572,3.969s2.367,3.76,3.572,3.969V59.645z"/>
	<path fill="#EEC1B5" d="M79.385,67.582c1.205-0.209,3.572-1.906,3.572-3.969s-2.367-3.76-3.572-3.969V67.582z"/>
	<path fill="#92692C" d="M79.385,59.645c0,0-14.971-1.469-19.05-22.217c-0.529-1.68-2.592,6.793-18.317,17.574
		c-8.338,5.719-24.08,5.205-24.08,5.205l0.292-20.131c0,0,0-15.451,18.387-19.377c14.013-2.992,27.054,4.068,27.054,4.068
		s5.165-1.959,11.494,2.262c3.958,2.639,5.426,16.879,5.426,16.879l0.051,9.982C80.639,53.891,85.111,61.301,79.385,59.645z"/>
	<path fill="#92692C" d="M79.385,59.645c0,0-14.971-1.469-19.05-22.217c-0.529-1.68-2.592,6.793-18.317,17.574
		c-8.338,5.719-24.08,5.205-24.08,5.205l0.292-20.131c0,0,0-15.451,18.387-19.377c14.013-2.992,27.054,4.068,27.054,4.068
		s5.165-1.959,11.494,2.262c3.958,2.639,5.426,16.879,5.426,16.879l0.051,9.982C80.639,53.891,85.111,61.301,79.385,59.645z"/>
	<circle fill="#060809" cx="40.776" cy="61.561" r="1.918"/>
	<circle fill="#060809" cx="58.418" cy="61.56" r="1.917"/>
	<g>
		<path fill="#060809" d="M63.117,56.002c-0.485-0.891-1.126-1.459-1.908-1.688c-1.321-0.385-2.628,0.324-2.639,0.33l-0.305-0.549
			c0.062-0.035,1.538-0.842,3.115-0.385c0.95,0.275,1.72,0.943,2.289,1.988L63.117,56.002z"/>
	</g>
	<g>
		<path fill="#060809" d="M37.172,56.908l-0.556-0.293c0.034-0.061,0.829-1.547,2.397-2.025c0.943-0.289,1.955-0.15,3.004,0.412
			l-0.297,0.553c-0.896-0.479-1.746-0.602-2.525-0.363C37.877,55.596,37.18,56.896,37.172,56.908z"/>
	</g>
	<polyline fill="#060809" points="59.354,60.207 62.443,60.811 59.723,62.963 	"/>
	<polyline fill="#060809" points="39.191,60.482 36.275,61.041 39.576,63.051 	"/>
	<circle fill="#FFFFFF" cx="80.263" cy="67.053" r="1.493"/>
	<circle fill="#FFFFFF" cx="21.183" cy="67.053" r="1.493"/>
</g>
<g>
	<rect x="42.368" y="83.697" fill="#EEC1B5" width="13.262" height="12.059"/>
	<ellipse fill="#EEC1B5" cx="48.999" cy="95.602" rx="6.636" ry="4.438"/>
	<path fill="#FFFFFF" d="M48.999,81.277c2.686,0,4.863-2.178,4.863-4.863h-9.727C44.136,79.1,46.312,81.277,48.999,81.277z"/>
	<path fill="#DCAA9D" d="M48.946,60.482c0,0-3.17,9.602-2.908,10.326c0.242,0.666,1.555,1.209,2.93,1.148
		c1.367,0.139,2.711-0.328,2.988-0.979C52.261,70.271,48.946,60.482,48.946,60.482z"/>
</g>
</svg>
