<svg version="1.1"
	 xmlns="http://www.w3.org/2000/svg" xmlns:xlink="http://www.w3.org/1999/xlink" x="0px" y="0px" width="100px" height="100px"
	 viewBox="-5 -5 104 100" enable-background="new -5 -5 100 100" xml:space="preserve">
<g>
	<path fill="#EEC1B5" d="M75.094,39.934c0-12.98-13.383-23.9-29.892-23.9c-16.507,0-29.89,11.119-29.89,24.1
		c0,0.146-0.137,31.578-0.137,31.578h0.016c0.344,4.714,13.66,9.475,30.047,9.475c16.388,0,29.706-4.761,30.048-9.475h0.016
		C75.303,71.711,75.094,40.082,75.094,39.934z"/>
	<path fill="#D5B4AE" d="M44.974,64.41c-11.368,0-21.755-2.44-29.737-6.28c-0.031,7.115-0.061,13.581-0.061,13.581h0.016
		c0.344,4.714,13.66,9.474,30.047,9.474c16.388,0,29.705-4.76,30.048-9.474h0.016c0,0-0.045-6.61-0.094-13.821
		C67.162,61.872,56.576,64.41,44.974,64.41z"/>
	<path fill="#EEC1B5" d="M16.098,46.829c-1.57,0.251-4.27,2.278-4.27,4.744c0,2.465,2.699,4.494,4.27,4.744V46.829z"/>
	<path fill="#EEC1B5" d="M75.027,56.317c2.356-0.25,4.27-2.279,4.27-4.744c0-2.466-1.912-4.493-4.27-4.744V56.317z"/>
	<circle fill="#060809" cx="34.576" cy="52.131" r="1.699"/>
	<path fill="#FFFFFF" d="M44.229,73.247c4.009,0,7.257-3.252,7.257-7.258H36.973C36.973,69.995,40.219,73.247,44.229,73.247z"/>
	<g>
		<path fill="#060809" d="M30.281,46.144l-0.494-0.262c0.031-0.055,0.736-1.369,2.125-1.795c0.838-0.257,1.732-0.135,2.664,0.365
			l-0.266,0.491c-0.793-0.425-1.545-0.536-2.236-0.324C30.906,44.978,30.287,46.132,30.281,46.144z"/>
	</g>
	<path fill="#DCAA9D" d="M44.47,39.923c0,0-3.081,18.01-2.866,19.35c0.195,1.234,1.344,2.211,2.566,2.06
		c1.208,0.224,2.411-0.688,2.676-1.91C47.135,58.097,44.47,39.923,44.47,39.923z"/>
	<circle fill="#060809" cx="53.188" cy="52.133" r="1.697"/>
	<g>
		<path fill="#060809" d="M56.791,47.906c-0.432-0.788-1-1.291-1.691-1.495c-1.172-0.342-2.33,0.288-2.34,0.292l-0.271-0.487
			c0.058-0.03,1.365-0.744,2.763-0.34c0.842,0.242,1.522,0.837,2.028,1.766L56.791,47.906z"/>
	</g>
	<g>
		<rect x="34.955" y="75.64" fill="#EEC1B5" width="21.213" height="13.357"/>
		<path fill="#EEC1B5" d="M56.068,88.601c0,2.981-4.791,5.398-10.699,5.398c-5.907,0-10.698-2.417-10.698-5.398
			c0-2.979,4.791-5.395,10.698-5.395C51.277,83.206,56.068,85.622,56.068,88.601z"/>
	</g>
	<path fill="#EEC1B5" d="M75.094,39.934c0-12.98-13.383-23.9-29.892-23.9c-16.507,0-29.89,11.119-29.89,24.1
		c0,0.146-0.137,31.578-0.137,31.578h0.016c0.344,4.714,13.66,9.475,30.047,9.475c16.388,0,29.706-4.761,30.048-9.475h0.016
		C75.303,71.711,75.094,40.082,75.094,39.934z"/>
	<path fill="#D5B4AE" d="M44.974,64.41c-11.368,0-21.755-2.44-29.737-6.28c-0.031,7.115-0.061,13.581-0.061,13.581h0.016
		c0.344,4.714,13.66,9.474,30.047,9.474c16.388,0,29.705-4.76,30.048-9.474h0.016c0,0-0.045-6.61-0.094-13.821
		C67.162,61.872,56.576,64.41,44.974,64.41z"/>
	<path fill="#EEC1B5" d="M16.098,46.829c-1.57,0.251-4.27,2.278-4.27,4.744c0,2.465,2.699,4.494,4.27,4.744V46.829z"/>
	<path fill="#EEC1B5" d="M75.027,56.317c2.356-0.25,4.27-2.279,4.27-4.744c0-2.466-1.912-4.493-4.27-4.744V56.317z"/>
	<circle fill="#060809" cx="35.273" cy="52.131" r="1.699"/>
	<path fill="#FFFFFF" d="M45.368,73.247c4.009,0,7.259-3.252,7.259-7.258H38.111C38.111,69.995,41.357,73.247,45.368,73.247z"/>
	<g>
		<path fill="#060809" d="M30.979,46.144l-0.494-0.262c0.031-0.055,0.736-1.369,2.125-1.795c0.838-0.257,1.732-0.135,2.664,0.365
			l-0.264,0.491c-0.795-0.425-1.547-0.536-2.236-0.324C31.604,44.978,30.984,46.132,30.979,46.144z"/>
	</g>
	<path fill="#DCAA9D" d="M45.477,39.923c0,0-3.079,18.01-2.866,19.35c0.195,1.234,1.343,2.211,2.565,2.06
		c1.208,0.224,2.411-0.688,2.678-1.91C48.143,58.097,45.477,39.923,45.477,39.923z"/>
	<circle fill="#060809" cx="54.326" cy="52.133" r="1.697"/>
	<g>
		<path fill="#060809" d="M57.93,47.906c-0.432-0.788-0.998-1.291-1.691-1.495c-1.172-0.342-2.327,0.288-2.34,0.292l-0.27-0.487
			c0.055-0.03,1.365-0.744,2.76-0.34c0.842,0.242,1.525,0.837,2.029,1.766L57.93,47.906z"/>
	</g>
	<circle fill="#D5B4AE" cx="19.842" cy="41.191" r="0.828"/>
	<circle fill="#D5B4AE" cx="19.842" cy="36.226" r="0.828"/>
	<circle fill="#D5B4AE" cx="16.949" cy="39.118" r="0.828"/>
	<circle fill="#D5B4AE" cx="63.327" cy="22.633" r="0.828"/>
	<circle fill="#D5B4AE" cx="23.254" cy="32.455" r="0.828"/>
	<circle fill="#D5B4AE" cx="42.6" cy="19.046" r="0.828"/>
	<circle fill="#D5B4AE" cx="24.57" cy="34.926" r="0.828"/>
	<circle fill="#D5B4AE" cx="20.562" cy="30.916" r="0.828"/>
	<circle fill="#D5B4AE" cx="26.91" cy="24.568" r="0.828"/>
	<circle fill="#D5B4AE" cx="26.91" cy="29.809" r="0.828"/>
	<circle fill="#D5B4AE" cx="24.082" cy="27.231" r="0.828"/>
	<circle fill="#D5B4AE" cx="28.959" cy="32.799" r="0.828"/>
	<circle fill="#D5B4AE" cx="50.814" cy="23.74" r="0.828"/>
	<circle fill="#D5B4AE" cx="37.644" cy="29.072" r="0.828"/>
	<circle fill="#D5B4AE" cx="40.765" cy="26.403" r="0.828"/>
	<circle fill="#D5B4AE" cx="31.79" cy="29.072" r="0.828"/>
	<circle fill="#D5B4AE" cx="32.618" cy="24.117" r="0.828"/>
	<circle fill="#D5B4AE" cx="35.213" cy="26.712" r="0.828"/>
	<circle fill="#D5B4AE" cx="47.695" cy="26.712" r="0.828"/>
	<circle fill="#D5B4AE" cx="30.484" cy="26.712" r="0.828"/>
	<circle fill="#D5B4AE" cx="30.484" cy="20.977" r="0.828"/>
	<circle fill="#D5B4AE" cx="34.576" cy="20.148" r="0.828"/>
	<circle fill="#D5B4AE" cx="54.325" cy="20.148" r="0.828"/>
	<circle fill="#D5B4AE" cx="46.867" cy="17.35" r="0.828"/>
	<circle fill="#D5B4AE" cx="60.428" cy="30.91" r="0.828"/>
	<circle fill="#D5B4AE" cx="65.743" cy="34.098" r="0.828"/>
	<circle fill="#D5B4AE" cx="69.398" cy="40.751" r="0.828"/>
	<circle fill="#D5B4AE" cx="73.293" cy="43.129" r="0.828"/>
	<circle fill="#D5B4AE" cx="58.766" cy="20.148" r="0.828"/>
	<circle fill="#D5B4AE" cx="65.327" cy="29.809" r="0.828"/>
	<circle fill="#D5B4AE" cx="72.652" cy="36.035" r="0.828"/>
	<circle fill="#D5B4AE" cx="69.398" cy="36.035" r="0.828"/>
	<circle fill="#D5B4AE" cx="72.465" cy="39.095" r="0.828"/>
	<circle fill="#D5B4AE" cx="62.499" cy="27.231" r="0.828"/>
	<circle fill="#D5B4AE" cx="66.572" cy="24.945" r="0.828"/>
	<circle fill="#D5B4AE" cx="68.229" cy="28.06" r="0.828"/>
	<circle fill="#D5B4AE" cx="69.665" cy="32.036" r="0.828"/>
	<circle fill="#D5B4AE" cx="49.158" cy="20.977" r="0.828"/>
	<circle fill="#D5B4AE" cx="38.472" cy="23.74" r="0.828"/>
	<circle fill="#D5B4AE" cx="54.988" cy="24.117" r="0.828"/>
	<circle fill="#D5B4AE" cx="57.584" cy="26.712" r="0.828"/>
	<circle fill="#D5B4AE" cx="52.855" cy="26.712" r="0.828"/>
	<circle fill="#D5B4AE" cx="60.843" cy="23.74" r="0.828"/>
	<circle fill="#D5B4AE" cx="43.974" cy="23.74" r="0.828"/>
	<circle fill="#D5B4AE" cx="38.472" cy="19.874" r="0.828"/>
</g>
</svg>
