<?xml version="1.0" encoding="utf-8"?>
<svg version="1.1" id="Layer_1" xmlns:x="&ns_extend;" xmlns:i="&ns_ai;" xmlns:graph="&ns_graphs;"
	 xmlns="http://www.w3.org/2000/svg" xmlns:xlink="http://www.w3.org/1999/xlink" x="0px" y="0px" width="104.715px"
	 height="104.595px" viewBox="0 0 104.715 104.595" enable-background="new 0 0 104.715 104.595" xml:space="preserve">
<g>
	<path fill="#E19B2B" d="M89.962,34.45c0,0-0.266,17.293,7.768,25.698c2.561,2.679,9.456,12.993,2.994,14.521
		c-9.988,2.362-1.95,11.42-0.434,11.42c1.518,0-3.876,6.067-8.264,6.45c-4.383,0.382-5.724-5.893-7.438-7.151
		c-1.712-1.258-4.67,5.832-9.485,5.586c-4.813-0.246-15.92-4.885-17.093-4.885c-1.171,0,3.245,2.655,3.096,2.655
		c-0.153,0-24.509,0-24.509,0s-3.72,2.344-9.289,3.812c-2.062,0.543-8.29-6.476-9.054-6.468c-7.676,0.097-10.08-1.506-10.701-4.035
		c-1.202-4.898,2.337-7.563,3.732-11.242c3.249-8.566,5.859-21.116,5.859-21.116"/>
	<path fill="#E19B2B" d="M93.927,64.854c-18.272,3.615-20.017,8.029-40.068,7.623C33.854,72.069,15.96,64.235,15.96,62.462
		l2.739-29.529c0-1.774,1.164-3.072,3.378-3.072h61.56c2.218,0,6.434,3.743,6.434,5.517L93.927,64.854z"/>
	<path fill="#EEC1B5" d="M88.772,39.351c0-14.958-15.033-27.241-33.573-27.241c-18.541,0-33.573,12.365-33.573,27.322
		c0,0.169-0.154,29.052-0.154,29.052h0.018c0.386,6.896,15.342,17.803,33.75,17.803c18.406,0,33.361-10.906,33.746-17.803
		l-0.295-6.021C88.691,62.462,88.772,39.52,88.772,39.351z"/>
	<path fill="#EEC1B5" d="M22.479,53.381c-1.378,0.238-4.087,2.181-4.087,4.54s2.708,4.301,4.087,4.541V53.381z"/>
	<path fill="#EEC1B5" d="M88.691,62.462c1.38-0.24,4.087-2.182,4.087-4.541s-2.707-4.302-4.087-4.54V62.462z"/>
	<path fill="#E19B2B" d="M88.691,53.381c0,0-14.712,4.807-19.38-18.931c-0.604-1.921-35.389-6.932-32.714,19.889
		C39.373,82.147,17.56,75.348,17.56,75.348l1.168-44.357c0,0-0.391-14.392,20.645-18.881c16.031-3.423,37.25-0.872,44.492,3.958
		c4.526,3.018,6.206,19.311,6.206,19.311l0.056,11.418C90.127,46.796,95.243,55.276,88.691,53.381z"/>
	<circle fill="#060809" cx="44.521" cy="55.573" r="2.195"/>
	<circle fill="#060809" cx="64.706" cy="55.571" r="2.193"/>
	<g>
		<path fill="#060809" d="M70.082,49.211c-0.556-1.019-1.287-1.667-2.184-1.928c-1.512-0.443-3.005,0.369-3.019,0.375l-0.349-0.627
			c0.069-0.041,1.761-0.963,3.564-0.44c1.087,0.315,1.966,1.079,2.619,2.277L70.082,49.211z"/>
	</g>
	<g>
		<path fill="#060809" d="M40.398,50.251l-0.637-0.338c0.039-0.068,0.95-1.767,2.742-2.317c1.082-0.331,2.239-0.172,3.439,0.472
			l-0.342,0.632c-1.023-0.547-1.996-0.688-2.887-0.415C41.203,48.747,40.407,50.235,40.398,50.251z"/>
	</g>
	<g>
		<rect x="46.626" y="80.899" fill="#EEC1B5" width="15.176" height="13.793"/>
		<ellipse fill="#EEC1B5" cx="54.214" cy="95.044" rx="7.586" ry="5.072"/>
		<path fill="#FFFFFF" d="M54.214,78.131c3.075,0,5.566-2.495,5.566-5.566H48.649C48.649,75.636,51.138,78.131,54.214,78.131z"/>
		<path fill="#DCAA9D" d="M54.153,54.339c0,0-3.628,10.985-3.329,11.812c0.277,0.764,1.782,1.385,3.353,1.315
			c1.568,0.156,3.103-0.375,3.423-1.121C57.946,65.536,54.153,54.339,54.153,54.339z"/>
	</g>
	<polyline fill="#060809" points="65.776,54.023 69.312,54.714 66.198,57.178 	"/>
	<polyline fill="#060809" points="42.709,54.339 39.373,54.979 43.147,57.278 	"/>
	<path fill="#F8B133" d="M89.962,34.45"/>
	<ellipse fill="#EEC1B5" cx="54.79" cy="99.434" rx="18.641" ry="5.161"/>
</g>
</svg>
