<svg version="1.1" x="0px" y="0px"
	 width="100px" height="100px" viewBox="0 0 100 100" enable-background="new 0 0 100 100" xml:space="preserve">
<g>
	<path fill="#E19B2B" d="M80.244,42.604c0,0-0.232,15.115,6.789,22.459c2.238,2.342,8.266,11.357,2.617,12.693
		c-8.73,2.064-1.705,9.982-0.379,9.982s-3.389,5.303-7.223,5.637c-3.832,0.334-5.004-5.15-6.502-6.25
		c-1.496-1.1-4.082,5.098-8.291,4.883c-4.207-0.215-13.914-4.27-14.939-4.27c-1.023,0,2.836,2.32,2.705,2.32
		c-0.133,0-21.42,0-21.42,0s-3.252,2.049-8.119,3.332c-1.803,0.475-7.246-5.66-7.914-5.652c-6.709,0.084-8.811-1.316-9.354-3.527
		c-1.051-4.281,2.043-6.611,3.262-9.826c2.84-7.488,5.121-18.455,5.121-18.455"/>
	<path fill="#E19B2B" d="M83.709,69.179c-15.971,3.16-17.496,7.018-35.021,6.662c-17.484-0.355-33.125-7.203-33.125-8.754
		l2.395-25.809c0-1.551,1.018-2.686,2.953-2.686h53.807c1.938,0,5.623,3.271,5.623,4.822L83.709,69.179z"/>
	<path fill="#EEC1B5" d="M79.203,46.888c0-13.074-13.139-23.811-29.344-23.811S20.516,33.886,20.516,46.958
		c0,0.148-0.135,25.393-0.135,25.393h0.016c0.338,6.027,13.41,15.561,29.498,15.561s29.16-9.533,29.496-15.561l-0.258-5.264
		C79.133,67.087,79.203,47.036,79.203,46.888z"/>
	<path fill="#EEC1B5" d="M21.262,59.149c-1.205,0.209-3.572,1.906-3.572,3.969s2.367,3.76,3.572,3.969V59.149z"/>
	<path fill="#EEC1B5" d="M79.133,67.087c1.207-0.209,3.572-1.906,3.572-3.969s-2.365-3.76-3.572-3.969V67.087z"/>
	<path fill="#E19B2B" d="M79.133,59.149c0,0-12.859,4.201-16.939-16.545c-0.527-1.68-30.93-6.059-28.592,17.383
		c2.426,24.307-16.641,18.363-16.641,18.363l1.021-38.77c0,0-0.342-12.58,18.045-16.504c14.012-2.992,32.557-0.762,38.887,3.459
		c3.957,2.639,5.426,16.879,5.426,16.879l0.049,9.98C80.389,53.396,84.859,60.806,79.133,59.149z"/>
	<circle fill="#060809" cx="40.527" cy="61.065" r="1.918"/>
	<circle fill="#060809" cx="58.168" cy="61.064" r="1.917"/>
	<g>
		<path fill="#060809" d="M62.867,55.507c-0.486-0.891-1.125-1.457-1.908-1.686c-1.322-0.387-2.627,0.322-2.639,0.328l-0.305-0.549
			c0.061-0.035,1.539-0.842,3.115-0.385c0.949,0.275,1.719,0.943,2.289,1.99L62.867,55.507z"/>
	</g>
	<g>
		<path fill="#060809" d="M36.924,56.415l-0.557-0.295c0.033-0.061,0.83-1.545,2.396-2.025c0.945-0.289,1.957-0.15,3.006,0.412
			l-0.299,0.553c-0.895-0.479-1.744-0.602-2.523-0.363C37.627,55.101,36.932,56.401,36.924,56.415z"/>
	</g>
	<g>
		<rect x="42.367" y="83.202" fill="#EEC1B5" width="13.264" height="12.057"/>
		<ellipse fill="#EEC1B5" cx="48.999" cy="95.566" rx="6.63" ry="4.434"/>
		<path fill="#FFFFFF" d="M48.998,80.782c2.688,0,4.865-2.18,4.865-4.865h-9.729C44.135,78.603,46.311,80.782,48.998,80.782z"/>
		<path fill="#DCAA9D" d="M48.945,59.987c0,0-3.17,9.602-2.908,10.324c0.242,0.668,1.557,1.211,2.93,1.15
			c1.369,0.137,2.711-0.328,2.99-0.98C52.26,69.774,48.945,59.987,48.945,59.987z"/>
	</g>
	<polyline fill="#060809" points="59.104,59.712 62.193,60.315 59.473,62.468 	"/>
	<polyline fill="#060809" points="38.943,59.987 36.027,60.546 39.326,62.556 	"/>
	<circle fill="#FFFFFF" cx="80.012" cy="66.558" r="1.492"/>
	<path fill="#F8B133" d="M80.244,42.604"/>
</g>
</svg>
