<svg version="1.1"
	 xmlns="http://www.w3.org/2000/svg" xmlns:xlink="http://www.w3.org/1999/xlink" x="0px" y="0px" width="90px" height="90px"
	 viewBox="0 0 94 90" enable-background="new 0 0 90 90" xml:space="preserve">
<g>
	<path fill="#EEC1B5" d="M75.248,35.356c0-12.98-13.385-23.9-29.892-23.9c-16.508,0-29.893,11.119-29.893,24.1
		c0,0.146-0.137,31.576-0.137,31.576h0.016c0.344,4.715,13.662,9.475,30.049,9.475c16.388,0,29.705-4.76,30.048-9.475h0.018
		C75.457,67.132,75.248,35.505,75.248,35.356z"/>
	<path fill="#D5B4AE" d="M45.125,59.831c-11.367,0-21.756-2.439-29.738-6.279c-0.031,7.115-0.061,13.58-0.061,13.58h0.016
		c0.344,4.715,13.662,9.475,30.049,9.475c16.388,0,29.705-4.76,30.048-9.475h0.018c0,0-0.047-6.609-0.096-13.822
		C67.316,57.294,56.73,59.831,45.125,59.831z"/>
	<path fill="#EEC1B5" d="M16.25,42.251c-1.572,0.25-4.27,2.278-4.27,4.743s2.697,4.495,4.27,4.745V42.251z"/>
	<path fill="#EEC1B5" d="M75.18,51.739c2.357-0.25,4.27-2.279,4.27-4.745s-1.912-4.493-4.27-4.743V51.739z"/>
	<circle fill="#060809" cx="34.727" cy="47.553" r="1.698"/>
	<path fill="#FFFFFF" d="M44.381,68.669c4.011,0,7.259-3.252,7.259-7.258H37.124C37.124,65.417,40.372,68.669,44.381,68.669z"/>
	<g>
		<path fill="#060809" d="M30.432,41.567l-0.492-0.261c0.029-0.056,0.736-1.37,2.123-1.795c0.838-0.257,1.734-0.134,2.664,0.365
			l-0.264,0.491c-0.793-0.425-1.545-0.536-2.236-0.325C31.057,40.4,30.438,41.555,30.432,41.567z"/>
	</g>
	<path fill="#DCAA9D" d="M44.624,35.345c0,0-3.082,18.007-2.869,19.349c0.195,1.234,1.346,2.211,2.566,2.059
		c1.209,0.223,2.414-0.688,2.679-1.91C47.287,53.519,44.624,35.345,44.624,35.345z"/>
	<path fill="#604416" d="M74.652,50.14c0,0-5.217-14.455-8.77-25.733c-0.521-1.656-46.716,10.939-46.716,10.939
		s-1.875,11.743-3.33,14.23c-0.518-0.73-1.434-6.487-1.434-6.487s-2.545-28.785,12.086-32.733c20.533-5.541,33.91,3.187,33.91,3.187
		s15.059-2.853,14.898,10.242c-0.135,10.898,0.582,18.583,0.582,18.583S75.457,44.174,74.652,50.14z"/>
	<circle fill="#060809" cx="53.34" cy="47.554" r="1.697"/>
	<g>
		<path fill="#060809" d="M56.943,43.329c-0.432-0.788-0.998-1.291-1.691-1.495c-1.17-0.341-2.328,0.288-2.34,0.292l-0.27-0.488
			c0.055-0.03,1.363-0.744,2.76-0.34c0.844,0.244,1.525,0.836,2.029,1.765L56.943,43.329z"/>
	</g>
	<g>
		<rect x="35.108" y="71.062" fill="#EEC1B5" width="21.214" height="13.357"/>
		<path fill="#EEC1B5" d="M56.223,84.022c0,2.98-4.791,5.398-10.701,5.398c-5.908,0-10.699-2.418-10.699-5.398
			c0-2.979,4.791-5.395,10.699-5.395C51.432,78.628,56.223,81.044,56.223,84.022z"/>
	</g>
	<path fill="#EEC1B5" d="M75.248,35.356c0-12.98-13.385-23.9-29.892-23.9c-16.508,0-29.893,11.119-29.893,24.1
		c0,0.146-0.137,31.576-0.137,31.576h0.016c0.344,4.715,13.662,9.475,30.049,9.475c16.388,0,29.705-4.76,30.048-9.475h0.018
		C75.457,67.132,75.248,35.505,75.248,35.356z"/>
	<path fill="#D5B4AE" d="M45.125,59.831c-11.367,0-21.756-2.439-29.738-6.279c-0.031,7.115-0.061,13.58-0.061,13.58h0.016
		c0.344,4.715,13.662,9.475,30.049,9.475c16.388,0,29.705-4.76,30.048-9.475h0.018c0,0-0.047-6.609-0.096-13.822
		C67.316,57.294,56.73,59.831,45.125,59.831z"/>
	<path fill="#EEC1B5" d="M16.25,42.251c-1.572,0.25-4.27,2.278-4.27,4.743s2.697,4.495,4.27,4.745V42.251z"/>
	<path fill="#EEC1B5" d="M75.18,51.739c2.357-0.25,4.27-2.279,4.27-4.745s-1.912-4.493-4.27-4.743V51.739z"/>
	<circle fill="#060809" cx="35.426" cy="47.553" r="1.698"/>
	<path fill="#FFFFFF" d="M45.52,68.669c4.011,0,7.261-3.252,7.261-7.258H38.264C38.264,65.417,41.51,68.669,45.52,68.669z"/>
	<g>
		<path fill="#060809" d="M31.131,41.567l-0.494-0.261c0.029-0.056,0.736-1.37,2.125-1.795c0.838-0.257,1.732-0.134,2.664,0.365
			l-0.266,0.491c-0.793-0.425-1.545-0.536-2.236-0.325C31.754,40.4,31.135,41.555,31.131,41.567z"/>
	</g>
	<path fill="#DCAA9D" d="M45.631,35.345c0,0-3.082,18.007-2.869,19.349c0.195,1.234,1.346,2.211,2.566,2.059
		c1.208,0.223,2.414-0.688,2.679-1.91C48.295,53.519,45.631,35.345,45.631,35.345z"/>
	<path fill="#412312" d="M74.652,50.14c0,0-5.217-14.455-8.77-25.733c-0.521-1.656-46.716,10.939-46.716,10.939
		s-1.875,11.743-3.33,14.23c-0.518-0.73-1.434-6.487-1.434-6.487s-2.545-28.785,12.086-32.733c20.533-5.541,33.91,3.187,33.91,3.187
		s15.059-2.853,14.898,10.242c-0.135,10.898,0.582,18.583,0.582,18.583S75.457,44.174,74.652,50.14z"/>
	<path fill="#060809" d="M54.48,45.857c0.938,0,1.697,0.758,1.697,1.697c0,0.939-0.76,1.697-1.697,1.697
		c-0.941,0-1.699-0.758-1.699-1.697C52.781,46.615,53.539,45.857,54.48,45.857z"/>
	<g>
		<path fill="#060809" d="M58.082,43.329c-0.43-0.788-0.998-1.291-1.689-1.495c-1.172-0.341-2.33,0.288-2.342,0.292l-0.268-0.488
			c0.055-0.03,1.363-0.744,2.758-0.34c0.844,0.244,1.525,0.836,2.031,1.765L58.082,43.329z"/>
	</g>
	<path fill="#412312" d="M70.592,28.652c-0.408,0-15.553,5.667-15.553,5.667l9.719-9.167l-23.013,9.167l9.568-12.622l-20.675,6.789
		l-14.246,6.86l24.643-15.418l24.3-1.974l7.625,5.65L70.592,28.652z"/>
	<path fill="#412312" d="M62.486,15.703c-0.27-0.807-9.518-11.695-9.518-11.695l2.84,9.41l-12.734-9.41l7.314,8.469"/>
</g>
</svg>
