<svg version="1.1" x="0px" y="0px"
	 width="100px" height="100px" viewBox="0 0 100 100" enable-background="new 0 0 100 100" xml:space="preserve">
<path fill="#CC3B17" d="M88.017,88.875c-15.971,3.16-21.633-1.575-38.354-2.329c-13.486-0.608-35.678,5.612-35.678,4.062
	l2.975-51.115c0-1.551,1.791-1.255,3.727-1.255h53.807c1.938,0,3.113-6.909,3.113-5.358L88.017,88.875z"/>
<path fill="#EEC1B5" d="M78.979,46.532c0-13.073-13.137-23.811-29.344-23.811c-16.205,0-29.344,10.81-29.344,23.882
	c0,0.147-0.133,25.393-0.133,25.393h0.016c0.336,6.027,13.408,15.561,29.496,15.561s29.16-9.533,29.496-15.561l-0.256-5.265
	C78.911,66.731,78.979,46.681,78.979,46.532z"/>
<path fill="#EEC1B5" d="M21.04,58.795c-1.205,0.209-3.572,1.906-3.572,3.969s2.367,3.76,3.572,3.968V58.795z"/>
<path fill="#EEC1B5" d="M78.911,66.731c1.205-0.208,3.572-1.905,3.572-3.969c0-2.062-2.367-3.759-3.572-3.968V66.731z"/>
<circle fill="#060809" cx="40.304" cy="60.711" r="1.918"/>
<circle fill="#060809" cx="57.944" cy="60.71" r="1.917"/>
<g>
	<path fill="#060809" d="M62.644,55.152c-0.484-0.891-1.125-1.458-1.906-1.687c-1.322-0.386-2.629,0.323-2.641,0.329l-0.305-0.549
		c0.062-0.035,1.539-0.842,3.115-0.386c0.951,0.276,1.721,0.944,2.291,1.99L62.644,55.152z"/>
</g>
<g>
	<rect x="42.368" y="82.847" fill="#EEC1B5" width="13.262" height="12.057"/>
	<ellipse fill="#EEC1B5" cx="48.999" cy="95.239" rx="6.592" ry="4.761"/>
	<path fill="#FFFFFF" d="M48.997,80.428c2.688,0,4.865-2.18,4.865-4.865h-9.727C44.136,78.248,46.312,80.428,48.997,80.428z"/>
	<path fill="#DCAA9D" d="M48.946,59.632c0,0-3.17,9.603-2.908,10.325c0.24,0.667,1.555,1.21,2.93,1.15
		c1.367,0.137,2.711-0.329,2.988-0.98C52.261,69.42,48.946,59.632,48.946,59.632z"/>
</g>
<polyline fill="#060809" points="58.88,59.357 61.972,59.961 59.249,62.113 "/>
<polyline fill="#060809" points="38.72,59.632 35.804,60.191 39.104,62.201 "/>
<circle fill="#FFFFFF" cx="79.789" cy="66.203" r="1.493"/>
<circle fill="#FFFFFF" cx="20.713" cy="66.203" r="1.493"/>
<g>
	<path fill="#060809" d="M36.702,56.06l-0.559-0.294c0.035-0.062,0.832-1.546,2.398-2.025c0.943-0.289,1.955-0.15,3.004,0.412
		l-0.297,0.553c-0.896-0.479-1.746-0.602-2.525-0.363C37.405,54.746,36.708,56.047,36.702,56.06z"/>
</g>
<circle fill="#CC3B17" cx="59.067" cy="67.695" r="0.438"/>
<circle fill="#CC3B17" cx="63.323" cy="66.27" r="0.414"/>
<circle fill="#CC3B17" cx="62.983" cy="69.431" r="0.316"/>
<circle fill="#CC3B17" cx="36.581" cy="67.695" r="0.438"/>
<circle fill="#CC3B17" cx="40.838" cy="66.27" r="0.413"/>
<circle fill="#CC3B17" cx="40.497" cy="69.431" r="0.316"/>
<path fill="#CC3B17" d="M73.892,24.918c-6.33-4.715-24.875-7.207-38.887-3.864C16.618,25.438,16.96,39.492,16.96,39.492l2.377,20.14
	c1.854,0.417,19.051-23.618,19.051-23.618s0.475,2.633-3.562,8.447c-5.516,7.943-5.994,8.26-5.994,8.26
	c31.361,3.047,40.602-13.955,40.602-13.955s9.156,22.181,9.885,20.027V43.775C79.317,43.775,77.849,27.865,73.892,24.918z"/>
</svg>
