<svg version="1.1"
	 xmlns="http://www.w3.org/2000/svg" xmlns:xlink="http://www.w3.org/1999/xlink" x="0px" y="0px" width="100px" height="100px"
	 viewBox="-5 -5 104 100" enable-background="new -5 -5 100 100" xml:space="preserve">
<g>
	<path fill="#EEC1B5" d="M75.648,40.934c0-12.979-13.383-23.9-29.894-23.9c-16.507,0-29.89,11.119-29.89,24.101
		c0,0.146-0.137,31.578-0.137,31.578h0.016c0.344,4.715,13.66,9.476,30.048,9.476c16.39,0,29.705-4.761,30.049-9.476h0.017
		C75.857,72.711,75.648,41.083,75.648,40.934z"/>
	<path fill="#D5B4AE" d="M45.527,65.41c-11.369,0-21.755-2.439-29.738-6.279c-0.031,7.115-0.061,13.58-0.061,13.58h0.016
		c0.344,4.715,13.66,9.475,30.048,9.475c16.39,0,29.705-4.76,30.049-9.475h0.017c0,0-0.045-6.609-0.094-13.822
		C67.717,62.873,57.131,65.41,45.527,65.41z"/>
	<path fill="#EEC1B5" d="M16.651,47.83c-1.57,0.251-4.27,2.278-4.27,4.744s2.699,4.494,4.27,4.744V47.83z"/>
	<path fill="#EEC1B5" d="M75.582,57.318c2.357-0.25,4.27-2.279,4.27-4.745c0-2.465-1.912-4.493-4.27-4.744V57.318z"/>
	<circle fill="#060809" cx="35.129" cy="53.132" r="1.698"/>
	<path fill="#FFFFFF" d="M44.783,74.248c4.01,0,7.258-3.252,7.258-7.258H37.525C37.525,70.996,40.771,74.248,44.783,74.248z"/>
	<g>
		<path fill="#060809" d="M30.834,47.145l-0.494-0.262c0.031-0.055,0.736-1.369,2.125-1.795c0.838-0.257,1.732-0.135,2.664,0.365
			l-0.266,0.491c-0.793-0.425-1.545-0.536-2.236-0.324C31.459,45.979,30.84,47.133,30.834,47.145z"/>
	</g>
	<path fill="#DCAA9D" d="M45.023,40.922c0,0-3.082,18.009-2.867,19.351c0.195,1.233,1.344,2.211,2.566,2.059
		c1.209,0.223,2.412-0.688,2.678-1.91C47.689,59.098,45.023,40.922,45.023,40.922z"/>
	<circle fill="#060809" cx="53.742" cy="53.133" r="1.697"/>
	<g>
		<path fill="#060809" d="M57.346,48.907c-0.432-0.788-1-1.291-1.691-1.495c-1.172-0.342-2.329,0.288-2.34,0.292l-0.271-0.487
			c0.058-0.03,1.365-0.744,2.763-0.34c0.842,0.242,1.522,0.837,2.028,1.766L57.346,48.907z"/>
	</g>
	<g>
		<rect x="35.508" y="76.641" fill="#9D6E63" width="21.215" height="13.357"/>
		<path fill="#9D6E63" d="M56.623,89.602c0,2.98-4.791,5.398-10.699,5.398c-5.908,0-10.699-2.418-10.699-5.398
			c0-2.979,4.791-5.395,10.699-5.395C51.832,84.207,56.623,86.623,56.623,89.602z"/>
	</g>
	<path fill="#9D6E63" d="M75.312,41.141c0-12.979-13.383-23.9-29.894-23.9c-16.508,0-29.891,11.119-29.891,24.101
		c0,0.145-0.137,31.578-0.137,31.578h0.016c0.344,4.715,13.66,9.476,30.049,9.476c16.39,0,29.705-4.761,30.049-9.476h0.017
		C75.521,72.918,75.312,41.291,75.312,41.141z"/>
	<path fill="#9D6E63" d="M16.651,47.83c-1.57,0.251-4.27,2.278-4.27,4.744s2.699,4.494,4.27,4.744V47.83z"/>
	<path fill="#9D6E63" d="M75.582,57.318c2.357-0.25,4.27-2.279,4.27-4.745c0-2.465-1.912-4.493-4.27-4.744V57.318z"/>
	<circle fill="#060809" cx="35.827" cy="53.132" r="1.698"/>
	<path fill="#FFFFFF" d="M45.922,74.248c4.01,0,7.26-3.252,7.26-7.258H38.664C38.664,70.996,41.91,74.248,45.922,74.248z"/>
	<g>
		<path fill="#060809" d="M31.532,47.145l-0.494-0.262c0.031-0.055,0.736-1.369,2.125-1.795c0.838-0.257,1.732-0.135,2.664,0.365
			l-0.264,0.491c-0.795-0.425-1.547-0.536-2.236-0.324C32.157,45.979,31.538,47.133,31.532,47.145z"/>
	</g>
	<path fill="#875047" d="M45.529,40.917c0,0-4.465,17.969-4.115,19.316c0.318,1.235,2.102,2.231,3.982,2.1
		c1.866,0.24,3.704-0.65,4.094-1.871C49.914,59.141,45.529,40.917,45.529,40.917z"/>
	<circle fill="#060809" cx="54.881" cy="53.133" r="1.697"/>
	<g>
		<path fill="#060809" d="M58.484,48.907c-0.433-0.788-0.998-1.291-1.691-1.495c-1.172-0.342-2.328,0.288-2.34,0.292l-0.27-0.487
			c0.055-0.03,1.364-0.744,2.76-0.34c0.842,0.242,1.524,0.837,2.029,1.766L58.484,48.907z"/>
	</g>
	<circle fill="#1D1D1B" cx="16.651" cy="40.917" r="7.84"/>
	<circle fill="#1D1D1B" cx="17.958" cy="30.682" r="6.826"/>
	<circle fill="#1D1D1B" cx="26.485" cy="29.057" r="5.201"/>
	<circle fill="#1D1D1B" cx="26.485" cy="23.858" r="5.201"/>
	<circle fill="#1D1D1B" cx="35.225" cy="23.858" r="5.2"/>
	<circle fill="#1D1D1B" cx="35.225" cy="19.292" r="5.2"/>
	<circle fill="#1D1D1B" cx="41.395" cy="18.657" r="5.201"/>
	<circle fill="#1D1D1B" cx="75.521" cy="44.491" r="5.669"/>
	<circle fill="#1D1D1B" cx="74.369" cy="37.509" r="4.516"/>
	<circle fill="#1D1D1B" cx="74.369" cy="32.692" r="4.516"/>
	<circle fill="#1D1D1B" cx="68.438" cy="26.676" r="5.516"/>
	<circle fill="#1D1D1B" cx="68.438" cy="26.259" r="5.516"/>
	<circle fill="#1D1D1B" cx="62.507" cy="21.577" r="5.099"/>
	<circle fill="#1D1D1B" cx="62.126" cy="27.486" r="5.909"/>
	<circle fill="#1D1D1B" cx="47.305" cy="23.15" r="5.909"/>
	<circle fill="#1D1D1B" cx="49.686" cy="17.718" r="6.14"/>
	<path fill="#1D1D1B" d="M57.939,26.258c0,5.808-4.709,10.515-10.519,10.515c-5.805,0-10.513-4.707-10.513-10.515
		c0-5.808,4.708-10.516,10.513-10.516C53.23,15.744,57.939,20.452,57.939,26.258z"/>
	<circle fill="#1D1D1B" cx="57.121" cy="19.397" r="4.459"/>
</g>
</svg>
