<svg version="1.1" x="0px" y="0px"
	 width="100px" height="100px" viewBox="0 0 100 100" enable-background="new 0 0 100 100" xml:space="preserve">
<g>
	<rect x="41.397" y="83.66" fill="#EEC1B5" width="13.264" height="12.057"/>
	<ellipse fill="#EEC1B5" cx="48.043" cy="95.238" rx="6.654" ry="4.762"/>
	<path fill="#412312" d="M82.283,69.638c-15.971,3.16-17.496,7.017-35.021,6.661c-17.484-0.355-33.125-7.203-33.125-8.754
		l2.395-25.807c0-1.551,1.018-2.688,2.953-2.688h53.807c1.938,0,5.623,3.271,5.623,4.822L82.283,69.638z"/>
	<path fill="#EEC1B5" d="M77.777,47.346c0-13.072-13.139-23.811-29.344-23.811S19.09,34.345,19.09,47.416
		c0,0.148-0.135,25.394-0.135,25.394h0.016c0.338,6.026,13.41,15.56,29.498,15.56s29.16-9.533,29.496-15.56l-0.258-5.265
		C77.707,67.545,77.777,47.494,77.777,47.346z"/>
	<path fill="#EEC1B5" d="M19.836,59.608c-1.205,0.209-3.572,1.906-3.572,3.969s2.367,3.76,3.572,3.968V59.608z"/>
	<path fill="#EEC1B5" d="M77.707,67.545c1.207-0.208,3.572-1.905,3.572-3.969c0-2.062-2.365-3.759-3.572-3.968V67.545z"/>
	<circle fill="#060809" cx="39.102" cy="61.524" r="1.918"/>
	<circle fill="#060809" cx="56.742" cy="61.523" r="1.917"/>
	<path fill="#FFFFFF" d="M47.999,81.24c2.688,0,4.865-2.18,4.865-4.865h-9.729C43.136,79.061,45.312,81.24,47.999,81.24z"/>
	<g>
		<path fill="#060809" d="M61.441,55.966c-0.486-0.891-1.125-1.458-1.908-1.687c-1.322-0.387-2.627,0.324-2.639,0.33l-0.305-0.551
			c0.061-0.035,1.539-0.84,3.115-0.385c0.949,0.275,1.719,0.944,2.289,1.99L61.441,55.966z"/>
	</g>
	<g>
		<path fill="#060809" d="M35.498,56.873l-0.557-0.293c0.033-0.062,0.83-1.547,2.396-2.027c0.945-0.289,1.957-0.149,3.006,0.413
			l-0.299,0.554c-0.895-0.479-1.744-0.602-2.523-0.364C36.201,55.559,35.506,56.86,35.498,56.873z"/>
	</g>
	<path fill="#DCAA9D" d="M47.946,60.445c0,0-3.17,9.603-2.908,10.325c0.242,0.667,1.557,1.21,2.93,1.15
		c1.369,0.137,2.711-0.329,2.99-0.98C51.261,70.233,47.946,60.445,47.946,60.445z"/>
	<polyline fill="#060809" points="57.678,60.171 60.768,60.774 58.047,62.927 	"/>
	<polyline fill="#060809" points="37.518,60.445 34.602,61.005 37.9,63.015 	"/>
	<circle fill="#FFFFFF" cx="78.586" cy="67.017" r="1.492"/>
	<circle fill="#FFFFFF" cx="19.509" cy="67.017" r="1.493"/>
	<path fill="#412312" d="M70.051,24.896c0,0,1.371-12.119,14.178-12.348s15.08,14.432,14.623,18.548s-0.166,50.151-0.166,50.151
		s-19.268,1.756-12.627-37.369c2.107-12.42-11.127-9.664-13.184-8.521c-2.059,1.143-2.824-3.828-2.824-3.828"/>
	<path fill="#412312" d="M21.002,61.729"/>
	<path fill="#412312" d="M73.488,27.561c-6.33-4.715-24.875-7.207-38.887-3.864c-18.387,4.385-18.045,18.438-18.045,18.438
		l2.398,17.472c1.854,0.418,9.969-16.188,9.969-16.188l0.189,7.917c8.643,1.159,40.625,3.071,43.25,2.2l1.625-11.825l2.955,17.832
		c0.264,0.062,0.52,0.096,0.764,0.066l1.207-13.19C78.914,46.418,77.445,30.508,73.488,27.561z"/>
</g>
</svg>
