<svg version="1.1"
	 xmlns="http://www.w3.org/2000/svg" xmlns:xlink="http://www.w3.org/1999/xlink" x="0px" y="0px" width="100px" height="100px"
	 viewBox="-5 -5 104 100" enable-background="new -5 -5 100 100" xml:space="preserve">
<g>
	<path fill="#EEC1B5" d="M74.466,57.318c2.357-0.25,4.271-2.279,4.271-4.744s-1.912-4.493-4.271-4.744V57.318z"/>
	<g>
		<rect x="34.392" y="76.641" fill="#EEC1B5" width="21.215" height="13.357"/>
		<path fill="#EEC1B5" d="M55.507,89.602c0,2.98-4.791,5.398-10.699,5.398c-5.908,0-10.699-2.418-10.699-5.398
			c0-2.979,4.791-5.395,10.699-5.395C50.716,84.207,55.507,86.623,55.507,89.602z"/>
	</g>
	<path fill="#EEC1B5" d="M74.466,57.318c2.357-0.25,4.271-2.279,4.271-4.744s-1.912-4.493-4.271-4.744V57.318z"/>
	<g>
		<path fill="#EEC1B5" d="M74.532,40.934c0-12.979-13.384-23.9-29.893-23.9c-16.508,0-29.891,11.119-29.891,24.1
			c0,0.146-0.137,31.579-0.137,31.579h0.016c0.344,4.714,13.66,9.474,30.049,9.474s29.705-4.76,30.049-9.474h0.017
			C74.741,72.712,74.532,41.082,74.532,40.934z"/>
		<path fill="#D5B4AE" d="M44.411,65.41c-11.369,0-21.756-2.439-29.738-6.279c-0.031,7.115-0.061,13.581-0.061,13.581h0.016
			c0.344,4.714,13.66,9.474,30.049,9.474c16.39,0,29.705-4.76,30.05-9.474h0.016c0,0-0.045-6.61-0.094-13.822
			C66.602,62.873,56.016,65.41,44.411,65.41z"/>
		<path fill="#EEC1B5" d="M15.534,47.829c-1.57,0.251-4.27,2.279-4.27,4.745c0,2.465,2.699,4.494,4.27,4.744V47.829z"/>
		<circle fill="#060809" cx="34.013" cy="53.133" r="1.699"/>
		<path fill="#FFFFFF" d="M43.667,74.248c4.01,0,7.258-3.252,7.258-7.258H36.409C36.409,70.996,39.655,74.248,43.667,74.248z"/>
		<g>
			<path fill="#060809" d="M29.718,47.145l-0.494-0.262c0.031-0.055,0.736-1.369,2.125-1.795c0.838-0.257,1.732-0.135,2.664,0.365
				l-0.266,0.491c-0.793-0.425-1.545-0.536-2.236-0.324C30.343,45.979,29.724,47.133,29.718,47.145z"/>
		</g>
		<path fill="#DCAA9D" d="M43.907,40.923c0,0-3.082,18.01-2.867,19.351c0.195,1.234,1.344,2.211,2.566,2.059
			c1.209,0.224,2.412-0.688,2.678-1.909C46.573,59.098,43.907,40.923,43.907,40.923z"/>
		<path fill="#604416" d="M73.938,55.719c0,0-5.215-14.456-8.769-25.735C64.646,28.328,18.45,40.923,18.45,40.923
			s-1.873,11.745-3.33,14.231c-0.518-0.73-1.434-6.487-1.434-6.487s-2.545-28.786,12.086-32.734
			c20.535-5.541,33.91,3.188,33.91,3.188s15.06-2.853,14.898,10.242c-0.135,10.897,0.582,18.583,0.582,18.583
			S74.741,49.753,73.938,55.719z"/>
		<circle fill="#060809" cx="52.626" cy="53.133" r="1.697"/>
		<g>
			<path fill="#060809" d="M56.229,48.907c-0.432-0.789-1-1.292-1.69-1.495c-1.172-0.342-2.33,0.287-2.34,0.291l-0.271-0.487
				c0.058-0.03,1.365-0.744,2.763-0.34c0.842,0.243,1.522,0.837,2.028,1.766L56.229,48.907z"/>
		</g>
		<path fill="#EEC1B5" d="M74.532,40.934c0-12.979-13.384-23.9-29.893-23.9c-16.508,0-29.891,11.119-29.891,24.1
			c0,0.146-0.137,31.579-0.137,31.579h0.016c0.344,4.714,13.66,9.474,30.049,9.474s29.705-4.76,30.049-9.474h0.017
			C74.741,72.712,74.532,41.082,74.532,40.934z"/>
		<path fill="#D5B4AE" d="M44.411,65.41c-11.369,0-21.756-2.439-29.738-6.279c-0.031,7.115-0.061,13.581-0.061,13.581h0.016
			c0.344,4.714,13.66,9.474,30.049,9.474c16.39,0,29.705-4.76,30.05-9.474h0.016c0,0-0.045-6.61-0.094-13.822
			C66.602,62.873,56.016,65.41,44.411,65.41z"/>
		<path fill="#EEC1B5" d="M15.534,47.829c-1.57,0.251-4.27,2.279-4.27,4.745c0,2.465,2.699,4.494,4.27,4.744V47.829z"/>
		<circle fill="#060809" cx="34.71" cy="53.133" r="1.699"/>
		<path fill="#FFFFFF" d="M44.806,74.248c4.01,0,7.26-3.252,7.26-7.258H37.548C37.548,70.996,40.794,74.248,44.806,74.248z"/>
		<g>
			<path fill="#060809" d="M30.415,47.145l-0.494-0.262c0.031-0.055,0.736-1.369,2.125-1.795c0.838-0.257,1.732-0.135,2.664,0.365
				l-0.264,0.491c-0.795-0.425-1.547-0.536-2.236-0.324C31.04,45.979,30.421,47.133,30.415,47.145z"/>
		</g>
		<path fill="#DCAA9D" d="M44.915,40.923c0,0-3.08,18.01-2.867,19.351c0.195,1.234,1.344,2.211,2.566,2.059
			c1.209,0.224,2.412-0.688,2.678-1.909C47.581,59.098,44.915,40.923,44.915,40.923z"/>
		<path fill="#B17F49" d="M73.938,55.719c0,0-5.215-14.456-8.769-25.735c-0.521-1.655-40.923-0.421-40.923-0.421
			s-7.669,23.106-9.126,25.592c-0.518-0.729-1.434-6.486-1.434-6.486S10.42,18.039,25.051,14.091
			C45.586,8.55,61.434,13.01,61.434,13.01s13.309,3.257,13.147,16.352c-0.136,10.897,0.582,18.583,0.582,18.583
			S74.741,49.753,73.938,55.719z"/>
		<circle fill="#060809" cx="53.766" cy="53.133" r="1.697"/>
		<g>
			<path fill="#060809" d="M57.368,48.907c-0.433-0.789-0.998-1.292-1.691-1.495c-1.172-0.342-2.327,0.287-2.34,0.291l-0.271-0.487
				c0.056-0.03,1.365-0.744,2.761-0.34c0.842,0.243,1.524,0.837,2.028,1.766L57.368,48.907z"/>
		</g>
	</g>
</g>
</svg>
