<svg version="1.1" x="0px" y="0px"
	 width="100px" height="100px" viewBox="0 0 100 100" enable-background="new 0 0 100 100" xml:space="preserve">
<g>
	<rect x="41.653" y="83.658" fill="#9D6E63" width="13.263" height="12.059"/>
	<ellipse fill="#9D6E63" cx="48.338" cy="95.568" rx="6.627" ry="4.432"/>
	<path fill="#9D6E63" d="M79.099,47.342c0-13.074-13.139-23.812-29.345-23.812S20.407,34.34,20.407,47.412
		c0,0.148-0.133,25.395-0.133,25.395h0.016c0.336,6.029,13.41,15.562,29.5,15.562c16.088,0,29.16-9.533,29.498-15.562l-0.258-5.264
		C79.03,67.543,79.099,47.49,79.099,47.342z"/>
	<path fill="#9D6E63" d="M21.155,59.605c-1.205,0.209-3.572,1.906-3.572,3.969s2.367,3.76,3.572,3.969V59.605z"/>
	<path fill="#9D6E63" d="M79.03,67.543c1.205-0.209,3.572-1.906,3.572-3.969s-2.367-3.76-3.572-3.969V67.543z"/>
	<path fill="#422918" d="M80.235,59.604c0,0-14.731,2.588-29.348-19.285c-8.114,10.549-18.209,17.942-25.512,19.287
		c-7.657,1.41-7.793,0.562-7.793,0.562l0.292-20.131c0,0,0-15.451,18.387-19.377c14.013-2.992,27.054,4.068,27.054,4.068
		S68.48,22.77,74.81,26.99c3.958,2.639,5.426,16.879,5.426,16.879S81.114,51.873,80.235,59.604z"/>
	<circle fill="#060809" cx="40.422" cy="61.521" r="1.918"/>
	<circle fill="#060809" cx="58.063" cy="61.521" r="1.917"/>
	<g>
		<path fill="#060809" d="M62.763,55.963c-0.485-0.891-1.126-1.459-1.908-1.688c-1.321-0.385-2.628,0.324-2.639,0.33l-0.305-0.549
			c0.062-0.035,1.538-0.842,3.115-0.385c0.95,0.275,1.72,0.943,2.289,1.988L62.763,55.963z"/>
	</g>
	<g>
		<path fill="#060809" d="M36.817,56.869l-0.556-0.293c0.034-0.061,0.829-1.547,2.397-2.025c0.943-0.289,1.955-0.15,3.004,0.412
			l-0.297,0.553c-0.896-0.479-1.746-0.602-2.525-0.363C37.522,55.557,36.825,56.857,36.817,56.869z"/>
	</g>
	<g>
		<path fill="#FFFFFF" d="M49.243,81.238c2.687,0,4.864-2.178,4.864-4.863H44.38C44.38,79.061,46.556,81.238,49.243,81.238z"/>
		<path fill="#875047" d="M49.143,60.453c0,0-3.561,9.591-3.261,10.316c0.277,0.667,1.771,1.215,3.329,1.16
			c1.554,0.144,3.076-0.318,3.39-0.967C52.943,70.256,49.143,60.453,49.143,60.453z"/>
	</g>
	<polyline fill="#060809" points="58.999,60.168 62.089,60.771 59.368,62.924 	"/>
	<polyline fill="#060809" points="38.837,60.443 35.921,61.002 39.222,63.012 	"/>
	<circle fill="#FFFFFF" cx="79.909" cy="67.014" r="1.493"/>
	<circle fill="#FFFFFF" cx="20.828" cy="67.014" r="1.493"/>
	<circle fill="#422918" cx="52.338" cy="18.438" r="15.163"/>
</g>
</svg>
