<svg version="1.1"
	 xmlns="http://www.w3.org/2000/svg" xmlns:xlink="http://www.w3.org/1999/xlink" x="0px" y="0px" width="100px" height="100px"
	 viewBox="0 0 104 100" enable-background="new 0 0 100 100" xml:space="preserve">
<metadata>
	<sfw  xmlns="&ns_sfw;">
		<slices></slices>
		<sliceSourceBounds  x="-7679" y="-8692" height="16383" width="16383" bottomLeftOrigin="true"></sliceSourceBounds>
	</sfw>
</metadata>
<path fill="#D5B4AE" d="M50.11,70.411c-11.369,0-21.755-2.44-29.738-6.28c-0.031,7.115-0.061,13.581-0.061,13.581h0.016
	c0.344,4.714,13.66,9.474,30.048,9.474c16.388,0,29.705-4.76,30.048-9.474h0.016c0,0-0.045-6.61-0.094-13.822
	C72.299,67.873,61.713,70.411,50.11,70.411z"/>
<path fill="#EEC1B5" d="M21.234,52.827c-1.57,0.25-4.27,2.278-4.27,4.744s2.699,4.496,4.27,4.746V52.827z"/>
<path fill="#EEC1B5" d="M80.164,62.317c2.357-0.25,4.27-2.28,4.27-4.746s-1.912-4.494-4.27-4.744V62.317z"/>
<circle fill="#060809" cx="39.712" cy="58.13" r="1.699"/>
<path fill="#FFFFFF" d="M49.366,79.248c4.009,0,7.257-3.252,7.257-7.258H42.109C42.109,75.996,45.355,79.248,49.366,79.248z"/>
<g>
	<path fill="#060809" d="M35.417,52.142l-0.494-0.262c0.031-0.055,0.736-1.369,2.125-1.795c0.838-0.257,1.732-0.135,2.664,0.365
		l-0.266,0.491c-0.793-0.425-1.545-0.536-2.236-0.325C36.042,50.976,35.423,52.13,35.417,52.142z"/>
</g>
<path fill="#DCAA9D" d="M49.606,45.92c0,0-3.082,18.012-2.867,19.353c0.195,1.234,1.344,2.211,2.566,2.059
	c1.208,0.223,2.411-0.688,2.677-1.91C52.271,64.098,49.606,45.92,49.606,45.92z"/>
<circle fill="#060809" cx="58.324" cy="58.131" r="1.698"/>
<g>
	<path fill="#060809" d="M61.928,53.903c-0.432-0.787-1-1.291-1.691-1.494c-1.172-0.341-2.33,0.287-2.34,0.291l-0.271-0.487
		c0.057-0.03,1.365-0.744,2.762-0.34c0.842,0.243,1.523,0.836,2.029,1.764L61.928,53.903z"/>
</g>
<g>
	<rect x="40.091" y="81.641" fill="#9D6E63" width="21.213" height="13.357"/>
	<path fill="#9D6E63" d="M61.205,94.602c0,2.981-4.791,5.398-10.699,5.398c-5.907,0-10.698-2.417-10.698-5.398
		c0-2.979,4.791-5.395,10.698-5.395C56.414,89.207,61.205,91.623,61.205,94.602z"/>
</g>
<path fill="#9D6E63" d="M79.894,46.138c0-12.98-13.383-23.9-29.892-23.9c-16.507,0-29.89,11.119-29.89,24.1
	c0,0.146-0.137,31.582-0.137,31.582h0.016c0.344,4.714,13.66,9.474,30.048,9.474c16.388,0,29.704-4.76,30.048-9.474h0.016
	C80.103,77.919,79.894,46.287,79.894,46.138z"/>
<path fill="#9D6E63" d="M21.234,52.827c-1.57,0.25-4.27,2.278-4.27,4.744s2.699,4.496,4.27,4.746V52.827z"/>
<path fill="#9D6E63" d="M79.83,62.317c2.357-0.25,4.27-2.28,4.27-4.746s-1.912-4.494-4.27-4.744V62.317z"/>
<circle fill="#060809" cx="40.41" cy="58.13" r="1.699"/>
<path fill="#FFFFFF" d="M50.504,79.248c4.009,0,7.259-3.252,7.259-7.258H43.248C43.248,75.996,46.494,79.248,50.504,79.248z"/>
<g>
	<path fill="#060809" d="M36.115,52.142l-0.494-0.262c0.031-0.055,0.736-1.369,2.125-1.795c0.838-0.257,1.732-0.135,2.664,0.365
		l-0.264,0.491c-0.795-0.425-1.547-0.536-2.236-0.325C36.74,50.976,36.121,52.13,36.115,52.142z"/>
</g>
<path fill="#875047" d="M50.111,45.916c0,0-4.463,17.972-4.115,19.317c0.319,1.237,2.103,2.232,3.982,2.1
	c1.864,0.24,3.702-0.65,4.093-1.87C54.495,64.141,50.111,45.916,50.111,45.916z"/>
<circle fill="#060809" cx="59.463" cy="58.131" r="1.698"/>
<g>
	<path fill="#060809" d="M63.066,53.903c-0.432-0.787-0.998-1.291-1.691-1.494c-1.172-0.341-2.328,0.287-2.34,0.291l-0.27-0.487
		c0.055-0.03,1.365-0.744,2.76-0.34c0.842,0.243,1.525,0.836,2.029,1.764L63.066,53.903z"/>
</g>
<path fill="#422918" d="M73.206,34.534c0,0-13.808,8.646-31.291,2.09c-17.484-6.557-23.303-12.633-23.303-12.633
	s30.004-7.402,45.312-3.368C79.235,24.657,73.206,34.534,73.206,34.534z"/>
<path fill="#422918" d="M20.312,54.813c0.045,0.079,19.496-25.167,19.496-25.167l-12.549-0.889c0,0-7.637-0.533-8.158,7.645
	C18.58,44.581,20.312,54.813,20.312,54.813z"/>
<path fill="#422918" d="M80.656,54.813C80.611,54.893,61.16,29.646,61.16,29.646l12.549-0.889c0,0,7.637-0.533,8.158,7.645
	C82.389,44.581,80.656,54.813,80.656,54.813z"/>
</svg>
