<svg version="1.1" x="0px" y="0px"
	 width="100px" height="100px" viewBox="0 0 100 100" enable-background="new 0 0 100 100" xml:space="preserve">
<g>
	<circle fill="#1D1D1B" cx="14.313" cy="60.58" r="11.803"/>
	<circle fill="#1D1D1B" cx="14.314" cy="44.347" r="9.323"/>
	<circle fill="#1D1D1B" cx="19.583" cy="29.242" r="9.323"/>
	<circle fill="#1D1D1B" cx="19.295" cy="76.375" r="9.323"/>
	<circle fill="#1D1D1B" cx="26.905" cy="83.984" r="9.323"/>
	<circle fill="#1D1D1B" cx="38.719" cy="81.398" r="9.323"/>
	<circle fill="#1D1D1B" cx="73.359" cy="81.398" r="9.323"/>
	<circle fill="#1D1D1B" cx="81.616" cy="70.842" r="9.323"/>
	<circle fill="#1D1D1B" cx="60.827" cy="81.398" r="9.323"/>
	<circle fill="#1D1D1B" cx="82.161" cy="57.984" r="9.323"/>
	<circle fill="#1D1D1B" cx="82.161" cy="44.347" r="9.323"/>
	<circle fill="#1D1D1B" cx="80.355" cy="29.242" r="9.323"/>
	<circle fill="#1D1D1B" cx="64.037" cy="25.537" r="10.994"/>
	<circle fill="#1D1D1B" cx="36.475" cy="22.296" r="10.994"/>
	<circle fill="#1D1D1B" cx="51.368" cy="22.296" r="10.994"/>
</g>
<rect x="43.097" y="83.658" fill="#9D6E63" width="13.263" height="12.059"/>
<ellipse fill="#9D6E63" cx="49.715" cy="95.238" rx="6.631" ry="4.762"/>
<path fill="#9D6E63" d="M79.312,47.339c0-13.074-13.139-23.812-29.345-23.812S20.621,34.337,20.621,47.41
	c0,0.148-0.133,25.397-0.133,25.397h0.016c0.336,6.029,13.41,15.562,29.5,15.562c16.088,0,29.16-9.533,29.498-15.562l-0.258-5.264
	C79.244,67.543,79.312,47.488,79.312,47.339z"/>
<path fill="#9D6E63" d="M21.369,59.603c-1.205,0.209-3.572,1.907-3.572,3.969c0,2.063,2.367,3.762,3.572,3.971V59.603z"/>
<path fill="#9D6E63" d="M79.244,67.543c1.205-0.209,3.572-1.907,3.572-3.971c0-2.062-2.367-3.76-3.572-3.969V67.543z"/>
<circle fill="#060809" cx="40.636" cy="61.519" r="1.918"/>
<circle fill="#060809" cx="58.277" cy="61.518" r="1.917"/>
<path fill="#FFFFFF" d="M49.697,81.238c2.688,0,4.865-2.178,4.865-4.863h-9.729C44.834,79.061,47.01,81.238,49.697,81.238z"/>
<g>
	<path fill="#060809" d="M62.977,55.96c-0.485-0.891-1.126-1.459-1.908-1.688c-1.321-0.385-2.628,0.324-2.639,0.33l-0.305-0.549
		c0.062-0.035,1.538-0.842,3.115-0.385c0.95,0.275,1.72,0.943,2.289,1.988L62.977,55.96z"/>
</g>
<g>
	<path fill="#060809" d="M37.031,56.867l-0.556-0.293c0.034-0.061,0.829-1.547,2.397-2.025c0.943-0.289,1.955-0.15,3.004,0.412
		l-0.297,0.553c-0.896-0.479-1.746-0.602-2.525-0.363C37.736,55.554,37.039,56.855,37.031,56.867z"/>
</g>
<path fill="#875047" d="M49.583,60.455c0,0-3.685,9.588-3.373,10.314c0.289,0.668,1.839,1.217,3.457,1.164
	c1.612,0.145,3.191-0.314,3.516-0.965C53.537,70.264,49.583,60.455,49.583,60.455z"/>
<polyline fill="#060809" points="59.213,60.166 62.303,60.77 59.582,62.922 "/>
<polyline fill="#060809" points="39.051,60.441 36.135,61 39.436,63.01 "/>
<circle fill="#FFFFFF" cx="80.123" cy="67.014" r="1.493"/>
<circle fill="#FFFFFF" cx="21.042" cy="67.014" r="1.493"/>
<ellipse fill="#1D1D1B" cx="45.323" cy="35.491" rx="12.954" ry="10.729"/>
<ellipse fill="#1D1D1B" cx="28.978" cy="42.91" rx="11.396" ry="9.621"/>
<ellipse fill="#1D1D1B" cx="36.188" cy="31.428" rx="9.136" ry="7.758"/>
<ellipse fill="#1D1D1B" cx="55.853" cy="28.225" rx="13.3" ry="8.306"/>
<ellipse fill="#1D1D1B" cx="74.127" cy="31.976" rx="13.3" ry="8.307"/>
<ellipse transform="matrix(0.9939 0.1101 -0.1101 0.9939 5.3239 -7.6922)" fill="#1D1D1B" cx="72.293" cy="44.347" rx="9.027" ry="7.948"/>
<ellipse fill="#1D1D1B" cx="78.63" cy="52.31" rx="6.721" ry="8.596"/>
<ellipse fill="#1D1D1B" cx="62.94" cy="38.819" rx="9.897" ry="5.528"/>
<ellipse fill="#1D1D1B" cx="45.323" cy="28.233" rx="12.954" ry="7.258"/>
<ellipse fill="#1D1D1B" cx="28.778" cy="34.214" rx="7.409" ry="4.972"/>
<ellipse fill="#1D1D1B" cx="23.637" cy="53.669" rx="6.032" ry="6.727"/>
</svg>
