<svg x="0px" y="0px" width="173.998px" height="153.019px" viewBox="0 0 173.998 153.019">
	<g class="fill-piel-w">
		<rect x="65.504" y="124.176" width="31.763" height="19.849"/>
		<path d="M97.281,143.996c0,4.432-7.12,8.022-15.899,8.022c-8.78,0-15.899-3.59-15.899-8.022c0-4.427,7.119-8.017,15.899-8.017C90.161,135.979,97.281,139.569,97.281,143.996z"/>
		<path d="M126.359,67.013c0-19.288-19.89-35.516-44.42-35.516c-24.53,0-44.42,16.522-44.42,35.813c0,0.216-0.203,46.92-0.203,46.92h0.023c0.511,7.007,20.302,14.079,44.653,14.079c24.355,0,44.142-7.072,44.653-14.079h0.025C126.67,114.23,126.359,67.234,126.359,67.013z"/>
		<path d="M37.597,77.26c-2.336,0.373-6.344,3.385-6.344,7.047s4.008,6.679,6.344,7.05V77.26z"/>
		<path d="M125.168,91.357c3.503-0.371,6.344-3.387,6.344-7.05s-2.841-6.675-6.344-7.047V91.357z"/>
	</g>
	<path fill="#060809" d="M66.948,82.614c1.394,0,2.522,1.131,2.522,2.527c0,1.393-1.128,2.519-2.522,2.519c-1.396,0-2.528-1.126-2.528-2.519C64.42,83.745,65.553,82.614,66.948,82.614z"/>
	<path fill="#FFFFFF" d="M81.947,116.515c5.963,0,10.79-4.832,10.79-10.786H71.165C71.165,111.683,75.988,116.515,81.947,116.515z"/>
	<path fill="#060809" d="M60.566,76.243l-0.734-0.388c0.043-0.083,1.094-2.037,3.157-2.669c1.245-0.38,2.575-0.199,3.959,0.542l-0.395,0.732c-1.178-0.633-2.296-0.797-3.323-0.483C61.492,74.51,60.572,76.225,60.566,76.243z"/>
	<path fill="#DCAA9D" d="M82.113,66.998c0,0-4.58,26.757-4.263,28.751c0.29,1.834,2,3.286,3.813,3.06c1.797,0.33,3.589-1.022,3.983-2.839C86.072,94.001,82.113,66.998,82.113,66.998z"/>
	<g fill="#060809">
		<path d="M95.261,82.619c1.396,0,2.524,1.126,2.524,2.522c0,1.393-1.129,2.519-2.524,2.519c-1.399,0-2.524-1.126-2.524-2.519C92.737,83.745,93.861,82.619,95.261,82.619z"/>
		<path d="M100.617,78.86c-0.64-1.17-1.484-1.917-2.514-2.221c-1.741-0.506-3.465,0.427-3.48,0.434l-0.398-0.724c0.081-0.045,2.028-1.106,4.102-0.505c1.253,0.362,2.267,1.242,3.019,2.622L100.617,78.86z"/>
	</g>
	<ellipse class="fill-piel-w" cx="80.641" cy="145.181" rx="24.211" ry="6.703"/>
	<path fill="#E19B2B" d="M127.955,49.358c0.239-19.458-19.537-24.298-19.537-24.298s-23.547-6.626-54.062,1.607c-21.741,5.865-16.889,51.377-16.889,51.377s1.361,8.554,2.131,9.639c1.212-2.067,5.318-13.741,8.698-23.614c7.532,2.917,19.131,3.894,31.826,2.161c16.087-2.194,29.312-8.105,34.272-14.611c5.259,16.543,12.604,36.904,12.604,36.904c1.196-8.864,1.823-11.549,1.823-11.549S127.756,65.552,127.955,49.358z"/>
</svg>
