<svg x="0px" y="0px" width="173.998px" height="153.019px" viewBox="0 0 173.998 153.019">
	<g class="fill-piel-w">
		<rect x="58.169" y="123.865" width="45.801" height="20.884"/>
		<path d="M97.799,144.719c0,4.663-7.492,8.44-16.729,8.44c-9.237,0-16.728-3.777-16.728-8.44c0-4.657,7.491-8.435,16.728-8.435C90.307,136.285,97.799,140.062,97.799,144.719z"/>
		<path d="M128.395,63.72c0-20.293-20.928-37.369-46.739-37.369c-25.81,0-46.737,17.385-46.737,37.682c0,0.228-0.214,49.369-0.214,49.369h0.024c0.538,7.372,21.361,14.814,46.982,14.814c25.625,0,46.445-7.442,46.982-14.814h0.028C128.722,113.401,128.395,63.954,128.395,63.72z"/>
	</g>
	<path fill="#D5B4AE" d="M81.295,100.418c-17.772,0-34.016-3.814-46.496-9.818c-0.049,11.125-0.095,25.928-0.095,25.928h0.024c0.538,7.372,21.361,14.814,46.982,14.814c25.625,0,46.445-7.442,46.982-14.814h0.028c0,0-0.073-15.029-0.15-26.307C115.993,96.452,99.441,100.418,81.295,100.418z"/>
	<g class="fill-piel-w">
		<path d="M35.001,74.502c-2.458,0.391-6.676,3.561-6.676,7.415c0,3.854,4.217,7.027,6.676,7.418V74.502z"/>
		<path d="M127.14,89.335c3.686-0.391,6.675-3.564,6.675-7.418c0-3.854-2.989-7.023-6.675-7.415V89.335z"/>
		<ellipse cx="81.069" cy="145.967" rx="25.474" ry="7.052"/>
	</g>
	<path fill="#1D1D1B" d="M122.33,85.235c0,0-47.307-50.41-67.32-43.867c-10.682,3.492-16.524,36.949-18.8,40.836c-0.809-1.142-2.24-10.142-2.24-10.142s-3.979-45.006,18.895-51.178c32.104-8.664,53.021,4.984,53.021,4.984s23.544-4.461,23.294,16.011c-0.211,17.04,0.91,29.057,0.91,29.057S127.07,78.688,122.33,85.235z"/>
	<ellipse fill="#D5B4AE" cx="81.648" cy="121.865" rx="27.059" ry="14.478"/>
	<path fill="#060809" d="M65.883,80.135c1.466,0,2.654,1.189,2.654,2.658c0,1.466-1.188,2.651-2.654,2.651c-1.469,0-2.66-1.185-2.66-2.651C63.224,81.325,64.415,80.135,65.883,80.135z"/>
	<path fill="#FFFFFF" d="M81.665,115.805c6.272,0,11.354-5.084,11.354-11.348H70.32C70.32,110.72,75.396,115.805,81.665,115.805z"/>
	<path fill="#060809" d="M59.168,73.431l-0.772-0.408c0.046-0.087,1.151-2.142,3.322-2.808c1.31-0.4,2.709-0.209,4.166,0.571l-0.416,0.77c-1.24-0.666-2.415-0.838-3.496-0.508C60.142,71.608,59.174,73.413,59.168,73.431z"/>
	<path fill="#DCAA9D" d="M81.839,63.705c0,0-4.818,28.152-4.486,30.25c0.306,1.93,2.104,3.457,4.013,3.219c1.89,0.348,3.774-1.075,4.19-2.987C86.004,92.117,81.839,63.705,81.839,63.705z"/>
	<g fill="#060809">
		<path d="M95.677,80.14c1.466,0,2.653,1.185,2.653,2.653c0,1.466-1.188,2.651-2.653,2.651c-1.473,0-2.658-1.185-2.658-2.651C93.019,81.325,94.204,80.14,95.677,80.14z"/>
		<path d="M101.308,76.185c-0.672-1.23-1.561-2.017-2.642-2.336c-1.832-0.533-3.644,0.449-3.661,0.457l-0.419-0.762c0.086-0.047,2.132-1.164,4.312-0.532c1.319,0.38,2.385,1.307,3.176,2.758L101.308,76.185z"/>
	</g>
</svg>
