<svg x="0px" y="0px" width="173.998px" height="153.019px" viewBox="0 0 173.998 153.019">
	<g fill="#EEC1B5">
		<rect x="66.705" y="124.783" width="31.955" height="19.966"/>
		<path d="M98.671,144.72c0,4.458-7.165,8.069-15.996,8.069c-8.832,0-15.993-3.611-15.993-8.069c0-4.452,7.161-8.063,15.993-8.063C91.506,136.657,98.671,140.268,98.671,144.72z"/>
		<path d="M127.923,67.285c0-19.401-20.006-35.725-44.688-35.725c-24.674,0-44.681,16.62-44.681,36.023c0,0.218-0.204,47.196-0.204,47.196h0.023c0.514,7.047,20.421,14.162,44.914,14.162c24.503,0,44.408-7.114,44.921-14.162h0.026C128.235,114.78,127.923,67.508,127.923,67.285z"/>
	</g>
	<path fill="#D5B4AE" d="M82.891,103.868c-16.991,0-32.519-3.646-44.451-9.386c-0.047,10.635-0.09,20.298-0.09,20.298h0.023c0.514,7.047,20.421,14.162,44.914,14.162c24.503,0,44.408-7.114,44.921-14.162h0.026c0,0-0.07-9.879-0.143-20.66C116.067,100.076,100.241,103.868,82.891,103.868z"/>
	<g fill="#EEC1B5">
		<path d="M38.633,77.593c-2.351,0.374-6.382,3.404-6.382,7.088s4.031,6.717,6.382,7.091V77.593z"/>
		<path d="M126.723,91.773c3.524-0.374,6.382-3.407,6.382-7.091s-2.857-6.715-6.382-7.088V91.773z"/>
	</g>
	<g>
	<path fill="#060809" d="M68.157,82.978c1.401,0,2.537,1.137,2.537,2.541c0,1.402-1.136,2.534-2.537,2.534c-1.404,0-2.543-1.132-2.543-2.534C65.614,84.115,66.752,82.978,68.157,82.978z"/>
	<path fill="#FFFFFF" d="M83.244,117.078c5.997,0,10.854-4.861,10.854-10.849h-21.7C72.398,112.217,77.251,117.078,83.244,117.078z"/>
	<path fill="#060809" d="M61.737,76.569l-0.738-0.39c0.043-0.083,1.101-2.048,3.176-2.685c1.252-0.383,2.59-0.2,3.982,0.546l-0.397,0.735c-1.186-0.636-2.309-0.801-3.343-0.486C62.668,74.826,61.743,76.551,61.737,76.569z"/>
	<path fill="#DCAA9D" d="M83.41,67.27c0,0-4.607,26.914-4.288,28.919c0.291,1.845,2.011,3.305,3.835,3.077c1.809,0.333,3.609-1.027,4.006-2.855C87.393,94.432,83.41,67.27,83.41,67.27z"/>
	<g fill="#060809">
		<path d="M96.641,82.982c1.401,0,2.538,1.133,2.538,2.537c0,1.402-1.137,2.534-2.538,2.534c-1.408,0-2.542-1.132-2.542-2.534C94.099,84.115,95.232,82.982,96.641,82.982z"/>
		<path d="M102.026,79.202c-0.643-1.177-1.492-1.929-2.526-2.234c-1.753-0.509-3.484,0.43-3.503,0.437l-0.399-0.728c0.082-0.045,2.038-1.112,4.124-0.508c1.262,0.364,2.281,1.25,3.038,2.636L102.026,79.202z"/>
	</g>
	<path fill="#412312" d="M129.138,49.989c0.238-19.573-22.27-15.308-22.27-15.308s-20-13.046-50.692-4.765c-21.866,5.9-18.062,48.926-18.062,48.926s1.367,8.604,2.14,9.695c2.178-3.716,4.978-21.268,4.978-21.268S66.72,61.411,85.86,56.659l-6.878,9.076l34.402-13.701L98.854,65.735c0,0,11.996-4.487,18.758-6.929c4.944,15.016,10.562,30.576,10.562,30.576c1.202-8.916,1.834-11.617,1.834-11.617S128.936,66.278,129.138,49.989z"/>
	<path fill="#EEC1B5" d="M81.931,139.17c13.451,0,24.358,3.019,24.358,6.742c0,3.724-10.907,6.743-24.358,6.743c-13.448,0-24.353-3.019-24.353-6.743C57.578,142.189,68.482,139.17,81.931,139.17z"/>
</svg>
