<svg x="0px" y="0px" width="173.998px" height="153.019px" viewBox="0 0 173.998 153.019">
	<path fill="#CC3B17" d="M133.547,130.107l-14.024-75.492c0-2.123-1.609,7.176-4.262,7.176H41.604c-2.649,0-5.102-0.246-5.102,1.877L32.65,130.73c0,0.014,0.015,0.022,0.018,0.036c-0.003,0.015-0.018,0.03-0.018,0.044c0,1.826,21.924,5.759,50.109,5.759C110.942,136.569,134.304,130.334,133.547,130.107z"/>
	<g class="fill-piel-w">
		<path d="M121.402,73.466c0-17.896-17.984-32.595-40.168-32.595s-40.17,14.798-40.17,32.693c0,0.202-0.182,34.761-0.182,34.761h0.021c0.46,8.251,18.355,21.302,40.378,21.302c22.022,0,39.917-13.051,40.377-21.302l-0.351-7.207C121.309,101.118,121.402,73.669,121.402,73.466z"/>
		<path d="M41.033,90.253c-1.649,0.286-4.889,2.609-4.889,5.433s3.24,5.147,4.889,5.432V90.253z"/>
		<path d="M121.309,100.92c1.648-0.284,4.891-2.608,4.891-5.433c0-2.822-3.242-5.146-4.891-5.432V100.92z"/>
	</g>
	<g fill="#060809">
		<circle cx="68.458" cy="92.876" r="2.625"/>
		<circle cx="92.606" cy="92.875" r="2.624"/>
		<path d="M99.04,85.267c-0.664-1.219-1.541-1.996-2.609-2.309c-1.811-0.528-3.6,0.442-3.616,0.451l-0.418-0.751c0.086-0.049,2.108-1.153,4.266-0.528c1.302,0.378,2.354,1.292,3.135,2.724L99.04,85.267z"/>
	</g>
	<g class="fill-piel-w">
		<rect x="71.285" y="123.178" width="18.153" height="16.504"/>
		<ellipse cx="80.361" cy="140.143" rx="9.023" ry="6.517"/>
	</g>
	<path fill="#FFFFFF" d="M80.359,119.868c3.679,0,6.66-2.984,6.66-6.661H73.705C73.705,116.883,76.683,119.868,80.359,119.868z"/>
	<path fill="#DCAA9D" d="M80.29,91.399c0,0-4.339,13.145-3.981,14.135c0.329,0.913,2.128,1.656,4.01,1.574c1.872,0.187,3.711-0.45,4.09-1.342C84.827,104.798,80.29,91.399,80.29,91.399z"/>
	<g fill="#060809">
		<polyline points="93.887,91.023 98.119,91.849 94.392,94.796"/>
		<polyline points="66.29,91.399 62.298,92.165 66.817,94.916"/>
	</g>
	<g fill="#FFFFFF">
		<circle cx="122.511" cy="100.395" r="2.044"/>
		<circle cx="41.64" cy="100.395" r="2.044"/>
	</g>
	<path fill="#060809" d="M63.528,86.509l-0.765-0.403c0.048-0.084,1.139-2.116,3.284-2.773c1.291-0.395,2.676-0.206,4.112,0.565l-0.407,0.756c-1.227-0.655-2.39-0.823-3.457-0.497C64.491,84.71,63.537,86.491,63.528,86.509z"/>
	<g fill="#CC3B17">
		<circle cx="94.144" cy="102.437" r="0.599"/>
		<circle cx="99.97" cy="100.485" r="0.566"/>
		<circle cx="99.504" cy="104.812" r="0.433"/>
		<circle cx="63.363" cy="102.437" r="0.599"/>
		<circle cx="69.19" cy="100.485" r="0.565"/>
		<circle cx="68.723" cy="104.812" r="0.433"/>
		<path d="M114.437,43.877c-8.665-6.454-34.051-9.866-53.231-5.29c-25.17,6.002-24.703,25.241-24.703,25.241l4.279,26.575c2.538,0.571,25.054-31.336,25.054-31.336s0.649,3.604-4.876,11.563c-7.551,10.874-8.206,11.307-8.206,11.307c42.93,4.171,55.579-19.104,55.579-19.104s12.63,30.189,13.626,27.242l-0.094-20.383C121.865,69.692,119.854,47.913,114.437,43.877z"/>
	</g>
	<ellipse class="fill-piel-w" cx="81.051" cy="145.843" rx="22.302" ry="6.175"/>
</svg>
