<svg x="0px" y="0px" width="173.998px" height="153.019px" viewBox="0 0 173.998 153.019">
	<g fill="#CC3B17">
		<ellipse cx="34.778" cy="83.787" rx="9.018" ry="17.615"/>
		<ellipse cx="127.123" cy="86.183" rx="8.414" ry="15.218"/>
	</g>
	<g fill="#EEC1B5">
		<rect x="66.065" y="124.562" width="32.444" height="20.273"/>
		<path d="M98.521,144.806c0,4.527-7.271,8.194-16.239,8.194c-8.967,0-16.239-3.667-16.239-8.194c0-4.521,7.272-8.188,16.239-8.188C91.25,136.619,98.521,140.286,98.521,144.806z"/>
		<path d="M126.772,68.241c0-19.699-20.312-36.276-45.37-36.276c-25.056,0-45.368,16.876-45.368,36.581c0,0.219-0.208,47.926-0.208,47.926h0.023c0.522,7.153,20.733,14.377,45.607,14.377c24.875,0,45.086-7.224,45.608-14.377h0.023C127.09,116.472,126.772,68.469,126.772,68.241z"/>
	</g>
	<g fill="#CC3B17">
		<circle cx="96.045" cy="97.891" r="0.664"/>
		<circle cx="102.504" cy="95.728" r="0.628"/>
		<circle cx="101.988" cy="100.525" r="0.48"/>
		<circle cx="61.916" cy="97.891" r="0.664"/>
		<circle cx="68.376" cy="95.728" r="0.627"/>
		<circle cx="67.859" cy="100.525" r="0.48"/>
	</g>
	<path fill="#DCAA9D" d="M83.029,66.162c0,0-4.678,27.329-4.354,29.366c0.297,1.874,2.042,3.355,3.896,3.125c1.835,0.338,3.664-1.043,4.067-2.899C87.073,93.743,83.029,66.162,83.029,66.162z"/>
	<g fill="#EEC1B5">
		<path d="M36.207,78.827c-2.383,0.379-6.48,3.457-6.48,7.198c0,3.741,4.097,6.821,6.48,7.2V78.827z"/>
		<path d="M126.755,92.792c3.578-0.379,6.48-3.459,6.48-7.201s-2.902-6.818-6.48-7.197V92.792z"/>
	</g>
	<g fill="#060809">
		<circle cx="66.841" cy="86.44" r="2.579"/>
		<path d="M60.322,77.354l-0.75-0.397c0.047-0.083,1.117-2.078,3.225-2.724c1.272-0.389,2.629-0.205,4.043,0.554l-0.4,0.747c-1.207-0.646-2.348-0.815-3.394-0.495C61.271,75.584,60.331,77.336,60.322,77.354z"/>
		<path d="M95.762,83.867c1.426,0,2.576,1.15,2.576,2.576c0,1.423-1.15,2.576-2.576,2.576s-2.579-1.153-2.579-2.576C93.183,85.017,94.336,83.867,95.762,83.867z"/>
		<path d="M101.231,80.028c-0.655-1.195-1.515-1.959-2.567-2.268c-1.779-0.519-3.534,0.436-3.552,0.442l-0.409-0.738c0.083-0.047,2.072-1.129,4.189-0.516c1.277,0.368,2.314,1.269,3.08,2.677L101.231,80.028z"/>
	</g>
	<path fill="#CC3B17" d="M131.392,65.884c0.495-0.947,0.803-2.01,0.803-3.154c0-1.349-0.403-2.597-1.076-3.657c0.673-1.06,1.076-2.307,1.076-3.654c0-3.786-3.071-6.854-6.854-6.854c-0.335,0-0.658,0.049-0.979,0.099c0.223-0.754,0.347-1.552,0.347-2.379c0-0.139-0.015-0.276-0.021-0.414c0-0.074,0.021-0.144,0.021-0.218c0-4.625-3.75-8.372-8.371-8.372c-0.472,0-0.928,0.049-1.379,0.123c-0.557-3.728-3.74-6.597-7.624-6.597c-0.945,0-1.841,0.194-2.677,0.505c-1.23-1.715-3.229-2.842-5.496-2.842c-0.964,0-1.88,0.209-2.71,0.572c-1.417-3.336-4.725-5.674-8.579-5.674c-3.341,0-6.267,1.767-7.909,4.413c-1.312-0.969-2.917-1.561-4.672-1.561c-2.062,0-3.925,0.81-5.33,2.105c-1.186-0.708-2.552-1.141-4.034-1.141c-4.357,0-7.891,3.533-7.891,7.894c0,0.439,0.059,0.863,0.127,1.282c-1.42-1.386-3.359-2.246-5.502-2.246c-4.358,0-7.892,3.534-7.892,7.891c0,0.482,0.06,0.947,0.143,1.405c-1.53-0.888-3.3-1.405-5.194-1.405c-5.721,0-10.358,4.64-10.358,10.361c0,2.099,0.629,4.049,1.702,5.681c-3.154,2.141-5.226,5.754-5.226,9.853c0,6.572,5.327,11.899,11.899,11.899c3.716,0,7.036-1.703,9.219-4.371c1.676-2.051,2.683-4.672,2.683-7.528c0-3.015,10.992-5.799,18.542-5.799c6.527,0,28.394-4.413,30.865-10.025c1.562,2.634,4.427,4.405,7.711,4.405c2.422,0,4.606-0.973,6.22-2.533c1.031,0.452,5.511,17.208,5.511,19.374c0,4.752,3.851,8.603,8.603,8.603c4.749,0,8.603-3.851,8.603-8.603C135.692,70.145,133.958,67.373,131.392,65.884z"/>
	<g fill="#EEC1B5">
		<rect x="66.065" y="124.562" width="32.444" height="20.273"/>
		<path d="M98.521,144.806c0,4.527-7.271,8.194-16.239,8.194c-8.967,0-16.239-3.667-16.239-8.194c0-4.521,7.272-8.188,16.239-8.188C91.25,136.619,98.521,140.286,98.521,144.806z"/>
	</g>
	<path fill="#FFFFFF" d="M82.164,118.488c6.086,0,11.019-4.936,11.019-11.016H71.148C71.148,113.552,76.075,118.488,82.164,118.488z"/>
	<ellipse fill="#EEC1B5" cx="81.526" cy="146.017" rx="24.728" ry="6.846"/>
</svg>
