<svg x="0px" y="0px" width="173.998px" height="153.019px" viewBox="0 0 173.998 153.019">
	<g fill="#E19B2B">
		<path d="M124.441,66.774c0,0-0.323,21.016,9.439,31.227c3.112,3.256,11.492,15.792,3.639,17.649c-12.139,2.871-2.371,13.879-0.526,13.879c1.844,0-4.712,7.373-10.043,7.837c-5.328,0.464-6.957-7.161-9.04-8.69c-2.08-1.529-5.676,7.087-11.527,6.789c-5.85-0.299-19.343-5.937-20.769-5.937c-1.423,0,3.942,3.226,3.761,3.226c-0.185,0-29.782,0-29.782,0s-4.521,2.849-11.289,4.633c-2.506,0.66-10.075-7.87-11.003-7.859c-9.328,0.117-12.25-1.83-13.005-4.904c-1.461-5.953,2.841-9.192,4.535-13.662c3.949-10.412,7.12-25.66,7.12-25.66"/>
		<path d="M129.259,103.723c-22.206,4.394-24.326,9.757-48.69,9.263c-24.31-0.494-46.057-10.015-46.057-12.171l3.329-35.884c0-2.156,1.415-3.734,4.106-3.734h74.809c2.694,0,7.818,4.548,7.818,6.705L129.259,103.723z"/>
	</g>
	<g class="fill-piel-w">
		<path d="M122.994,72.729c0-18.178-18.269-33.106-40.796-33.106c-22.532,0-40.799,15.028-40.799,33.204c0,0.207-0.188,35.306-0.188,35.306h0.022c0.47,8.38,18.645,21.635,41.014,21.635c22.366,0,40.541-13.254,41.008-21.635l-0.358-7.319C122.896,100.814,122.994,72.936,122.994,72.729z"/>
		<path d="M42.436,89.778c-1.675,0.291-4.967,2.65-4.967,5.518s3.292,5.228,4.967,5.518V89.778z"/>
		<path d="M122.896,100.814c1.678-0.291,4.967-2.65,4.967-5.518s-3.289-5.228-4.967-5.518V100.814z"/>
	</g>
	<path fill="#E19B2B" d="M122.896,89.778c0,0-17.88,5.841-23.553-23.004c-0.733-2.335-43.001-8.424-39.751,24.169c3.373,33.795-23.137,25.532-23.137,25.532l1.42-53.905c0,0-0.475-17.491,25.09-22.947c19.481-4.161,45.264-1.059,54.064,4.809c5.502,3.669,7.544,23.468,7.544,23.468l0.068,13.877C124.643,81.778,130.858,92.081,122.896,89.778z"/>
	<g fill="#060809">
		<path d="M69.223,89.775c1.472,0,2.664,1.195,2.664,2.667s-1.192,2.667-2.664,2.667c-1.475,0-2.664-1.195-2.664-2.667S67.748,89.775,69.223,89.775z"/>
		<circle cx="93.747" cy="92.44" r="2.666"/>
		<path d="M100.28,84.713c-0.676-1.238-1.563-2.026-2.653-2.344c-1.838-0.538-3.652,0.448-3.668,0.456l-0.424-0.763c0.084-0.049,2.14-1.17,4.331-0.535c1.32,0.383,2.39,1.312,3.183,2.767L100.28,84.713z"/>
		<path d="M64.212,85.976l-0.774-0.41c0.046-0.084,1.154-2.148,3.332-2.816c1.314-0.402,2.721-0.209,4.18,0.573l-0.416,0.769c-1.244-0.665-2.425-0.836-3.509-0.505C65.19,84.148,64.223,85.957,64.212,85.976z"/>
	</g>
	<g class="fill-piel-w">
		<rect x="71.78" y="123.221" width="18.44" height="16.763"/>
		<path d="M90.219,140.412c0,3.405-4.128,6.165-9.219,6.165c-5.088,0-9.217-2.759-9.217-6.165c0-3.404,4.129-6.163,9.217-6.163C86.09,134.249,90.219,137.008,90.219,140.412z"/>
	</g>
	<path fill="#FFFFFF" d="M81,119.856c3.737,0,6.765-3.031,6.765-6.765H74.238C74.238,116.825,77.263,119.856,81,119.856z"/>
	<path fill="#DCAA9D" d="M80.927,90.943c0,0-4.408,13.35-4.043,14.354c0.336,0.929,2.164,1.684,4.073,1.6c1.904,0.19,3.769-0.456,4.158-1.363C85.535,104.551,80.927,90.943,80.927,90.943z"/>
	<g fill="#060809">
		<polyline points="95.048,90.56 99.344,91.399 95.561,94.392"/>
		<polyline points="67.02,90.943 62.966,91.72 67.552,94.514"/>
	</g>
	<path fill="#F8B133" d="M124.441,66.774"/>
	<ellipse class="fill-piel-w" cx="81.701" cy="145.746" rx="22.649" ry="6.272"/>
</svg>
