<svg x="0px" y="0px" width="173.998px" height="153.019px" viewBox="0 0 173.998 153.019">
	<path fill="#231F20" d="M136.775,127.367l-11.708-69.484c0-2.268-4.989-3.487-7.822-3.487L38.569,69.018c-2.83,0-5.449-0.263-5.449,2.005l-4.116,57.009c0,0.015,0.016,0.024,0.019,0.039c-0.003,0.016-0.019,0.032-0.019,0.047c0,1.95,23.419,6.151,53.524,6.151C112.633,134.27,137.585,127.609,136.775,127.367z"/>
	<path fill="#F8B133" d="M125.654,61.123"/>
	<g fill="#231F20">
		<ellipse transform="matrix(-0.9758 0.2189 -0.2189 -0.9758 293.4305 212.7204)" cx="134.934" cy="122.612" rx="10.824" ry="8.839"/>
		<ellipse transform="matrix(-0.9758 0.2189 -0.2189 -0.9758 265.8192 227.4764)" cx="120.311" cy="128.461" rx="10.825" ry="8.84"/>
		<path d="M73.938,135.056c4.396,4.391,17.145,5.835,28.472,3.219c11.324-2.613,16.943-8.289,12.547-12.681c-4.4-4.391-17.151-5.832-28.471-3.222C75.158,124.986,69.539,130.664,73.938,135.056z"/>
		<ellipse transform="matrix(0.9758 0.2189 -0.2189 0.9758 27.9297 -3.9958)" cx="32.002" cy="124.074" rx="10.824" ry="8.839"/>
		<ellipse transform="matrix(0.9758 0.2189 -0.2189 0.9758 29.5672 -7.0545)" cx="46.624" cy="129.923" rx="10.824" ry="8.839"/>
		<path d="M92.997,136.519c-4.393,4.391-17.145,5.834-28.471,3.219c-11.325-2.613-16.944-8.289-12.547-12.682c4.401-4.391,17.151-5.832,28.473-3.221C91.777,126.449,97.396,132.126,92.997,136.519z"/>
	</g>
	<g fill="#EEC1B5">
		<path d="M124.132,72.321c0-19.117-19.211-34.816-42.906-34.816S38.32,53.309,38.32,72.424c0,0.217-0.197,37.129-0.197,37.129h0.023c0.494,8.813,19.608,22.753,43.132,22.753c23.522,0,42.636-13.939,43.128-22.753C124.406,109.553,124.132,72.538,124.132,72.321z"/>
		<path d="M39.411,85.315c-1.762,0.306-5.224,2.787-5.224,5.803c0,3.016,3.461,5.498,5.224,5.803V85.315z"/>
		<path d="M124.028,96.921c1.765-0.305,5.224-2.787,5.224-5.803c0-3.016-3.459-5.498-5.224-5.803V96.921z"/>
	</g>
	<g fill="#060809">
		<path d="M67.582,85.312c1.548,0,2.801,1.256,2.801,2.804s-1.253,2.805-2.801,2.805c-1.551,0-2.802-1.257-2.802-2.805S66.03,85.312,67.582,85.312z"/>
		<circle cx="93.375" cy="88.115" r="2.803"/>
	</g>
	<g fill="#EEC1B5">
		<rect x="67.344" y="117.028" width="27" height="24.545"/>
		<path d="M89.663,138.565c0,3.581-4.342,6.483-9.695,6.483c-5.351,0-9.693-2.902-9.693-6.483c0-3.58,4.342-6.481,9.693-6.481C85.32,132.083,89.663,134.985,89.663,138.565z"/>
	</g>
	<path fill="#FFFFFF" d="M79.967,116.947c3.93,0,7.114-3.187,7.114-7.113H72.855C72.855,113.76,76.038,116.947,79.967,116.947z"/>
	<path fill="#DCAA9D" d="M79.89,84.372c0,0-4.634,14.04-4.252,15.096c0.354,0.977,2.276,1.771,4.284,1.682c2.002,0.2,3.964-0.479,4.373-1.434C84.737,98.682,79.89,84.372,79.89,84.372z"/>
	<g fill="#060809">
		<polyline points="94.741,86.138 99.26,87.021 95.282,90.167"/>
		<polyline points="65.265,86.541 61.001,87.357 65.825,90.296"/>
	</g>
	<path fill="#EEC1B5" d="M81.129,137.58c9.607,0,16.791,2.953,16.791,6.596s-7.184,6.596-16.791,6.596c-9.605,0-17.394-2.953-17.394-6.596S71.524,137.58,81.129,137.58z"/>
	<g fill="#665252">
		<path d="M97.174,99.933c-8.184,0-14.847-5.65-14.847-12.595c0-6.944,6.663-12.594,14.847-12.594c8.187,0,14.85,5.65,14.85,12.594C112.023,94.283,105.36,99.933,97.174,99.933z M97.174,77.083c-6.665,0-12.089,4.599-12.089,10.255c0,5.655,5.424,10.256,12.089,10.256c6.669,0,12.091-4.601,12.091-10.256C109.265,81.683,103.843,77.083,97.174,77.083z"/>
		<path d="M62.083,99.933c-8.186,0-14.85-5.65-14.85-12.595c0-6.944,6.664-12.594,14.85-12.594s14.848,5.65,14.848,12.594C76.931,94.283,70.27,99.933,62.083,99.933z M62.083,77.083c-6.667,0-12.092,4.599-12.092,10.255c0,5.655,5.425,10.256,12.092,10.256c6.668,0,12.09-4.601,12.09-10.256C74.173,81.683,68.751,77.083,62.083,77.083z"/>
		<path d="M76.363,89.489c0-0.015-0.008-0.027-0.008-0.041c0-0.854,1.365-1.806,3.324-1.806c1.961,0,3.326,0.952,3.326,1.806c0,0.013-0.006,0.026-0.006,0.041h1.287c0-0.015,0.007-0.027,0.007-0.041c0-1.776-2.027-3.169-4.613-3.169c-2.584,0-4.61,1.394-4.61,3.169c0,0.013,0.006,0.026,0.006,0.041H76.363z"/>
		<rect x="109.213" y="85.103" width="14.622" height="1.462"/>
	</g>
	<path fill="#231F20" d="M124.028,85.315c0,0-19.812-4.451-29.834-28.138c-0.771-2.456-39.812-4.731-39.325,18.907c0.735,35.71-25.354,46.139-25.354,46.139l4.638-65.756c0,0-0.039-18.161,26.847-23.898c20.488-4.375,47.603-1.114,56.858,5.058c5.787,3.858,7.934,24.68,7.934,24.68l0.072,14.594C125.865,76.902,132.402,87.737,124.028,85.315z"/>
</svg>
