<svg x="0px" y="0px" width="173.998px" height="153.019px" viewBox="0 0 173.998 153.019">
	<g class="fill-piel-b">
		<rect x="65.934" y="123.937" width="33.18" height="20.733"/>
		<path d="M99.125,144.639c0,4.629-7.438,8.379-16.607,8.379c-9.17,0-16.606-3.75-16.606-8.379c0-4.623,7.436-8.373,16.606-8.373C91.688,136.266,99.125,140.016,99.125,144.639z"/>
		<path d="M128.021,66.34c0-20.145-20.773-37.097-46.403-37.097c-25.622,0-46.395,17.259-46.395,37.41c0,0.224-0.212,49.011-0.212,49.011h0.024c0.533,7.315,21.203,14.703,46.64,14.703c25.443,0,46.111-7.388,46.646-14.703h0.023C128.344,115.664,128.021,66.574,128.021,66.34z"/>
		<path d="M35.398,77.166c-2.438,0.388-6.627,3.535-6.627,7.36s4.189,6.976,6.627,7.364V77.166z"/>
		<path d="M128.002,91.447c3.659-0.388,6.627-3.538,6.627-7.363c0-3.826-2.968-6.973-6.627-7.361V91.447z"/>
	</g>
	<g fill="#060809">
		<circle cx="66.727" cy="84.951" r="2.638"/>
		<path d="M60.06,75.659l-0.767-0.407c0.048-0.084,1.143-2.125,3.298-2.786c1.3-0.397,2.689-0.209,4.135,0.567l-0.41,0.764c-1.233-0.661-2.4-0.834-3.471-0.507C61.03,73.849,60.069,75.641,60.06,75.659z"/>
	</g>
	<path fill="#875047" d="M81.787,65.995c0,0-6.931,27.89-6.387,29.976c0.495,1.922,3.262,3.465,6.181,3.259c2.895,0.373,5.749-1.009,6.355-2.901C88.593,94.276,81.787,65.995,81.787,65.995z"/>
	<g fill="#060809">
		<path d="M96.302,82.319c1.458,0,2.636,1.176,2.636,2.635c0,1.455-1.178,2.634-2.636,2.634c-1.459,0-2.638-1.18-2.638-2.634C93.664,83.496,94.843,82.319,96.302,82.319z"/>
		<path d="M101.897,78.394c-0.67-1.222-1.549-2.004-2.627-2.319c-1.82-0.531-3.615,0.446-3.633,0.452l-0.419-0.755c0.084-0.048,2.12-1.155,4.285-0.527c1.308,0.376,2.369,1.298,3.151,2.738L101.897,78.394z"/>
	</g>
	<path fill="#1D1D1B" d="M132.743,63.93c0.507-0.968,0.822-2.055,0.822-3.226c0-1.379-0.413-2.656-1.102-3.739c0.688-1.084,1.102-2.358,1.102-3.736c0-3.872-3.142-7.009-7.01-7.009c-0.342,0-0.674,0.05-1,0.102c0.227-0.771,0.354-1.587,0.354-2.433c0-0.143-0.015-0.282-0.021-0.423c0-0.075,0.021-0.146,0.021-0.222c0-4.729-3.835-8.561-8.562-8.561c-0.482,0-0.948,0.05-1.409,0.125c-0.57-3.812-3.825-6.747-7.797-6.747c-0.967,0-1.884,0.198-2.739,0.517c-1.259-1.754-3.304-2.906-5.623-2.906c-0.985,0-1.924,0.214-2.771,0.585c-1.45-3.412-4.833-5.802-8.773-5.802c-3.417,0-6.41,1.807-8.089,4.513c-1.343-0.992-2.983-1.596-4.778-1.596c-2.109,0-4.013,0.828-5.45,2.152c-1.213-0.724-2.61-1.167-4.126-1.167c-4.456,0-8.07,3.614-8.07,8.073c0,0.449,0.061,0.882,0.13,1.312c-1.452-1.417-3.435-2.296-5.627-2.296c-4.456,0-8.07,3.613-8.07,8.07c0,0.493,0.061,0.969,0.146,1.437c-1.564-0.907-3.374-1.437-5.312-1.437c-5.851,0-10.592,4.744-10.592,10.596c0,2.146,0.643,4.141,1.74,5.81c-3.226,2.189-5.345,5.884-5.345,10.076c0,6.721,5.447,12.168,12.169,12.168c6.721,0,12.171-5.448,12.171-12.168c0-3.083-1.158-5.891-3.046-8.035c1.006-0.91,1.833-2.009,2.434-3.244c1.112,0.582,2.361,0.94,3.704,0.94c4.46,0,8.073-3.613,8.073-8.069c0-0.957-0.194-1.86-0.5-2.712c1.479,1.652,3.604,2.712,5.993,2.712c1.086,0,2.116-0.221,3.062-0.609c1.691,7.21,8.147,12.583,15.869,12.583c6.677,0,12.409-4.01,14.938-9.75c1.599,2.694,4.527,4.505,7.889,4.505c2.477,0,4.711-0.995,6.36-2.59c1.055,0.462,2.214,0.723,3.438,0.723c0.804,0,1.576-0.118,2.313-0.324c-0.066,0.359-0.115,0.725-0.115,1.104c0,1.378,0.412,2.652,1.101,3.736c-0.688,1.083-1.101,2.36-1.101,3.739c0,1.992,0.843,3.78,2.177,5.057c-1.353,1.546-2.177,3.564-2.177,5.778c0,4.86,3.938,8.798,8.797,8.798c4.857,0,8.798-3.938,8.798-8.798C137.142,68.286,135.368,65.452,132.743,63.93z"/>
	<g class="fill-piel-b">
		<rect x="65.934" y="123.937" width="33.18" height="20.733"/>
		<path d="M99.125,144.639c0,4.629-7.438,8.379-16.607,8.379c-9.17,0-16.606-3.75-16.606-8.379c0-4.623,7.436-8.373,16.606-8.373C91.688,136.266,99.125,140.016,99.125,144.639z"/>
	</g>
	<path fill="#FFFFFF" d="M82.396,117.725c6.224,0,11.268-5.048,11.268-11.266H71.131C71.131,112.677,76.169,117.725,82.396,117.725z"/>
	<path class="fill-piel-b" d="M81.745,138.876c13.965,0,25.292,3.134,25.292,7.001s-11.327,7.002-25.292,7.002c-13.965,0-25.288-3.135-25.288-7.002S67.78,138.876,81.745,138.876z"/>
</svg>
