<svg x="0px" y="0px" width="173.998px" height="153.019px" viewBox="0 0 173.998 153.019">
	<path fill="#231F20" d="M126.669,102.442c-21.88,4.33-23.971,9.613-47.981,9.126c-23.955-0.487-45.383-9.869-45.383-11.993l3.28-35.356c0-2.125,1.395-3.682,4.046-3.682h73.718c2.654,0,7.704,4.482,7.704,6.606L126.669,102.442z"/>
	<path fill="#F8B133" d="M123.876,66.777"/>
	<path fill="#231F20" d="M142.26,96.142c-3.547-16.829-16.187-60.769-36.219-55.994c-6.656,1.587-38.917,3.487-45.573,1.9c-20.033-4.775-34.825,37.265-38.372,54.094c-3.543,16.826,9.835,34.331,29.874,39.111c11.214,2.675,49.202,2.675,60.417,0C132.425,130.473,145.804,112.968,142.26,96.142z"/>
	<g class="fill-piel-b">
		<path d="M122.449,77.269c0-17.912-18-32.622-40.202-32.622S42.045,59.456,42.045,77.366c0,0.203-0.186,34.789-0.186,34.789h0.022c0.463,8.258,18.373,21.318,40.414,21.318c22.042,0,39.951-13.061,40.412-21.318C122.707,112.154,122.449,77.473,122.449,77.269z"/>
		<path d="M43.066,89.444c-1.651,0.286-4.894,2.612-4.894,5.437c0,2.826,3.243,5.151,4.894,5.438V89.444z"/>
		<path d="M122.354,100.319c1.653-0.286,4.894-2.611,4.894-5.438c0-2.825-3.24-5.151-4.894-5.437V100.319z"/>
	</g>
	<g fill="#060809">
		<path d="M69.462,89.441c1.45,0,2.625,1.178,2.625,2.628s-1.175,2.628-2.625,2.628c-1.454,0-2.625-1.178-2.625-2.628S68.008,89.441,69.462,89.441z"/>
		<circle cx="93.631" cy="92.068" r="2.626"/>
		<path d="M100.068,84.454c-0.666-1.22-1.541-1.996-2.614-2.309c-1.812-0.53-3.6,0.442-3.614,0.449l-0.417-0.751c0.082-0.048,2.108-1.154,4.267-0.527c1.301,0.377,2.354,1.292,3.136,2.727L100.068,84.454z"/>
		<path d="M64.524,85.698l-0.763-0.404c0.045-0.083,1.137-2.117,3.283-2.775c1.295-0.396,2.681-0.206,4.118,0.565l-0.409,0.757c-1.226-0.656-2.389-0.824-3.457-0.498C65.488,83.897,64.535,85.679,64.524,85.698z"/>
	</g>
	<g class="fill-piel-b">
		<rect x="69.239" y="119.158" width="25.302" height="22.998"/>
		<path d="M90.151,139.337c0,3.355-4.068,6.074-9.084,6.074c-5.013,0-9.082-2.719-9.082-6.074c0-3.354,4.069-6.073,9.082-6.073C86.083,133.264,90.151,135.983,90.151,139.337z"/>
	</g>
	<path fill="#FFFFFF" d="M81.067,119.082c3.682,0,6.666-2.986,6.666-6.666h-13.33C74.403,116.096,77.385,119.082,81.067,119.082z"/>
	<path fill="#875047" d="M80.995,89.221c0,0-4.344,13.155-3.985,14.145c0.332,0.915,2.133,1.659,4.014,1.576c1.875,0.187,3.715-0.45,4.097-1.344C85.536,102.63,80.995,89.221,80.995,89.221z"/>
	<g fill="#060809">
		<polyline points="94.912,90.215 99.146,91.042 95.418,93.991"/>
		<polyline points="67.291,90.592 63.296,91.357 67.816,94.111"/>
	</g>
	<ellipse class="fill-piel-b" cx="81.757" cy="144.594" rx="22.321" ry="6.18"/>
	<path fill="#231F20" d="M112.845,40.16c-10.523-3.559-30.054-6.326-50.06-1.746c-26.253,6.007-25.765,25.262-25.765,25.262l4.287,25.841C43.954,90.089,62.195,60,62.195,60l-2.417,16.055c12.34,1.588,62.871,4.133,62.871,4.133c0.375,0.084,5.143-0.773,5.492-0.813C128.141,79.374,127.496,45.116,112.845,40.16z"/>
</svg>
