<svg x="0px" y="0px" width="173.998px" height="153.019px" viewBox="0 0 173.998 153.019">
	<g fill="#1D1D1B">
		<circle cx="33.707" cy="91.935" r="16.01"/>
		<circle cx="33.708" cy="69.916" r="12.646"/>
		<circle cx="40.854" cy="49.427" r="12.646"/>
		<circle cx="40.464" cy="113.357" r="12.646"/>
		<circle cx="50.786" cy="123.679" r="12.646"/>
		<circle cx="66.812" cy="120.171" r="12.646"/>
		<circle cx="113.798" cy="120.171" r="12.646"/>
		<circle cx="124.997" cy="105.852" r="12.646"/>
		<circle cx="96.799" cy="120.171" r="12.646"/>
		<circle cx="125.736" cy="88.414" r="12.646"/>
		<circle cx="125.736" cy="69.916" r="12.646"/>
		<circle cx="123.287" cy="49.427" r="12.646"/>
		<circle cx="101.153" cy="44.401" r="14.912"/>
		<circle cx="63.768" cy="40.005" r="14.912"/>
		<circle cx="83.968" cy="40.005" r="14.911"/>
	</g>
	<g fill="#9D6E63">
		<rect x="72.75" y="123.236" width="17.991" height="16.357"/>
		<ellipse cx="81.727" cy="138.944" rx="8.995" ry="6.459"/>
		<path d="M121.873,73.975c0-17.734-17.822-32.301-39.803-32.301c-21.982,0-39.807,14.664-39.807,32.396c0,0.201-0.18,34.446-0.18,34.446h0.021c0.456,8.178,18.19,21.11,40.016,21.11c21.82,0,39.553-12.932,40.011-21.11l-0.35-7.14C121.78,101.377,121.873,74.176,121.873,73.975z"/>
		<path d="M43.277,90.61c-1.635,0.284-4.846,2.586-4.846,5.382c0,2.797,3.211,5.101,4.846,5.385V90.61z"/>
		<path d="M121.78,101.377c1.635-0.284,4.847-2.587,4.847-5.385c0-2.796-3.212-5.099-4.847-5.382V101.377z"/>
	</g>
	<g fill="#060809">
		<circle cx="69.412" cy="93.208" r="2.601"/>
		<circle cx="93.341" cy="93.207" r="2.6"/>
	</g>
	<path fill="#FFFFFF" d="M81.703,119.954c3.645,0,6.6-2.954,6.6-6.597H75.106C75.106,117,78.058,119.954,81.703,119.954z"/>
	<g fill="#060809">
		<path d="M99.715,85.669c-0.659-1.209-1.527-1.979-2.589-2.289c-1.792-0.522-3.564,0.439-3.579,0.447l-0.413-0.744c0.084-0.048,2.085-1.142,4.224-0.522c1.289,0.374,2.332,1.28,3.105,2.697L99.715,85.669z"/>
		<path d="M64.522,86.898l-0.754-0.397c0.046-0.083,1.125-2.098,3.252-2.747c1.28-0.392,2.653-0.204,4.075,0.559l-0.402,0.75c-1.215-0.649-2.369-0.815-3.426-0.493C65.479,85.118,64.532,86.883,64.522,86.898z"/>
	</g>
	<path fill="#875047" d="M81.548,91.766c0,0-4.998,13.002-4.576,13.988c0.393,0.905,2.495,1.65,4.69,1.579c2.187,0.196,4.329-0.426,4.769-1.309C86.911,105.068,81.548,91.766,81.548,91.766z"/>
	<g fill="#060809">
		<polyline points="94.608,91.373 98.799,92.192 95.109,95.111"/>
		<polyline points="67.262,91.747 63.306,92.505 67.783,95.23"/>
	</g>
	<g fill="#FFFFFF">
		<circle cx="122.972" cy="100.659" r="2.024"/>
		<circle cx="42.833" cy="100.659" r="2.025"/>
	</g>
	<g fill="#1D1D1B">
		<ellipse cx="75.77" cy="57.903" rx="17.572" ry="14.553"/>
		<ellipse cx="53.599" cy="67.966" rx="15.458" ry="13.051"/>
		<ellipse cx="63.378" cy="52.393" rx="12.392" ry="10.523"/>
		<ellipse cx="90.052" cy="48.047" rx="18.04" ry="11.266"/>
		<ellipse cx="114.839" cy="53.136" rx="18.041" ry="11.268"/>
		<ellipse transform="matrix(0.9939 0.1101 -0.1101 0.9939 8.3814 -11.9457)" cx="112.352" cy="69.916" rx="12.244" ry="10.781"/>
		<ellipse cx="120.947" cy="80.717" rx="9.116" ry="11.661"/>
		<ellipse cx="99.666" cy="62.417" rx="13.425" ry="7.499"/>
		<ellipse cx="75.77" cy="48.058" rx="17.572" ry="9.845"/>
		<ellipse cx="53.327" cy="56.171" rx="10.05" ry="6.744"/>
		<ellipse cx="46.353" cy="82.562" rx="8.183" ry="9.125"/>
	</g>
	<ellipse fill="#9D6E63" cx="81.438" cy="145.698" rx="22.098" ry="6.118"/>
</svg>
