<svg x="0px" y="0px" width="173.998px" height="153.019px" viewBox="0 0 173.998 153.019">
	<g class="fill-piel-w">
		<rect x="72.098" y="122.617" width="18.776" height="17.067"/>
		<ellipse cx="81.506" cy="139.006" rx="9.419" ry="6.742"/>
	</g>
	<path fill="#412312" d="M129.978,102.766c-22.607,4.474-24.768,9.933-49.579,9.429c-24.75-0.503-46.892-10.197-46.892-12.393l3.39-36.532c0-2.195,1.44-3.804,4.181-3.804h76.169c2.744,0,7.961,4.631,7.961,6.826L129.978,102.766z"/>
	<g class="fill-piel-w">
		<path d="M123.599,71.209c0-18.505-18.599-33.707-41.54-33.707c-22.94,0-41.54,15.302-41.54,33.806c0,0.21-0.19,35.947-0.19,35.947h0.022c0.478,8.531,18.983,22.027,41.758,22.027s41.281-13.496,41.755-22.027l-0.363-7.453C123.5,99.803,123.599,71.419,123.599,71.209z"/>
		<path d="M41.086,88.568c-1.707,0.296-5.057,2.698-5.057,5.619c0,2.919,3.351,5.322,5.057,5.616V88.568z"/>
		<path d="M123.5,99.803c1.708-0.294,5.056-2.696,5.056-5.618c0-2.918-3.348-5.321-5.056-5.617V99.803z"/>
	</g>
	<g fill="#060809">
		<path d="M68.848,88.565c1.498,0,2.711,1.217,2.711,2.715s-1.213,2.715-2.711,2.715c-1.501,0-2.712-1.216-2.712-2.715S67.347,88.565,68.848,88.565z"/>
		<circle cx="93.819" cy="91.279" r="2.714"/>
	</g>
	<path fill="#FFFFFF" d="M81.443,119.19c3.804,0,6.887-3.085,6.887-6.887H74.559C74.559,116.105,77.639,119.19,81.443,119.19z"/>
	<g fill="#060809">
		<path d="M100.473,83.412c-0.688-1.26-1.592-2.063-2.7-2.387c-1.872-0.548-3.72,0.459-3.736,0.468l-0.432-0.78c0.085-0.051,2.181-1.189,4.411-0.545c1.344,0.389,2.434,1.336,3.24,2.818L100.473,83.412z"/>
		<path d="M63.747,84.697l-0.788-0.415c0.046-0.089,1.174-2.19,3.393-2.87c1.337-0.41,2.77-0.212,4.255,0.585l-0.424,0.784c-1.266-0.679-2.469-0.852-3.571-0.516C64.742,82.835,63.758,84.679,63.747,84.697z"/>
	</g>
	<path fill="#DCAA9D" d="M81.369,89.753c0,0-4.488,13.593-4.118,14.617c0.343,0.944,2.204,1.712,4.148,1.628c1.938,0.193,3.838-0.466,4.233-1.388C86.061,103.609,81.369,89.753,81.369,89.753z"/>
	<g fill="#060809">
		<polyline points="95.146,89.365 99.52,90.219 95.669,93.266"/>
		<polyline points="66.605,89.753 62.478,90.545 67.147,93.391"/>
	</g>
	<g fill="#412312">
		<path d="M112.66,39.43c0,0,1.942-17.155,20.071-17.479c18.129-0.323,21.347,20.43,20.701,26.257c-0.648,5.827-0.236,70.994-0.236,70.994s-27.274,2.486-17.874-52.899c2.982-17.582-15.752-13.681-18.663-12.063c-2.914,1.617-3.999-5.419-3.999-5.419"/>
		<path d="M43.226,91.571"/>
		<path d="M117.527,43.202c-8.961-6.675-35.215-10.203-55.05-5.471c-26.028,6.208-25.545,26.103-25.545,26.103l3.396,24.732c2.625,0.592,14.112-22.916,14.112-22.916l0.268,11.207c12.234,1.641,57.511,4.348,61.227,3.115l2.301-16.74l4.184,25.243c0.373,0.087,0.734,0.136,1.081,0.094l1.708-18.672C125.208,69.896,123.129,47.374,117.527,43.202z"/>
	</g>
	<ellipse class="fill-piel-w" cx="81.57" cy="146.32" rx="23.064" ry="6.385"/>
</svg>
