<svg x="0px" y="0px" width="173.998px" height="153.019px" viewBox="0 0 173.998 153.019">
	<g class="fill-piel-b">
		<rect x="65.757" y="123.148" width="32.938" height="20.582"/>
		<path d="M98.707,143.7c0,4.596-7.382,8.318-16.486,8.318c-9.104,0-16.486-3.723-16.486-8.318c0-4.589,7.382-8.312,16.486-8.312C91.325,135.388,98.707,139.11,98.707,143.7z"/>
		<path d="M127.388,62.888c0-19.998-20.621-36.827-46.061-36.827c-25.437,0-46.058,17.133-46.058,37.137c0,0.223-0.211,48.655-0.211,48.655h0.024c0.529,7.262,21.048,14.596,46.301,14.596c25.253,0,45.772-7.334,46.302-14.596h0.024C127.71,111.853,127.388,63.12,127.388,62.888z"/>
		<path d="M35.444,73.635c-2.419,0.385-6.579,3.509-6.579,7.307s4.159,6.925,6.579,7.31V73.635z"/>
		<path d="M127.369,87.813c3.633-0.385,6.579-3.512,6.579-7.31c0-3.798-2.946-6.922-6.579-7.307V87.813z"/>
	</g>
	<g fill="#060809">
		<circle cx="66.544" cy="81.364" r="2.618"/>
		<path d="M59.926,72.14l-0.761-0.403c0.048-0.084,1.135-2.109,3.274-2.766c1.291-0.395,2.669-0.208,4.105,0.562l-0.406,0.759c-1.225-0.656-2.384-0.828-3.446-0.503C60.89,70.343,59.936,72.122,59.926,72.14z"/>
	</g>
	<path fill="#875047" d="M81.495,62.545c0,0-6.879,27.688-6.341,29.758c0.49,1.908,3.238,3.44,6.137,3.235c2.875,0.37,5.707-1.002,6.308-2.88C88.252,90.621,81.495,62.545,81.495,62.545z"/>
	<g fill="#060809">
		<path d="M95.905,78.751c1.447,0,2.615,1.168,2.615,2.615c0,1.445-1.168,2.615-2.615,2.615c-1.448,0-2.618-1.17-2.618-2.615C93.288,79.919,94.457,78.751,95.905,78.751z"/>
		<path d="M101.458,74.854c-0.665-1.212-1.538-1.989-2.606-2.302c-1.806-0.526-3.588,0.442-3.605,0.449l-0.415-0.75c0.084-0.048,2.104-1.146,4.252-0.523c1.297,0.373,2.351,1.288,3.127,2.717L101.458,74.854z"/>
	</g>
	<g class="fill-piel-b">
		<rect x="65.757" y="123.148" width="32.938" height="20.582"/>
		<path d="M98.707,143.7c0,4.596-7.382,8.318-16.486,8.318c-9.104,0-16.486-3.723-16.486-8.318c0-4.589,7.382-8.312,16.486-8.312C91.325,135.388,98.707,139.11,98.707,143.7z"/>
	</g>
	<path fill="#FFFFFF" d="M82.101,113.899c6.179,0,11.187-5.011,11.187-11.183H70.917C70.917,108.889,75.919,113.899,82.101,113.899z"/>
	<ellipse class="fill-piel-b" cx="81.453" cy="144.929" rx="25.104" ry="6.951"/>
	<path fill="#422918" d="M130.88,50.744c-0.676-10.592-9.073-11.697-11.741-11.781c-0.82-4.463-4.548-9.54-15.907-12.533c-23.588-6.218-69.82,5.188-69.82,5.188s2.934,3.058,10.465,7.562c-3.536,0.63-9.166,2.981-9.713,11.564c-0.804,12.601,1.866,28.368,1.866,28.368c0.05,0.089,15.812-20.325,24.481-31.565c2.696,1.16,5.622,2.343,8.807,3.538c15.958,5.984,29.927,3.749,38.665,0.932c8.833,11.448,20.988,27.174,21.031,27.096C129.014,79.111,131.684,63.344,130.88,50.744z"/>
</svg>
