<svg x="0px" y="0px" width="173.998px" height="153.019px" viewBox="0 0 173.998 153.019">
	<path fill="#92692C" d="M139.473,113.985c0,2.983-29.954,13.484-56.919,12.799c-26.906-0.682-60.339-12.787-60.339-15.772L34.479,56.09c0-2.982,2.353-1.125,5.333-1.125h82.79c2.98,0,5.397,2.417,5.397,5.399L139.473,113.985z"/>
	<g fill="#EEC1B5">
		<path d="M126.301,67.346c0-19.515-19.61-35.544-43.802-35.544c-24.189,0-43.804,16.137-43.804,35.649c0,0.222-0.198,37.905-0.198,37.905h0.023c0.502,9,20.017,23.229,44.034,23.229c24.014,0,43.526-14.229,44.03-23.229l-0.385-7.856C126.199,97.5,126.301,67.568,126.301,67.346z"/>
		<path d="M39.812,85.651c-1.799,0.312-5.333,2.845-5.333,5.924s3.534,5.612,5.333,5.924V85.651z"/>
		<path d="M126.199,97.5c1.8-0.312,5.333-2.846,5.333-5.924s-3.533-5.612-5.333-5.924V97.5z"/>
	</g>
	<g fill="#92692C">
		<path d="M126.199,85.651c0,0-22.346-2.192-28.434-33.162c-0.791-2.507-3.869,10.14-27.343,26.232c-12.445,8.536-35.943,7.769-35.943,7.769l0.436-30.048c0,0,0-23.062,27.445-28.922c20.916-4.466,40.383,6.073,40.383,6.073s7.71-2.924,17.156,3.375c5.908,3.939,8.1,25.194,8.1,25.194l0.074,14.9C128.071,77.062,134.747,88.124,126.199,85.651z"/>
		<path d="M126.199,85.651c0,0-22.346-2.192-28.434-33.162c-0.791-2.507-3.869,10.14-27.343,26.232c-12.445,8.536-35.943,7.769-35.943,7.769l0.436-30.048c0,0,0-23.062,27.445-28.922c20.916-4.466,40.383,6.073,40.383,6.073s7.71-2.924,17.156,3.375c5.908,3.939,8.1,25.194,8.1,25.194l0.074,14.9C128.071,77.062,134.747,88.124,126.199,85.651z"/>
	</g>
	<g fill="#060809">
		<circle cx="68.57" cy="88.511" r="2.863"/>
		<circle cx="94.904" cy="88.51" r="2.861"/>
		<path d="M101.918,80.214c-0.725-1.329-1.681-2.178-2.848-2.519c-1.973-0.574-3.924,0.484-3.939,0.493l-0.454-0.819c0.091-0.052,2.295-1.256,4.649-0.574c1.418,0.411,2.567,1.408,3.417,2.968L101.918,80.214z"/>
		<path d="M63.189,81.567l-0.829-0.438c0.051-0.09,1.238-2.309,3.579-3.023c1.408-0.431,2.918-0.224,4.483,0.615l-0.443,0.825c-1.336-0.714-2.606-0.898-3.77-0.542C64.242,79.608,63.201,81.549,63.189,81.567z"/>
		<polyline fill="#060809" points="96.3,86.491 100.912,87.392 96.852,90.604"/>
		<polyline fill="#060809" points="66.204,86.902 61.852,87.736 66.779,90.735"/>
	</g>
	<g fill="#FFFFFF">
		<circle cx="127.511" cy="96.709" r="2.229"/>
		<circle cx="39.323" cy="96.709" r="2.229"/>
	</g>
	<g fill="#EEC1B5">
		<rect x="70.946" y="121.553" width="19.795" height="18"/>
		<ellipse cx="80.844" cy="139.322" rx="9.905" ry="6.624"/>
	</g>
	<path fill="#FFFFFF" d="M80.843,117.941c4.009,0,7.259-3.25,7.259-7.259H73.585C73.585,114.691,76.832,117.941,80.843,117.941z"/>
	<path fill="#DCAA9D" d="M80.765,86.902c0,0-4.732,14.332-4.341,15.414c0.361,0.994,2.321,1.804,4.373,1.714c2.041,0.207,4.047-0.489,4.461-1.46C85.713,101.514,80.765,86.902,80.765,86.902z"/>
	<g fill="#EEC1B5">
		<ellipse cx="81.508" cy="145.724" rx="24.319" ry="6.733"/>
		<ellipse cx="81.508" cy="145.724" rx="24.319" ry="6.733"/>
	</g>
</svg>
