<svg version="1.0" xmlns="http://www.w3.org/2000/svg" xmlns:xlink="http://www.w3.org/1999/xlink" x="0px" y="0px"
	 width="173.998px" height="153.019px" viewBox="0 0 173.998 153.019" enable-background="new 0 0 173.998 153.019"
	 xml:space="preserve">


<g id="Layer_18">
	<g>
		<rect x="71.589" y="124.208" fill="#9D6E63" width="17.553" height="15.959"/>
		<ellipse fill="#9D6E63" cx="80.436" cy="139.971" rx="8.771" ry="5.865"/>
		<path fill="#9D6E63" d="M121.144,76.145c0-17.303-17.389-31.515-38.834-31.515c-21.448,0-38.839,14.308-38.839,31.608
			c0,0.196-0.176,33.609-0.176,33.609h0.021c0.444,7.979,17.748,20.596,39.042,20.596c21.289,0,38.59-12.617,39.037-20.596
			l-0.342-6.966C121.053,102.881,121.144,76.341,121.144,76.145z"/>
		<path fill="#9D6E63" d="M43.444,92.375c-1.595,0.277-4.728,2.523-4.728,5.252c0,2.73,3.133,4.976,4.728,5.253V92.375z"/>
		<path fill="#9D6E63" d="M120.955,102.782c1.595-0.276,4.728-2.522,4.728-5.252c0-2.729-3.133-4.976-4.728-5.252V102.782z"/>
		<path fill="#422918" d="M122.648,92.373c0,0-19.497,3.425-38.838-25.523C73.071,80.811,59.711,90.596,50.046,92.375
			c-10.134,1.866-10.314,0.745-10.314,0.745l0.387-26.643c0,0,0-20.449,24.334-25.645c18.546-3.96,35.802,5.384,35.802,5.384
			s6.836-2.593,15.212,2.993c5.238,3.492,7.182,22.339,7.182,22.339S123.812,82.142,122.648,92.373z"/>
		<circle fill="#060809" cx="69.959" cy="94.911" r="2.538"/>
		<circle fill="#060809" cx="93.306" cy="94.91" r="2.537"/>
		<g>
			<path fill="#060809" d="M99.523,87.555c-0.643-1.179-1.49-1.931-2.525-2.233c-1.749-0.509-3.477,0.429-3.491,0.437l-0.403-0.727
				c0.081-0.046,2.035-1.114,4.122-0.509c1.258,0.364,2.276,1.248,3.029,2.631L99.523,87.555z"/>
		</g>
		<g>
			<path fill="#060809" d="M65.188,88.754l-0.735-0.388c0.045-0.081,1.098-2.047,3.173-2.681c1.249-0.383,2.587-0.199,3.976,0.545
				l-0.393,0.731c-1.185-0.633-2.311-0.796-3.342-0.481C66.122,87.017,65.199,88.739,65.188,88.754z"/>
		</g>
		<g>
			<path fill="#FFFFFF" d="M81.634,121.006c3.556,0,6.438-2.882,6.438-6.437H75.197C75.197,118.124,78.077,121.006,81.634,121.006z"
				/>
			<path fill="#875047" d="M81.501,93.498c0,0-4.712,12.693-4.316,13.653c0.367,0.883,2.343,1.608,4.406,1.536
				c2.057,0.19,4.071-0.421,4.486-1.28C86.531,106.471,81.501,93.498,81.501,93.498z"/>
		</g>
		<polyline fill="#060809" points="94.542,93.12 98.632,93.919 95.031,96.768 		"/>
		<polyline fill="#060809" points="67.861,93.484 64.002,94.224 68.371,96.884 		"/>
		<circle fill="#422918" cx="85.728" cy="37.891" r="20.067"/>
		<ellipse fill="#9D6E63" cx="81.1" cy="145.998" rx="21.56" ry="5.97"/>
	</g>
</g>

</svg>
