<svg x="0px" y="0px" width="173.998px" height="153.019px" viewBox="0 0 173.998 153.019">
	<g fill="#EEC1B5">
		<rect x="64.808" y="123.634" width="33.527" height="20.949"/>
		<path d="M98.348,144.552c0,4.678-7.516,8.467-16.783,8.467c-9.266,0-16.78-3.789-16.78-8.467c0-4.671,7.514-8.46,16.78-8.46C90.832,136.091,98.348,139.881,98.348,144.552z"/>
		<path d="M129.04,63.303c0-20.356-20.992-37.484-46.887-37.484c-25.89,0-46.882,17.438-46.882,37.798c0,0.228-0.214,49.521-0.214,49.521h0.024c0.539,7.395,21.427,14.859,47.127,14.859c25.708,0,46.592-7.465,47.131-14.859h0.027C129.367,113.138,129.04,63.538,129.04,63.303z"/>
	</g>
	<path fill="#D5B4AE" d="M81.792,101.688c-17.828,0-34.121-3.826-46.64-9.848c-0.049,11.159-0.095,21.298-0.095,21.298h0.024c0.539,7.395,21.427,14.859,47.127,14.859c25.708,0,46.592-7.465,47.131-14.859h0.027c0,0-0.073-10.366-0.149-21.678C116.601,97.708,99.996,101.688,81.792,101.688z"/>
	<g fill="#EEC1B5">
		<path d="M35.354,74.119c-2.466,0.392-6.696,3.572-6.696,7.438s4.23,7.048,6.696,7.44V74.119z"/>
		<path d="M127.78,88.997c3.697-0.392,6.696-3.575,6.696-7.44s-2.999-7.045-6.696-7.438V88.997z"/>
	</g>
	<path fill="#060809" d="M66.332,79.769c1.47,0,2.662,1.193,2.662,2.667c0,1.471-1.192,2.659-2.662,2.659c-1.474,0-2.668-1.188-2.668-2.659C63.664,80.962,64.858,79.769,66.332,79.769z"/>
	<path fill="#FFFFFF" d="M82.163,115.548c6.292,0,11.389-5.1,11.389-11.383H70.783C70.783,110.448,75.874,115.548,82.163,115.548z"/>
	<path fill="#060809" d="M59.596,73.044l-0.775-0.409c0.046-0.087,1.155-2.149,3.333-2.817c1.314-0.401,2.717-0.209,4.178,0.573l-0.417,0.771c-1.244-0.667-2.423-0.841-3.507-0.51C60.573,71.215,59.602,73.026,59.596,73.044z"/>
	<path fill="#DCAA9D" d="M82.337,63.288c0,0-4.833,28.239-4.5,30.343c0.306,1.936,2.11,3.468,4.025,3.229c1.896,0.349,3.786-1.079,4.203-2.996C86.515,91.788,82.337,63.288,82.337,63.288z"/>
	<g fill="#060809">
		<path d="M96.218,79.774c1.471,0,2.663,1.188,2.663,2.662c0,1.471-1.192,2.659-2.663,2.659c-1.478,0-2.666-1.188-2.666-2.659C93.552,80.962,94.74,79.774,96.218,79.774z"/>
		<path d="M101.869,75.807c-0.675-1.234-1.566-2.023-2.651-2.343c-1.839-0.535-3.656,0.45-3.674,0.458l-0.421-0.765c0.086-0.047,2.14-1.167,4.327-0.533c1.324,0.381,2.395,1.311,3.188,2.766L101.869,75.807z"/>
	</g>
	<path fill="#EEC1B5" d="M80.784,138.729c14.112,0,25.556,3.167,25.556,7.074s-11.443,7.074-25.556,7.074c-14.111,0-25.552-3.167-25.552-7.074S66.673,138.729,80.784,138.729z"/>
	<g fill="#D5B4AE">
		<circle cx="41.86" cy="67.213" r="1.299"/>
		<circle cx="41.86" cy="59.424" r="1.299"/>
		<circle cx="37.324" cy="63.96" r="1.299"/>
		<circle cx="110.07" cy="38.107" r="1.298"/>
		<circle cx="47.212" cy="53.512" r="1.299"/>
		<path d="M78.854,32.48c0,0.72-0.582,1.299-1.298,1.299c-0.717,0-1.299-0.579-1.299-1.299c0-0.717,0.582-1.299,1.299-1.299C78.272,31.181,78.854,31.763,78.854,32.48z"/>
		<circle cx="49.276" cy="57.387" r="1.299"/>
		<circle cx="42.991" cy="51.098" r="1.299"/>
		<circle cx="52.946" cy="41.143" r="1.299"/>
		<circle cx="52.946" cy="49.361" r="1.299"/>
		<circle cx="48.511" cy="45.318" r="1.299"/>
		<circle cx="56.159" cy="54.051" r="1.299"/>
		<circle cx="90.439" cy="39.844" r="1.299"/>
		<circle cx="69.781" cy="48.207" r="1.299"/>
		<circle cx="74.676" cy="44.019" r="1.299"/>
		<circle cx="60.601" cy="48.207" r="1.299"/>
		<circle cx="61.899" cy="40.435" r="1.299"/>
		<circle cx="65.968" cy="44.503" r="1.299"/>
		<circle cx="85.547" cy="44.503" r="1.299"/>
		<circle cx="58.552" cy="44.503" r="1.299"/>
		<circle cx="58.552" cy="35.51" r="1.299"/>
		<circle cx="64.969" cy="34.211" r="1.299"/>
		<circle cx="95.948" cy="34.211" r="1.299"/>
		<circle cx="84.249" cy="29.821" r="1.299"/>
		<circle cx="105.521" cy="51.089" r="1.298"/>
		<circle cx="113.858" cy="56.088" r="1.299"/>
		<circle cx="119.59" cy="66.521" r="1.299"/>
		<circle cx="125.698" cy="70.252" r="1.299"/>
		<circle cx="102.914" cy="34.211" r="1.299"/>
		<circle cx="113.206" cy="49.361" r="1.299"/>
		<circle cx="124.693" cy="59.126" r="1.299"/>
		<circle cx="119.59" cy="59.126" r="1.299"/>
		<path d="M125.698,63.923c0,0.72-0.582,1.299-1.299,1.299s-1.299-0.579-1.299-1.299c0-0.717,0.582-1.299,1.299-1.299S125.698,63.207,125.698,63.923z"/>
		<circle cx="108.771" cy="45.318" r="1.298"/>
		<circle cx="115.157" cy="41.734" r="1.299"/>
		<circle cx="117.755" cy="46.617" r="1.299"/>
		<path d="M121.309,52.853c0,0.72-0.582,1.299-1.299,1.299s-1.299-0.579-1.299-1.299c0-0.717,0.582-1.298,1.299-1.298S121.309,52.136,121.309,52.853z"/>
		<circle cx="87.842" cy="35.51" r="1.299"/>
		<circle cx="71.08" cy="39.844" r="1.299"/>
		<circle cx="96.99" cy="40.435" r="1.299"/>
		<circle cx="101.06" cy="44.503" r="1.299"/>
		<circle cx="93.641" cy="44.503" r="1.299"/>
		<circle cx="106.174" cy="39.844" r="1.299"/>
		<circle cx="79.709" cy="39.844" r="1.299"/>
		<path d="M72.379,33.779c0,0.72-0.582,1.299-1.299,1.299s-1.299-0.579-1.299-1.299c0-0.717,0.582-1.299,1.299-1.299S72.379,33.062,72.379,33.779z"/>
	</g>
</svg>
