<svg x="0px" y="0px" width="173.998px" height="153.019px" viewBox="0 0 173.998 153.019">
	<g class="fill-piel-w">
		<rect x="66.886" y="124.465" width="32.577" height="20.356"/>
		<path d="M99.476,144.792c0,4.545-7.302,8.227-16.307,8.227c-9.004,0-16.305-3.682-16.305-8.227c0-4.539,7.301-8.221,16.305-8.221C92.173,136.57,99.476,140.252,99.476,144.792z"/>
		<path d="M128.593,65.032c0-19.78-20.397-36.423-45.557-36.423c-25.157,0-45.555,16.945-45.555,36.729c0,0.222-0.208,48.12-0.208,48.12h0.023c0.524,7.185,20.821,14.439,45.793,14.439c24.977,0,45.271-7.254,45.795-14.439h0.026C128.911,113.457,128.593,65.259,128.593,65.032z"/>
		<path d="M38.266,76.351c-2.396,0.381-6.507,3.471-6.507,7.227s4.11,6.849,6.507,7.23V76.351z"/>
		<path d="M128.073,90.808c3.593-0.381,6.507-3.474,6.507-7.23s-2.914-6.846-6.507-7.227V90.808z"/>
	</g>
	<path fill="#060809" d="M67.414,81.841c1.429,0,2.587,1.16,2.587,2.591c0,1.429-1.158,2.583-2.587,2.583c-1.432,0-2.592-1.155-2.592-2.583C64.822,83.001,65.982,81.841,67.414,81.841z"/>
	<path fill="#FFFFFF" d="M82.797,116.608c6.115,0,11.067-4.956,11.067-11.061H71.739C71.739,111.653,76.687,116.608,82.797,116.608z"/>
	<path fill="#060809" d="M60.869,75.307l-0.753-0.397c0.045-0.085,1.123-2.088,3.239-2.737c1.277-0.39,2.64-0.204,4.06,0.557l-0.404,0.75c-1.209-0.649-2.354-0.817-3.408-0.496C61.818,73.53,60.875,75.289,60.869,75.307z"/>
	<path fill="#DCAA9D" d="M82.967,65.826c0,0-4.697,27.44-4.373,29.485c0.298,1.881,2.051,3.37,3.911,3.137c1.843,0.339,3.68-1.048,4.084-2.911C87.027,93.52,82.967,65.826,82.967,65.826z"/>
	<g fill="#060809">
		<path d="M96.454,81.846c1.429,0,2.587,1.155,2.587,2.587c0,1.429-1.158,2.583-2.587,2.583c-1.435,0-2.59-1.155-2.59-2.583C93.864,83.001,95.02,81.846,96.454,81.846z"/>
		<path d="M101.942,77.991c-0.654-1.199-1.521-1.966-2.574-2.277c-1.786-0.52-3.551,0.438-3.569,0.445l-0.407-0.743c0.083-0.046,2.077-1.134,4.202-0.518c1.286,0.371,2.325,1.274,3.096,2.688L101.942,77.991z"/>
	</g>
	<ellipse class="fill-piel-w" cx="82.41" cy="146.008" rx="24.829" ry="6.874"/>
	<path fill="#1D1D1B" d="M129.079,84.718c0,0-7.95-22.026-13.364-39.215c-0.795-2.524-71.196,16.671-71.196,16.671s-2.856,17.895-5.075,21.684c-0.789-1.113-2.184-9.885-2.184-9.885S33.382,30.105,55.678,24.09c31.292-8.444,51.68,4.857,51.68,4.857s22.948-4.349,22.704,15.606c-0.205,16.609,0.888,28.321,0.888,28.321S130.306,75.628,129.079,84.718z"/>
	<g fill="none" stroke="#231F20">
		<circle stroke-width="1.7008" stroke-miterlimit="10" cx="66.056" cy="81.505" r="12.661"/>
		<circle stroke-width="1.7008" stroke-miterlimit="10" cx="99.584" cy="81.505" r="12.662"/>
		<line stroke-width="0.8504" stroke-miterlimit="10" x1="37.783" y1="76.69" x2="53.105" y2="78.819"/>
		<line stroke-width="0.8504" stroke-miterlimit="10" x1="128.585" y1="76.69" x2="111.445" y2="78.819"/>
	</g>
	<path fill="#231F20" d="M79.409,82.916c0-0.015-0.009-0.028-0.009-0.042c0-0.89,1.423-1.883,3.465-1.883c2.044,0,3.466,0.993,3.466,1.883c0,0.013-0.007,0.026-0.007,0.042h1.342c0-0.015,0.007-0.028,0.007-0.042c0-1.852-2.112-3.304-4.808-3.304c-2.693,0-4.806,1.453-4.806,3.304c0,0.013,0.006,0.026,0.006,0.042H79.409z"/>
</svg>
