<svg x="0px" y="0px" width="173.998px" height="153.019px" viewBox="0 0 173.998 153.019">
	<g class="fill-piel-b">
		<rect x="58.279" y="124.003" width="45.583" height="20.785"/>
		<path d="M128.169,64.145c0-20.197-20.828-37.191-46.516-37.191S35.138,44.256,35.138,64.456c0,0.227-0.212,49.133-0.212,49.133h0.024c0.535,7.337,21.259,14.743,46.758,14.743c25.501,0,46.223-7.406,46.758-14.743h0.028C128.494,113.589,128.169,64.377,128.169,64.145z"/>
	</g>
	<path fill="#825852" d="M81.294,100.668c-17.688,0-33.854-3.796-46.274-9.771c-0.049,11.071-0.094,25.804-0.094,25.804h0.024c0.535,7.337,21.259,14.744,46.758,14.744c25.501,0,46.223-7.407,46.758-14.744h0.028c0,0-0.073-14.957-0.15-26.181C115.825,96.72,99.353,100.668,81.294,100.668z"/>
	<g class="fill-piel-b">
		<path d="M35.22,74.876c-2.446,0.389-6.644,3.544-6.644,7.379c0,3.836,4.197,6.994,6.644,7.382V74.876z"/>
		<path d="M126.919,89.637c3.669-0.389,6.645-3.546,6.645-7.382c0-3.835-2.976-6.99-6.645-7.379V89.637z"/>
		<ellipse cx="81.07" cy="146" rx="25.352" ry="7.019"/>
	</g>
	<path fill="#412312" d="M122.133,85.557c0,0-47.081-50.169-66.998-43.658c-10.631,3.476-16.445,36.773-18.711,40.642c-0.806-1.137-2.229-10.094-2.229-10.094S30.235,27.656,53,21.513c31.952-8.622,52.767,4.96,52.767,4.96s23.432-4.44,23.184,15.935c-0.211,16.958,0.905,28.918,0.905,28.918S126.851,79.042,122.133,85.557z"/>
	<ellipse fill="#825852" cx="81.645" cy="122.013" rx="26.93" ry="14.409"/>
	<path fill="#060809" d="M65.956,80.482c1.459,0,2.641,1.184,2.641,2.646c0,1.459-1.182,2.638-2.641,2.638c-1.461,0-2.647-1.179-2.647-2.638C63.309,81.666,64.494,80.482,65.956,80.482z"/>
	<path fill="#FFFFFF" d="M81.663,115.981c6.243,0,11.3-5.061,11.3-11.294H70.372C70.372,110.921,75.423,115.981,81.663,115.981z"/>
	<path fill="#060809" d="M59.273,73.809l-0.769-0.406c0.045-0.086,1.146-2.132,3.307-2.794c1.304-0.398,2.696-0.208,4.145,0.568l-0.413,0.766c-1.234-0.663-2.404-0.834-3.479-0.505C60.243,71.995,59.279,73.791,59.273,73.809z"/>
	<path fill="#875047" d="M81.836,64.129c0,0-4.796,28.019-4.464,30.106c0.303,1.921,2.094,3.441,3.993,3.204c1.881,0.347,3.757-1.069,4.17-2.972C85.981,92.406,81.836,64.129,81.836,64.129z"/>
	<g fill="#060809">
		<path d="M95.605,80.486c1.461,0,2.642,1.179,2.642,2.641c0,1.459-1.181,2.638-2.642,2.638c-1.464,0-2.643-1.179-2.643-2.638C92.963,81.666,94.142,80.486,95.605,80.486z"/>
		<path d="M101.211,76.551c-0.669-1.225-1.553-2.007-2.63-2.325c-1.822-0.53-3.625,0.447-3.643,0.455l-0.417-0.759c0.085-0.047,2.121-1.158,4.292-0.528c1.312,0.378,2.374,1.3,3.161,2.744L101.211,76.551z"/>
	</g>
</svg>
