<svg version="1.1" xmlns="http://www.w3.org/2000/svg" xmlns:xlink="http://www.w3.org/1999/xlink" x="0px" y="0px"
	 width="173.998px" height="153.019px" viewBox="0 0 173.998 153.019" enable-background="new 0 0 173.998 153.019"
	 xml:space="preserve">
<g id="piernas1" display="none">
</g>
<g id="Layer_3" display="none">
</g>
<g id="Layer_5" display="none">
</g>
<g id="cuerpo1" display="none">
	<g display="inline">
		<g>
			<path fill="#404041" d="M126.861,256.12c0,1.186-1.017,2.152-2.267,2.152H36.858c-1.25,0,0.199,0.309-2.266-2.152l-7.078-115.353
				c0-1.175,0.924-1.505,2.18-1.505l99.851,0.2c1.256,0,2.266,0.13,2.266,1.305L126.861,256.12z"/>
			<path fill="#404041" d="M32.48,171.75c-0.189-0.17-34.734-2.231-34.734-2.231s2.007-31.551,32.244-30.216"/>
			<path fill="#404041" d="M126.124,176.153c0.188-0.17,34.261-5.777,34.261-5.777s-1.465-32.158-30.84-30.914"/>
		</g>
		<path fill="#DBDCDD" d="M116.023,144.114c0,3.605-16.271,6.523-36.343,6.523s-35.78-2.041-35.78-5.646
			c0-3.597,15.708-7.392,35.78-7.392S116.023,140.519,116.023,144.114z"/>
		<polyline fill="#DBDCDD" points="44.443,146.155 80.398,206.354 116.89,145.538 		"/>
		<polyline fill="#808184" points="43.851,144.204 34.607,149.946 55.222,167.935 79.78,209.064 80.373,204.124 		"/>
		<polyline fill="#808184" points="116.188,143.397 123.703,151.609 105.515,168.533 79.78,209.064 79.666,203.307 		"/>
	</g>
</g>
<g id="Layer_6" display="none">
	<g display="inline">
		<path fill="#00415C" d="M138.76,246.114c0,1.153-13.171,12.335-14.398,12.335H38.345c-1.224,0-13.334-11.874-15.75-14.288
			l6.589-105.715c0-1.153,0.995-1.864,2.223-1.864h97.806c1.23,0,2.224,0.711,2.224,1.864L138.76,246.114z"/>
		<path fill="#00415C" d="M34.054,173.623C33.869,173.465,0,171.44,0,171.44s1.968-35.745,31.611-34.438"/>
		<path fill="#00415C" d="M125.859,177.941c0.188-0.16,34.08-3.697,34.08-3.697s-1.438-38.699-30.236-37.482"/>
		<path fill="#A6C4E6" d="M115.959,140.723c0,3.531-15.951,6.391-35.63,6.391c-19.678,0-35.08-1.998-35.08-5.527
			c0-3.529,15.402-6.254,35.08-6.254C100.008,135.333,115.959,137.194,115.959,140.723z"/>
		<polyline fill="#A6C4E6" points="45.781,141.514 81.034,175.551 116.809,141.177 		"/>
		<polyline fill="#0E122C" points="45.204,140.456 36.138,148.986 56.351,158.734 80.424,177.021 81.007,174.342 		"/>
		<polyline fill="#0E122C" points="116.119,140.016 123.487,149.89 105.653,155.059 80.424,177.021 80.313,173.899 		"/>
	</g>
</g>
<g id="Layer_4" display="none">
	<g display="inline">
		<path fill="#EEC0B5" d="M30.041,228.167c-0.357,1.477-2.772,3.032-5.226,2.433l-2.966-0.721c-2.458-0.597-3.737-3.049-3.379-4.528
			l14.979-61.558c0.361-1.478,6.32-18.513,8.778-17.916l11.159,11.917c2.456,0.597-4.526,10.586-4.885,12.065L30.041,228.167z"/>
		<path fill="#EEC0B5" d="M134.085,230.151c0.356,1.477,2.771,3.032,5.227,2.433l2.965-0.721c2.459-0.597,3.738-3.049,3.379-4.528
			l-14.979-61.558c-3.746-14.83-6.869-20.246-9.328-19.648l-2.965,0.723c-2.457,0.597-3.117,23.514-2.759,24.993L134.085,230.151z"
			/>
		<path fill="#E1C346" d="M119.251,256.088c0,1.097,1.059,1.489-0.107,1.489H42.979c-1.167,0,0.159-0.392,0.159-1.489
			c0,0,12.592-28.195,12.701-40.116c0.144-15.999-15.333-69.555-15.333-69.555c0-1.097,0.946-1.861,2.115-1.861
			c0,0,12.426-4.259,37.918-4.933c23.803-0.632,39.23,4.84,39.23,4.84c1.17,0,2.115,0.624,2.115,1.721
			c0,0-14.371,54.417-14.367,70.025C107.517,228.343,119.251,256.088,119.251,256.088z"/>
		<g>
			<defs>
				<path id="SVGID_1_" d="M119.386,256.253c0,1.097,1.059,1.489-0.109,1.489H43.112c-1.167,0,0.159-0.392,0.159-1.489
					c0,0,12.592-28.195,12.701-40.117c0.144-15.998-15.333-69.554-15.333-69.554c0-1.097,0.946-1.861,2.115-1.861
					c0,0,5.653-1.937,17.153-3.404c5.552-0.71,12.466-1.311,20.766-1.532c23.803-0.632,39.231,4.842,39.231,4.842
					c1.168,0,2.115,0.624,2.115,1.722c0,0-14.373,54.417-14.369,70.025C107.649,228.507,119.386,256.253,119.386,256.253z"/>
			</defs>
			<clipPath id="SVGID_2_">
				<use xlink:href="#SVGID_1_"  overflow="visible"/>
			</clipPath>
			<path clip-path="url(#SVGID_2_)" fill="#B7792A" d="M52.587,146.598c-0.577,4.757,4.919,9.708,12.566,11.192
				c7.65,1.483,14.599-1.056,15.842-5.686l-4.602-17.929l-22.404,4.629L52.587,146.598z"/>
			<path clip-path="url(#SVGID_2_)" fill="#B7792A" d="M109.085,145.981c0.682,4.746-4.701,9.816-12.314,11.47
				c-7.613,1.651-14.614-0.731-15.958-5.333l27.608-19.607L109.085,145.981z"/>
			<polygon clip-path="url(#SVGID_2_)" fill="#B7792A" points="106.335,139.138 81.909,148.815 57.047,138.809 104.019,131.861
				"/>
		</g>
		<ellipse fill="#B7792A" cx="84.544" cy="148.402" rx="10.701" ry="3.972"/>
	</g>
</g>
<g id="Layer_12" display="none">
	<g display="inline">
		<path fill="#CE3D27" d="M118.141,253.449c0,1.066,1.028,1.447-0.106,1.447H43.983c-1.134,0,0.155-0.381,0.155-1.447
			c0,0,12.242-27.412,12.348-39.003c0.14-15.554-14.908-67.622-14.908-67.622c0-1.067,0.92-1.809,2.057-1.809
			c0,0,12.081-4.139,36.865-4.798c23.143-0.615,38.142,4.708,38.142,4.708c1.138,0,2.057,0.606,2.057,1.674
			c0,0-13.973,52.905-13.969,68.08C106.73,226.474,118.141,253.449,118.141,253.449z"/>
		<path fill="#CE3D27" d="M117.642,144.924c12.832,0.773,20.07,31.492,20.07,31.492s-26.806,6.604-26.977,6.75l-3.295-4.189"/>
		<path fill="#CE3D27" d="M43.601,144.924c-12.831,0.773-20.069,31.492-20.069,31.492s28.79,6.513,28.961,6.66l1.31-4.099"/>
		<path fill="#570800" d="M111.908,148.995c0,4.796-14.147,8.684-31.596,8.684c-17.454,0-31.602-3.888-31.602-8.684
			s14.148-8.685,31.602-8.685C97.761,140.311,111.908,144.199,111.908,148.995z"/>
	</g>
</g>
<g id="Layer_7" display="none">
	<g display="inline">
		<rect x="72.098" y="122.617" fill="#EEC1B5" width="18.776" height="17.067"/>
		<ellipse fill="#EEC1B5" cx="81.506" cy="139.006" rx="9.419" ry="6.742"/>
		<path fill="#412312" d="M129.978,102.766c-22.607,4.474-24.768,9.933-49.579,9.429c-24.75-0.503-46.892-10.197-46.892-12.393
			l3.39-36.532c0-2.195,1.44-3.804,4.181-3.804h76.169c2.744,0,7.961,4.631,7.961,6.826L129.978,102.766z"/>
		<path fill="#EEC1B5" d="M123.599,71.209c0-18.505-18.599-33.707-41.54-33.707c-22.94,0-41.54,15.302-41.54,33.806
			c0,0.21-0.19,35.947-0.19,35.947h0.022c0.478,8.531,18.983,22.027,41.758,22.027s41.281-13.496,41.755-22.027l-0.363-7.453
			C123.5,99.803,123.599,71.419,123.599,71.209z"/>
		<path fill="#EEC1B5" d="M41.086,88.568c-1.707,0.296-5.057,2.698-5.057,5.619c0,2.919,3.351,5.322,5.057,5.616V88.568z"/>
		<path fill="#EEC1B5" d="M123.5,99.803c1.708-0.294,5.056-2.696,5.056-5.618c0-2.918-3.348-5.321-5.056-5.617V99.803z"/>
		<path fill="#060809" d="M68.848,88.565c1.498,0,2.711,1.217,2.711,2.715s-1.213,2.715-2.711,2.715
			c-1.501,0-2.712-1.216-2.712-2.715S67.347,88.565,68.848,88.565z"/>
		<circle fill="#060809" cx="93.819" cy="91.279" r="2.714"/>
		<path fill="#FFFFFF" d="M81.443,119.19c3.804,0,6.887-3.085,6.887-6.887H74.559C74.559,116.105,77.639,119.19,81.443,119.19z"/>
		<g>
			<path fill="#060809" d="M100.473,83.412c-0.688-1.26-1.592-2.063-2.7-2.387c-1.872-0.548-3.72,0.459-3.736,0.468l-0.432-0.78
				c0.085-0.051,2.181-1.189,4.411-0.545c1.344,0.389,2.434,1.336,3.24,2.818L100.473,83.412z"/>
		</g>
		<g>
			<path fill="#060809" d="M63.747,84.697l-0.788-0.415c0.046-0.089,1.174-2.19,3.393-2.87c1.337-0.41,2.77-0.212,4.255,0.585
				l-0.424,0.784c-1.266-0.679-2.469-0.852-3.571-0.516C64.742,82.835,63.758,84.679,63.747,84.697z"/>
		</g>
		<path fill="#DCAA9D" d="M81.369,89.753c0,0-4.488,13.593-4.118,14.617c0.343,0.944,2.204,1.712,4.148,1.628
			c1.938,0.193,3.838-0.466,4.233-1.388C86.061,103.609,81.369,89.753,81.369,89.753z"/>
		<polyline fill="#060809" points="95.146,89.365 99.52,90.219 95.669,93.266 		"/>
		<polyline fill="#060809" points="66.605,89.753 62.478,90.545 67.147,93.391 		"/>
		<path fill="#412312" d="M112.66,39.43c0,0,1.942-17.155,20.071-17.479c18.129-0.323,21.347,20.43,20.701,26.257
			c-0.648,5.827-0.236,70.994-0.236,70.994s-27.274,2.486-17.874-52.899c2.982-17.582-15.752-13.681-18.663-12.063
			c-2.914,1.617-3.999-5.419-3.999-5.419"/>
		<path fill="#412312" d="M43.226,91.571"/>
		<path fill="#412312" d="M117.527,43.202c-8.961-6.675-35.215-10.203-55.05-5.471c-26.028,6.208-25.545,26.103-25.545,26.103
			l3.396,24.732c2.625,0.592,14.112-22.916,14.112-22.916l0.268,11.207c12.234,1.641,57.511,4.348,61.227,3.115l2.301-16.74
			l4.184,25.243c0.373,0.087,0.734,0.136,1.081,0.094l1.708-18.672C125.208,69.896,123.129,47.374,117.527,43.202z"/>
		<ellipse fill="#EEC1B5" cx="81.57" cy="146.32" rx="23.064" ry="6.385"/>
	</g>
</g>
<g id="Layer_10" display="none">
	<g display="inline">
		<g>
			<g>
				<circle fill="#1D1D1B" cx="33.707" cy="91.935" r="16.01"/>
				<circle fill="#1D1D1B" cx="33.708" cy="69.916" r="12.646"/>
				<circle fill="#1D1D1B" cx="40.854" cy="49.427" r="12.646"/>
				<circle fill="#1D1D1B" cx="40.464" cy="113.357" r="12.646"/>
				<circle fill="#1D1D1B" cx="50.786" cy="123.679" r="12.646"/>
				<circle fill="#1D1D1B" cx="66.812" cy="120.171" r="12.646"/>
				<circle fill="#1D1D1B" cx="113.798" cy="120.171" r="12.646"/>
				<circle fill="#1D1D1B" cx="124.997" cy="105.852" r="12.646"/>
				<circle fill="#1D1D1B" cx="96.799" cy="120.171" r="12.646"/>
				<circle fill="#1D1D1B" cx="125.736" cy="88.414" r="12.646"/>
				<circle fill="#1D1D1B" cx="125.736" cy="69.916" r="12.646"/>
				<circle fill="#1D1D1B" cx="123.287" cy="49.427" r="12.646"/>
				<circle fill="#1D1D1B" cx="101.153" cy="44.401" r="14.912"/>
				<circle fill="#1D1D1B" cx="63.768" cy="40.005" r="14.912"/>
				<circle fill="#1D1D1B" cx="83.968" cy="40.005" r="14.911"/>
			</g>
			<rect x="72.75" y="123.236" fill="#9D6E63" width="17.991" height="16.357"/>
			<ellipse fill="#9D6E63" cx="81.727" cy="138.944" rx="8.995" ry="6.459"/>
			<path fill="#9D6E63" d="M121.873,73.975c0-17.734-17.822-32.301-39.803-32.301c-21.982,0-39.807,14.664-39.807,32.396
				c0,0.201-0.18,34.446-0.18,34.446h0.021c0.456,8.178,18.19,21.11,40.016,21.11c21.82,0,39.553-12.932,40.011-21.11l-0.35-7.14
				C121.78,101.377,121.873,74.176,121.873,73.975z"/>
			<path fill="#9D6E63" d="M43.277,90.61c-1.635,0.284-4.846,2.586-4.846,5.382c0,2.797,3.211,5.101,4.846,5.385V90.61z"/>
			<path fill="#9D6E63" d="M121.78,101.377c1.635-0.284,4.847-2.587,4.847-5.385c0-2.796-3.212-5.099-4.847-5.382V101.377z"/>
			<circle fill="#060809" cx="69.412" cy="93.208" r="2.601"/>
			<circle fill="#060809" cx="93.341" cy="93.207" r="2.6"/>
			<path fill="#FFFFFF" d="M81.703,119.954c3.645,0,6.6-2.954,6.6-6.597H75.106C75.106,117,78.058,119.954,81.703,119.954z"/>
			<g>
				<path fill="#060809" d="M99.715,85.669c-0.659-1.209-1.527-1.979-2.589-2.289c-1.792-0.522-3.564,0.439-3.579,0.447
					l-0.413-0.744c0.084-0.048,2.085-1.142,4.224-0.522c1.289,0.374,2.332,1.28,3.105,2.697L99.715,85.669z"/>
			</g>
			<g>
				<path fill="#060809" d="M64.522,86.898l-0.754-0.397c0.046-0.083,1.125-2.098,3.252-2.747c1.28-0.392,2.653-0.204,4.075,0.559
					l-0.402,0.75c-1.215-0.649-2.369-0.815-3.426-0.493C65.479,85.118,64.532,86.883,64.522,86.898z"/>
			</g>
			<path fill="#875047" d="M81.548,91.766c0,0-4.998,13.002-4.576,13.988c0.393,0.905,2.495,1.65,4.69,1.579
				c2.187,0.196,4.329-0.426,4.769-1.309C86.911,105.068,81.548,91.766,81.548,91.766z"/>
			<polyline fill="#060809" points="94.608,91.373 98.799,92.192 95.109,95.111 			"/>
			<polyline fill="#060809" points="67.262,91.747 63.306,92.505 67.783,95.23 			"/>
			<circle fill="#FFFFFF" cx="122.972" cy="100.659" r="2.024"/>
			<circle fill="#FFFFFF" cx="42.833" cy="100.659" r="2.025"/>
			<ellipse fill="#1D1D1B" cx="75.77" cy="57.903" rx="17.572" ry="14.553"/>
			<ellipse fill="#1D1D1B" cx="53.599" cy="67.966" rx="15.458" ry="13.051"/>
			<ellipse fill="#1D1D1B" cx="63.378" cy="52.393" rx="12.392" ry="10.523"/>
			<ellipse fill="#1D1D1B" cx="90.052" cy="48.047" rx="18.04" ry="11.266"/>
			<ellipse fill="#1D1D1B" cx="114.839" cy="53.136" rx="18.041" ry="11.268"/>

				<ellipse transform="matrix(0.9939 0.1101 -0.1101 0.9939 8.3814 -11.9457)" fill="#1D1D1B" cx="112.352" cy="69.916" rx="12.244" ry="10.781"/>
			<ellipse fill="#1D1D1B" cx="120.947" cy="80.717" rx="9.116" ry="11.661"/>
			<ellipse fill="#1D1D1B" cx="99.666" cy="62.417" rx="13.425" ry="7.499"/>
			<ellipse fill="#1D1D1B" cx="75.77" cy="48.058" rx="17.572" ry="9.845"/>
			<ellipse fill="#1D1D1B" cx="53.327" cy="56.171" rx="10.05" ry="6.744"/>
			<ellipse fill="#1D1D1B" cx="46.353" cy="82.562" rx="8.183" ry="9.125"/>
		</g>
		<ellipse fill="#9D6E63" cx="81.438" cy="145.698" rx="22.098" ry="6.118"/>
	</g>
</g>
<g id="Layer_11" display="none">
	<g display="inline">
		<g>
			<rect x="64.808" y="123.634" fill="#EEC1B5" width="33.527" height="20.949"/>
			<path fill="#EEC1B5" d="M98.348,144.552c0,4.678-7.516,8.467-16.783,8.467c-9.266,0-16.78-3.789-16.78-8.467
				c0-4.671,7.514-8.46,16.78-8.46C90.832,136.091,98.348,139.881,98.348,144.552z"/>
		</g>
		<path fill="#EEC1B5" d="M129.04,63.303c0-20.356-20.992-37.484-46.887-37.484c-25.89,0-46.882,17.438-46.882,37.798
			c0,0.228-0.214,49.521-0.214,49.521h0.024c0.539,7.395,21.427,14.859,47.127,14.859c25.708,0,46.592-7.465,47.131-14.859h0.027
			C129.367,113.138,129.04,63.538,129.04,63.303z"/>
		<path fill="#D5B4AE" d="M81.792,101.688c-17.828,0-34.121-3.826-46.64-9.848c-0.049,11.159-0.095,21.298-0.095,21.298h0.024
			c0.539,7.395,21.427,14.859,47.127,14.859c25.708,0,46.592-7.465,47.131-14.859h0.027c0,0-0.073-10.366-0.149-21.678
			C116.601,97.708,99.996,101.688,81.792,101.688z"/>
		<g>
			<path fill="#EEC1B5" d="M35.354,74.119c-2.466,0.392-6.696,3.572-6.696,7.438s4.23,7.048,6.696,7.44V74.119z"/>
			<path fill="#EEC1B5" d="M127.78,88.997c3.697-0.392,6.696-3.575,6.696-7.44s-2.999-7.045-6.696-7.438V88.997z"/>
		</g>
		<g>
			<path fill="#060809" d="M66.332,79.769c1.47,0,2.662,1.193,2.662,2.667c0,1.471-1.192,2.659-2.662,2.659
				c-1.474,0-2.668-1.188-2.668-2.659C63.664,80.962,64.858,79.769,66.332,79.769z"/>
			<path fill="#FFFFFF" d="M82.163,115.548c6.292,0,11.389-5.1,11.389-11.383H70.783C70.783,110.448,75.874,115.548,82.163,115.548z
				"/>
			<g>
				<path fill="#060809" d="M59.596,73.044l-0.775-0.409c0.046-0.087,1.155-2.149,3.333-2.817c1.314-0.401,2.717-0.209,4.178,0.573
					l-0.417,0.771c-1.244-0.667-2.423-0.841-3.507-0.51C60.573,71.215,59.602,73.026,59.596,73.044z"/>
			</g>
			<path fill="#DCAA9D" d="M82.337,63.288c0,0-4.833,28.239-4.5,30.343c0.306,1.936,2.11,3.468,4.025,3.229
				c1.896,0.349,3.786-1.079,4.203-2.996C86.515,91.788,82.337,63.288,82.337,63.288z"/>
			<path fill="#060809" d="M96.218,79.774c1.471,0,2.663,1.188,2.663,2.662c0,1.471-1.192,2.659-2.663,2.659
				c-1.478,0-2.666-1.188-2.666-2.659C93.552,80.962,94.74,79.774,96.218,79.774z"/>
			<g>
				<path fill="#060809" d="M101.869,75.807c-0.675-1.234-1.566-2.023-2.651-2.343c-1.839-0.535-3.656,0.45-3.674,0.458
					l-0.421-0.765c0.086-0.047,2.14-1.167,4.327-0.533c1.324,0.381,2.395,1.311,3.188,2.766L101.869,75.807z"/>
			</g>
		</g>
		<path fill="#EEC1B5" d="M80.784,138.729c14.112,0,25.556,3.167,25.556,7.074s-11.443,7.074-25.556,7.074
			c-14.111,0-25.552-3.167-25.552-7.074S66.673,138.729,80.784,138.729z"/>
		<g>
			<circle fill="#D5B4AE" cx="41.86" cy="67.213" r="1.299"/>
			<circle fill="#D5B4AE" cx="41.86" cy="59.424" r="1.299"/>
			<circle fill="#D5B4AE" cx="37.324" cy="63.96" r="1.299"/>
			<circle fill="#D5B4AE" cx="110.07" cy="38.107" r="1.298"/>
			<circle fill="#D5B4AE" cx="47.212" cy="53.512" r="1.299"/>
			<path fill="#D5B4AE" d="M78.854,32.48c0,0.72-0.582,1.299-1.298,1.299c-0.717,0-1.299-0.579-1.299-1.299
				c0-0.717,0.582-1.299,1.299-1.299C78.272,31.181,78.854,31.763,78.854,32.48z"/>
			<circle fill="#D5B4AE" cx="49.276" cy="57.387" r="1.299"/>
			<circle fill="#D5B4AE" cx="42.991" cy="51.098" r="1.299"/>
			<circle fill="#D5B4AE" cx="52.946" cy="41.143" r="1.299"/>
			<circle fill="#D5B4AE" cx="52.946" cy="49.361" r="1.299"/>
			<circle fill="#D5B4AE" cx="48.511" cy="45.318" r="1.299"/>
			<circle fill="#D5B4AE" cx="56.159" cy="54.051" r="1.299"/>
			<circle fill="#D5B4AE" cx="90.439" cy="39.844" r="1.299"/>
			<circle fill="#D5B4AE" cx="69.781" cy="48.207" r="1.299"/>
			<circle fill="#D5B4AE" cx="74.676" cy="44.019" r="1.299"/>
			<circle fill="#D5B4AE" cx="60.601" cy="48.207" r="1.299"/>
			<circle fill="#D5B4AE" cx="61.899" cy="40.435" r="1.299"/>
			<circle fill="#D5B4AE" cx="65.968" cy="44.503" r="1.299"/>
			<circle fill="#D5B4AE" cx="85.547" cy="44.503" r="1.299"/>
			<circle fill="#D5B4AE" cx="58.552" cy="44.503" r="1.299"/>
			<circle fill="#D5B4AE" cx="58.552" cy="35.51" r="1.299"/>
			<circle fill="#D5B4AE" cx="64.969" cy="34.211" r="1.299"/>
			<circle fill="#D5B4AE" cx="95.948" cy="34.211" r="1.299"/>
			<circle fill="#D5B4AE" cx="84.249" cy="29.821" r="1.299"/>
			<circle fill="#D5B4AE" cx="105.521" cy="51.089" r="1.298"/>
			<circle fill="#D5B4AE" cx="113.858" cy="56.088" r="1.299"/>
			<circle fill="#D5B4AE" cx="119.59" cy="66.521" r="1.299"/>
			<circle fill="#D5B4AE" cx="125.698" cy="70.252" r="1.299"/>
			<circle fill="#D5B4AE" cx="102.914" cy="34.211" r="1.299"/>
			<circle fill="#D5B4AE" cx="113.206" cy="49.361" r="1.299"/>
			<circle fill="#D5B4AE" cx="124.693" cy="59.126" r="1.299"/>
			<circle fill="#D5B4AE" cx="119.59" cy="59.126" r="1.299"/>
			<path fill="#D5B4AE" d="M125.698,63.923c0,0.72-0.582,1.299-1.299,1.299s-1.299-0.579-1.299-1.299
				c0-0.717,0.582-1.299,1.299-1.299S125.698,63.207,125.698,63.923z"/>
			<circle fill="#D5B4AE" cx="108.771" cy="45.318" r="1.298"/>
			<circle fill="#D5B4AE" cx="115.157" cy="41.734" r="1.299"/>
			<circle fill="#D5B4AE" cx="117.755" cy="46.617" r="1.299"/>
			<path fill="#D5B4AE" d="M121.309,52.853c0,0.72-0.582,1.299-1.299,1.299s-1.299-0.579-1.299-1.299
				c0-0.717,0.582-1.298,1.299-1.298S121.309,52.136,121.309,52.853z"/>
			<circle fill="#D5B4AE" cx="87.842" cy="35.51" r="1.299"/>
			<circle fill="#D5B4AE" cx="71.08" cy="39.844" r="1.299"/>
			<circle fill="#D5B4AE" cx="96.99" cy="40.435" r="1.299"/>
			<circle fill="#D5B4AE" cx="101.06" cy="44.503" r="1.299"/>
			<circle fill="#D5B4AE" cx="93.641" cy="44.503" r="1.299"/>
			<circle fill="#D5B4AE" cx="106.174" cy="39.844" r="1.299"/>
			<circle fill="#D5B4AE" cx="79.709" cy="39.844" r="1.299"/>
			<path fill="#D5B4AE" d="M72.379,33.779c0,0.72-0.582,1.299-1.299,1.299s-1.299-0.579-1.299-1.299
				c0-0.717,0.582-1.299,1.299-1.299S72.379,33.062,72.379,33.779z"/>
		</g>
	</g>
</g>
<g id="Layer_9">
	<g>
		<path fill="#231F20" d="M136.775,127.367l-11.708-69.484c0-2.268-4.989-3.487-7.822-3.487L38.569,69.018
			c-2.83,0-5.449-0.263-5.449,2.005l-4.116,57.009c0,0.015,0.016,0.024,0.019,0.039c-0.003,0.016-0.019,0.032-0.019,0.047
			c0,1.95,23.419,6.151,53.524,6.151C112.633,134.27,137.585,127.609,136.775,127.367z"/>
		<path fill="#F8B133" d="M125.654,61.123"/>

			<ellipse transform="matrix(-0.9758 0.2189 -0.2189 -0.9758 293.4305 212.7204)" fill="#231F20" cx="134.934" cy="122.612" rx="10.824" ry="8.839"/>

			<ellipse transform="matrix(-0.9758 0.2189 -0.2189 -0.9758 265.8192 227.4764)" fill="#231F20" cx="120.311" cy="128.461" rx="10.825" ry="8.84"/>
		<path fill="#231F20" d="M73.938,135.056c4.396,4.391,17.145,5.835,28.472,3.219c11.324-2.613,16.943-8.289,12.547-12.681
			c-4.4-4.391-17.151-5.832-28.471-3.222C75.158,124.986,69.539,130.664,73.938,135.056z"/>

			<ellipse transform="matrix(0.9758 0.2189 -0.2189 0.9758 27.9297 -3.9958)" fill="#231F20" cx="32.002" cy="124.074" rx="10.824" ry="8.839"/>

			<ellipse transform="matrix(0.9758 0.2189 -0.2189 0.9758 29.5672 -7.0545)" fill="#231F20" cx="46.624" cy="129.923" rx="10.824" ry="8.839"/>
		<path fill="#231F20" d="M92.997,136.519c-4.393,4.391-17.145,5.834-28.471,3.219c-11.325-2.613-16.944-8.289-12.547-12.682
			c4.401-4.391,17.151-5.832,28.473-3.221C91.777,126.449,97.396,132.126,92.997,136.519z"/>
		<path fill="#EEC1B5" d="M124.132,72.321c0-19.117-19.211-34.816-42.906-34.816S38.32,53.309,38.32,72.424
			c0,0.217-0.197,37.129-0.197,37.129h0.023c0.494,8.813,19.608,22.753,43.132,22.753c23.522,0,42.636-13.939,43.128-22.753
			C124.406,109.553,124.132,72.538,124.132,72.321z"/>
		<path fill="#EEC1B5" d="M39.411,85.315c-1.762,0.306-5.224,2.787-5.224,5.803c0,3.016,3.461,5.498,5.224,5.803V85.315z"/>
		<path fill="#EEC1B5" d="M124.028,96.921c1.765-0.305,5.224-2.787,5.224-5.803c0-3.016-3.459-5.498-5.224-5.803V96.921z"/>
		<path fill="#060809" d="M67.582,85.312c1.548,0,2.801,1.256,2.801,2.804s-1.253,2.805-2.801,2.805
			c-1.551,0-2.802-1.257-2.802-2.805S66.03,85.312,67.582,85.312z"/>
		<circle fill="#060809" cx="93.375" cy="88.115" r="2.803"/>
		<rect x="67.344" y="117.028" fill="#EEC1B5" width="27" height="24.545"/>
		<path fill="#EEC1B5" d="M89.663,138.565c0,3.581-4.342,6.483-9.695,6.483c-5.351,0-9.693-2.902-9.693-6.483
			c0-3.58,4.342-6.481,9.693-6.481C85.32,132.083,89.663,134.985,89.663,138.565z"/>
		<path fill="#FFFFFF" d="M79.967,116.947c3.93,0,7.114-3.187,7.114-7.113H72.855C72.855,113.76,76.038,116.947,79.967,116.947z"/>
		<path fill="#DCAA9D" d="M79.89,84.372c0,0-4.634,14.04-4.252,15.096c0.354,0.977,2.276,1.771,4.284,1.682
			c2.002,0.2,3.964-0.479,4.373-1.434C84.737,98.682,79.89,84.372,79.89,84.372z"/>
		<polyline fill="#060809" points="94.741,86.138 99.26,87.021 95.282,90.167 		"/>
		<polyline fill="#060809" points="65.265,86.541 61.001,87.357 65.825,90.296 		"/>
		<path fill="#EEC1B5" d="M81.129,137.58c9.607,0,16.791,2.953,16.791,6.596s-7.184,6.596-16.791,6.596
			c-9.605,0-17.394-2.953-17.394-6.596S71.524,137.58,81.129,137.58z"/>
		<g>
			<g>
				<path fill="#665252" d="M97.174,99.933c-8.184,0-14.847-5.65-14.847-12.595c0-6.944,6.663-12.594,14.847-12.594
					c8.187,0,14.85,5.65,14.85,12.594C112.023,94.283,105.36,99.933,97.174,99.933z M97.174,77.083
					c-6.665,0-12.089,4.599-12.089,10.255c0,5.655,5.424,10.256,12.089,10.256c6.669,0,12.091-4.601,12.091-10.256
					C109.265,81.683,103.843,77.083,97.174,77.083z"/>
			</g>
		</g>
		<g>
			<g>
				<path fill="#665252" d="M62.083,99.933c-8.186,0-14.85-5.65-14.85-12.595c0-6.944,6.664-12.594,14.85-12.594
					s14.848,5.65,14.848,12.594C76.931,94.283,70.27,99.933,62.083,99.933z M62.083,77.083c-6.667,0-12.092,4.599-12.092,10.255
					c0,5.655,5.425,10.256,12.092,10.256c6.668,0,12.09-4.601,12.09-10.256C74.173,81.683,68.751,77.083,62.083,77.083z"/>
			</g>
		</g>
		<g>
			<g>
				<path fill="#665252" d="M76.363,89.489c0-0.015-0.008-0.027-0.008-0.041c0-0.854,1.365-1.806,3.324-1.806
					c1.961,0,3.326,0.952,3.326,1.806c0,0.013-0.006,0.026-0.006,0.041h1.287c0-0.015,0.007-0.027,0.007-0.041
					c0-1.776-2.027-3.169-4.613-3.169c-2.584,0-4.61,1.394-4.61,3.169c0,0.013,0.006,0.026,0.006,0.041H76.363z"/>
			</g>
		</g>
		<g>
			<rect x="109.213" y="85.103" fill="#665252" width="14.622" height="1.462"/>
		</g>
		<path fill="#231F20" d="M124.028,85.315c0,0-19.812-4.451-29.834-28.138c-0.771-2.456-39.812-4.731-39.325,18.907
			c0.735,35.71-25.354,46.139-25.354,46.139l4.638-65.756c0,0-0.039-18.161,26.847-23.898c20.488-4.375,47.603-1.114,56.858,5.058
			c5.787,3.858,7.934,24.68,7.934,24.68l0.072,14.594C125.865,76.902,132.402,87.737,124.028,85.315z"/>
	</g>
</g>
<g id="Layer_8" display="none">
	<g display="inline">
		<rect x="58.169" y="123.865" fill="#EEC1B5" width="45.801" height="20.884"/>
		<path fill="#EEC1B5" d="M97.799,144.719c0,4.663-7.492,8.44-16.729,8.44c-9.237,0-16.728-3.777-16.728-8.44
			c0-4.657,7.491-8.435,16.728-8.435C90.307,136.285,97.799,140.062,97.799,144.719z"/>
		<path fill="#EEC1B5" d="M128.395,63.72c0-20.293-20.928-37.369-46.739-37.369c-25.81,0-46.737,17.385-46.737,37.682
			c0,0.228-0.214,49.369-0.214,49.369h0.024c0.538,7.372,21.361,14.814,46.982,14.814c25.625,0,46.445-7.442,46.982-14.814h0.028
			C128.722,113.401,128.395,63.954,128.395,63.72z"/>
		<path fill="#D5B4AE" d="M81.295,100.418c-17.772,0-34.016-3.814-46.496-9.818c-0.049,11.125-0.095,25.928-0.095,25.928h0.024
			c0.538,7.372,21.361,14.814,46.982,14.814c25.625,0,46.445-7.442,46.982-14.814h0.028c0,0-0.073-15.029-0.15-26.307
			C115.993,96.452,99.441,100.418,81.295,100.418z"/>
		<g>
			<path fill="#EEC1B5" d="M35.001,74.502c-2.458,0.391-6.676,3.561-6.676,7.415c0,3.854,4.217,7.027,6.676,7.418V74.502z"/>
			<path fill="#EEC1B5" d="M127.14,89.335c3.686-0.391,6.675-3.564,6.675-7.418c0-3.854-2.989-7.023-6.675-7.415V89.335z"/>
		</g>
		<ellipse fill="#EEC1B5" cx="81.069" cy="145.967" rx="25.474" ry="7.052"/>
		<path fill="#1D1D1B" d="M122.33,85.235c0,0-47.307-50.41-67.32-43.867c-10.682,3.492-16.524,36.949-18.8,40.836
			c-0.809-1.142-2.24-10.142-2.24-10.142s-3.979-45.006,18.895-51.178c32.104-8.664,53.021,4.984,53.021,4.984
			s23.544-4.461,23.294,16.011c-0.211,17.04,0.91,29.057,0.91,29.057S127.07,78.688,122.33,85.235z"/>
		<ellipse fill="#D5B4AE" cx="81.648" cy="121.865" rx="27.059" ry="14.478"/>
		<path fill="#060809" d="M65.883,80.135c1.466,0,2.654,1.189,2.654,2.658c0,1.466-1.188,2.651-2.654,2.651
			c-1.469,0-2.66-1.185-2.66-2.651C63.224,81.325,64.415,80.135,65.883,80.135z"/>
		<path fill="#FFFFFF" d="M81.665,115.805c6.272,0,11.354-5.084,11.354-11.348H70.32C70.32,110.72,75.396,115.805,81.665,115.805z"
			/>
		<g>
			<path fill="#060809" d="M59.168,73.431l-0.772-0.408c0.046-0.087,1.151-2.142,3.322-2.808c1.31-0.4,2.709-0.209,4.166,0.571
				l-0.416,0.77c-1.24-0.666-2.415-0.838-3.496-0.508C60.142,71.608,59.174,73.413,59.168,73.431z"/>
		</g>
		<path fill="#DCAA9D" d="M81.839,63.705c0,0-4.818,28.152-4.486,30.25c0.306,1.93,2.104,3.457,4.013,3.219
			c1.89,0.348,3.774-1.075,4.19-2.987C86.004,92.117,81.839,63.705,81.839,63.705z"/>
		<path fill="#060809" d="M95.677,80.14c1.466,0,2.653,1.185,2.653,2.653c0,1.466-1.188,2.651-2.653,2.651
			c-1.473,0-2.658-1.185-2.658-2.651C93.019,81.325,94.204,80.14,95.677,80.14z"/>
		<g>
			<path fill="#060809" d="M101.308,76.185c-0.672-1.23-1.561-2.017-2.642-2.336c-1.832-0.533-3.644,0.449-3.661,0.457l-0.419-0.762
				c0.086-0.047,2.132-1.164,4.312-0.532c1.319,0.38,2.385,1.307,3.176,2.758L101.308,76.185z"/>
		</g>
	</g>
</g>
</svg>
