<svg x="0px" y="0px" width="141.283px"
	 height="70.25px" viewBox="0 0 141.283 70.25" enable-background="new 0 0 141.283 70.25" xml:space="preserve">
<metadata>
	<sfw  xmlns="&ns_sfw;">
		<slices></slices>
		<sliceSourceBounds  width="131.652" height="70.494" y="-70.494" x="-37.382" bottomLeftOrigin="true"></sliceSourceBounds>
	</sfw>
</metadata>
<g id="Layer_1" display="none">
	<g display="inline">
		<polygon fill="#009D90" points="105.476,70.494 73.789,70.494 70.786,0 105.476,0 		"/>
		<g>
			<path fill="#EDD8D3" d="M105.089,54.555c0,1.666,1.35,3.019,3.018,3.019h0.342c1.664,0,3.016-1.353,3.016-3.019V36.962
				c0-1.668-1.352-3.019-3.016-3.019h-0.342c-1.668,0-3.018,1.351-3.018,3.019V54.555z"/>
			<path fill="#EDD8D3" d="M98.673,36.262c0,1.28,1.037,2.319,2.317,2.319h4.796c1.281,0,2.319-1.039,2.319-2.319l0,0
				c0-1.278,1.618-2.317,0.342-2.317h-7.457C99.71,33.944,98.673,34.983,98.673,36.262L98.673,36.262z"/>
			<path fill="#EDD8D3" d="M98.729,41.68c0,1.28,1.036,2.317,2.317,2.317h4.795c1.282,0,2.318-1.037,2.318-2.317l0,0
				c0-1.279,1.621-2.317,0.342-2.317h-7.455C99.765,39.362,98.729,40.4,98.729,41.68L98.729,41.68z"/>
			<path fill="#EDD8D3" d="M98.729,47.099c0,1.281,1.036,2.316,2.317,2.316h4.795c1.282,0,2.318-1.035,2.318-2.316l0,0
				c0-1.279,1.621-2.316,0.342-2.316h-7.455C99.765,44.781,98.729,45.819,98.729,47.099L98.729,47.099z"/>
			<g>
				<path fill="#EDD8D3" d="M116.123,58.242c-3.129,0-5.879-0.867-7.653-1.83l3.062-5.717c0.777,0.408,7.803,3.75,13.423-3.963
					c6.623-9.097,3.938-16.291,0.693-18.688c-3.859-2.853-17.165-9.469-21.966-11.778l2.812-5.845
					c0.727,0.351,17.868,8.609,23.006,12.404c6.586,4.862,9.065,16.233,0.696,27.726C125.901,56.445,120.621,58.242,116.123,58.242z
					"/>
			</g>
		</g>
		<g>
			<path fill="#EDD8D3" d="M75.922,56.486c0,1.666-1.35,3.018-3.018,3.018h-0.342c-1.664,0-3.016-1.352-3.016-3.018V38.893
				c0-1.667,1.352-3.019,3.016-3.019h0.342c1.668,0,3.018,1.352,3.018,3.019V56.486z"/>
			<path fill="#EDD8D3" d="M82.338,38.193c0,1.281-1.037,2.319-2.318,2.319h-4.796c-1.281,0-2.319-1.038-2.319-2.319l0,0
				c0-1.277-1.619-2.316-0.342-2.316h7.457C81.301,35.876,82.338,36.916,82.338,38.193L82.338,38.193z"/>
			<path fill="#EDD8D3" d="M82.281,43.611c0,1.281-1.036,2.317-2.317,2.317h-4.796c-1.282,0-2.318-1.036-2.318-2.317l0,0
				c0-1.279-1.621-2.316-0.342-2.316h7.456C81.245,41.294,82.281,42.332,82.281,43.611L82.281,43.611z"/>
			<path fill="#EDD8D3" d="M82.281,49.03c0,1.281-1.036,2.317-2.317,2.317h-4.796c-1.282,0-2.318-1.036-2.318-2.317l0,0
				c0-1.278-1.621-2.317-0.342-2.317h7.456C81.245,46.712,82.281,47.751,82.281,49.03L82.281,49.03z"/>
			<g>
				<path fill="#EDD8D3" d="M64.886,60.173c3.129,0,5.879-0.867,7.654-1.829l-3.063-5.718c-0.778,0.408-7.803,3.75-13.423-3.963
					c-6.623-9.097-3.939-16.291-0.693-18.688c3.859-2.852,17.165-9.469,21.965-11.777l-2.812-5.846
					c-0.726,0.352-17.868,8.609-23.006,12.404c-6.585,4.863-9.064,16.234-0.696,27.726C55.108,58.376,60.388,60.173,64.886,60.173z"
					/>
			</g>
		</g>
		<polyline fill="#009D90" points="72.767,9.238 56.663,16.369 65.236,29.121 82.211,21.011 102.179,21.011 112.851,26.772
			119.599,11.498 100.687,7.262 		"/>
	</g>
</g>
<g id="Layer_2">
	<path fill="#EDD8D3" d="M33.245,17.246c0,1.308-1.058,2.364-2.366,2.364l0,0c-1.307,0-2.365-1.059-2.365-2.364V3.683
		c0-1.308,1.059-2.365,2.365-2.365l0,0c1.308,0,2.366,1.059,2.366,2.365V17.246z"/>
	<path fill="#EDD8D3" d="M33.05,29.888l0.195-21.211L21.851,5.341l-4.82,7.2l-2.757,7.069c0,0,9.081,2.758,10.972,3.302
		c1.966,0.567,1.306,1.038,1.212,5.938"/>
	<g>
		<path fill="#EDD8D3" d="M48.488,50.166c-6.74,0-12.106-2.103-15.953-6.243c-6.767-7.287-6.042-18.182-6.009-18.641l6.47,0.48
			l-3.235-0.24l3.235,0.23c-0.006,0.083-0.528,8.596,4.316,13.782c2.568,2.75,6.329,4.144,11.176,4.144
			c4.194,0,11.695-6.539,15.751-15.925c4.572-10.581,9.521-15.121,9.729-15.31l4.345,4.814c-0.027,0.024-4.167,3.917-8.121,13.066
			C65.305,41.638,55.974,50.166,48.488,50.166z"/>
	</g>
	<path fill="#EDD8D3" d="M33.033,17.246c0,1.308-1.058,2.364-2.365,2.364l0,0c-1.308,0-2.366-1.059-2.366-2.364V3.683
		c0-1.308,1.059-2.365,2.366-2.365l0,0c1.307,0,2.365,1.059,2.365,2.365V17.246z"/>
	<path fill="#EDD8D3" d="M23.32,5.822c1.255,0.358,1.982,1.669,1.621,2.926l0,0c-0.359,1.255-1.668,1.983-2.925,1.623L8.977,6.636
		c-1.256-0.361-1.982-1.67-1.623-2.928l0,0c0.36-1.256,1.67-1.982,2.924-1.623L23.32,5.822z"/>
	<path fill="#EDD8D3" d="M21.435,11.091c1.254,0.359,1.98,1.668,1.62,2.926l0,0c-0.36,1.256-1.669,1.982-2.925,1.623L7.091,11.904
		c-1.257-0.361-1.983-1.671-1.624-2.927l0,0c0.361-1.256,1.671-1.982,2.926-1.623L21.435,11.091z"/>
	<path fill="#EDD8D3" d="M19.927,16.37c1.255,0.359,1.981,1.669,1.62,2.926l0,0c-0.359,1.256-1.668,1.982-2.925,1.622L5.583,17.183
		c-1.256-0.359-1.982-1.668-1.623-2.927l0,0c0.36-1.256,1.67-1.981,2.925-1.622L19.927,16.37z"/>
	<path fill="#EDD8D3" d="M32.837,29.888l0.195-21.211L21.639,5.341l-4.82,7.2l-2.758,7.069c0,0,9.082,2.758,10.972,3.302
		c1.967,0.567,1.306,1.038,1.212,5.938"/>
	<rect x="70.279" fill="#D52879" width="34.691" height="58.241"/>
	<path fill="#EDD8D3" d="M103.352,54.556c0,1.666,1.35,3.018,3.018,3.018h0.342c1.664,0,3.015-1.352,3.015-3.018V36.962
		c0-1.667-1.351-3.018-3.015-3.018h-0.342c-1.668,0-3.018,1.351-3.018,3.018V54.556z"/>
	<path fill="#EDD8D3" d="M96.936,36.263c0,1.28,1.038,2.318,2.318,2.318h4.796c1.28,0,2.319-1.038,2.319-2.318l0,0
		c0-1.279,1.619-2.318,0.342-2.318h-7.457C97.974,33.944,96.936,34.983,96.936,36.263L96.936,36.263z"/>
	<path fill="#EDD8D3" d="M96.992,41.681c0,1.28,1.037,2.316,2.317,2.316h4.796c1.282,0,2.318-1.036,2.318-2.316l0,0
		c0-1.279,1.621-2.317,0.342-2.317h-7.457C98.029,39.363,96.992,40.401,96.992,41.681L96.992,41.681z"/>
	<path fill="#EDD8D3" d="M96.992,47.099c0,1.281,1.037,2.317,2.317,2.317h4.796c1.282,0,2.318-1.036,2.318-2.317l0,0
		c0-1.279,1.621-2.316,0.342-2.316h-7.457C98.029,44.782,96.992,45.819,96.992,47.099L96.992,47.099z"/>
	<g>
		<path fill="#EDD8D3" d="M114.387,58.242c-3.128,0-5.878-0.867-7.654-1.829l3.064-5.717c0.779,0.408,7.803,3.75,13.422-3.963
			c6.624-9.098,3.939-16.291,0.693-18.688c-3.859-2.853-17.166-9.469-21.965-11.778l2.812-5.845
			c0.726,0.351,17.868,8.61,23.006,12.405c6.584,4.861,9.065,16.232,0.696,27.725C124.164,56.446,118.885,58.242,114.387,58.242z"/>
	</g>
	<polyline fill="#D52879" points="71.032,9.239 56.516,29.888 69.146,37.521 80.475,21.011 100.443,21.011 111.115,26.772
		117.863,11.498 98.951,7.263 	"/>
</g>
<g id="Layer_3" display="none">
	<g display="inline">
		<path fill="#EDD8D3" d="M33.459,17.246c0,1.308-1.058,2.364-2.366,2.364l0,0c-1.307,0-2.365-1.059-2.365-2.364V3.683
			c0-1.308,1.059-2.365,2.365-2.365l0,0c1.308,0,2.366,1.059,2.366,2.365V17.246z"/>
		<path fill="#EDD8D3" d="M33.264,29.888l0.195-21.211L22.065,5.341l-4.82,7.2l-2.757,7.069c0,0,9.081,2.758,10.972,3.302
			c1.966,0.567,1.306,1.038,1.212,5.938"/>
		<g>
			<path fill="#EDD8D3" d="M48.702,50.166c-6.74,0-12.106-2.103-15.953-6.243c-6.767-7.287-6.042-18.182-6.009-18.641l6.47,0.48
				l-3.235-0.24l3.235,0.23c-0.006,0.083-0.528,8.596,4.316,13.782c2.568,2.75,6.329,4.144,11.176,4.144
				c4.194,0,11.695-6.539,15.751-15.925c4.572-10.581,9.521-15.121,9.729-15.31l4.345,4.814c-0.027,0.024-4.167,3.917-8.121,13.066
				C65.519,41.638,56.188,50.166,48.702,50.166z"/>
		</g>
		<path fill="#EDD8D3" d="M33.247,17.246c0,1.308-1.058,2.364-2.365,2.364l0,0c-1.308,0-2.366-1.059-2.366-2.364V3.683
			c0-1.308,1.059-2.365,2.366-2.365l0,0c1.307,0,2.365,1.059,2.365,2.365V17.246z"/>
		<path fill="#EDD8D3" d="M23.534,5.822c1.255,0.358,1.982,1.669,1.621,2.926l0,0c-0.359,1.255-1.668,1.983-2.925,1.623L9.191,6.636
			c-1.256-0.361-1.982-1.67-1.623-2.928l0,0c0.36-1.256,1.67-1.982,2.924-1.623L23.534,5.822z"/>
		<path fill="#EDD8D3" d="M21.649,11.091c1.254,0.359,1.98,1.668,1.62,2.926l0,0c-0.36,1.256-1.669,1.982-2.925,1.623L7.305,11.904
			c-1.257-0.361-1.983-1.671-1.624-2.927l0,0c0.361-1.256,1.671-1.982,2.926-1.623L21.649,11.091z"/>
		<path fill="#EDD8D3" d="M20.141,16.37c1.255,0.359,1.981,1.669,1.62,2.926l0,0c-0.359,1.256-1.668,1.982-2.925,1.622L5.797,17.183
			c-1.256-0.359-1.982-1.668-1.623-2.927l0,0c0.36-1.256,1.67-1.981,2.925-1.622L20.141,16.37z"/>
		<path fill="#EDD8D3" d="M33.052,29.888l0.195-21.211L21.853,5.341l-4.82,7.2l-2.758,7.069c0,0,9.082,2.758,10.972,3.302
			c1.967,0.567,1.306,1.038,1.212,5.938"/>
		<rect x="70.493" fill="#D04E79" width="34.691" height="58.241"/>
		<path fill="#EDD8D3" d="M103.566,54.556c0,1.666,1.35,3.018,3.018,3.018h0.342c1.664,0,3.015-1.352,3.015-3.018V36.962
			c0-1.667-1.351-3.018-3.015-3.018h-0.342c-1.668,0-3.018,1.351-3.018,3.018V54.556z"/>
		<path fill="#EDD8D3" d="M97.15,36.263c0,1.28,1.038,2.318,2.318,2.318h4.796c1.28,0,2.319-1.038,2.319-2.318l0,0
			c0-1.279,1.619-2.318,0.342-2.318h-7.457C98.188,33.944,97.15,34.983,97.15,36.263L97.15,36.263z"/>
		<path fill="#EDD8D3" d="M97.207,41.681c0,1.28,1.037,2.316,2.317,2.316h4.796c1.282,0,2.318-1.036,2.318-2.316l0,0
			c0-1.279,1.621-2.317,0.342-2.317h-7.457C98.244,39.363,97.207,40.401,97.207,41.681L97.207,41.681z"/>
		<path fill="#EDD8D3" d="M97.207,47.099c0,1.281,1.037,2.317,2.317,2.317h4.796c1.282,0,2.318-1.036,2.318-2.317l0,0
			c0-1.279,1.621-2.316,0.342-2.316h-7.457C98.244,44.782,97.207,45.819,97.207,47.099L97.207,47.099z"/>
		<g>
			<path fill="#EDD8D3" d="M114.601,58.242c-3.128,0-5.878-0.867-7.654-1.829l3.064-5.717c0.779,0.408,7.803,3.75,13.422-3.963
				c6.624-9.098,3.939-16.291,0.693-18.688c-3.859-2.853-17.166-9.469-21.965-11.778l2.812-5.845
				c0.726,0.351,17.868,8.61,23.006,12.405c6.584,4.861,9.065,16.232,0.696,27.725C124.378,56.446,119.099,58.242,114.601,58.242z"
				/>
		</g>
		<polyline fill="#D04E79" points="71.246,9.239 56.73,29.888 69.361,37.521 80.689,21.011 100.658,21.011 111.33,26.772
			118.078,11.498 99.166,7.263 		"/>
	</g>
</g>
</svg>
