<svg width="58.319" height="114.356"><path fill="#EEC1B5" d="M20.66 94.046l1.606 12.19s-11.51 8.662-17.45 8.093c-5.938-.57-5.07-3.077-1.606-5.358 3.465-2.277 12.498-4.77 12.498-4.77l-.123-10.156M38.142 94.046l-1.61 12.19s11.51 8.662 17.45 8.093 5.074-3.077 1.61-5.358c-3.466-2.277-12.5-4.77-12.5-4.77l.123-10.156"/><stop offset="0" stop-color="#142F4C"/><path fill="url(#SVGID_1_)" d="M6.993 0s-2.787 4.68-2.71 11.88c.092 8.645 1.696 23.62 3.673 39.023 3.342 26.034 7.752 53.298 7.752 53.298l6.56 2.037 2.226-53.117 5.157-37.005c5.38.363 2.31-.16 3.515-.007l4.86 38.95-1.766 48.576 6.884.566S55.76 39.896 57.838 18.486C58.288 13.848 53.258 0 53.258 0H6.992z"/><path fill="#7F4C12" stroke="#7F4C12" stroke-miterlimit="10" d="M22.817 93.153l-1.032 13.084s-11.508 8.66-17.45 8.092c-5.938-.57-5.07-3.077-1.606-5.358 3.463-2.277 12.498-4.77 12.498-4.77l-.443-11.05M35.428 94.046l.623 12.19s11.51 8.662 17.45 8.093c5.938-.57 5.074-3.077 1.61-5.358-3.467-2.277-12.5-4.77-12.5-4.77l2.403-10.156"/></svg>