<svg width="74.032" height="79.668"><g fill="#EEC1B5"><path d="M27.55 63.328h13.264v12.057H27.55z"/><ellipse cx="34.153" cy="74.907" rx="7.12" ry="4.761"/></g><path fill="#CC3B17" d="M74.032 69.356c-15.97 3.16-21.634-1.575-38.354-2.33C22.19 66.42 0 72.64 0 71.09l2.975-51.116c0-1.55 1.792-1.255 3.728-1.255H60.51c1.938 0 3.113-6.91 3.113-5.36l10.41 55.996z"/><path fill="#EEC1B5" d="M64.995 27.014c0-13.073-13.138-23.81-29.344-23.81-16.204 0-29.343 10.81-29.343 23.88L6.173 52.48h.016c.336 6.027 13.408 15.56 29.496 15.56s29.16-9.532 29.496-15.56l-.257-5.265.07-20.2zM7.055 39.276c-1.205.21-3.572 1.906-3.572 3.97s2.367 3.76 3.572 3.967v-7.937zM64.926 47.213c1.206-.208 3.572-1.905 3.572-3.97 0-2.06-2.366-3.758-3.572-3.967v7.937z"/><circle fill="#060809" cx="26.319" cy="41.192" r="1.918"/><circle fill="#060809" cx="43.96" cy="41.191" r="1.917"/><path fill="#fff" d="M35.14 60.91c2.688 0 4.865-2.18 4.865-4.866h-9.728c0 2.685 2.176 4.865 4.863 4.865z"/><path fill="#060809" d="M48.66 35.634c-.486-.89-1.126-1.458-1.908-1.687-1.322-.386-2.628.323-2.64.33l-.305-.55c.062-.035 1.54-.842 3.115-.386.95.277 1.72.945 2.29 1.99l-.553.304z"/><path fill="#DCAA9D" d="M35.205 40.113s-3.17 9.603-2.908 10.325c.24.667 1.556 1.21 2.93 1.15 1.368.137 2.71-.33 2.99-.98.303-.707-3.012-10.495-3.012-10.495z"/><path fill="#060809" d="M44.896 39.84l3.09.602-2.72 2.153M24.735 40.113l-2.916.56 3.3 2.01"/><circle fill="#fff" cx="65.804" cy="46.685" r="1.493"/><circle fill="#fff" cx="6.728" cy="46.685" r="1.493"/><path fill="#060809" d="M22.717 36.54l-.558-.293c.033-.062.83-1.546 2.396-2.025.944-.29 1.956-.15 3.005.412l-.297.553c-.896-.48-1.745-.602-2.524-.363-1.32.404-2.016 1.704-2.023 1.717z"/><circle fill="#CC3B17" cx="45.082" cy="48.177" r=".438"/><circle fill="#CC3B17" cx="49.338" cy="46.751" r=".414"/><circle fill="#CC3B17" cx="48.998" cy="49.912" r=".316"/><circle fill="#CC3B17" cx="22.597" cy="48.177" r=".438"/><circle fill="#CC3B17" cx="26.853" cy="46.751" r=".414"/><circle fill="#CC3B17" cx="26.513" cy="49.912" r=".316"/><path fill="#CC3B17" d="M59.906 5.4C53.576.684 35.032-1.81 21.02 1.534 2.634 5.92 2.975 19.975 2.975 19.975l2.378 20.14c1.853.416 19.05-23.62 19.05-23.62s.475 2.634-3.562 8.448c-5.514 7.943-5.993 8.26-5.993 8.26C46.21 36.25 55.45 19.248 55.45 19.248s9.155 22.18 9.884 20.027V24.257c-.002 0-1.47-15.91-5.428-18.858z"/></svg>