<svg width="74.032" height="97.915"><g fill="#9D6E63"><path d="M28.09 81.116h13.264v12.06H28.09z"/><ellipse cx="34.692" cy="92.696" rx="7.12" ry="4.762"/></g><path fill="#9D6E63" d="M65.536 44.8c0-13.074-13.14-23.812-29.345-23.812S6.846 31.798 6.846 44.87l-.133 25.395h.016c.336 6.03 13.41 15.562 29.5 15.562 16.088 0 29.16-9.533 29.498-15.562L65.468 65l.068-20.2zM7.593 57.063c-1.205.21-3.572 1.906-3.572 3.97S6.39 64.792 7.594 65v-7.937zM65.468 65c1.205-.208 3.572-1.905 3.572-3.968s-2.367-3.76-3.572-3.97v7.94z"/><path fill="#422918" d="M66.673 57.062s-14.73 2.588-29.348-19.285c-8.114 10.55-18.25 17.738-25.512 19.287-9.89 2.11-7.793.562-7.793.562l.292-20.13s0-15.452 18.387-19.378c14.012-2.992 27.053 4.068 27.053 4.068s5.165-1.96 11.494 2.262c3.958 2.64 5.426 16.88 5.426 16.88s.88 8.003 0 15.734z"/><circle fill="#060809" cx="26.859" cy="58.979" r="1.918"/><circle fill="#060809" cx="44.501" cy="58.979" r="1.917"/><path fill="#fff" d="M35.68 78.696c2.688 0 4.865-2.178 4.865-4.863h-9.728c0 2.686 2.176 4.863 4.864 4.863z"/><path fill="#060809" d="M49.2 53.42c-.485-.89-1.126-1.458-1.908-1.687-1.32-.385-2.628.324-2.64.33l-.304-.55c.062-.034 1.538-.84 3.115-.384.95.274 1.72.942 2.29 1.987l-.553.304zM23.255 54.327l-.556-.293c.033-.06.828-1.547 2.396-2.025.943-.29 1.955-.15 3.004.41l-.297.554c-.896-.48-1.746-.602-2.525-.363-1.318.405-2.015 1.705-2.023 1.717z"/><path fill="#875047" d="M35.58 57.91s-3.56 9.592-3.26 10.317c.276.667 1.77 1.215 3.328 1.16 1.554.144 3.076-.318 3.39-.967.343-.706-3.458-10.51-3.458-10.51z"/><path fill="#060809" d="M45.437 57.626l3.09.603-2.72 2.152M25.274 57.9l-2.916.56 3.3 2.01"/><circle fill="#fff" cx="66.346" cy="64.472" r="1.493"/><circle fill="#fff" cx="7.266" cy="64.472" r="1.493"/><circle fill="#422918" cx="38.775" cy="15.896" r="15.163"/></svg>