<?xml version="1.0" encoding="utf-8"?>
<svg version="1.1" id="Layer_1" xmlns:x="&ns_extend;" xmlns:i="&ns_ai;" xmlns:graph="&ns_graphs;"
	 xmlns="http://www.w3.org/2000/svg" xmlns:xlink="http://www.w3.org/1999/xlink" x="0px" y="0px" width="118px" height="177px"
	 viewBox="27.39 -37.617 118 177" enable-background="new 27.39 -37.617 118 177" xml:space="preserve">
<g>
	<g>
		<path fill="#EEC0B5" d="M73.178,106.756l2.4,18.192c0,0-17.175,12.927-26.039,12.074c-8.864-0.849-7.571-4.589-2.4-7.991
			c5.171-3.401,18.65-7.12,18.65-7.12l-0.184-15.155"/>
	</g>
	<g>
		<path fill="#EEC0B5" d="M99.268,106.756l-2.399,18.192c0,0,17.175,12.927,26.041,12.074c8.863-0.849,7.57-4.589,2.399-7.991
			c-5.169-3.401-18.65-7.12-18.65-7.12l0.184-15.155"/>
	</g>
	<g>
		<path fill="#EEC0B5" d="M52.784-33.589l13.007,155.5l9.787,3.037l2.036-134.04c1.8,0.103,16.691,0.214,16.691-0.047
			c0,0,8.106,43.051,8.242,57.69c0.182,19.209-6.127,76.397-6.127,76.397l10.235-3.037c0,0,10.542-54.702,12.375-73.054
			c2.052-20.546,2.793-82.446,2.793-82.446H52.784z"/>
	</g>
	<g>
		<path fill="#12304D" d="M64.498,127.944c-7.024,2.288-13.627,2.756-17.621,1.563c-0.158,0.091-0.329,0.189-0.476,0.276
			c-5.412,3.222-6.769,6.771,2.516,7.57c9.279,0.806,27.268-11.438,27.268-11.438l-0.496-3.403
			C72.781,124.574,68.917,126.503,64.498,127.944z"/>
		<path fill="#12304D" d="M49.831,138.293c-0.339,0-0.671-0.014-0.992-0.041c-4.64-0.4-7.105-1.508-7.535-3.386
			c-0.408-1.779,1.197-3.804,4.638-5.855l0.712-0.411l0.483,0.045c3.869,1.158,10.593,0.562,17.087-1.556
			c4.191-1.365,7.975-3.202,10.947-5.311l1.198-0.849l0.788,5.414l-0.465,0.315C75.994,127.135,59.493,138.293,49.831,138.293z
			 M46.999,130.475l-0.144,0.084c-3.049,1.815-3.953,3.236-3.801,3.903c0.169,0.731,1.817,1.641,5.939,1.995
			c8.083,0.665,23.356-9.092,26.218-10.978l-0.208-1.424c-2.905,1.87-6.409,3.495-10.227,4.743
			c-4.503,1.465-8.927,2.244-12.787,2.244C50.093,131.045,48.416,130.851,46.999,130.475z"/>
	</g>
	<g>
		<path fill="#12304D" d="M108.278,127.564c7.029,2.289,13.63,2.756,17.624,1.563c0.159,0.092,0.332,0.189,0.479,0.276
			c5.413,3.223,6.767,6.771-2.516,7.57c-9.28,0.805-27.268-11.438-27.268-11.438l0.495-3.403
			C99.995,124.194,103.862,126.124,108.278,127.564z"/>
		<path fill="#12304D" d="M122.949,137.913c-9.664,0-26.164-11.157-26.86-11.633l-0.467-0.316l0.788-5.416l1.197,0.851
			c2.97,2.108,6.756,3.943,10.948,5.311c4.266,1.388,8.609,2.153,12.232,2.153l0,0c1.895,0,3.524-0.199,4.853-0.599l0.373-0.11
			l0.818,0.474c3.448,2.055,5.052,4.078,4.643,5.857c-0.431,1.88-2.896,2.986-7.536,3.387
			C123.621,137.898,123.29,137.913,122.949,137.913z M97.568,125.103c2.859,1.883,18.162,11.653,26.219,10.978
			c4.121-0.354,5.769-1.264,5.937-1.996c0.154-0.666-0.752-2.088-3.805-3.905l-0.136-0.082c-1.42,0.377-3.095,0.567-4.991,0.567l0,0
			c-3.86,0-8.282-0.778-12.789-2.244c-3.818-1.244-7.321-2.874-10.228-4.741L97.568,125.103z"/>
	</g>
	<g>
		<path fill="#214185" d="M125.775-24.936c0-5.173-0.678-9.336-1.936-12.715H54.05c-2.317,4.762-3.507,10.938-3.507,18.863
			c0,0.158-3.409,47.013-3.409,47.013l82.233-0.964C129.366,27.26,125.775-24.778,125.775-24.936z"/>
	</g>
</g>
</svg>
