<?xml version="1.0" encoding="utf-8"?>
<svg version="1.1" id="Layer_1" xmlns:x="&ns_extend;" xmlns:i="&ns_ai;" xmlns:graph="&ns_graphs;"
	 xmlns="http://www.w3.org/2000/svg" xmlns:xlink="http://www.w3.org/1999/xlink" x="0px" y="0px" width="118px" height="177px"
	 viewBox="0 1 118 177" enable-background="new 0 0 118 177" xml:space="preserve">
<g>
	<path fill="#EDC0B4" d="M46.526,128.438l3.089,31.949c0,0-22.123,12.742-33.54,11.906c-11.422-0.836-9.754-4.527-3.094-7.881
		c6.66-3.354,24.025-7.021,24.025-7.021l-0.236-28.953"/>
	<path fill="#EDC0B4" d="M72.023,128.438l-3.13,31.117c0,0,22.367,12.154,33.914,11.357c11.546-0.799,9.861-4.316,3.129-7.518
		c-6.736-3.195-24.294-6.693-24.294-6.693l0.237-28.264"/>
	<path fill="#EDC0B4" d="M28.976,1.126l-2.391,72.417l10.317,77.325l11.182,0.633l-1.49-76.349L53.827,31.1
		c1.63,0.091,2.302,0.12,3.512,0.12c1.993,0,11.152-0.148,11.152-0.386l2.551,47.598l-0.544,72.352h11.244l8.353-74.328
		l3.069-75.329H28.976z"/>
	<g>
		<path fill="#12304D" d="M106.32,164.705c-5.742-2.729-19.318-7.547-23.193-8.904c-1.478,0.15-3.012,0.229-4.58,0.229
			c-2.908,0-5.678-0.281-8.24-0.779l-1.027,5.615c0,0,22.371,12.154,33.915,11.355C114.742,171.424,113.055,167.902,106.32,164.705z
			"/>
		<path fill="#12304D" d="M102.06,173.389c-0.001,0-0.003,0-0.003,0c-11.881,0-32.301-11.18-33.166-11.65l-0.52-0.359l1.282-7.049
			l0.808,0.141c4.055,0.789,8.395,0.953,12.584,0.531l0.181-0.027l0.172,0.061c4.007,1.404,17.527,6.207,23.273,8.934
			c4.138,1.965,6.064,3.857,5.731,5.621c-0.369,1.939-3.277,3.193-9.152,3.604C102.863,173.221,102.468,173.389,102.06,173.389z
			 M70.188,160.861c3.292,1.736,21.421,11.453,31.868,11.453c0,0,0.002,0,0.003,0c0.37,0,0.729-0.445,1.076-0.475
			c7.152-0.49,7.635-2.174,7.665-2.342c0.099-0.527-0.805-2.041-4.829-3.951c-5.594-2.656-18.758-7.391-22.942-8.859
			c-4.013,0.393-8.156,0.441-12.068-0.244L70.188,160.861z"/>
	</g>
	<g>
		<path fill="#12304D" d="M44.336,156.029c-2.59,0-5.073-0.225-7.394-0.623c-2.604,1.076-17.506,7.26-23.572,10.312
			c-6.66,3.357-8.326,7.047,3.091,7.881c11.417,0.84,33.542-11.904,33.542-11.904l-1.019-5.902
			C47.481,155.949,45.93,156.029,44.336,156.029z"/>
		<path fill="#12304D" d="M17.583,174.453c-0.404,0-0.8-0.012-1.181-0.041c-5.776-0.418-8.653-1.551-9.049-3.545
			c-0.364-1.828,1.536-3.805,5.65-5.875c6.027-3.033,20.74-9.146,23.629-10.338l0.217-0.092l0.231,0.041
			c3.861,0.664,7.937,0.781,11.82,0.385l0.757-0.084l1.244,7.213l-0.494,0.283C49.555,162.891,29.349,174.453,17.583,174.453z
			 M37.036,156.246c-3.328,1.383-17.461,7.26-23.301,10.199c-3.756,1.895-4.924,3.393-4.783,4.104
			c0.056,0.285,0.689,1.736,7.566,2.238c10.146,0.75,29.269-9.668,32.584-11.52l-0.792-4.59
			C44.584,156.996,40.727,156.859,37.036,156.246z"/>
	</g>
	<path fill="#EDC0B4" d="M46.526,128.438l3.089,31.949c0,0-22.123,12.742-33.54,11.906c-11.422-0.836-9.754-4.527-3.094-7.881
		c6.66-3.354,24.025-7.021,24.025-7.021l-0.236-28.953"/>
	<path fill="#EDC0B4" d="M72.023,128.438l-3.13,31.117c0,0,22.367,12.154,33.914,11.357c11.546-0.799,9.861-4.316,3.129-7.518
		c-6.736-3.195-24.294-6.693-24.294-6.693l0.237-28.264"/>
	<path fill="#12304D" stroke="#12304D" stroke-width="2.8347" stroke-miterlimit="10" d="M106.32,164.705
		c-5.742-2.729-19.318-7.547-23.193-8.904c-1.478,0.15-3.012,0.229-4.58,0.229c-2.908,0-5.678-0.281-8.24-0.779l-1.027,5.615
		c0,0,22.371,12.154,33.915,11.355C114.742,171.424,113.055,167.902,106.32,164.705z"/>
	<path fill="#12304D" stroke="#12304D" stroke-width="2.8347" stroke-miterlimit="10" d="M44.336,156.029
		c-2.59,0-5.073-0.225-7.394-0.623c-2.604,1.076-17.506,7.26-23.572,10.312c-6.66,3.357-8.326,7.047,3.091,7.881
		c11.417,0.84,33.542-11.904,33.542-11.904l-1.019-5.902C47.481,155.949,45.93,156.029,44.336,156.029z"/>
	<path fill="#12304D" d="M53.475,60.345l2.876-27.947c1.63,0.089,4.767,0.108,8.567-0.33l-0.312,28.277h31.298l-2.74-59.219
		L26.375,0.546l-5.27,59.799H53.475z"/>
</g>
</svg>
