<svg width="78px" height="117.5px" viewBox="0 0 78 117.5">
	<g class="fill-piel-b">
		<path d="M29.781,93.096l2.256,13.094c0,0-16.146,9.301-24.48,8.689c-8.335-0.611-7.118-3.304-2.258-5.753 c4.861-2.446,17.535-5.124,17.535-5.124l-0.172-10.906"/>
		<path d="M48.391,93.096l-2.283,12.487c0,0,16.324,8.871,24.752,8.287c8.427-0.581,7.198-3.15,2.283-5.485 c-4.916-2.334-17.73-4.887-17.73-4.887l0.174-10.402"/>
		<path d="M16.974,0.176l-1.747,52.856l7.532,46.208l8.161,0.465l-1.087-45.501l5.278-32.15 c1.188,0.065,1.68,0.087,2.562,0.087c1.455,0,8.139-0.109,8.139-0.282L47.676,56.6l-0.397,42.579h8.206l6.098-44.021l2.239-54.981 H16.974z"/>
	</g>
	<g class="fill-jean-b">
		<path d="M73.424,109.341c-4.191-1.99-14.101-5.507-16.928-6.499c-1.08,0.11-2.198,0.169-3.344,0.169 c-2.123,0-4.145-0.207-6.014-0.571l-0.75,4.1c0,0,16.328,8.871,24.753,8.287C79.568,114.244,78.338,111.675,73.424,109.341z"/>
		<path d="M70.314,115.354c-0.001,0-0.001,0-0.002,0c-8.647-0.001-23.533-8.033-24.162-8.375l-0.318-0.173 l0.906-4.954l0.496,0.097c2.965,0.578,6.163,0.709,9.211,0.396l0.111-0.012l0.105,0.037c2.92,1.024,12.773,4.523,16.977,6.519 c2.975,1.414,4.364,2.758,4.13,3.997c-0.26,1.371-2.354,2.146-6.593,2.439C70.896,115.345,70.61,115.354,70.314,115.354z M46.946,106.27c2.235,1.18,15.651,8.083,23.366,8.084c0.001,0,0.001,0,0.002,0c0.271,0,0.535-0.009,0.793-0.026 c5.179-0.357,5.639-1.419,5.679-1.628c0.097-0.511-0.782-1.579-3.577-2.907c-4.109-1.951-13.741-5.376-16.773-6.441 c-2.944,0.292-6.018,0.184-8.896-0.328L46.946,106.27z"/>
		<path d="M28.184,103.011c-1.891,0-3.702-0.166-5.396-0.457c-1.9,0.786-12.777,5.298-17.205,7.527 c-4.86,2.449-6.077,5.143,2.256,5.753c8.334,0.612,24.481-8.689,24.481-8.689l-0.743-4.308 C30.48,102.951,29.346,103.011,28.184,103.011z"/>
		<path d="M8.658,116.363c-0.294,0-0.58-0.011-0.857-0.03c-4.107-0.301-6.239-1.123-6.517-2.514 c-0.257-1.286,1.114-2.693,4.073-4.185c4.25-2.141,14.27-6.314,17.238-7.543l0.134-0.056l0.142,0.024 c2.836,0.487,5.84,0.572,8.653,0.279l0.465-0.049l0.882,5.112l-0.303,0.175C31.946,107.937,17.22,116.363,8.658,116.363z M22.846,103.07c-3.117,1.29-12.88,5.363-17.039,7.457c-2.787,1.404-3.656,2.521-3.542,3.097c0.062,0.31,0.649,1.348,5.61,1.711 c7.502,0.56,21.643-7.192,23.892-8.452l-0.604-3.504C28.436,103.623,25.57,103.525,22.846,103.07z"/>
		<path d="M34.854,43.398l0.426-20.521c1.189,0.065,1.68,0.087,2.562,0.087c1.455,0,8.139-0.109,8.139-0.282 l-3.002,20.716h22.844L63.99,1H17.143l-5.914,42.398H34.854z"/>
		<path d="M67.389,44.898H41.245l2.974-20.52c-1.379,0.066-3.397,0.086-6.377,0.086 c-0.414,0-0.748-0.005-1.095-0.016l-0.425,20.449H9.505L15.838-0.5h49.589L67.389,44.898z M44.712,41.898h19.544L62.554,2.5 H18.447l-5.495,39.398h20.433l0.428-20.604l1.549,0.086c1.211,0.066,1.656,0.084,2.48,0.084c1.75,0,7.081-0.107,7.774-0.223 c-0.33,0.055-0.89,0.373-1.077,1.027l2.926,0.631L44.712,41.898z"/>
	</g>
</svg>
