<svg width="78px" height="117.5px" viewBox="0 0 78 117.5">
	<g class="fill-piel-b">
		<path d="M29.229,92.92l2.257,13.094c0,0-16.146,9.301-24.48,8.689c-8.336-0.611-7.119-3.303-2.258-5.752 c4.86-2.447,17.535-5.125,17.535-5.125L22.111,92.92"/>
		<path d="M47.839,92.92l-2.283,12.488c0,0,16.324,8.871,24.752,8.287c8.426-0.582,7.197-3.15,2.283-5.486 c-4.916-2.334-17.73-4.887-17.73-4.887l0.174-10.402"/>
	</g>
	<g class="fill-jean-b">
		<path d="M16.421,0l-1.746,52.857l6.431,46.147h13.453l-4.433-44.708l4.433-32.418 c1.188,0.065,1.681,0.087,2.562,0.087c1.455,0,8.139-0.109,8.139-0.282l1.863,34.741l-1.863,42.581h11.762l4.008-44.022L63.269,0 H16.421z"/>
		<path d="M72.872,109.166c-4.191-1.99-14.102-5.508-16.928-6.5c-1.08,0.111-2.199,0.17-3.344,0.17 c-2.123,0-4.145-0.207-6.014-0.572l-0.75,4.1c0,0,16.328,8.871,24.752,8.287C79.017,114.068,77.786,111.5,72.872,109.166z"/>
		<path d="M69.763,115.178c-0.002,0-0.002,0-0.002,0c-8.648,0-23.533-8.033-24.162-8.375l-0.318-0.172l0.904-4.955 l0.498,0.098c2.963,0.576,6.162,0.707,9.211,0.396l0.111-0.012l0.105,0.037c2.922,1.025,12.785,4.527,16.977,6.518 c2.975,1.414,4.365,2.758,4.131,3.998c-0.26,1.371-2.355,2.146-6.594,2.439C70.345,115.17,70.058,115.178,69.763,115.178z M46.396,106.094c2.234,1.18,15.65,8.084,23.365,8.084c0,0,0,0,0.002,0c0.271,0,0.535-0.008,0.793-0.025 c5.18-0.357,5.639-1.42,5.68-1.629c0.096-0.512-0.783-1.578-3.578-2.906c-4.098-1.947-13.738-5.375-16.773-6.441 c-2.945,0.289-6.02,0.182-8.896-0.328L46.396,106.094z"/>
		<path d="M27.631,102.836c-1.891,0-3.702-0.166-5.396-0.457c-1.901,0.785-12.777,5.297-17.205,7.527 c-4.861,2.449-6.078,5.143,2.256,5.752c8.334,0.613,24.48-8.689,24.48-8.689l-0.742-4.307 C29.928,102.775,28.793,102.836,27.631,102.836z"/>
		<path d="M8.106,116.188c-0.293,0-0.578-0.01-0.856-0.029c-4.108-0.303-6.24-1.123-6.518-2.514 c-0.256-1.287,1.114-2.693,4.074-4.186c4.389-2.209,15.13-6.67,17.238-7.543l0.134-0.055l0.143,0.023 c2.833,0.488,5.836,0.572,8.652,0.279l0.465-0.049l0.881,5.113l-0.302,0.174C31.394,107.762,16.668,116.188,8.106,116.188z M22.294,102.895c-2.387,0.988-12.767,5.307-17.039,7.457c-2.787,1.404-3.657,2.521-3.543,3.098 c0.062,0.309,0.649,1.348,5.61,1.711c7.518,0.549,21.643-7.193,23.892-8.453l-0.604-3.504 C27.882,103.449,25.017,103.35,22.294,102.895z"/>
	</g>
</svg>
