<svg version="1.1" xmlns="http://www.w3.org/2000/svg" xmlns:xlink="http://www.w3.org/1999/xlink" x="0px" y="0px" width="124.5px"
	 height="206.968px" viewBox="0 0 124.5 206.968" enable-background="new 0 0 124.5 206.968" xml:space="preserve">
<g id="piernas1" display="none">
	<g display="inline">
		<path fill="#EEC0B5" d="M44.573,162.168l2.712,20.558c0,0-19.407,14.604-29.422,13.644c-10.016-0.959-8.555-5.186-2.712-9.031
			c5.843-3.842,21.074-8.047,21.074-8.047l-0.207-17.123"/>
		<path fill="#EEC0B5" d="M74.054,162.168l-2.713,20.558c0,0,19.408,14.604,29.423,13.644c10.018-0.959,8.555-5.186,2.713-9.031
			c-5.842-3.842-21.074-8.047-21.074-8.047l0.209-17.123"/>
		<path fill="#EEC0B5" d="M25.532,3.589l10.693,175.702l11.06,3.435l2.301-151.455c2.033,0.113,18.861,0.242,18.861-0.056
			c0,0,9.158,48.644,9.313,65.188c0.203,21.705-6.924,86.323-6.924,86.323l11.566-3.435c0,0,11.914-61.808,13.983-82.543
			c2.317-23.216,3.155-93.159,3.155-93.159H25.532z"/>
		<path fill="#12304D" stroke="#12304D" stroke-miterlimit="10" d="M34.766,186.111c-7.94,2.587-15.399,3.114-19.912,1.767
			c-0.179,0.104-0.372,0.215-0.538,0.312c-6.116,3.642-7.647,7.651,2.841,8.555c10.489,0.911,30.812-12.924,30.812-12.924
			l-0.561-3.846C44.125,182.303,39.758,184.483,34.766,186.111z"/>
		<path fill="#12304D" stroke="#12304D" stroke-miterlimit="10" d="M84.237,185.683c7.939,2.586,15.398,3.114,19.911,1.767
			c0.179,0.104,0.372,0.214,0.538,0.312c6.115,3.641,7.646,7.651-2.842,8.555c-10.488,0.911-30.813-12.924-30.813-12.924
			l0.561-3.846C74.876,181.874,79.245,184.054,84.237,185.683z"/>
		<path fill="#214185" d="M104.007,13.367c0-5.845-3.771-10.55-5.19-14.368H24.961c-2.62,5.378-5.964,12.358-5.964,21.314
			c0,0.179-3.853,53.121-3.853,53.121l92.917-1.09C108.062,72.345,104.007,13.546,104.007,13.367z"/>
	</g>
</g>
<g id="Layer_3" display="none">
	<g display="inline">
		<path fill="#EDC0B4" d="M47.085,145.719l3.527,20.479c0,0-25.252,14.542-38.284,13.588c-13.037-0.955-11.133-5.168-3.532-8.997
			c7.602-3.827,27.424-8.013,27.424-8.013l-0.27-17.057"/>
		<path fill="#EDC0B4" d="M76.188,145.719l-3.572,19.527c0,0,25.529,13.874,38.71,12.963c13.178-0.911,11.256-4.927,3.571-8.58
			c-7.689-3.65-27.731-7.641-27.731-7.641l0.272-16.269"/>
		<path fill="#EDC0B4" d="M27.053,0.402l-2.73,82.659l11.777,72.27l12.764,0.723l-1.701-71.157l8.256-50.284
			c1.86,0.104,2.628,0.136,4.008,0.136c2.275,0,12.729-0.169,12.729-0.44l2.913,54.33l-0.621,66.593h12.834l9.534-68.849
			l3.503-85.982H27.053z"/>
		<path fill="#EDC0B4" d="M47.085,145.719l3.527,20.479c0,0-25.252,14.542-38.284,13.588c-13.037-0.955-11.133-5.168-3.532-8.997
			c7.602-3.827,27.424-8.013,27.424-8.013l-0.27-17.057"/>
		<path fill="#EDC0B4" d="M76.188,145.719l-3.572,19.527c0,0,25.529,13.874,38.71,12.963c13.178-0.911,11.256-4.927,3.571-8.58
			c-7.689-3.65-27.731-7.641-27.731-7.641l0.272-16.269"/>
		<g>
			<path fill="#231F20" d="M44.647,160.486c-2.956,0-5.79-0.259-8.44-0.714c-2.972,1.23-19.981,8.287-26.905,11.773
				c-7.602,3.831-9.504,8.042,3.528,8.995c13.032,0.958,38.286-13.588,38.286-13.588l-1.163-6.738
				C48.237,160.394,46.466,160.486,44.647,160.486z"/>
			<path fill="#231F20" d="M14.112,181.513c-0.462,0-0.913-0.017-1.35-0.047c-6.589-0.482-9.871-1.768-10.325-4.046
				c-0.415-2.081-1.248-4.336,3.445-6.702c6.646-3.347,25.325-9.88,29.97-11.802l0.248-0.103l0.264,0.045
				c4.422,0.761,9.124,0.888,13.493,0.435l0.862-0.091l1.421,8.23l-0.562,0.324C50.603,168.318,27.54,181.513,14.112,181.513z
				 M36.315,160.73c-4.915,2.036-20.121,8.383-26.597,11.643c-4.291,2.163-5.624,3.875-5.462,4.684
				c0.065,0.326,0.788,1.983,8.641,2.558c11.574,0.856,33.413-11.038,37.193-13.149l-0.905-5.246
				C44.978,161.582,40.532,161.43,36.315,160.73z"/>
		</g>
		<g>
			<path fill="#231F20" d="M79.108,160.486c2.955,0,5.789-0.259,8.439-0.714c2.973,1.23,19.982,8.287,26.906,11.773
				c7.602,3.831,9.504,8.042-3.528,8.995c-13.032,0.958-38.286-13.588-38.286-13.588l1.163-6.738
				C75.518,160.394,77.289,160.486,79.108,160.486z"/>
			<path fill="#231F20" d="M72.177,167.757l-0.562-0.324l1.421-8.23l0.862,0.091c4.368,0.453,9.071,0.326,13.493-0.435l0.264-0.045
				l0.248,0.103c4.645,1.922,23.324,8.455,29.97,11.802c4.692,2.366,3.86,4.621,3.445,6.702c-0.454,2.278-3.735,3.564-10.325,4.046
				c-0.438,0.031-0.889,0.047-1.35,0.047C96.216,181.513,73.153,168.318,72.177,167.757z M74.57,161.22l-0.905,5.246
				c3.779,2.112,25.619,14.006,37.193,13.149c7.853-0.574,8.575-2.231,8.641-2.558c0.161-0.809-1.172-2.521-5.463-4.684
				c-6.477-3.26-21.682-9.606-26.597-11.643C83.223,161.43,78.777,161.582,74.57,161.22z"/>
		</g>
		<path fill="#231F20" d="M23.942-0.705l-2.351,85.442l10.567,71.901l20.823-0.717l-2.018-69.099l6.555-47.893
			c0.552,0.023,1.072,0.035,1.722,0.035c4.696,0,7.958-0.015,10.22-0.131l2.754,51.128l-0.843,65.027l20.588,1.089l7.189-67.893
			l1.391-88.739L23.942-0.705z"/>
	</g>
</g>
<g id="Layer_5">
	<g>
		<path fill="#EEC0B5" d="M45.64,162.749l2.758,20.906c0,0-19.734,14.851-29.92,13.874c-10.186-0.975-8.699-5.273-2.758-9.184
			c5.941-3.906,21.431-8.183,21.431-8.183l-0.21-17.413"/>
		<path fill="#EEC0B5" d="M75.619,162.749l-2.758,20.906c0,0,19.738,14.851,29.922,13.874c10.186-0.975,8.7-5.273,2.758-9.184
			c-5.939-3.906-21.43-8.183-21.43-8.183l0.211-17.413"/>
		<path fill="#214185" d="M22.207,1.487c0,0-3.866,16.582-4.385,24.808c-0.933,14.795,2.647,36.064,6.037,62.477
			c5.729,44.642,13.292,91.39,13.292,91.39l11.247,3.493l3.818-91.083c0,0,4.785-59.893,10.571-59.816
			c5.201,0.068,17.059,62.021,17.059,62.021l-7.457,84.417l9.266,0.086c0,0,19.914-44.272,23.258-86.054
			c2.066-25.842,2.673-46.897,2.584-60.729c-0.115-18.146-5.707-31.01-5.707-31.01H22.207z"/>
		<path fill="#801A24" d="M35.985,171.63l0.341,8.532c0,0-15.493,4.276-21.433,8.183c-5.94,3.911-7.428,8.209,2.758,9.184
			c10.188,0.977,29.92-13.874,29.92-13.874l0.949-12.024H35.985z"/>
		<path fill="#801A24" d="M104.718,188.344c-5.943-3.906-21.433-8.183-21.433-8.183l2.055-8.683H71.413l0.622,12.176
			c0,0,19.737,14.851,29.923,13.874C112.142,196.553,110.658,192.255,104.718,188.344z"/>
		<path fill="#10695D" d="M104.025,2.537c0,1.952-1.583,3.537-3.537,3.537H23.854c-1.955,0-3.537-1.585-3.537-3.537l0,0
			C20.317,0.584,21.899-1,23.854-1h76.634C102.442-1,104.025,0.584,104.025,2.537L104.025,2.537z"/>
	</g>
</g>
<g id="cuerpo1" display="none">
	<g display="inline">
		<g>
			<path fill="#404041" d="M107.605-2.163c0,1.186-1.017,2.152-2.267,2.152H17.603c-1.25,0,0.199,0.309-2.266-2.152L8.259-117.516
				c0-1.175,0.924-1.505,2.18-1.505l99.851,0.2c1.256,0,2.266,0.13,2.266,1.305L107.605-2.163z"/>
		</g>
		<polyline fill="#404041" points="12.074,-89.102 -4.745,-26.228 -49.604,5.009 -60.815,-15.411 -29.179,-40.243 -20.967,-90.706
					"/>
		<polyline fill="#404041" points="107.217,-86.303 124.035,-23.418 168.891,7.818 180.105,-12.612 148.465,-37.444
			141.258,-87.907 		"/>
	</g>
</g>
<g id="Layer_6" display="none">
	<g display="inline">
		<path fill="#00415C" d="M119.504-12.168c0,1.153-13.171,12.335-14.398,12.335H19.089c-1.224,0-13.334-11.874-15.75-14.288
			l6.589-105.715c0-1.153,0.995-1.864,2.223-1.864h97.806c1.23,0,2.224,0.711,2.224,1.864L119.504-12.168z"/>
		<polyline fill="#00415C" points="13.671,-87.178 -2.821,-25.534 -46.796,5.094 -57.792,-14.933 -30.827,-41.778 -14.232,-103.832
					"/>
		<polyline fill="#00415C" points="112.021,-85.706 123.437,-22.785 167.41,7.841 178.406,-12.184 150.091,-43.08 140.32,-86.001
			"/>
	</g>
</g>
<g id="Layer_4" display="none">
	<g display="inline">
		<path fill="#EEC0B5" d="M157.036,0.097c1.002,0.706,3.504,1.142,4.963-0.925l1.762-2.493c1.457-2.068-1.541-4.053-2.545-4.761
			l-37.686-31.2c-1.002-0.709-3.525,1.983-4.985,4.049l-1.759,2.497c-1.457,2.064-1.922,4.451-0.918,5.158L157.036,0.097z"/>
	</g>
</g>
<g id="Layer_12" display="none">
	<g display="inline">
		<path fill="#570800" d="M101.416-1.405c0,1.824-1.521,3.302-3.399,3.302H24.363c-1.878,0-3.4-1.478-3.4-3.302l0,0
			c0-1.824,1.521-3.302,3.4-3.302h73.654C99.895-4.708,101.416-3.229,101.416-1.405L101.416-1.405z"/>
	</g>
</g>
<g id="Layer_7" display="none">
</g>
<g id="Layer_10" display="none">
</g>
<g id="Layer_11" display="none">
</g>
<g id="Layer_9" display="none">
</g>
<g id="Layer_8" display="none">
</g>
</svg>
