<svg x="0px" y="0px" width="124.5px" height="206.968px" viewBox="0 0 124.5 206.968">
	<path fill="#EEC0B5" stroke="#EEC0B5" stroke-width="2.8347" stroke-miterlimit="10" d="M29.437,8.786l9.531,168.142l10.569,3.282l6.524-144.211c1.942,0.108,13.698-0.287,13.698-0.571c0,0,8.752,46.484,8.9,62.291c0.195,20.744-6.616,82.492-6.616,82.492l11.052-3.282c0,0,11.385-59.065,13.361-78.879c2.216-22.185-1.276-88.963-1.276-88.963L29.437,8.786z"/>
	<g fill="#231F20">
		<path d="M35.631,171.062l0.32,8.017c0,0-8.709,6.272-14.291,9.945c-5.582,3.673-6.979,7.713,2.592,8.628c9.573,0.918,28.115-13.037,28.115-13.037l0.892-11.299L35.631,171.062z"/>
		<path d="M99.115,188.449c-5.585-3.671-13.935-8.657-13.935-8.657l1.932-8.158l-19.292,0.966l0.585,11.441c0,0,18.545,13.956,28.116,13.038C106.091,196.163,104.696,192.124,99.115,188.449z"/>
	</g>
	<path fill="#D7E158" d="M101.613,22.468c0-11.324-2.969-18.243-8.18-22.468H31.319C24.123,5.359,20.38,14.479,20.38,29.108c0,0.171-3.681,50.762-3.681,50.762l88.79-1.042C105.489,78.828,101.613,22.639,101.613,22.468z"/>
</svg>
