<svg x="0px" y="0px" width="124.5px" height="206.968px" viewBox="0 0 124.5 206.968">
	<g class="fill-piel-w">
		<path d="M47.737,162.21l3.542,22.896c0,0-25.363,16.258-38.453,15.19c-13.095-1.066-11.183-5.776-3.547-10.059c7.635-4.278,27.544-8.958,27.544-8.958l-0.271-19.07"/>
		<path d="M76.969,162.21l-3.587,21.831c0,0,25.641,15.513,38.879,14.494c13.237-1.019,11.307-5.508,3.588-9.592c-7.722-4.081-27.852-8.543-27.852-8.543l0.273-18.189"/>
		<path d="M27.617-0.26l-2.741,92.417l11.828,80.8l12.819,0.809L47.815,94.21l8.292-56.218c1.868,0.115,2.64,0.151,4.025,0.151c2.285,0,12.786-0.188,12.786-0.492l2.925,60.742l-0.624,74.455h12.891l9.576-76.976l3.52-96.132H27.617z"/>
	</g>
	<g fill="#12304D">
		<path d="M116.289,190.616c-6.583-3.481-22.147-9.63-26.59-11.364c-1.695,0.194-3.452,0.293-5.252,0.293c-3.334,0-6.509-0.362-9.447-0.996l-1.176,7.164c0,0,25.646,15.512,38.881,14.493C125.943,199.187,124.01,194.693,116.289,190.616z"/>
		<path d="M111.404,201.696c-0.002,0-0.004,0-0.004,0c-13.62,0-37.031-14.267-38.022-14.87l-0.595-0.456l1.469-8.996l0.927,0.179c4.648,1.007,9.624,1.215,14.427,0.676l0.206-0.035l0.197,0.08c4.594,1.792,20.095,7.922,26.683,11.401c4.742,2.508,6.952,4.92,6.57,7.17c-0.424,2.479-3.757,4.08-10.492,4.6C112.324,201.48,111.872,201.696,111.404,201.696z M74.866,185.708c3.772,2.215,24.558,14.617,36.534,14.617c0,0,0.002,0,0.004,0c0.425,0,0.836-0.568,1.233-0.605c8.199-0.626,8.752-2.776,8.787-2.99c0.115-0.672-0.921-2.604-5.535-5.042c-6.413-3.388-21.506-9.433-26.303-11.308c-4.601,0.502-9.351,0.565-13.836-0.31L74.866,185.708z"/>
		<path d="M45.227,179.545c-2.969,0-5.815-0.29-8.477-0.798c-2.986,1.375-20.07,9.265-27.024,13.163c-7.635,4.283-9.545,8.991,3.543,10.055c13.089,1.072,38.455-15.19,38.455-15.19l-1.168-7.534C48.833,179.442,47.053,179.545,45.227,179.545z"/>
		<path d="M14.555,203.055c-0.464,0-0.917-0.014-1.354-0.052c-6.621-0.535-9.92-1.979-10.375-4.525c-0.417-2.333,1.761-4.855,6.478-7.495c6.91-3.875,23.777-11.676,27.09-13.194l0.249-0.117l0.265,0.05c4.426,0.848,9.1,0.998,13.552,0.491l0.867-0.106l1.426,9.206l-0.566,0.36C51.211,188.301,28.045,203.055,14.555,203.055zM36.857,179.82c-3.815,1.766-20.019,9.264-26.714,13.017c-4.306,2.417-5.645,4.329-5.483,5.234c0.064,0.364,0.79,2.216,8.674,2.857c11.632,0.958,33.555-12.338,37.357-14.699l-0.908-5.861C45.511,180.778,41.088,180.604,36.857,179.82z"/>
	</g>
	<g class="fill-piel-w">
		<path d="M47.737,162.21l3.542,22.896c0,0-25.363,16.258-38.453,15.19c-13.095-1.066-11.183-5.776-3.547-10.059c7.635-4.278,27.544-8.958,27.544-8.958l-0.271-19.07"/>
		<path d="M76.969,162.21l-3.587,21.831c0,0,25.641,15.513,38.879,14.494c13.237-1.019,11.307-5.508,3.588-9.592c-7.722-4.081-27.852-8.543-27.852-8.543l0.273-18.189"/>
	</g>
	<g fill="#12304D">
		<path stroke="#12304D" stroke-width="2.8347" stroke-miterlimit="10" d="M116.289,190.616c-6.583-3.481-22.147-9.63-26.59-11.364c-1.695,0.194-3.452,0.293-5.252,0.293c-3.334,0-6.509-0.362-9.447-0.996l-1.176,7.164c0,0,25.646,15.512,38.881,14.493C125.943,199.187,124.01,194.693,116.289,190.616z"/>
		<path stroke="#12304D" stroke-width="2.8347" stroke-miterlimit="10" d="M45.227,179.545c-2.969,0-5.815-0.29-8.477-0.798c-2.986,1.375-20.07,9.265-27.024,13.163c-7.635,4.283-9.545,8.991,3.543,10.055c13.089,1.072,38.455-15.19,38.455-15.19l-1.168-7.534C48.833,179.442,47.053,179.545,45.227,179.545z"/>
		<path d="M55.704,75.313l3.298-35.665c1.868,0.114,5.465,0.137,9.822-0.421l-0.358,36.086h35.882L101.207-0.26L24.636-1l-6.042,76.313H55.704z"/>
	</g>
</svg>
