<svg x="0px" y="0px" width="124.5px" height="206.968px" viewBox="0 0 124.5 206.968">
	<g fill="#EEC0B5">
		<path d="M45.64,162.749l2.758,20.906c0,0-19.734,14.851-29.92,13.874c-10.186-0.975-8.699-5.273-2.758-9.184c5.941-3.906,21.431-8.183,21.431-8.183l-0.21-17.413"/>
		<path d="M75.619,162.749l-2.758,20.906c0,0,19.738,14.851,29.922,13.874c10.186-0.975,8.7-5.273,2.758-9.184c-5.939-3.906-21.43-8.183-21.43-8.183l0.211-17.413"/>
	</g>
	<path fill="#214185" d="M22.207,1.487c0,0-3.866,16.582-4.385,24.808c-0.933,14.795,2.647,36.064,6.037,62.477c5.729,44.642,13.292,91.39,13.292,91.39l11.247,3.493l3.818-91.083c0,0,4.785-59.893,10.571-59.816c5.201,0.068,17.059,62.021,17.059,62.021l-7.457,84.417l9.266,0.086c0,0,19.914-44.272,23.258-86.054c2.066-25.842,2.673-46.897,2.584-60.729c-0.115-18.146-5.707-31.01-5.707-31.01H22.207z"/>
	<g fill="#801A24">
		<path d="M35.985,171.63l0.341,8.532c0,0-15.493,4.276-21.433,8.183c-5.94,3.911-7.428,8.209,2.758,9.184c10.188,0.977,29.92-13.874,29.92-13.874l0.949-12.024H35.985z"/>
		<path d="M104.718,188.344c-5.943-3.906-21.433-8.183-21.433-8.183l2.055-8.683H71.413l0.622,12.176c0,0,19.737,14.851,29.923,13.874C112.142,196.553,110.658,192.255,104.718,188.344z"/>
	</g>
	<path fill="#10695D" d="M104.025,2.537c0,1.952-1.583,3.537-3.537,3.537H23.854c-1.955,0-3.537-1.585-3.537-3.537l0,0C20.317,0.584,21.899-1,23.854-1h76.634C102.442-1,104.025,0.584,104.025,2.537L104.025,2.537z"/>
</svg>
