<svg x="0px" y="0px" width="124.5px" height="206.968px" viewBox="0 0 124.5 206.968">
	<g fill="#EEC0B5">
		<path d="M47.285,182.726c0,0-19.407,14.604-29.422,13.644c-10.016-0.959-8.555-5.186-2.712-9.031c5.843-3.842,21.074-8.047,21.074-8.047"/>
		<path d="M71.341,182.726c0,0,19.408,14.604,29.423,13.644c10.018-0.959,8.555-5.186,2.713-9.031c-5.842-3.842-21.074-8.047-21.074-8.047"/>
		<path d="M25.532,3.589l10.693,175.702l11.06,3.435l2.301-151.455c2.033,0.113,18.861,0.242,18.861-0.056c0,0,9.158,48.644,9.313,65.188c0.203,21.705-6.924,86.323-6.924,86.323l11.566-3.435c0,0,11.914-61.808,13.983-82.543c2.317-23.216,3.155-93.159,3.155-93.159H25.532z"/>
	</g>
	<g fill="#12304D" stroke="#12304D">
		<path stroke-miterlimit="10" d="M34.766,186.111c-7.94,2.587-15.399,3.114-19.912,1.767c-0.179,0.104-0.372,0.215-0.538,0.312c-6.116,3.642-7.647,7.651,2.841,8.555c10.489,0.911,30.812-12.924,30.812-12.924l-0.561-3.846C44.125,182.303,39.758,184.483,34.766,186.111z"/>
		<path stroke-miterlimit="10" d="M84.237,185.683c7.939,2.586,15.398,3.114,19.911,1.767c0.179,0.104,0.372,0.214,0.538,0.312c6.115,3.641,7.646,7.651-2.842,8.555c-10.488,0.911-30.813-12.924-30.813-12.924l0.561-3.846C74.876,181.874,79.245,184.054,84.237,185.683z"/>
	</g>
	<path fill="#214185" d="M104.007,13.367c0-5.845-3.771-10.55-5.19-14.368H24.961c-2.62,5.378-5.964,12.358-5.964,21.314c0,0.179-3.853,53.121-3.853,53.121l92.917-1.09C108.062,72.345,104.007,13.546,104.007,13.367z"/>
</svg>
