<svg  x="0px" y="0px" width="124.5px"
	 height="206.968px" viewBox="0 0 124.5 206.968" enable-background="new 0 0 124.5 206.968" xml:space="preserve">
<g id="piernas1">
	<g>
		<path fill="#EEC0B5" d="M47.285,182.726c0,0-19.407,14.604-29.422,13.644c-10.016-0.959-8.555-5.186-2.712-9.031
			c5.843-3.842,21.074-8.047,21.074-8.047"/>
		<path fill="#EEC0B5" d="M71.341,182.726c0,0,19.408,14.604,29.423,13.644c10.018-0.959,8.555-5.186,2.713-9.031
			c-5.842-3.842-21.074-8.047-21.074-8.047"/>
		<path fill="#EEC0B5" d="M25.532,3.589l10.693,175.702l11.06,3.435l2.301-151.455c2.033,0.113,18.861,0.242,18.861-0.056
			c0,0,9.158,48.644,9.313,65.188c0.203,21.705-6.924,86.323-6.924,86.323l11.566-3.435c0,0,11.914-61.808,13.983-82.543
			c2.317-23.216,3.155-93.159,3.155-93.159H25.532z"/>
		<path fill="#12304D" stroke="#12304D" stroke-miterlimit="10" d="M34.766,186.111c-7.94,2.587-15.399,3.114-19.912,1.767
			c-0.179,0.104-0.372,0.215-0.538,0.312c-6.116,3.642-7.647,7.651,2.841,8.555c10.489,0.911,30.812-12.924,30.812-12.924
			l-0.561-3.846C44.125,182.303,39.758,184.483,34.766,186.111z"/>
		<path fill="#12304D" stroke="#12304D" stroke-miterlimit="10" d="M84.237,185.683c7.939,2.586,15.398,3.114,19.911,1.767
			c0.179,0.104,0.372,0.214,0.538,0.312c6.115,3.641,7.646,7.651-2.842,8.555c-10.488,0.911-30.813-12.924-30.813-12.924
			l0.561-3.846C74.876,181.874,79.245,184.054,84.237,185.683z"/>
		<path fill="#214185" d="M104.007,13.367c0-5.845-3.771-10.55-5.19-14.368H24.961c-2.62,5.378-5.964,12.358-5.964,21.314
			c0,0.179-3.853,53.121-3.853,53.121l92.917-1.09C108.062,72.345,104.007,13.546,104.007,13.367z"/>
	</g>
</g>
<g id="Layer_3" display="none">
	<g display="inline">
		<path fill="#EDC0B4" d="M47.085,163.397l3.527,22.951c0,0-25.252,16.298-38.284,15.229c-13.037-1.07-11.133-5.792-3.532-10.083
			c7.602-4.289,27.424-8.98,27.424-8.98l-0.27-19.116"/>
		<path fill="#EDC0B4" d="M76.188,163.397l-3.572,21.885c0,0,25.529,15.549,38.71,14.528c13.178-1.021,11.256-5.521,3.571-9.616
			c-7.689-4.091-27.731-8.564-27.731-8.564l0.272-18.233"/>
		<path fill="#EDC0B4" d="M27.053,0.536l-2.73,92.639L36.1,174.17l12.764,0.811l-1.701-79.748l8.256-56.355
			c1.86,0.116,2.628,0.153,4.008,0.153c2.275,0,12.729-0.189,12.729-0.493l2.913,60.889l-0.621,74.633h12.834l9.534-77.161
			l3.503-96.363H27.053z"/>
		<path fill="#EDC0B4" d="M47.085,163.397l3.527,22.951c0,0-25.252,16.298-38.284,15.229c-13.037-1.07-11.133-5.792-3.532-10.083
			c7.602-4.289,27.424-8.98,27.424-8.98l-0.27-19.116"/>
		<path fill="#EDC0B4" d="M76.188,163.397l-3.572,21.885c0,0,25.529,15.549,38.71,14.528c13.178-1.021,11.256-5.521,3.571-9.616
			c-7.689-4.091-27.731-8.564-27.731-8.564l0.272-18.233"/>
		<g>
			<path fill="#231F20" d="M44.647,179.948c-2.956,0-5.79-0.29-8.44-0.8c-2.972,1.378-19.981,9.287-26.905,13.195
				c-7.602,4.294-9.504,9.013,3.528,10.081c13.032,1.074,38.286-15.228,38.286-15.228l-1.163-7.552
				C48.237,179.844,46.466,179.948,44.647,179.948z"/>
			<path fill="#231F20" d="M14.112,203.513c-0.462,0-0.913-0.019-1.35-0.053c-6.589-0.54-9.871-1.981-10.325-4.534
				c-0.415-2.333-1.248-4.86,3.445-7.511c6.646-3.751,25.325-11.073,29.97-13.227l0.248-0.115l0.264,0.05
				c4.422,0.853,9.124,0.995,13.493,0.488l0.862-0.102l1.421,9.224l-0.562,0.363C50.603,188.725,27.54,203.513,14.112,203.513z
				 M36.315,180.221c-4.915,2.282-20.121,9.395-26.597,13.048c-4.291,2.424-5.624,4.343-5.462,5.25
				c0.065,0.366,0.788,2.223,8.641,2.867c11.574,0.959,33.413-12.371,37.193-14.737l-0.905-5.879
				C44.978,181.176,40.532,181.005,36.315,180.221z"/>
		</g>
		<g>
			<path fill="#231F20" d="M79.108,179.948c2.955,0,5.789-0.29,8.439-0.8c2.973,1.378,19.982,9.287,26.906,13.195
				c7.602,4.294,9.504,9.013-3.528,10.081c-13.032,1.074-38.286-15.228-38.286-15.228l1.163-7.552
				C75.518,179.844,77.289,179.948,79.108,179.948z"/>
			<path fill="#231F20" d="M72.177,188.096l-0.562-0.363l1.421-9.224l0.862,0.102c4.368,0.507,9.071,0.365,13.493-0.488l0.264-0.05
				l0.248,0.115c4.645,2.154,23.324,9.476,29.97,13.227c4.692,2.651,3.86,5.179,3.445,7.511c-0.454,2.553-3.735,3.994-10.325,4.534
				c-0.438,0.035-0.889,0.053-1.35,0.053C96.216,203.513,73.153,188.725,72.177,188.096z M74.57,180.77l-0.905,5.879
				c3.779,2.367,25.619,15.697,37.193,14.737c7.853-0.644,8.575-2.501,8.641-2.867c0.161-0.907-1.172-2.825-5.463-5.25
				c-6.477-3.653-21.682-10.766-26.597-13.048C83.223,181.005,78.777,181.176,74.57,180.77z"/>
		</g>
		<path fill="#231F20" d="M23.942-0.705l-2.351,95.758l10.567,80.582l20.823-0.804l-2.018-77.442l6.555-53.675
			c0.552,0.026,1.072,0.039,1.722,0.039c4.696,0,7.958-0.017,10.22-0.147l2.754,57.301l-0.843,72.878l20.588,1.22l7.189-76.089
			l1.391-99.453L23.942-0.705z"/>
	</g>
</g>
<g id="Layer_5" display="none">
	<g display="inline">
		<path fill="#EEC0B5" d="M45.64,162.749l2.758,20.906c0,0-19.734,14.851-29.92,13.874c-10.186-0.975-8.699-5.273-2.758-9.184
			c5.941-3.906,21.431-8.183,21.431-8.183l-0.21-17.413"/>
		<path fill="#EEC0B5" d="M75.619,162.749l-2.758,20.906c0,0,19.738,14.851,29.922,13.874c10.186-0.975,8.7-5.273,2.758-9.184
			c-5.939-3.906-21.43-8.183-21.43-8.183l0.211-17.413"/>
		<path fill="#214185" d="M22.207,1.487c0,0-3.866,16.582-4.385,24.808c-0.933,14.795,2.647,36.064,6.037,62.477
			c5.729,44.642,13.292,91.39,13.292,91.39l11.247,3.493l3.818-91.083c0,0,4.785-59.893,10.571-59.816
			c5.201,0.068,17.059,62.021,17.059,62.021l-7.457,84.417l9.266,0.086c0,0,19.914-44.272,23.258-86.054
			c2.066-25.842,2.673-46.897,2.584-60.729c-0.115-18.146-5.707-31.01-5.707-31.01H22.207z"/>
		<path fill="#801A24" d="M35.985,171.63l0.341,8.532c0,0-15.493,4.276-21.433,8.183c-5.94,3.911-7.428,8.209,2.758,9.184
			c10.188,0.977,29.92-13.874,29.92-13.874l0.949-12.024H35.985z"/>
		<path fill="#801A24" d="M104.718,188.344c-5.943-3.906-21.433-8.183-21.433-8.183l2.055-8.683H71.413l0.622,12.176
			c0,0,19.737,14.851,29.923,13.874C112.142,196.553,110.658,192.255,104.718,188.344z"/>
	</g>
</g>
<g id="cuerpo1" display="none">
	<g display="inline">
		<g>
			<path fill="#404041" d="M107.605-2.163c0,1.186-1.017,2.152-2.267,2.152H17.603c-1.25,0,0.199,0.309-2.266-2.152L8.259-117.516
				c0-1.175,0.924-1.505,2.18-1.505l99.851,0.2c1.256,0,2.266,0.13,2.266,1.305L107.605-2.163z"/>
		</g>
		<polyline fill="#404041" points="12.074,-89.102 -4.745,-26.228 -49.604,5.009 -60.815,-15.411 -29.179,-40.243 -20.967,-90.706
					"/>
		<polyline fill="#404041" points="107.217,-86.303 124.035,-23.418 168.891,7.818 180.105,-12.612 148.465,-37.444
			141.258,-87.907 		"/>
	</g>
</g>
<g id="Layer_6" display="none">
	<g display="inline">
		<path fill="#00415C" d="M119.504-12.168c0,1.153-13.171,12.335-14.398,12.335H19.089c-1.224,0-13.334-11.874-15.75-14.288
			l6.589-105.715c0-1.153,0.995-1.864,2.223-1.864h97.806c1.23,0,2.224,0.711,2.224,1.864L119.504-12.168z"/>
		<polyline fill="#00415C" points="13.671,-87.178 -2.821,-25.534 -46.796,5.094 -57.792,-14.933 -30.827,-41.778 -14.232,-103.832
					"/>
		<polyline fill="#00415C" points="112.021,-85.706 123.437,-22.785 167.41,7.841 178.406,-12.184 150.091,-43.08 140.32,-86.001
			"/>
	</g>
</g>
<g id="Layer_4" display="none">
	<g display="inline">
		<path fill="#EEC0B5" d="M157.036,0.097c1.002,0.706,3.504,1.142,4.963-0.925l1.762-2.493c1.457-2.068-1.541-4.053-2.545-4.761
			l-37.686-31.2c-1.002-0.709-3.525,1.983-4.985,4.049l-1.759,2.497c-1.457,2.064-1.922,4.451-0.918,5.158L157.036,0.097z"/>
	</g>
</g>
<g id="Layer_12" display="none">
	<g display="inline">
		<path fill="#570800" d="M101.416-1.405c0,1.824-1.521,3.302-3.399,3.302H24.363c-1.878,0-3.4-1.478-3.4-3.302l0,0
			c0-1.824,1.521-3.302,3.4-3.302h73.654C99.895-4.708,101.416-3.229,101.416-1.405L101.416-1.405z"/>
	</g>
</g>
<g id="Layer_7" display="none">
</g>
<g id="Layer_10" display="none">
</g>
<g id="Layer_11" display="none">
</g>
<g id="Layer_9" display="none">
</g>
<g id="Layer_8" display="none">
</g>
</svg>
