<svg x="0px" y="0px" width="124.5px" height="206.968px" viewBox="0 0 124.5 206.968">
	<g class="fill-piel-b">
		<path d="M47.085,163.397l3.527,22.951c0,0-25.252,16.298-38.284,15.229c-13.037-1.07-11.133-5.792-3.532-10.083c7.602-4.289,27.424-8.98,27.424-8.98l-0.27-19.116"/>
		<path d="M76.188,163.397l-3.572,21.885c0,0,25.529,15.549,38.71,14.528c13.178-1.021,11.256-5.521,3.571-9.616c-7.689-4.091-27.731-8.564-27.731-8.564l0.272-18.233"/>
		<path d="M27.053,0.536l-2.73,92.639L36.1,174.17l12.764,0.811l-1.701-79.748l8.256-56.355c1.86,0.116,2.628,0.153,4.008,0.153c2.275,0,12.729-0.189,12.729-0.493l2.913,60.889l-0.621,74.633h12.834l9.534-77.161l3.503-96.363H27.053z"/>
		<path d="M47.085,163.397l3.527,22.951c0,0-25.252,16.298-38.284,15.229c-13.037-1.07-11.133-5.792-3.532-10.083c7.602-4.289,27.424-8.98,27.424-8.98l-0.27-19.116"/>
		<path d="M76.188,163.397l-3.572,21.885c0,0,25.529,15.549,38.71,14.528c13.178-1.021,11.256-5.521,3.571-9.616c-7.689-4.091-27.731-8.564-27.731-8.564l0.272-18.233"/>
	</g>
	<g fill="#231F20">
		<path d="M44.647,179.948c-2.956,0-5.79-0.29-8.44-0.8c-2.972,1.378-19.981,9.287-26.905,13.195c-7.602,4.294-9.504,9.013,3.528,10.081c13.032,1.074,38.286-15.228,38.286-15.228l-1.163-7.552C48.237,179.844,46.466,179.948,44.647,179.948z"/>
		<path d="M14.112,203.513c-0.462,0-0.913-0.019-1.35-0.053c-6.589-0.54-9.871-1.981-10.325-4.534c-0.415-2.333-1.248-4.86,3.445-7.511c6.646-3.751,25.325-11.073,29.97-13.227l0.248-0.115l0.264,0.05c4.422,0.853,9.124,0.995,13.493,0.488l0.862-0.102l1.421,9.224l-0.562,0.363C50.603,188.725,27.54,203.513,14.112,203.513z M36.315,180.221c-4.915,2.282-20.121,9.395-26.597,13.048c-4.291,2.424-5.624,4.343-5.462,5.25c0.065,0.366,0.788,2.223,8.641,2.867c11.574,0.959,33.413-12.371,37.193-14.737l-0.905-5.879C44.978,181.176,40.532,181.005,36.315,180.221z"/>
		<path d="M79.108,179.948c2.955,0,5.789-0.29,8.439-0.8c2.973,1.378,19.982,9.287,26.906,13.195c7.602,4.294,9.504,9.013-3.528,10.081c-13.032,1.074-38.286-15.228-38.286-15.228l1.163-7.552C75.518,179.844,77.289,179.948,79.108,179.948z"/>
		<path d="M72.177,188.096l-0.562-0.363l1.421-9.224l0.862,0.102c4.368,0.507,9.071,0.365,13.493-0.488l0.264-0.05l0.248,0.115c4.645,2.154,23.324,9.476,29.97,13.227c4.692,2.651,3.86,5.179,3.445,7.511c-0.454,2.553-3.735,3.994-10.325,4.534c-0.438,0.035-0.889,0.053-1.35,0.053C96.216,203.513,73.153,188.725,72.177,188.096z M74.57,180.77l-0.905,5.879c3.779,2.367,25.619,15.697,37.193,14.737c7.853-0.644,8.575-2.501,8.641-2.867c0.161-0.907-1.172-2.825-5.463-5.25c-6.477-3.653-21.682-10.766-26.597-13.048C83.223,181.005,78.777,181.176,74.57,180.77z"/>
		<path d="M23.942-0.705l-2.351,95.758l10.567,80.582l20.823-0.804l-2.018-77.442l6.555-53.675c0.552,0.026,1.072,0.039,1.722,0.039c4.696,0,7.958-0.017,10.22-0.147l2.754,57.301l-0.843,72.878l20.588,1.22l7.189-76.089l1.391-99.453L23.942-0.705z"/>
	</g>
</svg>
