<svg class="center-block" version="1.1" x="0px" y="0px" width="50px" height="55px" viewBox="0 0 50 55" enable-background="new 0 0 50 55" xml:space="preserve">
	<polygon fill="#EDD8D3" points="25.729,27.953 27.518,51.694 33.27,52.96 32.139,28.955"/>
	<polygon fill="#EDD8D3" points="14.794,28.966 17.526,53.259 22.852,51.921 21.255,27.953"/>
	<path fill="#111415" d="M7.722,54.443c0.377,0,16.403,0,16.403,0l-1.32-5.814l-5.88,0.379l0.225,0.345c0,0-9.898-0.188-9.427,4.714"/>
	<path fill="#111415" d="M42.275,54.443c-0.377,0-16.403,0-16.403,0l1.32-5.814l5.881,0.379l-0.226,0.345 c0,0,9.898-0.188,9.428,4.714"/>
	<polyline fill="#303231" points="6.369,0.794 6.594,5.757 16.589,49.63 22.646,49.125 21.096,11.149 23.92,10.712 26.881,49.087 33.129,49.63 38.696,5.875 38.055,0.077"/>
	<path fill="#111415" d="M7.619,54.443c0.377,0,16.403,0,16.403,0l-1.32-12.821L15.82,42l1.226,7.352 c0,0-9.898-0.188-9.426,4.715"/>
	<path fill="#111415" d="M45.312,54.443c-0.376,0-16.401,0-16.401,0l-2.248-13.01l6.881,0.377l2.344,7.541 c0,0,9.896-0.188,9.426,4.713"/>
	<polygon fill="#EDD8D3" points="14.69,28.548 17.422,42.846 22.749,42.058 21.151,27.953"/>
	<polygon fill="#EDD8D3" points="25.625,27.953 27.415,42.092 33.167,42.846 32.036,28.548"/>
	<polygon fill="#1A3067" points="3.618,0 3.618,1.019 14.69,37.093 22.319,37.093 21.199,10.146 24.022,9.711 24.022,37.093 35.232,37.093 39.192,5.798 37.567,0"/>
</svg>
